<svg width="24" height="24" viewBox="0 0 24 24" fill="none" xmlns="http://www.w3.org/2000/svg">
<path d="M5 10C5 7.19108 5 5.78661 5.67412 4.77772C5.96596 4.34096 6.34096 3.96596 6.77772 3.67412C7.78661 3 9.19108 3 12 3V3C14.8089 3 16.2134 3 17.2223 3.67412C17.659 3.96596 18.034 4.34096 18.3259 4.77772C19 5.78661 19 7.19108 19 10V14C19 14.9288 19 15.3933 18.9487 15.7832C18.5942 18.4756 16.4756 20.5942 13.7832 20.9487C13.3933 21 12.9288 21 12 21V21C11.0712 21 10.6067 21 10.2168 20.9487C7.52444 20.5942 5.40579 18.4756 5.05133 15.7832C5 15.3933 5 14.9288 5 14V10Z" stroke="currentColor" stroke-width="1.5" stroke-linejoin="round"/>
<path d="M12 7.5V12" stroke="currentColor" stroke-width="1.5" stroke-linecap="round" stroke-linejoin="round"/>
</svg>
