<svg width="24" height="24" viewBox="0 0 24 24" fill="none" xmlns="http://www.w3.org/2000/svg">
<path d="M14.5 3.75H19.3334C20.3459 3.75 21.1667 4.57081 21.1667 5.58333V14.75C21.1667 15.7625 20.3459 16.5833 19.3334 16.5833H4.66671C3.65419 16.5833 2.83337 15.7625 2.83337 14.75V8.5" stroke="currentColor" stroke-width="1.5" stroke-linecap="round" stroke-linejoin="round"/>
<path d="M8.33337 20.25H15.6667" stroke="currentColor" stroke-width="1.5" stroke-linecap="round" stroke-linejoin="round"/>
<path d="M12 16.584V20.2507" stroke="currentColor" stroke-width="1.5" stroke-linecap="round" stroke-linejoin="round"/>
<path d="M5.31281 4.04271L7.42395 11.0798C7.57361 11.5787 8.29102 11.5449 8.39316 11.0342L8.96078 8.19612C8.98453 8.07736 9.07736 7.98453 9.19612 7.96078L12.4578 7.30844C12.9359 7.21281 13.0084 6.55928 12.5628 6.36124L5.9948 3.44213C5.60421 3.26854 5.18999 3.63331 5.31281 4.04271Z" stroke="currentColor" stroke-width="1.5"/>
</svg>
