<svg width="36" height="36" viewBox="0 0 36 36" fill="none" xmlns="http://www.w3.org/2000/svg">
    <path fill-rule="evenodd" clip-rule="evenodd" d="M29.3814 7.91124C28.6397 5.93358 26.3628 5.01631 24.4573 5.92761L13.0393 11.3884C11.9497 11.9095 10.717 12.0503 9.53799 11.7883L8.86786 11.6394C7.088 11.2439 5.39961 12.5982 5.39961 14.4215V17.0719C5.39961 18.8952 7.088 20.2496 8.86786 19.854L9.53799 19.7051C10.717 19.4431 11.9497 19.5839 13.0393 20.105L24.2893 25.4854C26.2427 26.4197 28.573 25.4304 29.2578 23.3762L30.2986 20.2538C31.4285 16.8639 31.3605 13.1889 30.1058 9.84316L29.3814 7.91124ZM23.6807 4.30376C26.5389 2.93682 29.9543 4.31272 31.0668 7.27922L31.7912 9.21113C33.1906 12.9429 33.2665 17.042 32.0062 20.823L30.9654 23.9454C29.9383 27.0268 26.4429 28.5107 23.5127 27.1093L12.2627 21.7288C11.5363 21.3815 10.7144 21.2876 9.92846 21.4623L9.25834 21.6112C6.35435 22.2565 3.59961 20.0467 3.59961 17.0719V14.4215C3.59961 11.4467 6.35435 9.23692 9.25834 9.88225L9.92846 10.0312C10.7144 10.2058 11.5363 10.112 12.2627 9.76458L23.6807 4.30376Z" fill="currentColor"/>
    <path fill-rule="evenodd" clip-rule="evenodd" d="M12.1496 11.2461V20.2461H10.3496V11.2461H12.1496Z" fill="currentColor"/>
    <path fill-rule="evenodd" clip-rule="evenodd" d="M11.3996 20.2461V28.2527C11.3996 29.8022 12.3912 31.1779 13.8612 31.6679L14.8666 32.0031L16.8497 30.681C17.233 30.4255 17.1973 29.8512 16.7852 29.6451L15.9692 29.2371C13.9057 28.2054 12.4944 26.2106 12.2083 23.9214L11.8566 21.1077L13.6427 20.8845L13.9944 23.6982C14.2059 25.3902 15.249 26.8646 16.7742 27.6272L17.5902 28.0352C19.2384 28.8593 19.3815 31.1565 17.8482 32.1787L15.6209 33.6636C15.3128 33.869 14.9271 33.9206 14.5758 33.8035L13.292 33.3756C11.0869 32.6406 9.59961 30.577 9.59961 28.2527V20.2461H11.3996Z" fill="currentColor"/>
    </svg>
    