<svg viewBox="0 0 36 36" xmlns="http://www.w3.org/2000/svg" width="36" height="36" fill="#100F0D"
    xmlns:v="https://vecta.io/nano">
    <path
        d="M25.898 18.253l-13.821 2.025a.75.75 0 0 0-.633.861c.051.38.38.658.759.658h.101l13.821-2.025a5.78 5.78 0 0 0 4.809-4.404l1.747-7.29c.051-.228 0-.456-.152-.658a.77.77 0 0 0-.607-.278H7.242C6.559 4.002 4.66 2.306 4.584 2.23c-.329-.253-.81-.228-1.063.076-.278.329-.253.81.051 1.063.025.025 1.822 1.645 2.278 4.607l2.202 14.555c.253 1.62 1.62 2.81 3.265 2.81h15.036c.43 0 .759-.329.759-.759s-.329-.759-.759-.759H11.318a1.75 1.75 0 0 1-1.747-1.519L7.495 8.634H30.96l-1.519 6.353c-.405 1.721-1.797 3.012-3.544 3.265zM9.647 30.656c0 1.822 1.468 3.291 3.291 3.291s3.291-1.468 3.291-3.291-1.468-3.291-3.291-3.291-3.291 1.468-3.291 3.291zm5.063 0a1.76 1.76 0 0 1-1.772 1.772 1.772 1.772 0 1 1 0-3.544 1.76 1.76 0 0 1 1.772 1.772zm9.112-3.29c-1.822 0-3.291 1.468-3.291 3.291s1.468 3.291 3.291 3.291 3.291-1.468 3.291-3.291-1.468-3.291-3.291-3.291zm0 5.062a1.772 1.772 0 1 1 0-3.544 1.772 1.772 0 0 1 0 3.544z" />
</svg>