<svg viewBox="0 0 36 36" xmlns="http://www.w3.org/2000/svg" width="36" height="36" fill="#100F0D"
    xmlns:v="https://vecta.io/nano">
    <path
        d="M33.23 21.553c.431 0 .761-.33.761-.761s-.33-.761-.761-.761h-2.538a1.53 1.53 0 0 0-1.523 1.523v9.138a1.53 1.53 0 0 0 1.523 1.523h2.538c.431 0 .761-.33.761-.761s-.33-.761-.761-.761h-2.538v-9.138h2.538zm-16.753-3.807h6.27c.558 0 1.092.102 1.599.305l2.767 1.092c.381.152.838-.025.99-.431.152-.381-.025-.838-.431-.99l-2.767-1.091c-.685-.279-1.421-.406-2.158-.406h-6.27a2.79 2.79 0 0 0-2.031.888c-.533.558-.787 1.32-.736 2.081.076 1.472 1.32 2.614 2.843 2.614h5.203c.685 0 1.244.533 1.269 1.218.025.508-.279.99-.736 1.193l-4.899 2.234-1.98-1.878-2.614-2.538c-.533-.508-1.218-.787-1.929-.787-.761 0-1.472.305-2.005.863-.33.33-.533.711-.66 1.117l-1.421-1.396c-.533-.508-1.218-.787-1.929-.787-.761 0-1.472.305-2.005.863a2.73 2.73 0 0 0 .025 3.934l6.676 6.473c1.117 1.091 2.614 1.701 4.163 1.701.33 0 .635-.025.965-.076l12.184-1.955c.406-.076.685-.457.635-.863-.076-.406-.457-.685-.863-.635l-12.184 1.955c-.254.025-.508.025-.736.025-1.168 0-2.284-.457-3.122-1.269l-6.676-6.447c-.508-.482-.508-1.294-.025-1.802.254-.254.558-.381.914-.381.33 0 .635.127.888.355l3.224 3.097 2.564 2.488c.99.939 2.411 1.193 3.655.635l7.792-3.554c1.041-.482 1.675-1.523 1.625-2.64-.051-1.498-1.294-2.665-2.792-2.665h-5.203c-.711 0-1.295-.508-1.345-1.193-.025-.355.102-.685.33-.965.254-.229.584-.381.939-.381zm-1.98 10.001a1.79 1.79 0 0 1-1.98-.33l-2.564-2.488c-.508-.482-.508-1.295-.025-1.802.254-.254.558-.381.914-.381.33 0 .634.127.888.355l2.64 2.538 1.548 1.472-1.421.635zM9.623 2.009c-1.396 0-2.538 1.142-2.538 2.538s1.142 2.538 2.538 2.538 2.538-1.142 2.538-2.538-1.142-2.538-2.538-2.538zm0 3.554a1.02 1.02 0 0 1-1.015-1.015 1.02 1.02 0 0 1 1.015-1.015 1.02 1.02 0 0 1 1.015 1.015 1.02 1.02 0 0 1-1.015 1.015zm5.077 5.584c0 1.396 1.142 2.538 2.538 2.538s2.538-1.142 2.538-2.538-1.142-2.538-2.538-2.538S14.7 9.751 14.7 11.147zm3.553 0a1.02 1.02 0 0 1-1.015 1.015 1.02 1.02 0 0 1-1.015-1.015 1.02 1.02 0 0 1 1.015-1.015 1.02 1.02 0 0 1 1.015 1.015zm-.938-8.682l-8.884 9.722a.76.76 0 0 0 .051 1.066c.152.127.33.203.508.203a.72.72 0 0 0 .558-.254l8.884-9.722a.76.76 0 0 0-.051-1.066.76.76 0 0 0-1.066.051z" />
</svg>