<svg width="36" height="36" viewBox="0 0 36 36" fill="none" xmlns="http://www.w3.org/2000/svg">
    <path fill-rule="evenodd" clip-rule="evenodd" d="M14.9993 5.34039C12.1523 5.34039 9.8443 7.64836 9.8443 10.4954C9.8443 13.3424 12.1523 15.6504 14.9993 15.6504C17.8463 15.6504 20.1543 13.3424 20.1543 10.4954C20.1543 7.64836 17.8463 5.34039 14.9993 5.34039ZM8.1543 10.4954C8.1543 6.715 11.2189 3.65039 14.9993 3.65039C18.7797 3.65039 21.8443 6.715 21.8443 10.4954C21.8443 14.2758 18.7797 17.3404 14.9993 17.3404C11.2189 17.3404 8.1543 14.2758 8.1543 10.4954Z" fill="currentColor"/>
    <path fill-rule="evenodd" clip-rule="evenodd" d="M3.6543 29.9954C3.6543 24.5581 8.06205 20.1504 13.4993 20.1504H16.4993C21.9365 20.1504 26.3443 24.5581 26.3443 29.9954V30.7454C26.3443 31.6263 25.6302 32.3404 24.7493 32.3404H5.2493C4.3684 32.3404 3.6543 31.6263 3.6543 30.7454V29.9954ZM13.4993 21.8404C8.99542 21.8404 5.3443 25.4915 5.3443 29.9954V30.6504H24.6543V29.9954C24.6543 25.4915 21.0032 21.8404 16.4993 21.8404H13.4993Z" fill="currentColor"/>
    <path fill-rule="evenodd" clip-rule="evenodd" d="M24.6543 15.7454C24.6543 15.2787 25.0326 14.9004 25.4993 14.9004H31.4993C31.966 14.9004 32.3443 15.2787 32.3443 15.7454C32.3443 16.2121 31.966 16.5904 31.4993 16.5904H25.4993C25.0326 16.5904 24.6543 16.2121 24.6543 15.7454Z" fill="currentColor"/>
    <path fill-rule="evenodd" clip-rule="evenodd" d="M28.5007 11.9004C28.9674 11.9004 29.3457 12.2787 29.3457 12.7454L29.3457 18.7454C29.3457 19.2121 28.9674 19.5904 28.5007 19.5904C28.034 19.5904 27.6557 19.2121 27.6557 18.7454L27.6557 12.7454C27.6557 12.2787 28.034 11.9004 28.5007 11.9004Z" fill="currentColor"/>
    </svg>
    