<svg width="36" height="36" viewBox="0 0 36 36" fill="none" xmlns="http://www.w3.org/2000/svg">
    <path fill-rule="evenodd" clip-rule="evenodd" d="M33.2001 17.9998C33.2001 26.3945 26.3948 33.1998 18 33.1998C9.60532 33.1998 2.80005 26.3945 2.80005 17.9998C2.80005 9.60508 9.60532 2.7998 18 2.7998C26.3948 2.7998 33.2001 9.60508 33.2001 17.9998ZM18 31.4998C25.4559 31.4998 31.5 25.4556 31.5 17.9998C31.5 10.544 25.4559 4.4998 18 4.4998C10.5442 4.4998 4.50005 10.544 4.50005 17.9998C4.50005 25.4556 10.5442 31.4998 18 31.4998Z" fill="currentColor"/>
    <path fill-rule="evenodd" clip-rule="evenodd" d="M11.6049 22.586C11.9123 22.2312 12.4491 22.1926 12.8039 22.5C13.3305 22.956 14.0879 23.3347 15.0001 23.598C15.9122 23.8613 16.9469 24 18.0001 24C19.0533 24 20.088 23.8613 21.0001 23.598C21.9122 23.3347 22.6696 22.956 23.1962 22.5C23.5511 22.1926 24.0879 22.2312 24.3952 22.586C24.7026 22.9409 24.664 23.4777 24.3091 23.785C23.5418 24.4496 22.5392 24.9231 21.4716 25.2313C20.3905 25.5434 19.1956 25.7 18.0001 25.7C16.8046 25.7 15.6097 25.5434 14.5286 25.2313C13.461 24.9231 12.4583 24.4496 11.691 23.785C11.3362 23.4777 11.2976 22.9409 11.6049 22.586Z" fill="currentColor"/>
    <path d="M15.5 15C15.5 16.1046 14.6046 17 13.5 17C12.3954 17 11.5 16.1046 11.5 15C11.5 13.8954 12.3954 13 13.5 13C14.6046 13 15.5 13.8954 15.5 15Z" fill="currentColor"/>
    <path d="M24.5 15C24.5 16.1046 23.6046 17 22.5 17C21.3954 17 20.5 16.1046 20.5 15C20.5 13.8954 21.3954 13 22.5 13C23.6046 13 24.5 13.8954 24.5 15Z" fill="currentColor"/>
    </svg>
    