<svg width="36" height="36" viewBox="0 0 36 36" fill="none" xmlns="http://www.w3.org/2000/svg">
    <path fill-rule="evenodd" clip-rule="evenodd" d="M13.7436 4.99266C7.78694 6.81275 3.45592 12.3538 3.45592 18.9042C3.45592 26.9366 9.96749 33.4482 17.9999 33.4482C26.0323 33.4482 32.5439 26.9366 32.5439 18.9042C32.5439 12.3538 28.2129 6.81275 22.2563 4.99266L22.7507 3.37451C29.3989 5.40591 34.2359 11.5891 34.2359 18.9042C34.2359 27.8711 26.9668 35.1402 17.9999 35.1402C9.03302 35.1402 1.76392 27.8711 1.76392 18.9042C1.76392 11.5891 6.60096 5.40591 13.2491 3.37451L13.7436 4.99266Z" fill="currentColor"/>
    <path fill-rule="evenodd" clip-rule="evenodd" d="M15.8682 8.93001C11.4013 9.91659 8.046 13.9466 8.046 18.7782C8.046 24.3543 12.5118 28.8579 18 28.8579C23.4882 28.8579 27.954 24.3543 27.954 18.7782C27.954 13.9466 24.5987 9.91659 20.1318 8.93001L20.4967 7.27783C25.735 8.43479 29.646 13.1489 29.646 18.7782C29.646 25.2703 24.4411 30.5499 18 30.5499C11.5589 30.5499 6.354 25.2703 6.354 18.7782C6.354 13.1489 10.265 8.43479 15.5033 7.27783L15.8682 8.93001Z" fill="currentColor"/>
    <path fill-rule="evenodd" clip-rule="evenodd" d="M17.9999 16.3302C16.5783 16.3302 15.4259 17.4826 15.4259 18.9042C15.4259 20.3258 16.5783 21.4782 17.9999 21.4782C19.4215 21.4782 20.5739 20.3258 20.5739 18.9042C20.5739 17.4826 19.4215 16.3302 17.9999 16.3302ZM13.7339 18.9042C13.7339 16.5481 15.6438 14.6382 17.9999 14.6382C20.3559 14.6382 22.2659 16.5481 22.2659 18.9042C22.2659 21.2602 20.3559 23.1702 17.9999 23.1702C15.6438 23.1702 13.7339 21.2602 13.7339 18.9042Z" fill="currentColor"/>
    <path fill-rule="evenodd" clip-rule="evenodd" d="M18.8461 10.354L18.8461 15.484L17.1541 15.484L17.1541 10.354L18.8461 10.354Z" fill="currentColor"/>
    <path fill-rule="evenodd" clip-rule="evenodd" d="M26.4164 11.6842L21.0164 17.0842L19.82 15.8878L25.22 10.4878L26.4164 11.6842Z" fill="currentColor"/>
    <path fill-rule="evenodd" clip-rule="evenodd" d="M28.8 19.7501H21.6V18.0581H28.8V19.7501Z" fill="currentColor"/>
    <path fill-rule="evenodd" clip-rule="evenodd" d="M25.2201 27.3204L19.8201 21.9204L21.0165 20.724L26.4165 26.124L25.2201 27.3204Z" fill="currentColor"/>
    <path fill-rule="evenodd" clip-rule="evenodd" d="M18.8461 22.5039L18.8461 29.7039L17.1541 29.7039L17.1541 22.5039L18.8461 22.5039Z" fill="currentColor"/>
    <path fill-rule="evenodd" clip-rule="evenodd" d="M16.1798 21.9205L10.7798 27.3205L9.5834 26.1241L14.9834 20.7241L16.1798 21.9205Z" fill="currentColor"/>
    <path fill-rule="evenodd" clip-rule="evenodd" d="M14.3999 19.7501L7.1999 19.7501L7.1999 18.0581L14.3999 18.0581L14.3999 19.7501Z" fill="currentColor"/>
    <path fill-rule="evenodd" clip-rule="evenodd" d="M14.9835 17.0836L9.58351 11.6836L10.7799 10.4872L16.1799 15.8872L14.9835 17.0836Z" fill="currentColor"/>
    <path fill-rule="evenodd" clip-rule="evenodd" d="M19.4197 10.5932C18.7473 11.6121 17.2524 11.6122 16.5801 10.5932L12.245 4.02319C11.4988 2.89226 12.3098 1.38537 13.6648 1.38537L22.335 1.38537C23.6899 1.38537 24.501 2.89226 23.7548 4.02319L19.4197 10.5932ZM18.0049 9.66482C18.0054 9.66418 18.0063 9.66308 18.0074 9.66138L22.3425 3.09133C22.3437 3.08957 22.3445 3.08818 22.345 3.08715C22.3447 3.08597 22.3441 3.08424 22.3429 3.08211C22.3418 3.07997 22.3407 3.0785 22.3399 3.07757C22.3387 3.07746 22.3371 3.07737 22.335 3.07737L13.6648 3.07737C13.6627 3.07737 13.661 3.07746 13.6599 3.07757C13.6591 3.0785 13.658 3.07997 13.6568 3.08211C13.6557 3.08424 13.6551 3.08597 13.6547 3.08715C13.6553 3.08818 13.6561 3.08957 13.6572 3.09133L17.9924 9.66138C17.9935 9.66308 17.9943 9.66418 17.9949 9.66482C17.9958 9.66507 17.9974 9.66542 17.9999 9.66542C18.0023 9.66542 18.004 9.66507 18.0049 9.66482Z" fill="currentColor"/>
    </svg>
    