<svg xmlns="http://www.w3.org/2000/svg" width="36" height="36" viewBox="0 0 36 36" fill="none"
    stroke="currentColor" stroke-width="1.7" xmlns:v="https://vecta.io/nano">
    <path
        d="M16.364 6.545l2.611 5.976c.88 2.015 2.489 3.623 4.503 4.503l5.976 2.611-5.976 2.611a8.73 8.73 0 0 0-4.503 4.503l-2.611 5.977-2.611-5.977c-.88-2.015-2.488-3.623-4.503-4.503l-5.976-2.611 5.976-2.611c2.015-.88 3.623-2.489 4.503-4.503l2.611-5.976zm11.454-3.272l.979 2.241a3.27 3.27 0 0 0 1.689 1.689l2.241.979-2.241.979a3.27 3.27 0 0 0-1.689 1.689l-.979 2.241-.979-2.241c-.33-.755-.933-1.359-1.689-1.689l-2.241-.979 2.241-.979c.755-.33 1.359-.933 1.689-1.689l.979-2.241z" />
</svg>