<svg viewBox="0 0 36 36" xmlns="http://www.w3.org/2000/svg" width="36" height="36" fill="none"
    xmlns:v="https://vecta.io/nano">
    <path
        d="M4.666 4.892l.384.754h0l-.384-.754zM3.092 6.466l.754.384h0l-.754-.384zm0 23.069l-.754.384h0l.754-.384zm1.573 1.573l.384-.754h0l-.384.754zm26.669 0l-.384-.754h0l.384.754zm1.573-1.573l.754.384h0l-.754-.384zm-.023-7.181l-.025-.846h0l.025.846zm-.421.012l-.025-.846h0l.025.846zm.444-15.9l.754-.384h0l-.754.384zm-1.573-1.573l.384-.754h0l-.384.754zM8.46 5.346h9.99V3.654H8.46v1.692zm-3.41.3c.246-.125.567-.209 1.115-.254.558-.046 1.274-.046 2.296-.046V3.654c-.994 0-1.791-.001-2.433.052-.653.053-1.221.166-1.745.433l.768 1.508zM3.846 6.85c.264-.518.685-.94 1.204-1.204l-.768-1.508c-.837.426-1.517 1.106-1.943 1.943l1.508.768zm-.3 3.41l.046-2.296c.045-.548.129-.869.254-1.115l-1.508-.768c-.267.524-.379 1.092-.433 1.745-.053.643-.052 1.439-.052 2.433h1.692zm0 2.825V10.26H1.854v2.825h1.692zm-.431-.431a.43.43 0 0 1 .431.431H1.854a1.26 1.26 0 0 0 1.261 1.261v-1.692zm.485 0h-.485v1.692H3.6v-1.692zM8.946 18c0-2.953-2.393-5.346-5.346-5.346v1.692c2.018 0 3.654 1.636 3.654 3.654h1.692zM3.6 23.346c2.953 0 5.346-2.393 5.346-5.346H7.254c0 2.018-1.636 3.654-3.654 3.654v1.692zm-.485 0H3.6v-1.692h-.485v1.692zm.431-.431a.43.43 0 0 1-.431.431v-1.692a1.26 1.26 0 0 0-1.261 1.261h1.692zm0 2.825v-2.825H1.854v2.825h1.692zm.3 3.41c-.125-.246-.209-.567-.254-1.115-.046-.558-.046-1.273-.046-2.296H1.854l.052 2.433c.053.653.166 1.221.433 1.745l1.508-.768zm1.204 1.203c-.518-.264-.94-.685-1.204-1.203l-1.508.768c.426.837 1.106 1.517 1.943 1.943l.768-1.508zm3.41.3c-1.022 0-1.738-.001-2.296-.046-.548-.045-.869-.129-1.115-.254l-.768 1.508c.524.267 1.092.379 1.745.433.643.053 1.439.052 2.433.052v-1.692zm9.99 0H8.46v1.692h9.99v-1.692zm1.296.396v-.45h-1.692v.45h1.692zm0-.45c0-.527.427-.954.954-.954v-1.692c-1.461 0-2.646 1.185-2.646 2.646h1.692zm.954-.954c.527 0 .954.427.954.954h1.692c0-1.461-1.185-2.646-2.646-2.646v1.692zm.954.954v.45h1.692v-.45h-1.692zm5.886.054h-4.59v1.692h4.59v-1.692zm3.41-.3c-.246.125-.567.209-1.115.254-.558.046-1.273.046-2.296.046v1.692l2.433-.052c.653-.053 1.221-.166 1.745-.433l-.768-1.508zm1.204-1.203c-.264.518-.685.939-1.204 1.203l.768 1.508c.837-.426 1.517-1.106 1.943-1.943l-1.508-.768zm.3-3.41l-.046 2.296c-.045.548-.129.869-.254 1.115l1.508.768c.267-.524.379-1.092.433-1.745.053-.643.052-1.439.052-2.433h-1.692zm0-2.983v2.983h1.692v-2.983h-1.692zm.455.442c-.249.007-.455-.193-.455-.442h1.692a1.25 1.25 0 0 0-1.286-1.249l.05 1.691zm-.421.012l.421-.012-.05-1.691-.421.012.05 1.691zm-5.435-5.278a5.28 5.28 0 0 0 5.435 5.278l-.05-1.691a3.59 3.59 0 0 1-3.693-3.586h-1.692zm5.28-5.28a5.28 5.28 0 0 0-5.28 5.28h1.692a3.59 3.59 0 0 1 3.588-3.588v-1.692zm.551 0h-.551v1.692h.551v-1.692zm-.431.431a.43.43 0 0 1 .431-.431v1.692a1.26 1.26 0 0 0 1.261-1.261h-1.692zm0-2.825v2.825h1.692V10.26h-1.692zm-.3-3.41c.125.246.209.567.254 1.115.046.558.046 1.274.046 2.296h1.692l-.052-2.433c-.053-.653-.166-1.221-.433-1.745l-1.508.768zM30.95 5.646c.518.264.94.685 1.204 1.204l1.508-.768c-.426-.837-1.106-1.517-1.943-1.943l-.768 1.508zm-3.41-.3l2.296.046c.548.045.869.129 1.115.254l.768-1.508c-.524-.267-1.092-.379-1.745-.433-.643-.053-1.439-.052-2.433-.052v1.692zm-4.59 0h4.59V3.654h-4.59v1.692zm-1.296-.396v.45h1.692v-.45h-1.692zm0 .45c0 .527-.427.954-.954.954v1.692c1.461 0 2.646-1.185 2.646-2.646h-1.692zm-.954.954c-.527 0-.954-.427-.954-.954h-1.692c0 1.461 1.185 2.646 2.646 2.646V6.354zm-.954-.954v-.45h-1.692v.45h1.692zm.954 6.246c.527 0 .954.427.954.954h1.692c0-1.461-1.185-2.646-2.646-2.646v1.692zm-.954.954c0-.527.427-.954.954-.954V9.954c-1.461 0-2.646 1.185-2.646 2.646h1.692zm0 1.8v-1.8h-1.692v1.8h1.692zm.954.954c-.527 0-.954-.427-.954-.954h-1.692c0 1.461 1.185 2.646 2.646 2.646v-1.692zm.954-.954c0 .527-.427.954-.954.954v1.692c1.461 0 2.646-1.185 2.646-2.646h-1.692zm0-1.8v1.8h1.692v-1.8h-1.692zm-.954 8.046c.527 0 .954.427.954.954h1.692c0-1.461-1.185-2.646-2.646-2.646v1.692zm-.954.954c0-.527.427-.954.954-.954v-1.692c-1.461 0-2.646 1.185-2.646 2.646h1.692zm0 1.8v-1.8h-1.692v1.8h1.692zm.954.954c-.527 0-.954-.427-.954-.954h-1.692c0 1.461 1.185 2.646 2.646 2.646v-1.692zm.954-.954c0 .527-.427.954-.954.954v1.692c1.461 0 2.646-1.185 2.646-2.646h-1.692zm0-1.8v1.8h1.692v-1.8h-1.692zm0 9.45c0 .716.58 1.296 1.296 1.296v-1.692c.219 0 .396.177.396.396h-1.692zM22.95 3.654c-.716 0-1.296.58-1.296 1.296h1.692c0 .219-.177.396-.396.396V3.654zm-4.5 28.692c.716 0 1.296-.58 1.296-1.296h-1.692c0-.219.177-.396.396-.396v1.692zm0-27c-.219 0-.396-.177-.396-.396h1.692c0-.716-.58-1.296-1.296-1.296v1.692z" />
</svg>