<svg width="220" height="48" viewBox="0 0 220 48" fill="none" xmlns="http://www.w3.org/2000/svg">
<g clip-path="url(#clip0_5174_16559)">
<rect width="196.941" height="48" rx="2.82353" fill="#E5E4E3"/>
<path d="M17.2914 22.8831C16.3008 22.8831 15.4505 22.6324 14.7406 22.1311C14.0347 21.6257 13.4913 20.8978 13.1103 19.9472C12.7333 18.9927 12.5448 17.8436 12.5448 16.5C12.5488 15.1565 12.7393 14.0134 13.1163 13.0709C13.4973 12.1244 14.0407 11.4024 14.7466 10.9051C15.4565 10.4078 16.3048 10.1591 17.2914 10.1591C18.278 10.1591 19.1263 10.4078 19.8362 10.9051C20.5461 11.4024 21.0895 12.1244 21.4665 13.0709C21.8476 14.0174 22.0381 15.1605 22.0381 16.5C22.0381 17.8476 21.8476 18.9987 21.4665 19.9533C21.0895 20.9038 20.5461 21.6297 19.8362 22.1311C19.1303 22.6324 18.2821 22.8831 17.2914 22.8831ZM17.2914 21C18.0615 21 18.6691 20.621 19.1143 19.863C19.5635 19.101 19.7881 17.98 19.7881 16.5C19.7881 15.5214 19.6858 14.6992 19.4813 14.0335C19.2767 13.3677 18.9879 12.8664 18.6149 12.5295C18.2419 12.1885 17.8008 12.0181 17.2914 12.0181C16.5254 12.0181 15.9198 12.3991 15.4746 13.1611C15.0294 13.9192 14.8048 15.0321 14.8008 16.5C14.7968 17.4827 14.895 18.3089 15.0956 18.9787C15.3001 19.6484 15.5889 20.1538 15.9619 20.4947C16.3349 20.8316 16.778 21 17.2914 21ZM28.591 22.8831C27.6004 22.8831 26.7501 22.6324 26.0402 22.1311C25.3344 21.6257 24.7909 20.8978 24.4099 19.9472C24.0329 18.9927 23.8444 17.8436 23.8444 16.5C23.8484 15.1565 24.0389 14.0134 24.4159 13.0709C24.7969 12.1244 25.3404 11.4024 26.0463 10.9051C26.7562 10.4078 27.6044 10.1591 28.591 10.1591C29.5777 10.1591 30.4259 10.4078 31.1358 10.9051C31.8457 11.4024 32.3892 12.1244 32.7662 13.0709C33.1472 14.0174 33.3377 15.1605 33.3377 16.5C33.3377 17.8476 33.1472 18.9987 32.7662 19.9533C32.3892 20.9038 31.8457 21.6297 31.1358 22.1311C30.4299 22.6324 29.5817 22.8831 28.591 22.8831ZM28.591 21C29.3611 21 29.9687 20.621 30.4139 19.863C30.8631 19.101 31.0877 17.98 31.0877 16.5C31.0877 15.5214 30.9854 14.6992 30.7809 14.0335C30.5763 13.3677 30.2876 12.8664 29.9146 12.5295C29.5416 12.1885 29.1004 12.0181 28.591 12.0181C27.825 12.0181 27.2194 12.3991 26.7742 13.1611C26.329 13.9192 26.1044 15.0321 26.1004 16.5C26.0964 17.4827 26.1947 18.3089 26.3952 18.9787C26.5997 19.6484 26.8885 20.1538 27.2615 20.4947C27.6345 20.8316 28.0777 21 28.591 21Z" fill="#A2A19F"/>
<path d="M15.6708 40.4727H13.7698V34.3122H15.7551C16.3527 34.3122 16.864 34.4356 17.2892 34.6822C17.7143 34.9269 18.0402 35.2788 18.2668 35.738C18.4934 36.1952 18.6067 36.7427 18.6067 37.3804C18.6067 38.0221 18.4924 38.5746 18.2638 39.0378C18.0351 39.4991 17.7023 39.854 17.2651 40.1027C16.8279 40.3493 16.2965 40.4727 15.6708 40.4727ZM14.5158 39.8109H15.6227C16.1321 39.8109 16.5542 39.7126 16.8891 39.5161C17.224 39.3196 17.4736 39.0398 17.6381 38.6769C17.8025 38.3139 17.8847 37.8817 17.8847 37.3804C17.8847 36.8831 17.8035 36.4549 17.6411 36.096C17.4787 35.735 17.236 35.4583 16.9132 35.2658C16.5903 35.0713 16.1882 34.974 15.7069 34.974H14.5158V39.8109ZM21.1214 40.5809C20.8286 40.5809 20.5629 40.5258 20.3242 40.4155C20.0856 40.3032 19.8961 40.1418 19.7557 39.9312C19.6154 39.7186 19.5452 39.462 19.5452 39.1612C19.5452 38.8965 19.5973 38.6819 19.7016 38.5174C19.8059 38.351 19.9452 38.2207 20.1197 38.1264C20.2942 38.0321 20.4867 37.962 20.6972 37.9158C20.9098 37.8677 21.1234 37.8296 21.338 37.8015C21.6187 37.7654 21.8463 37.7384 22.0208 37.7203C22.1972 37.7003 22.3256 37.6672 22.4058 37.6211C22.488 37.5749 22.5291 37.4947 22.5291 37.3804V37.3563C22.5291 37.0596 22.4479 36.8289 22.2855 36.6645C22.1251 36.5001 21.8814 36.4178 21.5545 36.4178C21.2156 36.4178 20.9499 36.492 20.7574 36.6404C20.5649 36.7888 20.4295 36.9473 20.3513 37.1157L19.6775 36.8751C19.7978 36.5943 19.9583 36.3757 20.1588 36.2193C20.3613 36.0609 20.5819 35.9506 20.8206 35.8884C21.0612 35.8243 21.2978 35.7922 21.5305 35.7922C21.6789 35.7922 21.8493 35.8102 22.0418 35.8463C22.2363 35.8804 22.4238 35.9516 22.6043 36.0599C22.7868 36.1682 22.9382 36.3316 23.0585 36.5502C23.1789 36.7688 23.239 37.0616 23.239 37.4285V40.4727H22.5291V39.847H22.493C22.4449 39.9473 22.3647 40.0545 22.2524 40.1688C22.1401 40.2832 21.9907 40.3804 21.8042 40.4606C21.6177 40.5408 21.3901 40.5809 21.1214 40.5809ZM21.2297 39.9432C21.5104 39.9432 21.747 39.8881 21.9396 39.7778C22.1341 39.6675 22.2805 39.5251 22.3787 39.3507C22.479 39.1762 22.5291 38.9927 22.5291 38.8002V38.1505C22.499 38.1866 22.4329 38.2196 22.3306 38.2497C22.2303 38.2778 22.114 38.3029 21.9817 38.3249C21.8513 38.345 21.724 38.363 21.5997 38.3791C21.4773 38.3931 21.3781 38.4051 21.3019 38.4152C21.1174 38.4392 20.9449 38.4783 20.7845 38.5325C20.6261 38.5846 20.4977 38.6638 20.3994 38.7701C20.3032 38.8744 20.2551 39.0168 20.2551 39.1973C20.2551 39.4439 20.3463 39.6304 20.5288 39.7567C20.7133 39.8811 20.9469 39.9432 21.2297 39.9432ZM24.8265 42.2053C24.7062 42.2053 24.5989 42.1953 24.5046 42.1752C24.4104 42.1571 24.3452 42.1391 24.3091 42.1211L24.4896 41.4954C24.6621 41.5395 24.8145 41.5555 24.9468 41.5435C25.0792 41.5315 25.1965 41.4723 25.2988 41.366C25.403 41.2618 25.4983 41.0923 25.5845 40.8577L25.7169 40.4967L24.0083 35.8523H24.7784L26.0538 39.5342H26.1019L27.3773 35.8523H28.1474L26.1861 41.1465C26.0979 41.3851 25.9886 41.5826 25.8583 41.739C25.7279 41.8975 25.5765 42.0148 25.404 42.091C25.2336 42.1672 25.0411 42.2053 24.8265 42.2053ZM32.3571 36.8871L31.7194 37.0676C31.6793 36.9613 31.6201 36.858 31.5419 36.7577C31.4657 36.6555 31.3614 36.5713 31.2291 36.5051C31.0967 36.4389 30.9273 36.4058 30.7207 36.4058C30.438 36.4058 30.2023 36.471 30.0138 36.6013C29.8273 36.7297 29.7341 36.8931 29.7341 37.0916C29.7341 37.2681 29.7983 37.4075 29.9266 37.5098C30.0549 37.612 30.2555 37.6973 30.5282 37.7654L31.214 37.9339C31.6271 38.0342 31.935 38.1876 32.1375 38.3941C32.34 38.5987 32.4413 38.8624 32.4413 39.1852C32.4413 39.4499 32.3651 39.6866 32.2127 39.8951C32.0623 40.1037 31.8517 40.2681 31.581 40.3884C31.3103 40.5088 30.9955 40.5689 30.6365 40.5689C30.1652 40.5689 29.7752 40.4666 29.4664 40.2621C29.1576 40.0575 28.962 39.7588 28.8798 39.3657L29.5536 39.1973C29.6178 39.4459 29.7391 39.6324 29.9176 39.7567C30.0981 39.8811 30.3337 39.9432 30.6245 39.9432C30.9553 39.9432 31.2181 39.8731 31.4126 39.7327C31.6091 39.5903 31.7074 39.4198 31.7074 39.2213C31.7074 39.0609 31.6512 38.9265 31.5389 38.8182C31.4266 38.708 31.2541 38.6257 31.0215 38.5716L30.2515 38.3911C29.8283 38.2908 29.5175 38.1354 29.319 37.9249C29.1225 37.7123 29.0242 37.4466 29.0242 37.1277C29.0242 36.867 29.0974 36.6364 29.2438 36.4359C29.3922 36.2354 29.5937 36.0779 29.8484 35.9636C30.1051 35.8493 30.3959 35.7922 30.7207 35.7922C31.1779 35.7922 31.5369 35.8924 31.7976 36.093C32.0603 36.2935 32.2468 36.5582 32.3571 36.8871Z" fill="#A2A19F"/>
<circle cx="44.4704" cy="14.1188" r="1.41176" fill="#A2A19F"/>
<circle cx="44.4704" cy="22.5875" r="1.41176" fill="#A2A19F"/>
<path d="M60.7029 22.8831C59.7123 22.8831 58.862 22.6324 58.1521 22.1311C57.4463 21.6257 56.9028 20.8978 56.5218 19.9472C56.1448 18.9927 55.9563 17.8436 55.9563 16.5C55.9603 15.1565 56.1508 14.0134 56.5278 13.0709C56.9088 12.1244 57.4523 11.4024 58.1582 10.9051C58.8681 10.4078 59.7163 10.1591 60.7029 10.1591C61.6896 10.1591 62.5378 10.4078 63.2477 10.9051C63.9576 11.4024 64.5011 12.1244 64.8781 13.0709C65.2591 14.0174 65.4496 15.1605 65.4496 16.5C65.4496 17.8476 65.2591 18.9987 64.8781 19.9533C64.5011 20.9038 63.9576 21.6297 63.2477 22.1311C62.5419 22.6324 61.6936 22.8831 60.7029 22.8831ZM60.7029 21C61.473 21 62.0806 20.621 62.5258 19.863C62.975 19.101 63.1996 17.98 63.1996 16.5C63.1996 15.5214 63.0973 14.6992 62.8928 14.0335C62.6882 13.3677 62.3995 12.8664 62.0265 12.5295C61.6535 12.1885 61.2123 12.0181 60.7029 12.0181C59.9369 12.0181 59.3313 12.3991 58.8861 13.1611C58.4409 13.9192 58.2163 15.0321 58.2123 16.5C58.2083 17.4827 58.3066 18.3089 58.5071 18.9787C58.7116 19.6484 59.0004 20.1538 59.3734 20.4947C59.7464 20.8316 60.1896 21 60.7029 21ZM72.0026 22.8831C71.0119 22.8831 70.1617 22.6324 69.4518 22.1311C68.7459 21.6257 68.2024 20.8978 67.8214 19.9472C67.4444 18.9927 67.2559 17.8436 67.2559 16.5C67.2599 15.1565 67.4504 14.0134 67.8274 13.0709C68.2085 12.1244 68.7519 11.4024 69.4578 10.9051C70.1677 10.4078 71.0159 10.1591 72.0026 10.1591C72.9892 10.1591 73.8375 10.4078 74.5474 10.9051C75.2573 11.4024 75.8007 12.1244 76.1777 13.0709C76.5587 14.0174 76.7492 15.1605 76.7492 16.5C76.7492 17.8476 76.5587 18.9987 76.1777 19.9533C75.8007 20.9038 75.2573 21.6297 74.5474 22.1311C73.8415 22.6324 72.9932 22.8831 72.0026 22.8831ZM72.0026 21C72.7726 21 73.3803 20.621 73.8254 19.863C74.2746 19.101 74.4992 17.98 74.4992 16.5C74.4992 15.5214 74.397 14.6992 74.1924 14.0335C73.9879 13.3677 73.6991 12.8664 73.3261 12.5295C72.9531 12.1885 72.5119 12.0181 72.0026 12.0181C71.2365 12.0181 70.6309 12.3991 70.1857 13.1611C69.7405 13.9192 69.5159 15.0321 69.5119 16.5C69.5079 17.4827 69.6062 18.3089 69.8067 18.9787C70.0113 19.6484 70.3 20.1538 70.673 20.4947C71.046 20.8316 71.4892 21 72.0026 21Z" fill="#A2A19F"/>
<path d="M55.1877 40.4727V34.3122H55.9337V37.0555H59.2185V34.3122H59.9645V40.4727H59.2185V37.7173H55.9337V40.4727H55.1877ZM63.2387 40.5689C62.8216 40.5689 62.4556 40.4696 62.1408 40.2711C61.8279 40.0726 61.5833 39.7948 61.4068 39.4379C61.2324 39.0809 61.1451 38.6638 61.1451 38.1866C61.1451 37.7053 61.2324 37.2852 61.4068 36.9262C61.5833 36.5672 61.8279 36.2885 62.1408 36.09C62.4556 35.8914 62.8216 35.7922 63.2387 35.7922C63.6558 35.7922 64.0208 35.8914 64.3336 36.09C64.6485 36.2885 64.8931 36.5672 65.0676 36.9262C65.2441 37.2852 65.3323 37.7053 65.3323 38.1866C65.3323 38.6638 65.2441 39.0809 65.0676 39.4379C64.8931 39.7948 64.6485 40.0726 64.3336 40.2711C64.0208 40.4696 63.6558 40.5689 63.2387 40.5689ZM63.2387 39.9312C63.5556 39.9312 63.8162 39.85 64.0208 39.6876C64.2253 39.5251 64.3767 39.3116 64.475 39.0469C64.5733 38.7821 64.6224 38.4954 64.6224 38.1866C64.6224 37.8777 64.5733 37.59 64.475 37.3233C64.3767 37.0565 64.2253 36.841 64.0208 36.6765C63.8162 36.5121 63.5556 36.4299 63.2387 36.4299C62.9219 36.4299 62.6612 36.5121 62.4566 36.6765C62.2521 36.841 62.1007 37.0565 62.0024 37.3233C61.9042 37.59 61.855 37.8777 61.855 38.1866C61.855 38.4954 61.9042 38.7821 62.0024 39.0469C62.1007 39.3116 62.2521 39.5251 62.4566 39.6876C62.6612 39.85 62.9219 39.9312 63.2387 39.9312ZM69.3277 38.5836V35.8523H70.0376V40.4727H69.3277V39.6906H69.2796C69.1713 39.9252 69.0028 40.1247 68.7742 40.2892C68.5456 40.4516 68.2568 40.5328 67.9079 40.5328C67.6191 40.5328 67.3625 40.4696 67.1379 40.3433C66.9133 40.215 66.7368 40.0225 66.6084 39.7658C66.4801 39.5071 66.4159 39.1812 66.4159 38.7882V35.8523H67.1258V38.74C67.1258 39.0769 67.2201 39.3457 67.4086 39.5462C67.5991 39.7467 67.8417 39.847 68.1365 39.847C68.313 39.847 68.4925 39.8019 68.675 39.7116C68.8594 39.6214 69.0139 39.483 69.1382 39.2965C69.2645 39.11 69.3277 38.8724 69.3277 38.5836ZM71.3378 40.4727V35.8523H72.0236V36.5502H72.0718C72.156 36.3216 72.3084 36.1361 72.529 35.9937C72.7496 35.8513 72.9982 35.7801 73.275 35.7801C73.3271 35.7801 73.3923 35.7811 73.4705 35.7832C73.5487 35.7852 73.6079 35.7882 73.648 35.7922V36.5141C73.6239 36.5081 73.5688 36.4991 73.4825 36.487C73.3983 36.473 73.3091 36.466 73.2148 36.466C72.9902 36.466 72.7897 36.5131 72.6132 36.6073C72.4387 36.6996 72.3004 36.8279 72.1981 36.9924C72.0978 37.1548 72.0477 37.3403 72.0477 37.5489V40.4727H71.3378ZM77.7622 36.8871L77.1245 37.0676C77.0844 36.9613 77.0252 36.858 76.947 36.7577C76.8708 36.6555 76.7665 36.5713 76.6342 36.5051C76.5018 36.4389 76.3324 36.4058 76.1258 36.4058C75.8431 36.4058 75.6074 36.471 75.4189 36.6013C75.2324 36.7297 75.1392 36.8931 75.1392 37.0916C75.1392 37.2681 75.2034 37.4075 75.3317 37.5098C75.4601 37.612 75.6606 37.6973 75.9333 37.7654L76.6191 37.9339C77.0322 38.0342 77.3401 38.1876 77.5426 38.3941C77.7451 38.5987 77.8464 38.8624 77.8464 39.1852C77.8464 39.4499 77.7702 39.6866 77.6178 39.8951C77.4674 40.1037 77.2568 40.2681 76.9861 40.3884C76.7154 40.5088 76.4006 40.5689 76.0416 40.5689C75.5703 40.5689 75.1803 40.4666 74.8715 40.2621C74.5627 40.0575 74.3671 39.7588 74.2849 39.3657L74.9587 39.1973C75.0229 39.4459 75.1442 39.6324 75.3227 39.7567C75.5032 39.8811 75.7388 39.9432 76.0296 39.9432C76.3605 39.9432 76.6232 39.8731 76.8177 39.7327C77.0142 39.5903 77.1125 39.4198 77.1125 39.2213C77.1125 39.0609 77.0563 38.9265 76.944 38.8182C76.8317 38.708 76.6592 38.6257 76.4266 38.5716L75.6566 38.3911C75.2334 38.2908 74.9226 38.1354 74.7241 37.9249C74.5276 37.7123 74.4293 37.4466 74.4293 37.1277C74.4293 36.867 74.5025 36.6364 74.6489 36.4359C74.7973 36.2354 74.9988 36.0779 75.2535 35.9636C75.5102 35.8493 75.801 35.7922 76.1258 35.7922C76.583 35.7922 76.942 35.8924 77.2027 36.093C77.4654 36.2935 77.6519 36.5582 77.7622 36.8871Z" fill="#A2A19F"/>
<circle cx="88.236" cy="14.1188" r="1.41176" fill="#A2A19F"/>
<circle cx="88.236" cy="22.5875" r="1.41176" fill="#A2A19F"/>
<path d="M108.702 22.8831C107.711 22.8831 106.861 22.6324 106.151 22.1311C105.445 21.6257 104.902 20.8978 104.521 19.9472C104.144 18.9927 103.955 17.8436 103.955 16.5C103.959 15.1565 104.15 14.0134 104.527 13.0709C104.908 12.1244 105.451 11.4024 106.157 10.9051C106.867 10.4078 107.715 10.1591 108.702 10.1591C109.689 10.1591 110.537 10.4078 111.247 10.9051C111.957 11.4024 112.5 12.1244 112.877 13.0709C113.258 14.0174 113.449 15.1605 113.449 16.5C113.449 17.8476 113.258 18.9987 112.877 19.9533C112.5 20.9038 111.957 21.6297 111.247 22.1311C110.541 22.6324 109.693 22.8831 108.702 22.8831ZM108.702 21C109.472 21 110.08 20.621 110.525 19.863C110.974 19.101 111.199 17.98 111.199 16.5C111.199 15.5214 111.096 14.6992 110.892 14.0335C110.687 13.3677 110.398 12.8664 110.025 12.5295C109.652 12.1885 109.211 12.0181 108.702 12.0181C107.936 12.0181 107.33 12.3991 106.885 13.1611C106.44 13.9192 106.215 15.0321 106.211 16.5C106.207 17.4827 106.306 18.3089 106.506 18.9787C106.711 19.6484 106.999 20.1538 107.372 20.4947C107.745 20.8316 108.189 21 108.702 21ZM120.002 22.8831C119.011 22.8831 118.161 22.6324 117.451 22.1311C116.745 21.6257 116.201 20.8978 115.82 19.9472C115.443 18.9927 115.255 17.8436 115.255 16.5C115.259 15.1565 115.449 14.0134 115.826 13.0709C116.207 12.1244 116.751 11.4024 117.457 10.9051C118.167 10.4078 119.015 10.1591 120.002 10.1591C120.988 10.1591 121.836 10.4078 122.546 10.9051C123.256 11.4024 123.8 12.1244 124.177 13.0709C124.558 14.0174 124.748 15.1605 124.748 16.5C124.748 17.8476 124.558 18.9987 124.177 19.9533C123.8 20.9038 123.256 21.6297 122.546 22.1311C121.84 22.6324 120.992 22.8831 120.002 22.8831ZM120.002 21C120.772 21 121.379 20.621 121.824 19.863C122.274 19.101 122.498 17.98 122.498 16.5C122.498 15.5214 122.396 14.6992 122.191 14.0335C121.987 13.3677 121.698 12.8664 121.325 12.5295C120.952 12.1885 120.511 12.0181 120.002 12.0181C119.236 12.0181 118.63 12.3991 118.185 13.1611C117.74 13.9192 117.515 15.0321 117.511 16.5C117.507 17.4827 117.605 18.3089 117.806 18.9787C118.01 19.6484 118.299 20.1538 118.672 20.4947C119.045 20.8316 119.488 21 120.002 21Z" fill="#A2A19F"/>
<path d="M99.1954 34.3122H100.086L102.179 39.4259H102.252L104.345 34.3122H105.236V40.4727H104.538V35.7922H104.478L102.552 40.4727H101.879L99.9535 35.7922H99.8933V40.4727H99.1954V34.3122ZM106.635 40.4727V35.8523H107.345V40.4727H106.635ZM106.996 35.0823C106.858 35.0823 106.738 35.0352 106.638 34.9409C106.54 34.8467 106.491 34.7334 106.491 34.601C106.491 34.4686 106.54 34.3553 106.638 34.2611C106.738 34.1668 106.858 34.1197 106.996 34.1197C107.134 34.1197 107.253 34.1668 107.351 34.2611C107.451 34.3553 107.501 34.4686 107.501 34.601C107.501 34.7334 107.451 34.8467 107.351 34.9409C107.253 35.0352 107.134 35.0823 106.996 35.0823ZM109.355 37.6932V40.4727H108.645V35.8523H109.331V36.5743H109.391C109.499 36.3396 109.664 36.1511 109.884 36.0088C110.105 35.8644 110.39 35.7922 110.739 35.7922C111.052 35.7922 111.325 35.8563 111.56 35.9847C111.795 36.111 111.977 36.3035 112.107 36.5622C112.238 36.8189 112.303 37.1438 112.303 37.5368V40.4727H111.593V37.585C111.593 37.222 111.499 36.9392 111.31 36.7367C111.122 36.5321 110.863 36.4299 110.534 36.4299C110.308 36.4299 110.105 36.479 109.927 36.5773C109.75 36.6755 109.611 36.8189 109.508 37.0074C109.406 37.1959 109.355 37.4245 109.355 37.6932ZM116.512 38.5836V35.8523H117.222V40.4727H116.512V39.6906H116.464C116.355 39.9252 116.187 40.1247 115.958 40.2892C115.73 40.4516 115.441 40.5328 115.092 40.5328C114.803 40.5328 114.547 40.4696 114.322 40.3433C114.097 40.215 113.921 40.0225 113.793 39.7658C113.664 39.5071 113.6 39.1812 113.6 38.7882V35.8523H114.31V38.74C114.31 39.0769 114.404 39.3457 114.593 39.5462C114.783 39.7467 115.026 39.847 115.321 39.847C115.497 39.847 115.677 39.8019 115.859 39.7116C116.044 39.6214 116.198 39.483 116.322 39.2965C116.449 39.11 116.512 38.8724 116.512 38.5836ZM120.531 35.8523V36.4539H118.137V35.8523H120.531ZM118.835 34.7454H119.545V39.1491C119.545 39.3497 119.574 39.5001 119.632 39.6003C119.692 39.6986 119.768 39.7648 119.861 39.7989C119.955 39.8309 120.054 39.847 120.158 39.847C120.237 39.847 120.301 39.843 120.351 39.835C120.401 39.8249 120.441 39.8169 120.471 39.8109L120.616 40.4486C120.567 40.4666 120.5 40.4847 120.414 40.5027C120.328 40.5228 120.218 40.5328 120.086 40.5328C119.886 40.5328 119.689 40.4897 119.497 40.4035C119.306 40.3172 119.148 40.1859 119.021 40.0094C118.897 39.833 118.835 39.6104 118.835 39.3416V34.7454ZM123.487 40.5689C123.042 40.5689 122.658 40.4707 122.335 40.2741C122.014 40.0756 121.766 39.7989 121.592 39.4439C121.419 39.087 121.333 38.6719 121.333 38.1986C121.333 37.7253 121.419 37.3082 121.592 36.9473C121.766 36.5843 122.009 36.3015 122.32 36.099C122.632 35.8944 122.997 35.7922 123.415 35.7922C123.655 35.7922 123.893 35.8323 124.127 35.9125C124.362 35.9927 124.576 36.1231 124.768 36.3035C124.961 36.482 125.114 36.7186 125.228 37.0134C125.343 37.3082 125.4 37.6712 125.4 38.1023V38.4031H121.838V37.7895H124.678C124.678 37.5288 124.626 37.2962 124.521 37.0916C124.419 36.8871 124.273 36.7257 124.082 36.6073C123.894 36.489 123.671 36.4299 123.415 36.4299C123.132 36.4299 122.887 36.5001 122.681 36.6404C122.476 36.7788 122.319 36.9593 122.208 37.1819C122.098 37.4045 122.043 37.6431 122.043 37.8978V38.3069C122.043 38.6558 122.103 38.9516 122.223 39.1942C122.346 39.4349 122.515 39.6184 122.732 39.7447C122.948 39.869 123.2 39.9312 123.487 39.9312C123.673 39.9312 123.842 39.9051 123.992 39.853C124.144 39.7989 124.276 39.7186 124.386 39.6124C124.496 39.5041 124.582 39.3697 124.642 39.2093L125.328 39.4018C125.255 39.6344 125.134 39.839 124.964 40.0154C124.793 40.1899 124.583 40.3263 124.332 40.4245C124.081 40.5208 123.8 40.5689 123.487 40.5689ZM129.752 36.8871L129.115 37.0676C129.075 36.9613 129.015 36.858 128.937 36.7577C128.861 36.6555 128.757 36.5713 128.624 36.5051C128.492 36.4389 128.323 36.4058 128.116 36.4058C127.833 36.4058 127.598 36.471 127.409 36.6013C127.223 36.7297 127.129 36.8931 127.129 37.0916C127.129 37.2681 127.194 37.4075 127.322 37.5098C127.45 37.612 127.651 37.6973 127.924 37.7654L128.609 37.9339C129.022 38.0342 129.33 38.1876 129.533 38.3941C129.735 38.5987 129.837 38.8624 129.837 39.1852C129.837 39.4499 129.76 39.6866 129.608 39.8951C129.458 40.1037 129.247 40.2681 128.976 40.3884C128.706 40.5088 128.391 40.5689 128.032 40.5689C127.561 40.5689 127.171 40.4666 126.862 40.2621C126.553 40.0575 126.357 39.7588 126.275 39.3657L126.949 39.1973C127.013 39.4459 127.134 39.6324 127.313 39.7567C127.493 39.8811 127.729 39.9432 128.02 39.9432C128.351 39.9432 128.613 39.8731 128.808 39.7327C129.004 39.5903 129.103 39.4198 129.103 39.2213C129.103 39.0609 129.047 38.9265 128.934 38.8182C128.822 38.708 128.649 38.6257 128.417 38.5716L127.647 38.3911C127.224 38.2908 126.913 38.1354 126.714 37.9249C126.518 37.7123 126.42 37.4466 126.42 37.1277C126.42 36.867 126.493 36.6364 126.639 36.4359C126.788 36.2354 126.989 36.0779 127.244 35.9636C127.5 35.8493 127.791 35.7922 128.116 35.7922C128.573 35.7922 128.932 35.8924 129.193 36.093C129.456 36.2935 129.642 36.5582 129.752 36.8871Z" fill="#A2A19F"/>
<circle cx="140.47" cy="14.1188" r="1.41176" fill="#A2A19F"/>
<circle cx="140.47" cy="22.5875" r="1.41176" fill="#A2A19F"/>
<path d="M162.35 22.8831C161.359 22.8831 160.509 22.6324 159.799 22.1311C159.093 21.6257 158.55 20.8978 158.169 19.9472C157.792 18.9927 157.603 17.8436 157.603 16.5C157.607 15.1565 157.798 14.0134 158.175 13.0709C158.556 12.1244 159.099 11.4024 159.805 10.9051C160.515 10.4078 161.363 10.1591 162.35 10.1591C163.337 10.1591 164.185 10.4078 164.895 10.9051C165.605 11.4024 166.148 12.1244 166.525 13.0709C166.906 14.0174 167.097 15.1605 167.097 16.5C167.097 17.8476 166.906 18.9987 166.525 19.9533C166.148 20.9038 165.605 21.6297 164.895 22.1311C164.189 22.6324 163.341 22.8831 162.35 22.8831ZM162.35 21C163.12 21 163.728 20.621 164.173 19.863C164.622 19.101 164.847 17.98 164.847 16.5C164.847 15.5214 164.744 14.6992 164.54 14.0335C164.335 13.3677 164.047 12.8664 163.674 12.5295C163.301 12.1885 162.859 12.0181 162.35 12.0181C161.584 12.0181 160.978 12.3991 160.533 13.1611C160.088 13.9192 159.863 15.0321 159.859 16.5C159.855 17.4827 159.954 18.3089 160.154 18.9787C160.359 19.6484 160.647 20.1538 161.02 20.4947C161.393 20.8316 161.837 21 162.35 21ZM173.65 22.8831C172.659 22.8831 171.809 22.6324 171.099 22.1311C170.393 21.6257 169.85 20.8978 169.468 19.9472C169.091 18.9927 168.903 17.8436 168.903 16.5C168.907 15.1565 169.097 14.0134 169.475 13.0709C169.856 12.1244 170.399 11.4024 171.105 10.9051C171.815 10.4078 172.663 10.1591 173.65 10.1591C174.636 10.1591 175.485 10.4078 176.194 10.9051C176.904 11.4024 177.448 12.1244 177.825 13.0709C178.206 14.0174 178.396 15.1605 178.396 16.5C178.396 17.8476 178.206 18.9987 177.825 19.9533C177.448 20.9038 176.904 21.6297 176.194 22.1311C175.489 22.6324 174.64 22.8831 173.65 22.8831ZM173.65 21C174.42 21 175.027 20.621 175.472 19.863C175.922 19.101 176.146 17.98 176.146 16.5C176.146 15.5214 176.044 14.6992 175.839 14.0335C175.635 13.3677 175.346 12.8664 174.973 12.5295C174.6 12.1885 174.159 12.0181 173.65 12.0181C172.884 12.0181 172.278 12.3991 171.833 13.1611C171.388 13.9192 171.163 15.0321 171.159 16.5C171.155 17.4827 171.253 18.3089 171.454 18.9787C171.658 19.6484 171.947 20.1538 172.32 20.4947C172.693 20.8316 173.136 21 173.65 21Z" fill="#A2A19F"/>
<path d="M154.736 35.8523C154.7 35.5475 154.553 35.3109 154.297 35.1424C154.04 34.974 153.725 34.8898 153.352 34.8898C153.08 34.8898 152.841 34.9339 152.636 35.0221C152.434 35.1104 152.275 35.2317 152.161 35.3861C152.049 35.5405 151.993 35.716 151.993 35.9125C151.993 36.0769 152.032 36.2183 152.11 36.3366C152.19 36.4529 152.292 36.5502 152.417 36.6284C152.541 36.7046 152.671 36.7678 152.808 36.8179C152.944 36.866 153.07 36.9051 153.184 36.9352L153.809 37.1037C153.97 37.1458 154.148 37.2039 154.345 37.2781C154.543 37.3523 154.733 37.4536 154.913 37.5819C155.096 37.7083 155.246 37.8707 155.365 38.0692C155.483 38.2678 155.542 38.5114 155.542 38.8002C155.542 39.1331 155.455 39.4339 155.28 39.7026C155.108 39.9713 154.855 40.1849 154.522 40.3433C154.191 40.5017 153.789 40.5809 153.316 40.5809C152.875 40.5809 152.493 40.5098 152.17 40.3674C151.849 40.225 151.597 40.0265 151.412 39.7718C151.23 39.5171 151.126 39.2213 151.102 38.8844H151.872C151.892 39.117 151.971 39.3096 152.107 39.462C152.245 39.6124 152.42 39.7247 152.63 39.7989C152.843 39.8711 153.072 39.9071 153.316 39.9071C153.601 39.9071 153.857 39.861 154.083 39.7688C154.31 39.6745 154.489 39.5442 154.622 39.3777C154.754 39.2093 154.82 39.0128 154.82 38.7882C154.82 38.5836 154.763 38.4172 154.649 38.2888C154.534 38.1605 154.384 38.0562 154.198 37.976C154.011 37.8958 153.809 37.8256 153.593 37.7654L152.835 37.5489C152.354 37.4105 151.973 37.213 151.692 36.9563C151.411 36.6996 151.271 36.3637 151.271 35.9486C151.271 35.6037 151.364 35.3029 151.55 35.0462C151.739 34.7875 151.992 34.587 152.308 34.4446C152.627 34.3002 152.983 34.228 153.376 34.228C153.773 34.228 154.126 34.2992 154.435 34.4416C154.744 34.5819 154.989 34.7745 155.169 35.0191C155.352 35.2638 155.448 35.5415 155.458 35.8523H154.736ZM158.61 40.5689C158.164 40.5689 157.78 40.4707 157.457 40.2741C157.137 40.0756 156.889 39.7989 156.714 39.4439C156.542 39.087 156.456 38.6719 156.456 38.1986C156.456 37.7253 156.542 37.3082 156.714 36.9473C156.889 36.5843 157.132 36.3015 157.442 36.099C157.755 35.8944 158.12 35.7922 158.537 35.7922C158.778 35.7922 159.016 35.8323 159.25 35.9125C159.485 35.9927 159.698 36.1231 159.891 36.3035C160.083 36.482 160.237 36.7186 160.351 37.0134C160.465 37.3082 160.523 37.6712 160.523 38.1023V38.4031H156.961V37.7895H159.801C159.801 37.5288 159.749 37.2962 159.644 37.0916C159.542 36.8871 159.396 36.7257 159.205 36.6073C159.017 36.489 158.794 36.4299 158.537 36.4299C158.255 36.4299 158.01 36.5001 157.803 36.6404C157.599 36.7788 157.441 36.9593 157.331 37.1819C157.221 37.4045 157.166 37.6431 157.166 37.8978V38.3069C157.166 38.6558 157.226 38.9516 157.346 39.1942C157.468 39.4349 157.638 39.6184 157.855 39.7447C158.071 39.869 158.323 39.9312 158.61 39.9312C158.796 39.9312 158.964 39.9051 159.115 39.853C159.267 39.7989 159.399 39.7186 159.509 39.6124C159.619 39.5041 159.704 39.3697 159.765 39.2093L160.45 39.4018C160.378 39.6344 160.257 39.839 160.086 40.0154C159.916 40.1899 159.705 40.3263 159.455 40.4245C159.204 40.5208 158.922 40.5689 158.61 40.5689ZM163.48 40.5689C163.046 40.5689 162.673 40.4666 162.361 40.2621C162.048 40.0575 161.807 39.7758 161.639 39.4168C161.47 39.0579 161.386 38.6478 161.386 38.1866C161.386 37.7173 161.472 37.3032 161.645 36.9442C161.819 36.5833 162.062 36.3015 162.373 36.099C162.685 35.8944 163.05 35.7922 163.467 35.7922C163.792 35.7922 164.085 35.8523 164.346 35.9727C164.607 36.093 164.82 36.2614 164.987 36.478C165.153 36.6946 165.256 36.9473 165.296 37.236H164.586C164.532 37.0255 164.412 36.839 164.226 36.6765C164.041 36.5121 163.792 36.4299 163.48 36.4299C163.203 36.4299 162.96 36.5021 162.752 36.6465C162.545 36.7888 162.384 36.9904 162.267 37.2511C162.153 37.5098 162.096 37.8136 162.096 38.1625C162.096 38.5194 162.152 38.8303 162.264 39.095C162.379 39.3597 162.539 39.5652 162.746 39.7116C162.954 39.858 163.199 39.9312 163.48 39.9312C163.664 39.9312 163.831 39.8991 163.982 39.835C164.132 39.7708 164.26 39.6785 164.364 39.5582C164.468 39.4379 164.542 39.2935 164.586 39.1251H165.296C165.256 39.3978 165.157 39.6434 164.999 39.862C164.842 40.0786 164.635 40.2511 164.376 40.3794C164.119 40.5057 163.82 40.5689 163.48 40.5689ZM168.211 40.5689C167.794 40.5689 167.428 40.4696 167.113 40.2711C166.8 40.0726 166.556 39.7948 166.379 39.4379C166.205 39.0809 166.118 38.6638 166.118 38.1866C166.118 37.7053 166.205 37.2852 166.379 36.9262C166.556 36.5672 166.8 36.2885 167.113 36.09C167.428 35.8914 167.794 35.7922 168.211 35.7922C168.628 35.7922 168.993 35.8914 169.306 36.09C169.621 36.2885 169.866 36.5672 170.04 36.9262C170.216 37.2852 170.305 37.7053 170.305 38.1866C170.305 38.6638 170.216 39.0809 170.04 39.4379C169.866 39.7948 169.621 40.0726 169.306 40.2711C168.993 40.4696 168.628 40.5689 168.211 40.5689ZM168.211 39.9312C168.528 39.9312 168.789 39.85 168.993 39.6876C169.198 39.5251 169.349 39.3116 169.447 39.0469C169.546 38.7821 169.595 38.4954 169.595 38.1866C169.595 37.8777 169.546 37.59 169.447 37.3233C169.349 37.0565 169.198 36.841 168.993 36.6765C168.789 36.5121 168.528 36.4299 168.211 36.4299C167.894 36.4299 167.634 36.5121 167.429 36.6765C167.225 36.841 167.073 37.0565 166.975 37.3233C166.877 37.59 166.827 37.8777 166.827 38.1866C166.827 38.4954 166.877 38.7821 166.975 39.0469C167.073 39.3116 167.225 39.5251 167.429 39.6876C167.634 39.85 167.894 39.9312 168.211 39.9312ZM172.098 37.6932V40.4727H171.388V35.8523H172.074V36.5743H172.134C172.243 36.3396 172.407 36.1511 172.628 36.0088C172.848 35.8644 173.133 35.7922 173.482 35.7922C173.795 35.7922 174.069 35.8563 174.303 35.9847C174.538 36.111 174.72 36.3035 174.851 36.5622C174.981 36.8189 175.046 37.1438 175.046 37.5368V40.4727H174.336V37.585C174.336 37.222 174.242 36.9392 174.053 36.7367C173.865 36.5321 173.606 36.4299 173.277 36.4299C173.051 36.4299 172.848 36.479 172.67 36.5773C172.493 36.6755 172.354 36.8189 172.252 37.0074C172.149 37.1959 172.098 37.4245 172.098 37.6932ZM178.088 40.5689C177.703 40.5689 177.363 40.4717 177.068 40.2771C176.773 40.0806 176.543 39.8039 176.376 39.4469C176.21 39.088 176.127 38.6638 176.127 38.1745C176.127 37.6892 176.21 37.2681 176.376 36.9112C176.543 36.5542 176.774 36.2785 177.071 36.084C177.368 35.8894 177.711 35.7922 178.1 35.7922C178.401 35.7922 178.638 35.8423 178.813 35.9426C178.989 36.0408 179.124 36.1531 179.216 36.2795C179.31 36.4038 179.383 36.5061 179.436 36.5863H179.496V34.3122H180.206V40.4727H179.52V39.7628H179.436C179.383 39.847 179.309 39.9533 179.213 40.0816C179.117 40.208 178.979 40.3213 178.801 40.4215C178.622 40.5198 178.385 40.5689 178.088 40.5689ZM178.184 39.9312C178.469 39.9312 178.71 39.857 178.906 39.7086C179.103 39.5582 179.252 39.3507 179.354 39.086C179.457 38.8192 179.508 38.5114 179.508 38.1625C179.508 37.8176 179.458 37.5158 179.357 37.2571C179.257 36.9964 179.109 36.7938 178.912 36.6495C178.716 36.5031 178.473 36.4299 178.184 36.4299C177.883 36.4299 177.633 36.5071 177.432 36.6615C177.234 36.8139 177.084 37.0215 176.984 37.2842C176.886 37.5448 176.837 37.8376 176.837 38.1625C176.837 38.4914 176.887 38.7902 176.987 39.0589C177.089 39.3256 177.24 39.5382 177.438 39.6966C177.639 39.853 177.887 39.9312 178.184 39.9312ZM184.877 36.8871L184.239 37.0676C184.199 36.9613 184.14 36.858 184.062 36.7577C183.986 36.6555 183.881 36.5713 183.749 36.5051C183.617 36.4389 183.447 36.4058 183.241 36.4058C182.958 36.4058 182.722 36.471 182.534 36.6013C182.347 36.7297 182.254 36.8931 182.254 37.0916C182.254 37.2681 182.318 37.4075 182.447 37.5098C182.575 37.612 182.775 37.6973 183.048 37.7654L183.734 37.9339C184.147 38.0342 184.455 38.1876 184.657 38.3941C184.86 38.5987 184.961 38.8624 184.961 39.1852C184.961 39.4499 184.885 39.6866 184.733 39.8951C184.582 40.1037 184.372 40.2681 184.101 40.3884C183.83 40.5088 183.515 40.5689 183.156 40.5689C182.685 40.5689 182.295 40.4666 181.986 40.2621C181.678 40.0575 181.482 39.7588 181.4 39.3657L182.074 39.1973C182.138 39.4459 182.259 39.6324 182.438 39.7567C182.618 39.8811 182.854 39.9432 183.144 39.9432C183.475 39.9432 183.738 39.8731 183.933 39.7327C184.129 39.5903 184.227 39.4198 184.227 39.2213C184.227 39.0609 184.171 38.9265 184.059 38.8182C183.947 38.708 183.774 38.6257 183.542 38.5716L182.771 38.3911C182.348 38.2908 182.038 38.1354 181.839 37.9249C181.642 37.7123 181.544 37.4466 181.544 37.1277C181.544 36.867 181.617 36.6364 181.764 36.4359C181.912 36.2354 182.114 36.0779 182.368 35.9636C182.625 35.8493 182.916 35.7922 183.241 35.7922C183.698 35.7922 184.057 35.8924 184.318 36.093C184.58 36.2935 184.767 36.5582 184.877 36.8871Z" fill="#A2A19F"/>
</g>
<defs>
<clipPath id="clip0_5174_16559">
<rect width="220" height="48" fill="white"/>
</clipPath>
</defs>
</svg>
