<svg width="220" height="48" viewBox="0 0 220 48" fill="none" xmlns="http://www.w3.org/2000/svg">
<rect width="39.5294" height="33.8824" rx="2.82353" fill="#E5E4E3"/>
<path d="M14.0096 22.853C13.0591 22.849 12.2469 22.5983 11.5731 22.101C10.8993 21.6037 10.384 20.8797 10.027 19.9292C9.67007 18.9787 9.49159 17.8336 9.49159 16.494C9.49159 15.1585 9.67007 14.0174 10.027 13.0709C10.388 12.1244 10.9054 11.4024 11.5792 10.9051C12.257 10.4078 13.0671 10.1591 14.0096 10.1591C14.9522 10.1591 15.7603 10.4098 16.4341 10.9111C17.1079 11.4085 17.6233 12.1304 17.9802 13.0769C18.3412 14.0194 18.5217 15.1585 18.5217 16.494C18.5217 17.8376 18.3432 18.9847 17.9862 19.9352C17.6293 20.8817 17.1139 21.6057 16.4401 22.107C15.7663 22.6043 14.9562 22.853 14.0096 22.853ZM14.0096 21.2467C14.8439 21.2467 15.4956 20.8396 15.9649 20.0254C16.4381 19.2113 16.6747 18.0341 16.6747 16.494C16.6747 15.4713 16.5665 14.607 16.3499 13.9011C16.1373 13.1912 15.8305 12.6538 15.4294 12.2888C15.0324 11.9198 14.5591 11.7353 14.0096 11.7353C13.1794 11.7353 12.5277 12.1444 12.0544 12.9626C11.5812 13.7808 11.3425 14.9579 11.3385 16.494C11.3385 17.5208 11.4448 18.3891 11.6574 19.099C11.8739 19.8049 12.1808 20.3403 12.5778 20.7053C12.9749 21.0662 13.4522 21.2467 14.0096 21.2467ZM24.9453 22.853C23.9948 22.849 23.1826 22.5983 22.5088 22.101C21.835 21.6037 21.3196 20.8797 20.9627 19.9292C20.6057 18.9787 20.4273 17.8336 20.4273 16.494C20.4273 15.1585 20.6057 14.0174 20.9627 13.0709C21.3236 12.1244 21.841 11.4024 22.5148 10.9051C23.1926 10.4078 24.0028 10.1591 24.9453 10.1591C25.8878 10.1591 26.696 10.4098 27.3698 10.9111C28.0436 11.4085 28.5589 12.1304 28.9159 13.0769C29.2769 14.0194 29.4573 15.1585 29.4573 16.494C29.4573 17.8376 29.2789 18.9847 28.9219 19.9352C28.565 20.8817 28.0496 21.6057 27.3758 22.107C26.702 22.6043 25.8918 22.853 24.9453 22.853ZM24.9453 21.2467C25.7795 21.2467 26.4313 20.8396 26.9005 20.0254C27.3738 19.2113 27.6104 18.0341 27.6104 16.494C27.6104 15.4713 27.5021 14.607 27.2855 13.9011C27.073 13.1912 26.7662 12.6538 26.3651 12.2888C25.968 11.9198 25.4948 11.7353 24.9453 11.7353C24.1151 11.7353 23.4634 12.1444 22.9901 12.9626C22.5168 13.7808 22.2782 14.9579 22.2742 16.494C22.2742 17.5208 22.3805 18.3891 22.593 19.099C22.8096 19.8049 23.1164 20.3403 23.5135 20.7053C23.9105 21.0662 24.3878 21.2467 24.9453 21.2467Z" fill="#A2A19F"/>
<path d="M13.7356 44.707H12.1514V39.5733H13.8058C14.3038 39.5733 14.73 39.6761 15.0842 39.8817C15.4385 40.0855 15.7101 40.3788 15.8989 40.7615C16.0877 41.1425 16.1822 41.5987 16.1822 42.1302C16.1822 42.6649 16.0869 43.1253 15.8964 43.5113C15.7059 43.8957 15.4285 44.1915 15.0642 44.3987C14.6999 44.6043 14.257 44.707 13.7356 44.707ZM12.7731 44.1556H13.6955C14.12 44.1556 14.4718 44.0737 14.7508 43.9099C15.0299 43.7461 15.238 43.513 15.375 43.2105C15.512 42.9081 15.5806 42.5479 15.5806 42.1302C15.5806 41.7157 15.5129 41.3589 15.3775 41.0598C15.2422 40.759 15.04 40.5284 14.7709 40.368C14.5018 40.2059 14.1668 40.1248 13.7657 40.1248H12.7731V44.1556ZM18.2778 44.7973C18.0338 44.7973 17.8123 44.7513 17.6135 44.6594C17.4146 44.5658 17.2567 44.4313 17.1397 44.2558C17.0227 44.0787 16.9642 43.8648 16.9642 43.6141C16.9642 43.3935 17.0077 43.2147 17.0946 43.0777C17.1815 42.939 17.2976 42.8304 17.443 42.7518C17.5884 42.6733 17.7488 42.6148 17.9243 42.5763C18.1014 42.5362 18.2794 42.5045 18.4582 42.4811C18.6922 42.451 18.8819 42.4285 19.0272 42.4134C19.1743 42.3967 19.2813 42.3691 19.3481 42.3307C19.4166 42.2923 19.4509 42.2254 19.4509 42.1302V42.1101C19.4509 41.8628 19.3832 41.6706 19.2478 41.5336C19.1141 41.3965 18.9111 41.328 18.6387 41.328C18.3563 41.328 18.1349 41.3899 17.9744 41.5135C17.814 41.6372 17.7012 41.7692 17.636 41.9096L17.0745 41.709C17.1748 41.4751 17.3085 41.2929 17.4756 41.1626C17.6444 41.0306 17.8282 40.9386 18.0271 40.8868C18.2276 40.8334 18.4248 40.8066 18.6187 40.8066C18.7423 40.8066 18.8844 40.8217 19.0448 40.8518C19.2069 40.8802 19.3631 40.9395 19.5135 41.0297C19.6656 41.12 19.7918 41.2562 19.8921 41.4383C19.9923 41.6205 20.0425 41.8645 20.0425 42.1703V44.707H19.4509V44.1856H19.4208C19.3807 44.2692 19.3138 44.3586 19.2203 44.4539C19.1267 44.5491 19.0022 44.6302 18.8468 44.697C18.6914 44.7638 18.5017 44.7973 18.2778 44.7973ZM18.368 44.2659C18.6019 44.2659 18.7991 44.2199 18.9596 44.128C19.1217 44.0361 19.2437 43.9174 19.3255 43.772C19.4091 43.6267 19.4509 43.4737 19.4509 43.3133V42.7719C19.4258 42.802 19.3707 42.8295 19.2854 42.8546C19.2019 42.878 19.105 42.8989 18.9947 42.9173C18.886 42.934 18.7799 42.949 18.6763 42.9624C18.5744 42.9741 18.4917 42.9841 18.4282 42.9925C18.2744 43.0125 18.1307 43.0451 17.997 43.0902C17.865 43.1337 17.758 43.1997 17.6761 43.2882C17.5959 43.3751 17.5558 43.4938 17.5558 43.6442C17.5558 43.8497 17.6319 44.0052 17.7839 44.1104C17.9377 44.214 18.1324 44.2659 18.368 44.2659ZM21.3654 46.1509C21.2651 46.1509 21.1757 46.1425 21.0971 46.1258C21.0186 46.1108 20.9643 46.0957 20.9342 46.0807L21.0846 45.5593C21.2283 45.5961 21.3553 45.6094 21.4656 45.5994C21.5759 45.5894 21.6737 45.5401 21.7589 45.4515C21.8458 45.3646 21.9252 45.2234 21.997 45.0279L22.1073 44.7271L20.6835 40.8568H21.3253L22.3881 43.9249H22.4282L23.491 40.8568H24.1327L22.4984 45.2685C22.4249 45.4674 22.3338 45.632 22.2252 45.7623C22.1165 45.8944 21.9904 45.9921 21.8466 46.0556C21.7046 46.1191 21.5442 46.1509 21.3654 46.1509ZM27.6408 41.7191L27.1094 41.8695C27.076 41.7809 27.0267 41.6948 26.9615 41.6113C26.898 41.526 26.8111 41.4559 26.7008 41.4007C26.5905 41.3456 26.4493 41.318 26.2772 41.318C26.0416 41.318 25.8452 41.3723 25.6881 41.4809C25.5327 41.5879 25.455 41.7241 25.455 41.8895C25.455 42.0366 25.5085 42.1527 25.6154 42.2379C25.7224 42.3232 25.8895 42.3942 26.1168 42.451L26.6883 42.5914C27.0326 42.6749 27.2891 42.8028 27.4579 42.9749C27.6266 43.1454 27.711 43.3651 27.711 43.6342C27.711 43.8548 27.6475 44.052 27.5205 44.2257C27.3952 44.3995 27.2197 44.5366 26.9941 44.6368C26.7685 44.7371 26.5062 44.7872 26.207 44.7872C25.8143 44.7872 25.4893 44.702 25.2319 44.5316C24.9746 44.3611 24.8116 44.1121 24.7431 43.7846L25.3046 43.6442C25.3581 43.8514 25.4592 44.0068 25.6079 44.1104C25.7583 44.214 25.9547 44.2659 26.197 44.2659C26.4727 44.2659 26.6916 44.2074 26.8537 44.0904C27.0175 43.9717 27.0994 43.8297 27.0994 43.6643C27.0994 43.5306 27.0526 43.4186 26.959 43.3284C26.8654 43.2364 26.7217 43.1679 26.5279 43.1228L25.8862 42.9724C25.5336 42.8888 25.2745 42.7593 25.1091 42.5839C24.9453 42.4067 24.8634 42.1853 24.8634 41.9196C24.8634 41.7024 24.9244 41.5102 25.0464 41.3431C25.1701 41.1759 25.338 41.0448 25.5503 40.9495C25.7642 40.8543 26.0065 40.8066 26.2772 40.8066C26.6582 40.8066 26.9574 40.8902 27.1746 41.0573C27.3935 41.2244 27.5489 41.445 27.6408 41.7191Z" fill="#A2A19F"/>
<rect x="58.3516" width="39.5294" height="33.8824" rx="2.82353" fill="#E5E4E3"/>
<path d="M72.3592 22.853C71.4087 22.849 70.5965 22.5983 69.9228 22.101C69.249 21.6037 68.7336 20.8797 68.3766 19.9292C68.0197 18.9787 67.8412 17.8336 67.8412 16.494C67.8412 15.1585 68.0197 14.0174 68.3766 13.0709C68.7376 12.1244 69.255 11.4024 69.9288 10.9051C70.6066 10.4078 71.4167 10.1591 72.3592 10.1591C73.3018 10.1591 74.1099 10.4098 74.7837 10.9111C75.4575 11.4085 75.9729 12.1304 76.3298 13.0769C76.6908 14.0194 76.8713 15.1585 76.8713 16.494C76.8713 17.8376 76.6928 18.9847 76.3359 19.9352C75.9789 20.8817 75.4635 21.6057 74.7897 22.107C74.1159 22.6043 73.3058 22.853 72.3592 22.853ZM72.3592 21.2467C73.1935 21.2467 73.8452 20.8396 74.3145 20.0254C74.7877 19.2113 75.0244 18.0341 75.0244 16.494C75.0244 15.4713 74.9161 14.607 74.6995 13.9011C74.4869 13.1912 74.1801 12.6538 73.779 12.2888C73.382 11.9198 72.9087 11.7353 72.3592 11.7353C71.529 11.7353 70.8773 12.1444 70.404 12.9626C69.9308 13.7808 69.6921 14.9579 69.6881 16.494C69.6881 17.5208 69.7944 18.3891 70.007 19.099C70.2236 19.8049 70.5304 20.3403 70.9274 20.7053C71.3245 21.0662 71.8018 21.2467 72.3592 21.2467ZM83.2949 22.853C82.3444 22.849 81.5322 22.5983 80.8584 22.101C80.1846 21.6037 79.6692 20.8797 79.3123 19.9292C78.9553 18.9787 78.7769 17.8336 78.7769 16.494C78.7769 15.1585 78.9553 14.0174 79.3123 13.0709C79.6733 12.1244 80.1906 11.4024 80.8644 10.9051C81.5422 10.4078 82.3524 10.1591 83.2949 10.1591C84.2374 10.1591 85.0456 10.4098 85.7194 10.9111C86.3932 11.4085 86.9085 12.1304 87.2655 13.0769C87.6265 14.0194 87.8069 15.1585 87.8069 16.494C87.8069 17.8376 87.6285 18.9847 87.2715 19.9352C86.9146 20.8817 86.3992 21.6057 85.7254 22.107C85.0516 22.6043 84.2414 22.853 83.2949 22.853ZM83.2949 21.2467C84.1291 21.2467 84.7809 20.8396 85.2501 20.0254C85.7234 19.2113 85.96 18.0341 85.96 16.494C85.96 15.4713 85.8517 14.607 85.6352 13.9011C85.4226 13.1912 85.1158 12.6538 84.7147 12.2888C84.3176 11.9198 83.8444 11.7353 83.2949 11.7353C82.4647 11.7353 81.813 12.1444 81.3397 12.9626C80.8664 13.7808 80.6278 14.9579 80.6238 16.494C80.6238 17.5208 80.7301 18.3891 80.9426 19.099C81.1592 19.8049 81.466 20.3403 81.8631 20.7053C82.2602 21.0662 82.7374 21.2467 83.2949 21.2467Z" fill="#A2A19F"/>
<path d="M68.9296 44.707V39.5733H69.5512V41.8594H72.2885V39.5733H72.9102V44.707H72.2885V42.4109H69.5512V44.707H68.9296ZM75.6387 44.7872C75.2911 44.7872 74.9861 44.7045 74.7238 44.5391C74.4631 44.3736 74.2592 44.1422 74.1121 43.8447C73.9667 43.5473 73.8941 43.1997 73.8941 42.802C73.8941 42.4009 73.9667 42.0508 74.1121 41.7517C74.2592 41.4525 74.4631 41.2202 74.7238 41.0548C74.9861 40.8894 75.2911 40.8066 75.6387 40.8066C75.9863 40.8066 76.2904 40.8894 76.5511 41.0548C76.8135 41.2202 77.0174 41.4525 77.1628 41.7517C77.3098 42.0508 77.3834 42.4009 77.3834 42.802C77.3834 43.1997 77.3098 43.5473 77.1628 43.8447C77.0174 44.1422 76.8135 44.3736 76.5511 44.5391C76.2904 44.7045 75.9863 44.7872 75.6387 44.7872ZM75.6387 44.2558C75.9027 44.2558 76.12 44.1881 76.2904 44.0528C76.4609 43.9174 76.5871 43.7395 76.669 43.5189C76.7508 43.2983 76.7918 43.0593 76.7918 42.802C76.7918 42.5446 76.7508 42.3048 76.669 42.0825C76.5871 41.8603 76.4609 41.6806 76.2904 41.5436C76.12 41.4066 75.9027 41.338 75.6387 41.338C75.3747 41.338 75.1574 41.4066 74.987 41.5436C74.8165 41.6806 74.6903 41.8603 74.6085 42.0825C74.5266 42.3048 74.4856 42.5446 74.4856 42.802C74.4856 43.0593 74.5266 43.2983 74.6085 43.5189C74.6903 43.7395 74.8165 43.9174 74.987 44.0528C75.1574 44.1881 75.3747 44.2558 75.6387 44.2558ZM80.7129 43.1328V40.8568H81.3044V44.707H80.7129V44.0553H80.6728C80.5825 44.2508 80.4421 44.4171 80.2516 44.5541C80.0611 44.6895 79.8205 44.7572 79.5297 44.7572C79.2891 44.7572 79.0752 44.7045 78.888 44.5992C78.7008 44.4923 78.5538 44.3319 78.4468 44.118C78.3399 43.9024 78.2864 43.6308 78.2864 43.3033V40.8568H78.878V43.2632C78.878 43.5439 78.9565 43.7679 79.1136 43.935C79.2724 44.1021 79.4746 44.1856 79.7202 44.1856C79.8673 44.1856 80.0168 44.148 80.1689 44.0728C80.3227 43.9976 80.4513 43.8823 80.5549 43.7269C80.6602 43.5715 80.7129 43.3735 80.7129 43.1328ZM82.388 44.707V40.8568H82.9595V41.4383H82.9996C83.0698 41.2478 83.1968 41.0932 83.3806 40.9746C83.5644 40.8559 83.7716 40.7966 84.0023 40.7966C84.0457 40.7966 84.1 40.7974 84.1652 40.7991C84.2304 40.8008 84.2797 40.8033 84.3131 40.8066V41.4082C84.293 41.4032 84.2471 41.3957 84.1752 41.3857C84.105 41.374 84.0307 41.3681 83.9521 41.3681C83.765 41.3681 83.5978 41.4074 83.4508 41.4859C83.3054 41.5628 83.1901 41.6698 83.1049 41.8068C83.0213 41.9422 82.9795 42.0967 82.9795 42.2705V44.707H82.388ZM87.7416 41.7191L87.2102 41.8695C87.1768 41.7809 87.1275 41.6948 87.0623 41.6113C86.9988 41.526 86.9119 41.4559 86.8016 41.4007C86.6913 41.3456 86.5501 41.318 86.378 41.318C86.1423 41.318 85.946 41.3723 85.7889 41.4809C85.6335 41.5879 85.5558 41.7241 85.5558 41.8895C85.5558 42.0366 85.6092 42.1527 85.7162 42.2379C85.8232 42.3232 85.9903 42.3942 86.2175 42.451L86.7891 42.5914C87.1333 42.6749 87.3898 42.8028 87.5586 42.9749C87.7274 43.1454 87.8118 43.3651 87.8118 43.6342C87.8118 43.8548 87.7483 44.052 87.6213 44.2257C87.4959 44.3995 87.3205 44.5366 87.0949 44.6368C86.8693 44.7371 86.6069 44.7872 86.3078 44.7872C85.9151 44.7872 85.59 44.702 85.3327 44.5316C85.0753 44.3611 84.9124 44.1121 84.8439 43.7846L85.4054 43.6442C85.4588 43.8514 85.56 44.0068 85.7087 44.1104C85.8591 44.214 86.0554 44.2659 86.2978 44.2659C86.5735 44.2659 86.7924 44.2074 86.9545 44.0904C87.1183 43.9717 87.2002 43.8297 87.2002 43.6643C87.2002 43.5306 87.1534 43.4186 87.0598 43.3284C86.9662 43.2364 86.8225 43.1679 86.6286 43.1228L85.9869 42.9724C85.6343 42.8888 85.3753 42.7593 85.2099 42.5839C85.0461 42.4067 84.9642 42.1853 84.9642 41.9196C84.9642 41.7024 85.0252 41.5102 85.1472 41.3431C85.2708 41.1759 85.4388 41.0448 85.651 40.9495C85.8649 40.8543 86.1072 40.8066 86.378 40.8066C86.759 40.8066 87.0581 40.8902 87.2754 41.0573C87.4943 41.2244 87.6497 41.445 87.7416 41.7191Z" fill="#A2A19F"/>
<rect x="116.705" width="39.5294" height="33.8824" rx="2.82353" fill="#E5E4E3"/>
<path d="M130.715 22.853C129.764 22.849 128.952 22.5983 128.278 22.101C127.604 21.6037 127.089 20.8797 126.732 19.9292C126.375 18.9787 126.197 17.8336 126.197 16.494C126.197 15.1585 126.375 14.0174 126.732 13.0709C127.093 12.1244 127.61 11.4024 128.284 10.9051C128.962 10.4078 129.772 10.1591 130.715 10.1591C131.657 10.1591 132.465 10.4098 133.139 10.9111C133.813 11.4085 134.328 12.1304 134.685 13.0769C135.046 14.0194 135.227 15.1585 135.227 16.494C135.227 17.8376 135.048 18.9847 134.691 19.9352C134.334 20.8817 133.819 21.6057 133.145 22.107C132.471 22.6043 131.661 22.853 130.715 22.853ZM130.715 21.2467C131.549 21.2467 132.201 20.8396 132.67 20.0254C133.143 19.2113 133.38 18.0341 133.38 16.494C133.38 15.4713 133.272 14.607 133.055 13.9011C132.842 13.1912 132.536 12.6538 132.135 12.2888C131.737 11.9198 131.264 11.7353 130.715 11.7353C129.885 11.7353 129.233 12.1444 128.76 12.9626C128.286 13.7808 128.048 14.9579 128.044 16.494C128.044 17.5208 128.15 18.3891 128.362 19.099C128.579 19.8049 128.886 20.3403 129.283 20.7053C129.68 21.0662 130.157 21.2467 130.715 21.2467ZM141.65 22.853C140.7 22.849 139.888 22.5983 139.214 22.101C138.54 21.6037 138.025 20.8797 137.668 19.9292C137.311 18.9787 137.132 17.8336 137.132 16.494C137.132 15.1585 137.311 14.0174 137.668 13.0709C138.029 12.1244 138.546 11.4024 139.22 10.9051C139.898 10.4078 140.708 10.1591 141.65 10.1591C142.593 10.1591 143.401 10.4098 144.075 10.9111C144.749 11.4085 145.264 12.1304 145.621 13.0769C145.982 14.0194 146.162 15.1585 146.162 16.494C146.162 17.8376 145.984 18.9847 145.627 19.9352C145.27 20.8817 144.755 21.6057 144.081 22.107C143.407 22.6043 142.597 22.853 141.65 22.853ZM141.65 21.2467C142.485 21.2467 143.136 20.8396 143.606 20.0254C144.079 19.2113 144.315 18.0341 144.315 16.494C144.315 15.4713 144.207 14.607 143.991 13.9011C143.778 13.1912 143.471 12.6538 143.07 12.2888C142.673 11.9198 142.2 11.7353 141.65 11.7353C140.82 11.7353 140.168 12.1444 139.695 12.9626C139.222 13.7808 138.983 14.9579 138.979 16.494C138.979 17.5208 139.086 18.3891 139.298 19.099C139.515 19.8049 139.822 20.3403 140.219 20.7053C140.616 21.0662 141.093 21.2467 141.65 21.2467Z" fill="#A2A19F"/>
<path d="M124.633 39.5733H125.375L127.119 43.8347H127.18L128.924 39.5733H129.666V44.707H129.085V40.8066H129.035L127.43 44.707H126.869L125.264 40.8066H125.214V44.707H124.633V39.5733ZM130.832 44.707V40.8568H131.424V44.707H130.832ZM131.133 40.2151C131.018 40.2151 130.919 40.1758 130.835 40.0972C130.753 40.0187 130.712 39.9243 130.712 39.814C130.712 39.7037 130.753 39.6093 130.835 39.5307C130.919 39.4522 131.018 39.4129 131.133 39.4129C131.249 39.4129 131.347 39.4522 131.429 39.5307C131.513 39.6093 131.554 39.7037 131.554 39.814C131.554 39.9243 131.513 40.0187 131.429 40.0972C131.347 40.1758 131.249 40.2151 131.133 40.2151ZM133.099 42.3909V44.707H132.508V40.8568H133.079V41.4584H133.129C133.219 41.2628 133.356 41.1058 133.54 40.9871C133.724 40.8668 133.961 40.8066 134.252 40.8066C134.513 40.8066 134.741 40.8601 134.937 40.9671C135.132 41.0723 135.284 41.2328 135.393 41.4483C135.501 41.6622 135.556 41.933 135.556 42.2605V44.707H134.964V42.3006C134.964 41.9981 134.886 41.7625 134.728 41.5937C134.571 41.4233 134.356 41.338 134.082 41.338C133.893 41.338 133.724 41.379 133.575 41.4609C133.428 41.5428 133.312 41.6622 133.227 41.8193C133.142 41.9764 133.099 42.1669 133.099 42.3909ZM139.063 43.1328V40.8568H139.655V44.707H139.063V44.0553H139.023C138.933 44.2508 138.792 44.4171 138.602 44.5541C138.411 44.6895 138.171 44.7572 137.88 44.7572C137.639 44.7572 137.425 44.7045 137.238 44.5992C137.051 44.4923 136.904 44.3319 136.797 44.118C136.69 43.9024 136.637 43.6308 136.637 43.3033V40.8568H137.228V43.2632C137.228 43.5439 137.307 43.7679 137.464 43.935C137.623 44.1021 137.825 44.1856 138.071 44.1856C138.218 44.1856 138.367 44.148 138.519 44.0728C138.673 43.9976 138.802 43.8823 138.905 43.7269C139.011 43.5715 139.063 43.3735 139.063 43.1328ZM142.413 40.8568V41.3581H140.417V40.8568H142.413ZM140.999 39.9343H141.591V43.6041C141.591 43.7712 141.615 43.8965 141.663 43.9801C141.713 44.062 141.777 44.1171 141.854 44.1455C141.932 44.1723 142.015 44.1856 142.102 44.1856C142.167 44.1856 142.221 44.1823 142.262 44.1756C142.304 44.1673 142.338 44.1606 142.363 44.1556L142.483 44.687C142.443 44.702 142.387 44.7171 142.315 44.7321C142.243 44.7488 142.152 44.7572 142.042 44.7572C141.875 44.7572 141.711 44.7212 141.55 44.6494C141.392 44.5775 141.26 44.4681 141.154 44.321C141.051 44.1739 140.999 43.9884 140.999 43.7645V39.9343ZM144.876 44.7872C144.505 44.7872 144.185 44.7054 143.915 44.5416C143.648 44.3761 143.442 44.1455 143.296 43.8497C143.153 43.5523 143.081 43.2064 143.081 42.812C143.081 42.4176 143.153 42.07 143.296 41.7692C143.442 41.4667 143.644 41.2311 143.903 41.0623C144.164 40.8919 144.468 40.8066 144.815 40.8066C145.016 40.8066 145.214 40.8401 145.409 40.9069C145.605 40.9737 145.783 41.0824 145.943 41.2328C146.104 41.3815 146.232 41.5787 146.327 41.8243C146.422 42.07 146.47 42.3725 146.47 42.7318V42.9824H143.502V42.4711H145.868C145.868 42.2538 145.825 42.06 145.738 41.8895C145.653 41.7191 145.531 41.5845 145.372 41.4859C145.215 41.3873 145.029 41.338 144.815 41.338C144.58 41.338 144.376 41.3965 144.204 41.5135C144.033 41.6288 143.902 41.7792 143.81 41.9647C143.718 42.1502 143.672 42.3491 143.672 42.5613V42.9022C143.672 43.193 143.722 43.4395 143.823 43.6417C143.925 43.8422 144.066 43.9951 144.246 44.1004C144.427 44.204 144.637 44.2558 144.876 44.2558C145.031 44.2558 145.171 44.2341 145.297 44.1907C145.424 44.1455 145.533 44.0787 145.625 43.9901C145.717 43.8999 145.788 43.7879 145.838 43.6542L146.41 43.8147C146.349 44.0085 146.248 44.179 146.106 44.326C145.964 44.4714 145.789 44.585 145.58 44.6669C145.371 44.7471 145.136 44.7872 144.876 44.7872ZM150.097 41.7191L149.566 41.8695C149.532 41.7809 149.483 41.6948 149.418 41.6113C149.354 41.526 149.267 41.4559 149.157 41.4007C149.047 41.3456 148.905 41.318 148.733 41.318C148.498 41.318 148.301 41.3723 148.144 41.4809C147.989 41.5879 147.911 41.7241 147.911 41.8895C147.911 42.0366 147.965 42.1527 148.072 42.2379C148.179 42.3232 148.346 42.3942 148.573 42.451L149.144 42.5914C149.489 42.6749 149.745 42.8028 149.914 42.9749C150.083 43.1454 150.167 43.3651 150.167 43.6342C150.167 43.8548 150.104 44.052 149.977 44.2257C149.851 44.3995 149.676 44.5366 149.45 44.6368C149.225 44.7371 148.962 44.7872 148.663 44.7872C148.27 44.7872 147.945 44.702 147.688 44.5316C147.431 44.3611 147.268 44.1121 147.199 43.7846L147.761 43.6442C147.814 43.8514 147.915 44.0068 148.064 44.1104C148.214 44.214 148.411 44.2659 148.653 44.2659C148.929 44.2659 149.148 44.2074 149.31 44.0904C149.474 43.9717 149.556 43.8297 149.556 43.6643C149.556 43.5306 149.509 43.4186 149.415 43.3284C149.322 43.2364 149.178 43.1679 148.984 43.1228L148.342 42.9724C147.99 42.8888 147.731 42.7593 147.565 42.5839C147.401 42.4067 147.32 42.1853 147.32 41.9196C147.32 41.7024 147.381 41.5102 147.503 41.3431C147.626 41.1759 147.794 41.0448 148.006 40.9495C148.22 40.8543 148.463 40.8066 148.733 40.8066C149.114 40.8066 149.413 40.8902 149.631 41.0573C149.85 41.2244 150.005 41.445 150.097 41.7191Z" fill="#A2A19F"/>
<rect x="175.059" width="39.5294" height="33.8824" rx="2.82353" fill="#E5E4E3"/>
<path d="M189.068 22.853C188.118 22.849 187.306 22.5983 186.632 22.101C185.958 21.6037 185.443 20.8797 185.086 19.9292C184.729 18.9787 184.55 17.8336 184.55 16.494C184.55 15.1585 184.729 14.0174 185.086 13.0709C185.447 12.1244 185.964 11.4024 186.638 10.9051C187.316 10.4078 188.126 10.1591 189.068 10.1591C190.011 10.1591 190.819 10.4098 191.493 10.9111C192.166 11.4085 192.682 12.1304 193.039 13.0769C193.4 14.0194 193.58 15.1585 193.58 16.494C193.58 17.8376 193.402 18.9847 193.045 19.9352C192.688 20.8817 192.173 21.6057 191.499 22.107C190.825 22.6043 190.015 22.853 189.068 22.853ZM189.068 21.2467C189.902 21.2467 190.554 20.8396 191.023 20.0254C191.497 19.2113 191.733 18.0341 191.733 16.494C191.733 15.4713 191.625 14.607 191.408 13.9011C191.196 13.1912 190.889 12.6538 190.488 12.2888C190.091 11.9198 189.618 11.7353 189.068 11.7353C188.238 11.7353 187.586 12.1444 187.113 12.9626C186.64 13.7808 186.401 14.9579 186.397 16.494C186.397 17.5208 186.503 18.3891 186.716 19.099C186.933 19.8049 187.239 20.3403 187.636 20.7053C188.033 21.0662 188.511 21.2467 189.068 21.2467ZM200.004 22.853C199.053 22.849 198.241 22.5983 197.567 22.101C196.894 21.6037 196.378 20.8797 196.021 19.9292C195.664 18.9787 195.486 17.8336 195.486 16.494C195.486 15.1585 195.664 14.0174 196.021 13.0709C196.382 12.1244 196.9 11.4024 197.573 10.9051C198.251 10.4078 199.061 10.1591 200.004 10.1591C200.946 10.1591 201.755 10.4098 202.428 10.9111C203.102 11.4085 203.618 12.1304 203.974 13.0769C204.335 14.0194 204.516 15.1585 204.516 16.494C204.516 17.8376 204.337 18.9847 203.981 19.9352C203.624 20.8817 203.108 21.6057 202.434 22.107C201.761 22.6043 200.95 22.853 200.004 22.853ZM200.004 21.2467C200.838 21.2467 201.49 20.8396 201.959 20.0254C202.432 19.2113 202.669 18.0341 202.669 16.494C202.669 15.4713 202.561 14.607 202.344 13.9011C202.132 13.1912 201.825 12.6538 201.424 12.2888C201.027 11.9198 200.553 11.7353 200.004 11.7353C199.174 11.7353 198.522 12.1444 198.049 12.9626C197.575 13.7808 197.337 14.9579 197.333 16.494C197.333 17.5208 197.439 18.3891 197.652 19.099C197.868 19.8049 198.175 20.3403 198.572 20.7053C198.969 21.0662 199.446 21.2467 200.004 21.2467Z" fill="#A2A19F"/>
<path d="M184.151 40.8568C184.121 40.6028 183.999 40.4056 183.785 40.2652C183.571 40.1248 183.309 40.0546 182.998 40.0546C182.771 40.0546 182.572 40.0914 182.402 40.1649C182.233 40.2384 182.101 40.3396 182.006 40.4682C181.912 40.5969 181.865 40.7431 181.865 40.9069C181.865 41.0439 181.898 41.1617 181.963 41.2603C182.03 41.3573 182.115 41.4383 182.219 41.5035C182.322 41.567 182.431 41.6196 182.544 41.6614C182.658 41.7015 182.763 41.7341 182.858 41.7592L183.379 41.8995C183.513 41.9346 183.662 41.9831 183.825 42.0449C183.991 42.1068 184.149 42.1912 184.299 42.2981C184.451 42.4034 184.577 42.5387 184.675 42.7042C184.774 42.8696 184.823 43.0727 184.823 43.3133C184.823 43.5907 184.75 43.8414 184.605 44.0653C184.461 44.2893 184.251 44.4672 183.973 44.5992C183.698 44.7313 183.362 44.7973 182.968 44.7973C182.6 44.7973 182.282 44.7379 182.013 44.6193C181.746 44.5006 181.535 44.3352 181.381 44.123C181.229 43.9107 181.143 43.6643 181.123 43.3835H181.765C181.782 43.5774 181.847 43.7378 181.96 43.8648C182.076 43.9901 182.221 44.0837 182.397 44.1455C182.574 44.2057 182.764 44.2358 182.968 44.2358C183.205 44.2358 183.418 44.1973 183.607 44.1205C183.796 44.0419 183.946 43.9333 184.056 43.7946C184.166 43.6542 184.221 43.4905 184.221 43.3033C184.221 43.1328 184.174 42.9941 184.079 42.8872C183.983 42.7802 183.858 42.6933 183.703 42.6265C183.547 42.5596 183.379 42.5011 183.199 42.451L182.567 42.2705C182.166 42.1552 181.848 41.9906 181.614 41.7767C181.381 41.5628 181.264 41.2829 181.264 40.937C181.264 40.6495 181.341 40.3989 181.497 40.185C181.654 39.9694 181.864 39.8023 182.128 39.6836C182.394 39.5633 182.691 39.5032 183.018 39.5032C183.349 39.5032 183.643 39.5625 183.901 39.6811C184.158 39.7981 184.362 39.9585 184.512 40.1624C184.664 40.3663 184.744 40.5977 184.753 40.8568H184.151ZM187.379 44.7872C187.008 44.7872 186.688 44.7054 186.419 44.5416C186.152 44.3761 185.945 44.1455 185.8 43.8497C185.656 43.5523 185.584 43.2064 185.584 42.812C185.584 42.4176 185.656 42.07 185.8 41.7692C185.945 41.4667 186.148 41.2311 186.407 41.0623C186.667 40.8919 186.971 40.8066 187.319 40.8066C187.52 40.8066 187.718 40.8401 187.913 40.9069C188.109 40.9737 188.287 41.0824 188.447 41.2328C188.607 41.3815 188.735 41.5787 188.831 41.8243C188.926 42.07 188.973 42.3725 188.973 42.7318V42.9824H186.006V42.4711H188.372C188.372 42.2538 188.328 42.06 188.242 41.8895C188.156 41.7191 188.034 41.5845 187.876 41.4859C187.718 41.3873 187.533 41.338 187.319 41.338C187.083 41.338 186.88 41.3965 186.707 41.5135C186.537 41.6288 186.406 41.7792 186.314 41.9647C186.222 42.1502 186.176 42.3491 186.176 42.5613V42.9022C186.176 43.193 186.226 43.4395 186.326 43.6417C186.428 43.8422 186.57 43.9951 186.75 44.1004C186.931 44.204 187.14 44.2558 187.379 44.2558C187.535 44.2558 187.675 44.2341 187.8 44.1907C187.927 44.1455 188.037 44.0787 188.129 43.9901C188.221 43.8999 188.292 43.7879 188.342 43.6542L188.913 43.8147C188.853 44.0085 188.752 44.179 188.61 44.326C188.468 44.4714 188.292 44.585 188.084 44.6669C187.875 44.7471 187.64 44.7872 187.379 44.7872ZM191.438 44.7872C191.077 44.7872 190.766 44.702 190.505 44.5316C190.244 44.3611 190.044 44.1263 189.903 43.8272C189.763 43.5281 189.693 43.1863 189.693 42.802C189.693 42.4109 189.765 42.0658 189.908 41.7667C190.054 41.4659 190.256 41.2311 190.515 41.0623C190.776 40.8919 191.08 40.8066 191.428 40.8066C191.698 40.8066 191.942 40.8568 192.159 40.957C192.377 41.0573 192.555 41.1977 192.693 41.3782C192.832 41.5586 192.918 41.7692 192.952 42.0098H192.36C192.315 41.8344 192.215 41.679 192.059 41.5436C191.905 41.4066 191.698 41.338 191.438 41.338C191.207 41.338 191.005 41.3982 190.831 41.5185C190.659 41.6372 190.524 41.8051 190.427 42.0224C190.332 42.2379 190.284 42.4911 190.284 42.7819C190.284 43.0794 190.331 43.3384 190.425 43.559C190.52 43.7796 190.654 43.9508 190.826 44.0728C191 44.1948 191.204 44.2558 191.438 44.2558C191.591 44.2558 191.731 44.2291 191.856 44.1756C191.981 44.1221 192.088 44.0453 192.174 43.945C192.261 43.8447 192.323 43.7244 192.36 43.584H192.952C192.918 43.8113 192.835 44.016 192.703 44.1982C192.573 44.3787 192.4 44.5224 192.185 44.6293C191.971 44.7346 191.722 44.7872 191.438 44.7872ZM195.381 44.7872C195.033 44.7872 194.728 44.7045 194.466 44.5391C194.205 44.3736 194.001 44.1422 193.854 43.8447C193.709 43.5473 193.636 43.1997 193.636 42.802C193.636 42.4009 193.709 42.0508 193.854 41.7517C194.001 41.4525 194.205 41.2202 194.466 41.0548C194.728 40.8894 195.033 40.8066 195.381 40.8066C195.728 40.8066 196.032 40.8894 196.293 41.0548C196.555 41.2202 196.759 41.4525 196.905 41.7517C197.052 42.0508 197.125 42.4009 197.125 42.802C197.125 43.1997 197.052 43.5473 196.905 43.8447C196.759 44.1422 196.555 44.3736 196.293 44.5391C196.032 44.7045 195.728 44.7872 195.381 44.7872ZM195.381 44.2558C195.645 44.2558 195.862 44.1881 196.032 44.0528C196.203 43.9174 196.329 43.7395 196.411 43.5189C196.493 43.2983 196.534 43.0593 196.534 42.802C196.534 42.5446 196.493 42.3048 196.411 42.0825C196.329 41.8603 196.203 41.6806 196.032 41.5436C195.862 41.4066 195.645 41.338 195.381 41.338C195.117 41.338 194.899 41.4066 194.729 41.5436C194.558 41.6806 194.432 41.8603 194.35 42.0825C194.268 42.3048 194.227 42.5446 194.227 42.802C194.227 43.0593 194.268 43.2983 194.35 43.5189C194.432 43.7395 194.558 43.9174 194.729 44.0528C194.899 44.1881 195.117 44.2558 195.381 44.2558ZM198.62 42.3909V44.707H198.028V40.8568H198.6V41.4584H198.65C198.74 41.2628 198.877 41.1058 199.061 40.9871C199.245 40.8668 199.482 40.8066 199.773 40.8066C200.034 40.8066 200.262 40.8601 200.457 40.9671C200.653 41.0723 200.805 41.2328 200.913 41.4483C201.022 41.6622 201.076 41.933 201.076 42.2605V44.707H200.485V42.3006C200.485 41.9981 200.406 41.7625 200.249 41.5937C200.092 41.4233 199.876 41.338 199.602 41.338C199.414 41.338 199.245 41.379 199.096 41.4609C198.949 41.5428 198.833 41.6622 198.748 41.8193C198.662 41.9764 198.62 42.1669 198.62 42.3909ZM203.611 44.7872C203.29 44.7872 203.007 44.7062 202.761 44.5441C202.516 44.3803 202.324 44.1497 202.185 43.8523C202.046 43.5531 201.977 43.1997 201.977 42.7919C201.977 42.3875 202.046 42.0366 202.185 41.7391C202.324 41.4417 202.517 41.2119 202.764 41.0498C203.011 40.8877 203.297 40.8066 203.621 40.8066C203.872 40.8066 204.07 40.8484 204.215 40.932C204.362 41.0138 204.474 41.1074 204.551 41.2127C204.63 41.3163 204.691 41.4015 204.734 41.4684H204.784V39.5733H205.376V44.707H204.804V44.1155H204.734C204.691 44.1856 204.629 44.2742 204.549 44.3812C204.469 44.4864 204.354 44.5809 204.205 44.6644C204.057 44.7463 203.859 44.7872 203.611 44.7872ZM203.691 44.2558C203.929 44.2558 204.129 44.194 204.293 44.0703C204.457 43.945 204.581 43.772 204.667 43.5514C204.752 43.3292 204.794 43.0727 204.794 42.7819C204.794 42.4945 204.753 42.243 204.669 42.0274C204.586 41.8101 204.462 41.6414 204.298 41.521C204.134 41.399 203.932 41.338 203.691 41.338C203.441 41.338 203.232 41.4024 203.065 41.5311C202.899 41.6581 202.775 41.831 202.691 42.0499C202.609 42.2672 202.568 42.5112 202.568 42.7819C202.568 43.056 202.61 43.305 202.694 43.5289C202.779 43.7511 202.904 43.9283 203.07 44.0603C203.237 44.1907 203.444 44.2558 203.691 44.2558ZM209.269 41.7191L208.737 41.8695C208.704 41.7809 208.655 41.6948 208.59 41.6113C208.526 41.526 208.439 41.4559 208.329 41.4007C208.219 41.3456 208.077 41.318 207.905 41.318C207.67 41.318 207.473 41.3723 207.316 41.4809C207.161 41.5879 207.083 41.7241 207.083 41.8895C207.083 42.0366 207.136 42.1527 207.243 42.2379C207.35 42.3232 207.517 42.3942 207.745 42.451L208.316 42.5914C208.661 42.6749 208.917 42.8028 209.086 42.9749C209.255 43.1454 209.339 43.3651 209.339 43.6342C209.339 43.8548 209.276 44.052 209.149 44.2257C209.023 44.3995 208.848 44.5366 208.622 44.6368C208.397 44.7371 208.134 44.7872 207.835 44.7872C207.442 44.7872 207.117 44.702 206.86 44.5316C206.603 44.3611 206.44 44.1121 206.371 43.7846L206.933 43.6442C206.986 43.8514 207.087 44.0068 207.236 44.1104C207.386 44.214 207.583 44.2659 207.825 44.2659C208.101 44.2659 208.32 44.2074 208.482 44.0904C208.646 43.9717 208.727 43.8297 208.727 43.6643C208.727 43.5306 208.681 43.4186 208.587 43.3284C208.493 43.2364 208.35 43.1679 208.156 43.1228L207.514 42.9724C207.162 42.8888 206.903 42.7593 206.737 42.5839C206.573 42.4067 206.491 42.1853 206.491 41.9196C206.491 41.7024 206.552 41.5102 206.674 41.3431C206.798 41.1759 206.966 41.0448 207.178 40.9495C207.392 40.8543 207.634 40.8066 207.905 40.8066C208.286 40.8066 208.585 40.8902 208.803 41.0573C209.022 41.2244 209.177 41.445 209.269 41.7191Z" fill="#A2A19F"/>
<circle cx="48.9411" cy="11.2946" r="1.41176" fill="#E5E4E3"/>
<circle cx="48.9411" cy="22.5875" r="1.41176" fill="#E5E4E3"/>
<circle cx="107.295" cy="11.2946" r="1.41176" fill="#E5E4E3"/>
<circle cx="107.295" cy="22.5875" r="1.41176" fill="#E5E4E3"/>
<circle cx="165.646" cy="11.2946" r="1.41176" fill="#E5E4E3"/>
<circle cx="165.646" cy="22.5875" r="1.41176" fill="#E5E4E3"/>
</svg>
