<svg width="220" height="48" viewBox="0 0 220 48" fill="none" xmlns="http://www.w3.org/2000/svg">
<g clip-path="url(#clip0_5174_16631)">
<rect y="-0.00390625" width="19.3875" height="33.2357" rx="2.76964" fill="#E5E4E3"/>
<path d="M9.7 22.3139C8.7676 22.31 7.97094 22.0641 7.31 21.5763C6.64906 21.0884 6.14352 20.3783 5.79338 19.4459C5.44324 18.5135 5.26817 17.3903 5.26817 16.0763C5.26817 14.7663 5.44324 13.647 5.79338 12.7185C6.14746 11.7901 6.65496 11.0819 7.3159 10.5941C7.98077 10.1062 8.77547 9.86233 9.7 9.86233C10.6245 9.86233 11.4173 10.1082 12.0782 10.6C12.7391 11.0878 13.2447 11.796 13.5948 12.7244C13.9489 13.649 14.1259 14.7663 14.1259 16.0763C14.1259 17.3943 13.9509 18.5194 13.6007 19.4518C13.2506 20.3803 12.745 21.0904 12.0841 21.5822C11.4232 22.07 10.6285 22.3139 9.7 22.3139ZM9.7 20.7383C10.5183 20.7383 11.1576 20.339 11.6179 19.5403C12.0821 18.7417 12.3142 17.587 12.3142 16.0763C12.3142 15.0731 12.208 14.2253 11.9956 13.5329C11.7871 12.8365 11.4861 12.3094 11.0927 11.9514C10.7032 11.5894 10.239 11.4084 9.7 11.4084C8.88563 11.4084 8.24633 11.8097 7.7821 12.6123C7.31787 13.4149 7.08379 14.5695 7.07985 16.0763C7.07985 17.0835 7.18411 17.9352 7.39262 18.6316C7.60506 19.324 7.90602 19.8492 8.29551 20.2072C8.68499 20.5613 9.15315 20.7383 9.7 20.7383Z" fill="#A2A19F"/>
<rect x="22.1562" y="-0.00390625" width="19.3875" height="33.2357" rx="2.76964" fill="#E5E4E3"/>
<path d="M31.8562 22.3139C30.9239 22.31 30.1272 22.0641 29.4663 21.5763C28.8053 21.0884 28.2998 20.3783 27.9496 19.4459C27.5995 18.5135 27.4244 17.3903 27.4244 16.0763C27.4244 14.7663 27.5995 13.647 27.9496 12.7185C28.3037 11.7901 28.8112 11.0819 29.4722 10.5941C30.137 10.1062 30.9317 9.86233 31.8562 9.86233C32.7808 9.86233 33.5735 10.1082 34.2344 10.6C34.8954 11.0878 35.4009 11.796 35.7511 12.7244C36.1051 13.649 36.2822 14.7663 36.2822 16.0763C36.2822 17.3943 36.1071 18.5194 35.757 19.4518C35.4068 20.3803 34.9013 21.0904 34.2403 21.5822C33.5794 22.07 32.7847 22.3139 31.8562 22.3139ZM31.8562 20.7383C32.6746 20.7383 33.3139 20.339 33.7741 19.5403C34.2384 18.7417 34.4705 17.587 34.4705 16.0763C34.4705 15.0731 34.3643 14.2253 34.1518 13.5329C33.9433 12.8365 33.6424 12.3094 33.2489 11.9514C32.8595 11.5894 32.3952 11.4084 31.8562 11.4084C31.0419 11.4084 30.4026 11.8097 29.9383 12.6123C29.4741 13.4149 29.24 14.5695 29.2361 16.0763C29.2361 17.0835 29.3404 17.9352 29.5489 18.6316C29.7613 19.324 30.0623 19.8492 30.4518 20.2072C30.8412 20.5613 31.3094 20.7383 31.8562 20.7383Z" fill="#A2A19F"/>
<path d="M13.6399 45H11.7752V38.9571H13.7226C14.3088 38.9571 14.8104 39.0781 15.2274 39.3201C15.6444 39.56 15.964 39.9053 16.1863 40.3557C16.4086 40.8042 16.5197 41.3412 16.5197 41.9668C16.5197 42.5962 16.4076 43.1382 16.1834 43.5926C15.9591 44.045 15.6326 44.3932 15.2038 44.6371C14.7749 44.879 14.2537 45 13.6399 45ZM12.5069 44.3509H13.5927C14.0924 44.3509 14.5064 44.2545 14.8349 44.0617C15.1634 43.8689 15.4083 43.5945 15.5696 43.2385C15.7309 42.8824 15.8116 42.4585 15.8116 41.9668C15.8116 41.4789 15.7319 41.059 15.5726 40.7069C15.4133 40.3528 15.1752 40.0813 14.8585 39.8925C14.5418 39.7017 14.1475 39.6063 13.6754 39.6063H12.5069V44.3509ZM18.9865 45.1062C18.6993 45.1062 18.4386 45.0521 18.2045 44.9439C17.9705 44.8338 17.7846 44.6754 17.6469 44.4689C17.5092 44.2604 17.4403 44.0086 17.4403 43.7135C17.4403 43.4539 17.4915 43.2434 17.5938 43.0821C17.6961 42.9188 17.8328 42.791 18.0039 42.6985C18.175 42.6061 18.3639 42.5372 18.5704 42.492C18.7789 42.4448 18.9884 42.4074 19.1989 42.3799C19.4743 42.3444 19.6976 42.3179 19.8687 42.3002C20.0418 42.2805 20.1677 42.2481 20.2464 42.2028C20.327 42.1576 20.3673 42.0789 20.3673 41.9668V41.9432C20.3673 41.652 20.2877 41.4258 20.1283 41.2645C19.971 41.1032 19.732 41.0226 19.4113 41.0226C19.0789 41.0226 18.8183 41.0954 18.6294 41.2409C18.4406 41.3865 18.3078 41.5419 18.2311 41.7071L17.5702 41.4711C17.6882 41.1957 17.8456 40.9813 18.0423 40.8278C18.2409 40.6724 18.4573 40.5642 18.6914 40.5033C18.9274 40.4403 19.1596 40.4088 19.3877 40.4088C19.5333 40.4088 19.7005 40.4265 19.8893 40.462C20.0802 40.4954 20.2641 40.5652 20.4411 40.6714C20.6201 40.7777 20.7686 40.938 20.8867 41.1524C21.0047 41.3668 21.0637 41.654 21.0637 42.014V45H20.3673V44.3863H20.3319C20.2847 44.4846 20.206 44.5899 20.0959 44.702C19.9857 44.8141 19.8392 44.9095 19.6562 44.9882C19.4733 45.0669 19.25 45.1062 18.9865 45.1062ZM19.0927 44.4807C19.3681 44.4807 19.6002 44.4266 19.789 44.3184C19.9798 44.2102 20.1234 44.0706 20.2198 43.8994C20.3182 43.7283 20.3673 43.5483 20.3673 43.3595V42.7221C20.3378 42.7575 20.2729 42.79 20.1726 42.8195C20.0743 42.847 19.9602 42.8716 19.8303 42.8933C19.7025 42.9129 19.5776 42.9306 19.4556 42.9464C19.3356 42.9601 19.2382 42.9719 19.1635 42.9818C18.9825 43.0054 18.8134 43.0437 18.656 43.0969C18.5006 43.148 18.3747 43.2257 18.2783 43.33C18.1839 43.4322 18.1367 43.5719 18.1367 43.7489C18.1367 43.9909 18.2262 44.1738 18.4052 44.2978C18.5862 44.4197 18.8153 44.4807 19.0927 44.4807ZM22.6209 46.6996C22.5029 46.6996 22.3976 46.6897 22.3052 46.67C22.2127 46.6523 22.1488 46.6346 22.1134 46.6169L22.2904 46.0032C22.4596 46.0465 22.6091 46.0622 22.7389 46.0504C22.8687 46.0386 22.9838 45.9806 23.0841 45.8763C23.1864 45.774 23.2799 45.6078 23.3644 45.3777L23.4943 45.0236L21.8183 40.4679H22.5737L23.8247 44.0794H23.8719L25.123 40.4679H25.8784L23.9546 45.6609C23.868 45.895 23.7608 46.0888 23.6329 46.2422C23.5051 46.3976 23.3566 46.5127 23.1874 46.5874C23.0202 46.6622 22.8314 46.6996 22.6209 46.6996ZM30.0077 41.4829L29.3822 41.6599C29.3429 41.5556 29.2848 41.4543 29.2081 41.356C29.1334 41.2557 29.0311 41.1731 28.9013 41.1081C28.7714 41.0432 28.6052 41.0108 28.4026 41.0108C28.1253 41.0108 27.8941 41.0747 27.7092 41.2026C27.5263 41.3285 27.4348 41.4888 27.4348 41.6835C27.4348 41.8566 27.4978 41.9933 27.6236 42.0936C27.7495 42.194 27.9462 42.2776 28.2138 42.3444L28.8865 42.5097C29.2917 42.608 29.5937 42.7585 29.7923 42.9611C29.991 43.1618 30.0904 43.4204 30.0904 43.7371C30.0904 43.9968 30.0156 44.2289 29.8661 44.4335C29.7186 44.6381 29.512 44.7994 29.2465 44.9174C28.9809 45.0354 28.6721 45.0944 28.32 45.0944C27.8577 45.0944 27.4751 44.9941 27.1722 44.7935C26.8693 44.5928 26.6775 44.2997 26.5968 43.9142L27.2578 43.7489C27.3207 43.9929 27.4397 44.1758 27.6148 44.2978C27.7918 44.4197 28.023 44.4807 28.3082 44.4807C28.6328 44.4807 28.8904 44.4118 29.0812 44.2741C29.274 44.1345 29.3704 43.9673 29.3704 43.7725C29.3704 43.6152 29.3153 43.4834 29.2052 43.3772C29.095 43.269 28.9259 43.1883 28.6977 43.1352L27.9423 42.9582C27.5273 42.8598 27.2224 42.7074 27.0276 42.5008C26.8348 42.2923 26.7385 42.0317 26.7385 41.7189C26.7385 41.4632 26.8103 41.237 26.9539 41.0403C27.0994 40.8436 27.2971 40.6892 27.5469 40.577C27.7987 40.4649 28.0839 40.4088 28.4026 40.4088C28.8511 40.4088 29.2032 40.5072 29.4589 40.7039C29.7166 40.9006 29.8996 41.1603 30.0077 41.4829Z" fill="#A2A19F"/>
<rect x="49.8535" y="-0.00390625" width="19.3875" height="33.2357" rx="2.76964" fill="#E5E4E3"/>
<path d="M59.5535 22.3139C58.6211 22.31 57.8245 22.0641 57.1635 21.5763C56.5026 21.0884 55.997 20.3783 55.6469 19.4459C55.2968 18.5135 55.1217 17.3903 55.1217 16.0763C55.1217 14.7663 55.2968 13.647 55.6469 12.7185C56.001 11.7901 56.5085 11.0819 57.1694 10.5941C57.8343 10.1062 58.629 9.86233 59.5535 9.86233C60.478 9.86233 61.2708 10.1082 61.9317 10.6C62.5926 11.0878 63.0982 11.796 63.4483 12.7244C63.8024 13.649 63.9794 14.7663 63.9794 16.0763C63.9794 17.3943 63.8044 18.5194 63.4542 19.4518C63.1041 20.3803 62.5985 21.0904 61.9376 21.5822C61.2767 22.07 60.482 22.3139 59.5535 22.3139ZM59.5535 20.7383C60.3718 20.7383 61.0111 20.339 61.4714 19.5403C61.9356 18.7417 62.1678 17.587 62.1678 16.0763C62.1678 15.0731 62.0615 14.2253 61.8491 13.5329C61.6406 12.8365 61.3396 12.3094 60.9462 11.9514C60.5567 11.5894 60.0925 11.4084 59.5535 11.4084C58.7391 11.4084 58.0998 11.8097 57.6356 12.6123C57.1714 13.4149 56.9373 14.5695 56.9334 16.0763C56.9334 17.0835 57.0376 17.9352 57.2461 18.6316C57.4586 19.324 57.7595 19.8492 58.149 20.2072C58.5385 20.5613 59.0067 20.7383 59.5535 20.7383Z" fill="#A2A19F"/>
<rect x="72.0098" y="-0.00390625" width="19.3875" height="33.2357" rx="2.76964" fill="#E5E4E3"/>
<path d="M81.7098 22.3139C80.7774 22.31 79.9807 22.0641 79.3198 21.5763C78.6588 21.0884 78.1533 20.3783 77.8031 19.4459C77.453 18.5135 77.2779 17.3903 77.2779 16.0763C77.2779 14.7663 77.453 13.647 77.8031 12.7185C78.1572 11.7901 78.6647 11.0819 79.3257 10.5941C79.9905 10.1062 80.7852 9.86233 81.7098 9.86233C82.6343 9.86233 83.427 10.1082 84.088 10.6C84.7489 11.0878 85.2544 11.796 85.6046 12.7244C85.9586 13.649 86.1357 14.7663 86.1357 16.0763C86.1357 17.3943 85.9606 18.5194 85.6105 19.4518C85.2603 20.3803 84.7548 21.0904 84.0939 21.5822C83.4329 22.07 82.6382 22.3139 81.7098 22.3139ZM81.7098 20.7383C82.5281 20.7383 83.1674 20.339 83.6277 19.5403C84.0919 18.7417 84.324 17.587 84.324 16.0763C84.324 15.0731 84.2178 14.2253 84.0053 13.5329C83.7968 12.8365 83.4959 12.3094 83.1025 11.9514C82.713 11.5894 82.2487 11.4084 81.7098 11.4084C80.8954 11.4084 80.2561 11.8097 79.7919 12.6123C79.3276 13.4149 79.0936 14.5695 79.0896 16.0763C79.0896 17.0835 79.1939 17.9352 79.4024 18.6316C79.6148 19.324 79.9158 19.8492 80.3053 20.2072C80.6948 20.5613 81.1629 20.7383 81.7098 20.7383Z" fill="#A2A19F"/>
<path d="M59.6732 45V38.9571H60.4049V41.6481H63.627V38.9571H64.3587V45H63.627V42.2972H60.4049V45H59.6732ZM67.5705 45.0944C67.1613 45.0944 66.8023 44.997 66.4935 44.8023C66.1866 44.6076 65.9466 44.3351 65.7735 43.985C65.6024 43.6348 65.5168 43.2257 65.5168 42.7575C65.5168 42.2854 65.6024 41.8733 65.7735 41.5212C65.9466 41.1691 66.1866 40.8957 66.4935 40.701C66.8023 40.5062 67.1613 40.4088 67.5705 40.4088C67.9796 40.4088 68.3376 40.5062 68.6445 40.701C68.9533 40.8957 69.1933 41.1691 69.3644 41.5212C69.5375 41.8733 69.6241 42.2854 69.6241 42.7575C69.6241 43.2257 69.5375 43.6348 69.3644 43.985C69.1933 44.3351 68.9533 44.6076 68.6445 44.8023C68.3376 44.997 67.9796 45.0944 67.5705 45.0944ZM67.5705 44.4689C67.8813 44.4689 68.137 44.3892 68.3376 44.2299C68.5383 44.0706 68.6868 43.8611 68.7832 43.6014C68.8796 43.3418 68.9278 43.0605 68.9278 42.7575C68.9278 42.4546 68.8796 42.1723 68.7832 41.9107C68.6868 41.6491 68.5383 41.4376 68.3376 41.2763C68.137 41.115 67.8813 41.0344 67.5705 41.0344C67.2597 41.0344 67.004 41.115 66.8033 41.2763C66.6027 41.4376 66.4542 41.6491 66.3578 41.9107C66.2614 42.1723 66.2132 42.4546 66.2132 42.7575C66.2132 43.0605 66.2614 43.3418 66.3578 43.6014C66.4542 43.8611 66.6027 44.0706 66.8033 44.2299C67.004 44.3892 67.2597 44.4689 67.5705 44.4689ZM73.5433 43.147V40.4679H74.2396V45H73.5433V44.2328H73.496C73.3898 44.463 73.2246 44.6587 73.0003 44.82C72.7761 44.9793 72.4928 45.059 72.1506 45.059C71.8673 45.059 71.6155 44.997 71.3952 44.8731C71.1749 44.7472 71.0018 44.5584 70.8759 44.3066C70.75 44.0529 70.6871 43.7332 70.6871 43.3477V40.4679H71.3834V43.3004C71.3834 43.6309 71.4759 43.8945 71.6608 44.0912C71.8476 44.2879 72.0856 44.3863 72.3748 44.3863C72.5479 44.3863 72.724 44.342 72.903 44.2535C73.0839 44.165 73.2354 44.0292 73.3574 43.8463C73.4813 43.6634 73.5433 43.4303 73.5433 43.147ZM75.515 45V40.4679H76.1877V41.1524H76.235C76.3176 40.9282 76.4671 40.7462 76.6834 40.6065C76.8998 40.4669 77.1437 40.397 77.4152 40.397C77.4663 40.397 77.5303 40.398 77.607 40.4C77.6837 40.402 77.7417 40.4049 77.7811 40.4088V41.117C77.7575 41.1111 77.7034 41.1022 77.6188 41.0904C77.5362 41.0767 77.4486 41.0698 77.3562 41.0698C77.1359 41.0698 76.9392 41.116 76.7661 41.2085C76.5949 41.2989 76.4592 41.4248 76.3589 41.5861C76.2605 41.7455 76.2113 41.9274 76.2113 42.132V45H75.515ZM81.8168 41.4829L81.1912 41.6599C81.1519 41.5556 81.0939 41.4543 81.0172 41.356C80.9424 41.2557 80.8401 41.1731 80.7103 41.1081C80.5805 41.0432 80.4143 41.0108 80.2116 41.0108C79.9343 41.0108 79.7032 41.0747 79.5182 41.2026C79.3353 41.3285 79.2438 41.4888 79.2438 41.6835C79.2438 41.8566 79.3068 41.9933 79.4327 42.0936C79.5586 42.194 79.7553 42.2776 80.0228 42.3444L80.6955 42.5097C81.1008 42.608 81.4027 42.7585 81.6014 42.9611C81.8001 43.1618 81.8994 43.4204 81.8994 43.7371C81.8994 43.9968 81.8246 44.2289 81.6751 44.4335C81.5276 44.6381 81.3211 44.7994 81.0555 44.9174C80.79 45.0354 80.4811 45.0944 80.129 45.0944C79.6668 45.0944 79.2842 44.9941 78.9812 44.7935C78.6783 44.5928 78.4865 44.2997 78.4059 43.9142L79.0668 43.7489C79.1298 43.9929 79.2488 44.1758 79.4238 44.2978C79.6009 44.4197 79.832 44.4807 80.1172 44.4807C80.4418 44.4807 80.6995 44.4118 80.8903 44.2741C81.0831 44.1345 81.1794 43.9673 81.1794 43.7725C81.1794 43.6152 81.1244 43.4834 81.0142 43.3772C80.9041 43.269 80.7349 43.1883 80.5067 43.1352L79.7513 42.9582C79.3363 42.8598 79.0314 42.7074 78.8367 42.5008C78.6439 42.2923 78.5475 42.0317 78.5475 41.7189C78.5475 41.4632 78.6193 41.237 78.7629 41.0403C78.9085 40.8436 79.1061 40.6892 79.356 40.577C79.6078 40.4649 79.893 40.4088 80.2116 40.4088C80.6601 40.4088 81.0122 40.5072 81.268 40.7039C81.5256 40.9006 81.7086 41.1603 81.8168 41.4829Z" fill="#A2A19F"/>
<rect x="99.707" y="-0.00390625" width="19.3875" height="33.2357" rx="2.76964" fill="#E5E4E3"/>
<path d="M109.407 22.3139C108.475 22.31 107.678 22.0641 107.017 21.5763C106.356 21.0884 105.851 20.3783 105.5 19.4459C105.15 18.5135 104.975 17.3903 104.975 16.0763C104.975 14.7663 105.15 13.647 105.5 12.7185C105.854 11.7901 106.362 11.0819 107.023 10.5941C107.688 10.1062 108.483 9.86233 109.407 9.86233C110.332 9.86233 111.124 10.1082 111.785 10.6C112.446 11.0878 112.952 11.796 113.302 12.7244C113.656 13.649 113.833 14.7663 113.833 16.0763C113.833 17.3943 113.658 18.5194 113.308 19.4518C112.958 20.3803 112.452 21.0904 111.791 21.5822C111.13 22.07 110.335 22.3139 109.407 22.3139ZM109.407 20.7383C110.225 20.7383 110.865 20.339 111.325 19.5403C111.789 18.7417 112.021 17.587 112.021 16.0763C112.021 15.0731 111.915 14.2253 111.703 13.5329C111.494 12.8365 111.193 12.3094 110.8 11.9514C110.41 11.5894 109.946 11.4084 109.407 11.4084C108.593 11.4084 107.953 11.8097 107.489 12.6123C107.025 13.4149 106.791 14.5695 106.787 16.0763C106.787 17.0835 106.891 17.9352 107.1 18.6316C107.312 19.324 107.613 19.8492 108.003 20.2072C108.392 20.5613 108.86 20.7383 109.407 20.7383Z" fill="#A2A19F"/>
<rect x="121.863" y="-0.00390625" width="19.3875" height="33.2357" rx="2.76964" fill="#E5E4E3"/>
<path d="M131.563 22.3139C130.631 22.31 129.834 22.0641 129.173 21.5763C128.512 21.0884 128.007 20.3783 127.657 19.4459C127.307 18.5135 127.131 17.3903 127.131 16.0763C127.131 14.7663 127.307 13.647 127.657 12.7185C128.011 11.7901 128.518 11.0819 129.179 10.5941C129.844 10.1062 130.639 9.86233 131.563 9.86233C132.488 9.86233 133.281 10.1082 133.941 10.6C134.602 11.0878 135.108 11.796 135.458 12.7244C135.812 13.649 135.989 14.7663 135.989 16.0763C135.989 17.3943 135.814 18.5194 135.464 19.4518C135.114 20.3803 134.608 21.0904 133.947 21.5822C133.286 22.07 132.492 22.3139 131.563 22.3139ZM131.563 20.7383C132.382 20.7383 133.021 20.339 133.481 19.5403C133.945 18.7417 134.178 17.587 134.178 16.0763C134.178 15.0731 134.071 14.2253 133.859 13.5329C133.65 12.8365 133.349 12.3094 132.956 11.9514C132.566 11.5894 132.102 11.4084 131.563 11.4084C130.749 11.4084 130.11 11.8097 129.645 12.6123C129.181 13.4149 128.947 14.5695 128.943 16.0763C128.943 17.0835 129.047 17.9352 129.256 18.6316C129.468 19.324 129.769 19.8492 130.159 20.2072C130.548 20.5613 131.016 20.7383 131.563 20.7383Z" fill="#A2A19F"/>
<path d="M105.612 38.9571H106.485L108.539 43.9732H108.609L110.663 38.9571H111.536V45H110.852V40.4088H110.793L108.904 45H108.244L106.355 40.4088H106.296V45H105.612V38.9571ZM112.909 45V40.4679H113.606V45H112.909ZM113.263 39.7125C113.128 39.7125 113.01 39.6663 112.912 39.5738C112.816 39.4814 112.768 39.3702 112.768 39.2404C112.768 39.1106 112.816 38.9994 112.912 38.907C113.01 38.8145 113.128 38.7683 113.263 38.7683C113.399 38.7683 113.515 38.8145 113.611 38.907C113.71 38.9994 113.759 39.1106 113.759 39.2404C113.759 39.3702 113.71 39.4814 113.611 39.5738C113.515 39.6663 113.399 39.7125 113.263 39.7125ZM115.577 42.2736V45H114.881V40.4679H115.554V41.176H115.613C115.719 40.9459 115.88 40.761 116.097 40.6213C116.313 40.4797 116.592 40.4088 116.935 40.4088C117.241 40.4088 117.51 40.4718 117.74 40.5977C117.97 40.7216 118.149 40.9104 118.277 41.1642C118.405 41.416 118.469 41.7347 118.469 42.1202V45H117.773V42.1674C117.773 41.8114 117.68 41.534 117.495 41.3353C117.31 41.1347 117.057 41.0344 116.734 41.0344C116.512 41.0344 116.313 41.0826 116.138 41.179C115.965 41.2753 115.828 41.416 115.728 41.6009C115.627 41.7858 115.577 42.01 115.577 42.2736ZM122.598 43.147V40.4679H123.294V45H122.598V44.2328H122.55C122.444 44.463 122.279 44.6587 122.055 44.82C121.83 44.9793 121.547 45.059 121.205 45.059C120.922 45.059 120.67 44.997 120.449 44.8731C120.229 44.7472 120.056 44.5584 119.93 44.3066C119.804 44.0529 119.741 43.7332 119.741 43.3477V40.4679H120.438V43.3004C120.438 43.6309 120.53 43.8945 120.715 44.0912C120.902 44.2879 121.14 44.3863 121.429 44.3863C121.602 44.3863 121.778 44.342 121.957 44.2535C122.138 44.165 122.29 44.0292 122.412 43.8463C122.536 43.6634 122.598 43.4303 122.598 43.147ZM126.54 40.4679V41.058H124.192V40.4679H126.54ZM124.876 39.382H125.572V43.7017C125.572 43.8984 125.601 44.046 125.658 44.1443C125.717 44.2407 125.792 44.3056 125.882 44.3391C125.975 44.3705 126.072 44.3863 126.174 44.3863C126.251 44.3863 126.314 44.3823 126.363 44.3745C126.412 44.3646 126.452 44.3568 126.481 44.3509L126.623 44.9764C126.576 44.9941 126.51 45.0118 126.425 45.0295C126.341 45.0492 126.233 45.059 126.104 45.059C125.907 45.059 125.714 45.0167 125.525 44.9321C125.338 44.8476 125.183 44.7187 125.059 44.5456C124.937 44.3725 124.876 44.1542 124.876 43.8906V39.382ZM129.439 45.0944C129.003 45.0944 128.626 44.998 128.309 44.8053C127.994 44.6105 127.752 44.3391 127.58 43.9909C127.411 43.6408 127.327 43.2336 127.327 42.7693C127.327 42.3051 127.411 41.896 127.58 41.5419C127.752 41.1858 127.99 40.9085 128.294 40.7098C128.601 40.5092 128.959 40.4088 129.368 40.4088C129.604 40.4088 129.838 40.4482 130.068 40.5269C130.298 40.6056 130.507 40.7334 130.696 40.9104C130.885 41.0855 131.036 41.3176 131.148 41.6068C131.26 41.896 131.316 42.252 131.316 42.6749V42.97H127.822V42.3681H130.608C130.608 42.1123 130.557 41.8842 130.454 41.6835C130.354 41.4829 130.21 41.3245 130.023 41.2085C129.839 41.0924 129.62 41.0344 129.368 41.0344C129.091 41.0344 128.851 41.1032 128.648 41.2409C128.448 41.3766 128.293 41.5537 128.185 41.772C128.077 41.9904 128.023 42.2245 128.023 42.4743V42.8756C128.023 43.2178 128.082 43.508 128.2 43.746C128.32 43.982 128.486 44.162 128.699 44.286C128.911 44.4079 129.158 44.4689 129.439 44.4689C129.622 44.4689 129.787 44.4433 129.935 44.3922C130.084 44.3391 130.213 44.2604 130.321 44.1561C130.43 44.0499 130.513 43.9181 130.572 43.7607L131.245 43.9496C131.174 44.1778 131.055 44.3784 130.888 44.5515C130.721 44.7226 130.514 44.8564 130.268 44.9528C130.022 45.0472 129.746 45.0944 129.439 45.0944ZM135.585 41.4829L134.96 41.6599C134.921 41.5556 134.862 41.4543 134.786 41.356C134.711 41.2557 134.609 41.1731 134.479 41.1081C134.349 41.0432 134.183 41.0108 133.98 41.0108C133.703 41.0108 133.472 41.0747 133.287 41.2026C133.104 41.3285 133.012 41.4888 133.012 41.6835C133.012 41.8566 133.075 41.9933 133.201 42.0936C133.327 42.194 133.524 42.2776 133.791 42.3444L134.464 42.5097C134.869 42.608 135.171 42.7585 135.37 42.9611C135.569 43.1618 135.668 43.4204 135.668 43.7371C135.668 43.9968 135.593 44.2289 135.444 44.4335C135.296 44.6381 135.09 44.7994 134.824 44.9174C134.559 45.0354 134.25 45.0944 133.898 45.0944C133.435 45.0944 133.053 44.9941 132.75 44.7935C132.447 44.5928 132.255 44.2997 132.174 43.9142L132.835 43.7489C132.898 43.9929 133.017 44.1758 133.192 44.2978C133.369 44.4197 133.601 44.4807 133.886 44.4807C134.21 44.4807 134.468 44.4118 134.659 44.2741C134.852 44.1345 134.948 43.9673 134.948 43.7725C134.948 43.6152 134.893 43.4834 134.783 43.3772C134.673 43.269 134.503 43.1883 134.275 43.1352L133.52 42.9582C133.105 42.8598 132.8 42.7074 132.605 42.5008C132.412 42.2923 132.316 42.0317 132.316 41.7189C132.316 41.4632 132.388 41.237 132.532 41.0403C132.677 40.8436 132.875 40.6892 133.125 40.577C133.376 40.4649 133.662 40.4088 133.98 40.4088C134.429 40.4088 134.781 40.5072 135.037 40.7039C135.294 40.9006 135.477 41.1603 135.585 41.4829Z" fill="#A2A19F"/>
<rect x="149.561" y="-0.00390625" width="19.3875" height="33.2357" rx="2.76964" fill="#E5E4E3"/>
<path d="M159.261 22.3139C158.328 22.31 157.531 22.0641 156.871 21.5763C156.21 21.0884 155.704 20.3783 155.354 19.4459C155.004 18.5135 154.829 17.3903 154.829 16.0763C154.829 14.7663 155.004 13.647 155.354 12.7185C155.708 11.7901 156.216 11.0819 156.876 10.5941C157.541 10.1062 158.336 9.86233 159.261 9.86233C160.185 9.86233 160.978 10.1082 161.639 10.6C162.3 11.0878 162.805 11.796 163.155 12.7244C163.509 13.649 163.686 14.7663 163.686 16.0763C163.686 17.3943 163.511 18.5194 163.161 19.4518C162.811 20.3803 162.306 21.0904 161.645 21.5822C160.984 22.07 160.189 22.3139 159.261 22.3139ZM159.261 20.7383C160.079 20.7383 160.718 20.339 161.178 19.5403C161.643 18.7417 161.875 17.587 161.875 16.0763C161.875 15.0731 161.769 14.2253 161.556 13.5329C161.348 12.8365 161.047 12.3094 160.653 11.9514C160.264 11.5894 159.8 11.4084 159.261 11.4084C158.446 11.4084 157.807 11.8097 157.343 12.6123C156.878 13.4149 156.644 14.5695 156.64 16.0763C156.64 17.0835 156.745 17.9352 156.953 18.6316C157.166 19.324 157.467 19.8492 157.856 20.2072C158.246 20.5613 158.714 20.7383 159.261 20.7383Z" fill="#A2A19F"/>
<rect x="171.717" y="-0.00390625" width="19.3875" height="33.2357" rx="2.76964" fill="#E5E4E3"/>
<path d="M181.417 22.3139C180.484 22.31 179.688 22.0641 179.027 21.5763C178.366 21.0884 177.86 20.3783 177.51 19.4459C177.16 18.5135 176.985 17.3903 176.985 16.0763C176.985 14.7663 177.16 13.647 177.51 12.7185C177.864 11.7901 178.372 11.0819 179.033 10.5941C179.698 10.1062 180.492 9.86233 181.417 9.86233C182.341 9.86233 183.134 10.1082 183.795 10.6C184.456 11.0878 184.961 11.796 185.312 12.7244C185.666 13.649 185.843 14.7663 185.843 16.0763C185.843 17.3943 185.668 18.5194 185.318 19.4518C184.967 20.3803 184.462 21.0904 183.801 21.5822C183.14 22.07 182.345 22.3139 181.417 22.3139ZM181.417 20.7383C182.235 20.7383 182.874 20.339 183.335 19.5403C183.799 18.7417 184.031 17.587 184.031 16.0763C184.031 15.0731 183.925 14.2253 183.712 13.5329C183.504 12.8365 183.203 12.3094 182.809 11.9514C182.42 11.5894 181.956 11.4084 181.417 11.4084C180.602 11.4084 179.963 11.8097 179.499 12.6123C179.035 13.4149 178.801 14.5695 178.797 16.0763C178.797 17.0835 178.901 17.9352 179.109 18.6316C179.322 19.324 179.623 19.8492 180.012 20.2072C180.402 20.5613 180.87 20.7383 181.417 20.7383Z" fill="#A2A19F"/>
<path d="M157.321 40.4679C157.286 40.1689 157.142 39.9367 156.891 39.7715C156.639 39.6063 156.33 39.5237 155.964 39.5237C155.697 39.5237 155.463 39.5669 155.262 39.6535C155.063 39.74 154.908 39.859 154.796 40.0105C154.686 40.162 154.63 40.3341 154.63 40.5269C154.63 40.6882 154.669 40.8268 154.746 40.9429C154.824 41.057 154.925 41.1524 155.046 41.2291C155.168 41.3039 155.296 41.3658 155.43 41.415C155.564 41.4622 155.687 41.5006 155.799 41.5301L156.413 41.6953C156.57 41.7366 156.745 41.7937 156.938 41.8664C157.133 41.9392 157.318 42.0386 157.495 42.1645C157.674 42.2884 157.822 42.4477 157.938 42.6425C158.054 42.8372 158.112 43.0762 158.112 43.3595C158.112 43.686 158.027 43.9811 157.855 44.2446C157.686 44.5082 157.438 44.7177 157.112 44.8731C156.787 45.0285 156.393 45.1062 155.929 45.1062C155.496 45.1062 155.121 45.0364 154.805 44.8967C154.49 44.7571 154.242 44.5623 154.061 44.3125C153.882 44.0627 153.781 43.7725 153.757 43.4421H154.512C154.532 43.6703 154.609 43.8591 154.743 44.0086C154.878 44.1561 155.049 44.2663 155.256 44.3391C155.464 44.4099 155.689 44.4453 155.929 44.4453C156.208 44.4453 156.459 44.4 156.681 44.3096C156.903 44.2171 157.079 44.0892 157.209 43.926C157.339 43.7607 157.404 43.568 157.404 43.3477C157.404 43.147 157.348 42.9837 157.236 42.8579C157.124 42.732 156.976 42.6297 156.793 42.551C156.61 42.4723 156.413 42.4035 156.2 42.3444L155.457 42.132C154.985 41.9963 154.611 41.8025 154.335 41.5507C154.06 41.2989 153.922 40.9695 153.922 40.5623C153.922 40.2239 154.014 39.9289 154.197 39.6771C154.382 39.4233 154.629 39.2266 154.94 39.087C155.253 38.9453 155.602 38.8745 155.988 38.8745C156.377 38.8745 156.723 38.9444 157.026 39.084C157.329 39.2217 157.569 39.4106 157.746 39.6505C157.925 39.8905 158.02 40.163 158.03 40.4679H157.321ZM161.121 45.0944C160.684 45.0944 160.308 44.998 159.991 44.8053C159.676 44.6105 159.433 44.3391 159.262 43.9909C159.093 43.6408 159.008 43.2336 159.008 42.7693C159.008 42.3051 159.093 41.896 159.262 41.5419C159.433 41.1858 159.671 40.9085 159.976 40.7098C160.283 40.5092 160.641 40.4088 161.05 40.4088C161.286 40.4088 161.519 40.4482 161.75 40.5269C161.98 40.6056 162.189 40.7334 162.378 40.9104C162.567 41.0855 162.717 41.3176 162.829 41.6068C162.942 41.896 162.998 42.252 162.998 42.6749V42.97H159.504V42.3681H162.289C162.289 42.1123 162.238 41.8842 162.136 41.6835C162.036 41.4829 161.892 41.3245 161.705 41.2085C161.52 41.0924 161.302 41.0344 161.05 41.0344C160.773 41.0344 160.533 41.1032 160.33 41.2409C160.13 41.3766 159.975 41.5537 159.867 41.772C159.759 41.9904 159.705 42.2245 159.705 42.4743V42.8756C159.705 43.2178 159.764 43.508 159.882 43.746C160.002 43.982 160.168 44.162 160.38 44.286C160.593 44.4079 160.84 44.4689 161.121 44.4689C161.304 44.4689 161.469 44.4433 161.617 44.3922C161.766 44.3391 161.895 44.2604 162.003 44.1561C162.111 44.0499 162.195 43.9181 162.254 43.7607L162.927 43.9496C162.856 44.1778 162.737 44.3784 162.57 44.5515C162.403 44.7226 162.196 44.8564 161.95 44.9528C161.704 45.0472 161.428 45.0944 161.121 45.0944ZM165.898 45.0944C165.473 45.0944 165.107 44.9941 164.8 44.7935C164.494 44.5928 164.258 44.3164 164.092 43.9643C163.927 43.6122 163.844 43.21 163.844 42.7575C163.844 42.2972 163.929 41.891 164.098 41.5389C164.269 41.1849 164.507 40.9085 164.812 40.7098C165.119 40.5092 165.477 40.4088 165.886 40.4088C166.205 40.4088 166.492 40.4679 166.748 40.5859C167.004 40.7039 167.213 40.8691 167.376 41.0816C167.54 41.294 167.641 41.5419 167.68 41.8251H166.984C166.931 41.6186 166.813 41.4357 166.63 41.2763C166.449 41.115 166.205 41.0344 165.898 41.0344C165.627 41.0344 165.389 41.1052 165.184 41.2468C164.981 41.3865 164.823 41.5842 164.709 41.8399C164.597 42.0936 164.541 42.3917 164.541 42.7339C164.541 43.0841 164.596 43.389 164.706 43.6486C164.818 43.9083 164.976 44.1099 165.178 44.2535C165.383 44.3971 165.623 44.4689 165.898 44.4689C166.079 44.4689 166.243 44.4374 166.391 44.3745C166.538 44.3115 166.663 44.221 166.766 44.103C166.868 43.985 166.941 43.8434 166.984 43.6781H167.68C167.641 43.9456 167.544 44.1866 167.388 44.401C167.235 44.6135 167.031 44.7826 166.777 44.9085C166.526 45.0325 166.232 45.0944 165.898 45.0944ZM170.539 45.0944C170.13 45.0944 169.771 44.997 169.462 44.8023C169.156 44.6076 168.916 44.3351 168.742 43.985C168.571 43.6348 168.486 43.2257 168.486 42.7575C168.486 42.2854 168.571 41.8733 168.742 41.5212C168.916 41.1691 169.156 40.8957 169.462 40.701C169.771 40.5062 170.13 40.4088 170.539 40.4088C170.949 40.4088 171.307 40.5062 171.613 40.701C171.922 40.8957 172.162 41.1691 172.333 41.5212C172.506 41.8733 172.593 42.2854 172.593 42.7575C172.593 43.2257 172.506 43.6348 172.333 43.985C172.162 44.3351 171.922 44.6076 171.613 44.8023C171.307 44.997 170.949 45.0944 170.539 45.0944ZM170.539 44.4689C170.85 44.4689 171.106 44.3892 171.307 44.2299C171.507 44.0706 171.656 43.8611 171.752 43.6014C171.848 43.3418 171.897 43.0605 171.897 42.7575C171.897 42.4546 171.848 42.1723 171.752 41.9107C171.656 41.6491 171.507 41.4376 171.307 41.2763C171.106 41.115 170.85 41.0344 170.539 41.0344C170.229 41.0344 169.973 41.115 169.772 41.2763C169.572 41.4376 169.423 41.6491 169.327 41.9107C169.23 42.1723 169.182 42.4546 169.182 42.7575C169.182 43.0605 169.23 43.3418 169.327 43.6014C169.423 43.8611 169.572 44.0706 169.772 44.2299C169.973 44.3892 170.229 44.4689 170.539 44.4689ZM174.352 42.2736V45H173.656V40.4679H174.329V41.176H174.388C174.494 40.9459 174.655 40.761 174.872 40.6213C175.088 40.4797 175.367 40.4088 175.71 40.4088C176.016 40.4088 176.285 40.4718 176.515 40.5977C176.745 40.7216 176.924 40.9104 177.052 41.1642C177.18 41.416 177.244 41.7347 177.244 42.1202V45H176.548V42.1674C176.548 41.8114 176.455 41.534 176.27 41.3353C176.085 41.1347 175.832 41.0344 175.509 41.0344C175.287 41.0344 175.088 41.0826 174.913 41.179C174.74 41.2753 174.603 41.416 174.503 41.6009C174.402 41.7858 174.352 42.01 174.352 42.2736ZM180.228 45.0944C179.85 45.0944 179.517 44.999 179.227 44.8082C178.938 44.6154 178.712 44.344 178.549 43.9938C178.386 43.6417 178.304 43.2257 178.304 42.7457C178.304 42.2697 178.386 41.8566 178.549 41.5065C178.712 41.1563 178.939 40.8859 179.23 40.6951C179.522 40.5042 179.858 40.4088 180.24 40.4088C180.535 40.4088 180.768 40.458 180.939 40.5564C181.112 40.6528 181.244 40.7629 181.334 40.8868C181.427 41.0088 181.498 41.1091 181.55 41.1878H181.609V38.9571H182.305V45H181.632V44.3037H181.55C181.498 44.3863 181.426 44.4905 181.331 44.6164C181.237 44.7403 181.102 44.8515 180.927 44.9498C180.752 45.0462 180.519 45.0944 180.228 45.0944ZM180.322 44.4689C180.601 44.4689 180.838 44.3961 181.03 44.2505C181.223 44.103 181.37 43.8994 181.47 43.6398C181.57 43.3781 181.62 43.0762 181.62 42.7339C181.62 42.3956 181.571 42.0995 181.473 41.8458C181.375 41.5901 181.229 41.3914 181.036 41.2498C180.843 41.1062 180.605 41.0344 180.322 41.0344C180.027 41.0344 179.781 41.1101 179.585 41.2616C179.39 41.4111 179.243 41.6147 179.145 41.8723C179.048 42.1281 179 42.4153 179 42.7339C179 43.0565 179.049 43.3496 179.148 43.6132C179.248 43.8748 179.396 44.0833 179.59 44.2387C179.787 44.3922 180.031 44.4689 180.322 44.4689ZM186.887 41.4829L186.262 41.6599C186.222 41.5556 186.164 41.4543 186.088 41.356C186.013 41.2557 185.911 41.1731 185.781 41.1081C185.651 41.0432 185.485 41.0108 185.282 41.0108C185.005 41.0108 184.774 41.0747 184.589 41.2026C184.406 41.3285 184.314 41.4888 184.314 41.6835C184.314 41.8566 184.377 41.9933 184.503 42.0936C184.629 42.194 184.826 42.2776 185.093 42.3444L185.766 42.5097C186.171 42.608 186.473 42.7585 186.672 42.9611C186.871 43.1618 186.97 43.4204 186.97 43.7371C186.97 43.9968 186.895 44.2289 186.746 44.4335C186.598 44.6381 186.392 44.7994 186.126 44.9174C185.86 45.0354 185.552 45.0944 185.2 45.0944C184.737 45.0944 184.355 44.9941 184.052 44.7935C183.749 44.5928 183.557 44.2997 183.476 43.9142L184.137 43.7489C184.2 43.9929 184.319 44.1758 184.494 44.2978C184.671 44.4197 184.903 44.4807 185.188 44.4807C185.512 44.4807 185.77 44.4118 185.961 44.2741C186.154 44.1345 186.25 43.9673 186.25 43.7725C186.25 43.6152 186.195 43.4834 186.085 43.3772C185.975 43.269 185.805 43.1883 185.577 43.1352L184.822 42.9582C184.407 42.8598 184.102 42.7074 183.907 42.5008C183.714 42.2923 183.618 42.0317 183.618 41.7189C183.618 41.4632 183.69 41.237 183.833 41.0403C183.979 40.8436 184.177 40.6892 184.426 40.577C184.678 40.4649 184.963 40.4088 185.282 40.4088C185.731 40.4088 186.083 40.5072 186.338 40.7039C186.596 40.9006 186.779 41.1603 186.887 41.4829Z" fill="#A2A19F"/>
</g>
<defs>
<clipPath id="clip0_5174_16631">
<rect width="220" height="48" fill="white"/>
</clipPath>
</defs>
</svg>
