<svg width="220" height="48" viewBox="0 0 220 48" fill="none" xmlns="http://www.w3.org/2000/svg">
<rect x="0.333333" y="0.333333" width="42" height="47.3333" rx="2.33333" stroke="#E5E4E3" stroke-width="0.666667"/>
<path d="M16.3313 21.5536C15.3957 21.5536 14.5927 21.3169 13.9222 20.8434C13.2556 20.3661 12.7423 19.6786 12.3825 18.7809C12.0264 17.8794 11.8484 16.7942 11.8484 15.5252C11.8522 14.2563 12.0321 13.1767 12.3881 12.2866C12.748 11.3926 13.2612 10.7108 13.9279 10.2411C14.5984 9.77142 15.3995 9.53658 16.3313 9.53658C17.2631 9.53658 18.0643 9.77142 18.7347 10.2411C19.4052 10.7108 19.9184 11.3926 20.2745 12.2866C20.6344 13.1805 20.8143 14.2601 20.8143 15.5252C20.8143 16.7979 20.6344 17.8851 20.2745 18.7866C19.9184 19.6843 19.4052 20.3699 18.7347 20.8434C18.0681 21.3169 17.2669 21.5536 16.3313 21.5536ZM16.3313 19.7752C17.0586 19.7752 17.6325 19.4173 18.0529 18.7013C18.4772 17.9817 18.6893 16.9229 18.6893 15.5252C18.6893 14.601 18.5927 13.8245 18.3995 13.1957C18.2063 12.5669 17.9336 12.0934 17.5813 11.7752C17.229 11.4532 16.8124 11.2923 16.3313 11.2923C15.6078 11.2923 15.0359 11.6521 14.6154 12.3718C14.195 13.0877 13.9828 14.1388 13.979 15.5252C13.9753 16.4532 14.0681 17.2335 14.2575 17.8661C14.4506 18.4987 14.7234 18.976 15.0756 19.2979C15.4279 19.6161 15.8465 19.7752 16.3313 19.7752ZM27.0032 21.5536C26.0676 21.5536 25.2646 21.3169 24.5941 20.8434C23.9274 20.3661 23.4142 19.6786 23.0543 18.7809C22.6983 17.8794 22.5202 16.7942 22.5202 15.5252C22.524 14.2563 22.704 13.1767 23.06 12.2866C23.4199 11.3926 23.9331 10.7108 24.5998 10.2411C25.2702 9.77142 26.0714 9.53658 27.0032 9.53658C27.935 9.53658 28.7362 9.77142 29.4066 10.2411C30.0771 10.7108 30.5903 11.3926 30.9464 12.2866C31.3062 13.1805 31.4862 14.2601 31.4862 15.5252C31.4862 16.7979 31.3062 17.8851 30.9464 18.7866C30.5903 19.6843 30.0771 20.3699 29.4066 20.8434C28.7399 21.3169 27.9388 21.5536 27.0032 21.5536ZM27.0032 19.7752C27.7305 19.7752 28.3043 19.4173 28.7248 18.7013C29.149 17.9817 29.3612 16.9229 29.3612 15.5252C29.3612 14.601 29.2646 13.8245 29.0714 13.1957C28.8782 12.5669 28.6055 12.0934 28.2532 11.7752C27.9009 11.4532 27.4843 11.2923 27.0032 11.2923C26.2797 11.2923 25.7077 11.6521 25.2873 12.3718C24.8668 13.0877 24.6547 14.1388 24.6509 15.5252C24.6471 16.4532 24.7399 17.2335 24.9293 17.8661C25.1225 18.4987 25.3952 18.976 25.7475 19.2979C26.0998 19.6161 26.5183 19.7752 27.0032 19.7752Z" fill="#A2A19F"/>
<path d="M13.8125 38H12.017V32.1818H13.892C14.4564 32.1818 14.9394 32.2983 15.3409 32.5312C15.7424 32.7623 16.0502 33.0947 16.2642 33.5284C16.4782 33.9602 16.5852 34.4773 16.5852 35.0795C16.5852 35.6856 16.4773 36.2074 16.2614 36.6449C16.0455 37.0805 15.7311 37.4157 15.3182 37.6506C14.9053 37.8835 14.4034 38 13.8125 38ZM12.7216 37.375H13.767C14.2481 37.375 14.6468 37.2822 14.9631 37.0966C15.2794 36.911 15.5152 36.6468 15.6705 36.304C15.8258 35.9612 15.9034 35.553 15.9034 35.0795C15.9034 34.6098 15.8267 34.2055 15.6733 33.8665C15.5199 33.5256 15.2907 33.2642 14.9858 33.0824C14.6809 32.8987 14.3011 32.8068 13.8466 32.8068H12.7216V37.375ZM17.7322 38H16.9936L19.13 32.1818H19.8572L21.9936 38H21.255L19.5163 33.1023H19.4709L17.7322 38ZM18.005 35.7273H20.9822V36.3523H18.005V35.7273ZM21.8061 32.1818H22.6129L24.2266 34.8977H24.2947L25.9084 32.1818H26.7152L24.6129 35.6023V38H23.9084V35.6023L21.8061 32.1818ZM30.8082 33.6364C30.7741 33.3485 30.6359 33.125 30.3935 32.9659C30.151 32.8068 29.8537 32.7273 29.5014 32.7273C29.2438 32.7273 29.0185 32.7689 28.8253 32.8523C28.634 32.9356 28.4844 33.0502 28.3764 33.196C28.2704 33.3419 28.2173 33.5076 28.2173 33.6932C28.2173 33.8485 28.2543 33.982 28.3281 34.0938C28.4039 34.2036 28.5005 34.2955 28.6179 34.3693C28.7353 34.4413 28.8584 34.5009 28.9872 34.5483C29.116 34.5937 29.2344 34.6307 29.3423 34.6591L29.9332 34.8182C30.0848 34.858 30.2533 34.9129 30.4389 34.983C30.6264 35.053 30.8054 35.1487 30.9759 35.2699C31.1482 35.3892 31.2902 35.5426 31.402 35.7301C31.5137 35.9176 31.5696 36.1477 31.5696 36.4205C31.5696 36.7348 31.4872 37.0189 31.3224 37.2727C31.1596 37.5265 30.9209 37.7282 30.6065 37.8778C30.294 38.0275 29.9143 38.1023 29.4673 38.1023C29.0507 38.1023 28.6899 38.035 28.3849 37.9006C28.0819 37.7661 27.8433 37.5786 27.669 37.3381C27.4967 37.0975 27.3991 36.8182 27.3764 36.5H28.1037C28.1226 36.7197 28.1965 36.9015 28.3253 37.0455C28.456 37.1875 28.6207 37.2936 28.8196 37.3636C29.0204 37.4318 29.2363 37.4659 29.4673 37.4659C29.7363 37.4659 29.9777 37.4223 30.1918 37.3352C30.4058 37.2462 30.5753 37.1231 30.7003 36.9659C30.8253 36.8068 30.8878 36.6212 30.8878 36.4091C30.8878 36.2159 30.8338 36.0587 30.7259 35.9375C30.6179 35.8163 30.4759 35.7178 30.2997 35.642C30.1236 35.5663 29.9332 35.5 29.7287 35.4432L29.0128 35.2386C28.5582 35.108 28.1984 34.9214 27.9332 34.679C27.6681 34.4366 27.5355 34.1193 27.5355 33.7273C27.5355 33.4015 27.6236 33.1174 27.7997 32.875C27.9777 32.6307 28.2164 32.4413 28.5156 32.3068C28.8168 32.1705 29.1529 32.1023 29.5241 32.1023C29.8991 32.1023 30.2325 32.1695 30.5241 32.304C30.8158 32.4366 31.0469 32.6184 31.2173 32.8494C31.3897 33.0805 31.4806 33.3428 31.4901 33.6364H30.8082Z" fill="#A2A19F"/>
<rect x="48.3333" y="0.333333" width="42" height="47.3333" rx="2.33333" stroke="#E5E4E3" stroke-width="0.666667"/>
<path d="M63.9967 21.5536C63.0611 21.5536 62.258 21.3169 61.5876 20.8434C60.9209 20.3661 60.4077 19.6786 60.0478 18.7809C59.6918 17.8794 59.5137 16.7942 59.5137 15.5252C59.5175 14.2563 59.6974 13.1767 60.0535 12.2866C60.4134 11.3926 60.9266 10.7108 61.5933 10.2411C62.2637 9.77142 63.0649 9.53658 63.9967 9.53658C64.9285 9.53658 65.7296 9.77142 66.4001 10.2411C67.0705 10.7108 67.5838 11.3926 67.9399 12.2866C68.2997 13.1805 68.4796 14.2601 68.4796 15.5252C68.4796 16.7979 68.2997 17.8851 67.9399 18.7866C67.5838 19.6843 67.0705 20.3699 66.4001 20.8434C65.7334 21.3169 64.9323 21.5536 63.9967 21.5536ZM63.9967 19.7752C64.724 19.7752 65.2978 19.4173 65.7183 18.7013C66.1425 17.9817 66.3546 16.9229 66.3546 15.5252C66.3546 14.601 66.258 13.8245 66.0649 13.1957C65.8717 12.5669 65.599 12.0934 65.2467 11.7752C64.8944 11.4532 64.4777 11.2923 63.9967 11.2923C63.2732 11.2923 62.7012 11.6521 62.2808 12.3718C61.8603 13.0877 61.6482 14.1388 61.6444 15.5252C61.6406 16.4532 61.7334 17.2335 61.9228 17.8661C62.116 18.4987 62.3887 18.976 62.741 19.2979C63.0933 19.6161 63.5118 19.7752 63.9967 19.7752ZM74.6686 21.5536C73.733 21.5536 72.9299 21.3169 72.2595 20.8434C71.5928 20.3661 71.0795 19.6786 70.7197 18.7809C70.3636 17.8794 70.1856 16.7942 70.1856 15.5252C70.1894 14.2563 70.3693 13.1767 70.7254 12.2866C71.0852 11.3926 71.5985 10.7108 72.2652 10.2411C72.9356 9.77142 73.7367 9.53658 74.6686 9.53658C75.6004 9.53658 76.4015 9.77142 77.072 10.2411C77.7424 10.7108 78.2557 11.3926 78.6117 12.2866C78.9716 13.1805 79.1515 14.2601 79.1515 15.5252C79.1515 16.7979 78.9716 17.8851 78.6117 18.7866C78.2557 19.6843 77.7424 20.3699 77.072 20.8434C76.4053 21.3169 75.6042 21.5536 74.6686 21.5536ZM74.6686 19.7752C75.3958 19.7752 75.9697 19.4173 76.3902 18.7013C76.8144 17.9817 77.0265 16.9229 77.0265 15.5252C77.0265 14.601 76.9299 13.8245 76.7367 13.1957C76.5436 12.5669 76.2708 12.0934 75.9186 11.7752C75.5663 11.4532 75.1496 11.2923 74.6686 11.2923C73.9451 11.2923 73.3731 11.6521 72.9527 12.3718C72.5322 13.0877 72.3201 14.1388 72.3163 15.5252C72.3125 16.4532 72.4053 17.2335 72.5947 17.8661C72.7879 18.4987 73.0606 18.976 73.4129 19.2979C73.7652 19.6161 74.1837 19.7752 74.6686 19.7752Z" fill="#A2A19F"/>
<path d="M55.9565 38V32.1818H56.661V34.7727H59.7633V32.1818H60.4679V38H59.7633V35.3977H56.661V38H55.9565ZM66.7875 35.0909C66.7875 35.7045 66.6767 36.2348 66.4551 36.6818C66.2335 37.1288 65.9295 37.4735 65.5431 37.7159C65.1568 37.9583 64.7155 38.0795 64.2193 38.0795C63.7231 38.0795 63.2818 37.9583 62.8954 37.7159C62.5091 37.4735 62.2051 37.1288 61.9835 36.6818C61.7619 36.2348 61.6511 35.7045 61.6511 35.0909C61.6511 34.4773 61.7619 33.947 61.9835 33.5C62.2051 33.053 62.5091 32.7083 62.8954 32.4659C63.2818 32.2235 63.7231 32.1023 64.2193 32.1023C64.7155 32.1023 65.1568 32.2235 65.5431 32.4659C65.9295 32.7083 66.2335 33.053 66.4551 33.5C66.6767 33.947 66.7875 34.4773 66.7875 35.0909ZM66.1056 35.0909C66.1056 34.5871 66.0214 34.1619 65.8528 33.8153C65.6861 33.4688 65.4598 33.2064 65.1738 33.0284C64.8897 32.8504 64.5716 32.7614 64.2193 32.7614C63.867 32.7614 63.5479 32.8504 63.2619 33.0284C62.9778 33.2064 62.7515 33.4688 62.5829 33.8153C62.4163 34.1619 62.3329 34.5871 62.3329 35.0909C62.3329 35.5947 62.4163 36.0199 62.5829 36.3665C62.7515 36.7131 62.9778 36.9754 63.2619 37.1534C63.5479 37.3314 63.867 37.4205 64.2193 37.4205C64.5716 37.4205 64.8897 37.3314 65.1738 37.1534C65.4598 36.9754 65.6861 36.7131 65.8528 36.3665C66.0214 36.0199 66.1056 35.5947 66.1056 35.0909ZM71.7903 32.1818H72.4949V36.0341C72.4949 36.4318 72.4011 36.7869 72.2136 37.0994C72.028 37.41 71.7657 37.6553 71.4267 37.8352C71.0877 38.0133 70.6899 38.1023 70.2335 38.1023C69.777 38.1023 69.3793 38.0133 69.0403 37.8352C68.7013 37.6553 68.438 37.41 68.2505 37.0994C68.0649 36.7869 67.9721 36.4318 67.9721 36.0341V32.1818H68.6767V35.9773C68.6767 36.2614 68.7392 36.5142 68.8642 36.7358C68.9892 36.9555 69.1672 37.1288 69.3983 37.2557C69.6312 37.3807 69.9096 37.4432 70.2335 37.4432C70.5574 37.4432 70.8358 37.3807 71.0687 37.2557C71.3017 37.1288 71.4797 36.9555 71.6028 36.7358C71.7278 36.5142 71.7903 36.2614 71.7903 35.9773V32.1818ZM73.9018 38V32.1818H75.8677C76.3223 32.1818 76.6954 32.2595 76.987 32.4148C77.2787 32.5682 77.4946 32.7794 77.6348 33.0483C77.7749 33.3172 77.845 33.6231 77.845 33.9659C77.845 34.3087 77.7749 34.6127 77.6348 34.8778C77.4946 35.143 77.2797 35.3513 76.9899 35.5028C76.7001 35.6525 76.3298 35.7273 75.8791 35.7273H74.2882V35.0909H75.8564C76.167 35.0909 76.417 35.0455 76.6064 34.9545C76.7976 34.8636 76.9359 34.7348 77.0211 34.5682C77.1083 34.3996 77.1518 34.1989 77.1518 33.9659C77.1518 33.733 77.1083 33.5294 77.0211 33.3551C76.934 33.1809 76.7948 33.0464 76.6035 32.9517C76.4122 32.8551 76.1594 32.8068 75.845 32.8068H74.6064V38H73.9018ZM76.6404 35.3864L78.0723 38H77.2541L75.845 35.3864H76.6404ZM82.2008 33.6364C82.1667 33.3485 82.0285 33.125 81.786 32.9659C81.5436 32.8068 81.2463 32.7273 80.894 32.7273C80.6364 32.7273 80.411 32.7689 80.2179 32.8523C80.0266 32.9356 79.877 33.0502 79.769 33.196C79.6629 33.3419 79.6099 33.5076 79.6099 33.6932C79.6099 33.8485 79.6468 33.982 79.7207 34.0938C79.7965 34.2036 79.8931 34.2955 80.0105 34.3693C80.1279 34.4413 80.251 34.5009 80.3798 34.5483C80.5086 34.5937 80.627 34.6307 80.7349 34.6591L81.3258 34.8182C81.4773 34.858 81.6459 34.9129 81.8315 34.983C82.019 35.053 82.198 35.1487 82.3684 35.2699C82.5408 35.3892 82.6828 35.5426 82.7946 35.7301C82.9063 35.9176 82.9622 36.1477 82.9622 36.4205C82.9622 36.7348 82.8798 37.0189 82.715 37.2727C82.5521 37.5265 82.3135 37.7282 81.9991 37.8778C81.6866 38.0275 81.3069 38.1023 80.8599 38.1023C80.4432 38.1023 80.0824 38.035 79.7775 37.9006C79.4745 37.7661 79.2359 37.5786 79.0616 37.3381C78.8893 37.0975 78.7917 36.8182 78.769 36.5H79.4963C79.5152 36.7197 79.5891 36.9015 79.7179 37.0455C79.8485 37.1875 80.0133 37.2936 80.2122 37.3636C80.4129 37.4318 80.6288 37.4659 80.8599 37.4659C81.1288 37.4659 81.3703 37.4223 81.5843 37.3352C81.7984 37.2462 81.9679 37.1231 82.0929 36.9659C82.2179 36.8068 82.2804 36.6212 82.2804 36.4091C82.2804 36.2159 82.2264 36.0587 82.1184 35.9375C82.0105 35.8163 81.8684 35.7178 81.6923 35.642C81.5162 35.5663 81.3258 35.5 81.1213 35.4432L80.4054 35.2386C79.9508 35.108 79.591 34.9214 79.3258 34.679C79.0607 34.4366 78.9281 34.1193 78.9281 33.7273C78.9281 33.4015 79.0162 33.1174 79.1923 32.875C79.3703 32.6307 79.609 32.4413 79.9082 32.3068C80.2093 32.1705 80.5455 32.1023 80.9167 32.1023C81.2917 32.1023 81.6251 32.1695 81.9167 32.304C82.2084 32.4366 82.4395 32.6184 82.6099 32.8494C82.7823 33.0805 82.8732 33.3428 82.8826 33.6364H82.2008Z" fill="#A2A19F"/>
<rect x="96.3333" y="0.333333" width="42" height="47.3333" rx="2.33333" stroke="#E5E4E3" stroke-width="0.666667"/>
<path d="M111.997 21.5536C111.061 21.5536 110.258 21.3169 109.588 20.8434C108.921 20.3661 108.408 19.6786 108.048 18.7809C107.692 17.8794 107.514 16.7942 107.514 15.5252C107.518 14.2563 107.697 13.1767 108.054 12.2866C108.413 11.3926 108.927 10.7108 109.593 10.2411C110.264 9.77142 111.065 9.53658 111.997 9.53658C112.929 9.53658 113.73 9.77142 114.4 10.2411C115.071 10.7108 115.584 11.3926 115.94 12.2866C116.3 13.1805 116.48 14.2601 116.48 15.5252C116.48 16.7979 116.3 17.8851 115.94 18.7866C115.584 19.6843 115.071 20.3699 114.4 20.8434C113.733 21.3169 112.932 21.5536 111.997 21.5536ZM111.997 19.7752C112.724 19.7752 113.298 19.4173 113.718 18.7013C114.143 17.9817 114.355 16.9229 114.355 15.5252C114.355 14.601 114.258 13.8245 114.065 13.1957C113.872 12.5669 113.599 12.0934 113.247 11.7752C112.894 11.4532 112.478 11.2923 111.997 11.2923C111.273 11.2923 110.701 11.6521 110.281 12.3718C109.86 13.0877 109.648 14.1388 109.644 15.5252C109.641 16.4532 109.733 17.2335 109.923 17.8661C110.116 18.4987 110.389 18.976 110.741 19.2979C111.093 19.6161 111.512 19.7752 111.997 19.7752ZM122.669 21.5536C121.733 21.5536 120.93 21.3169 120.259 20.8434C119.593 20.3661 119.08 19.6786 118.72 18.7809C118.364 17.8794 118.186 16.7942 118.186 15.5252C118.189 14.2563 118.369 13.1767 118.725 12.2866C119.085 11.3926 119.598 10.7108 120.265 10.2411C120.936 9.77142 121.737 9.53658 122.669 9.53658C123.6 9.53658 124.402 9.77142 125.072 10.2411C125.742 10.7108 126.256 11.3926 126.612 12.2866C126.972 13.1805 127.152 14.2601 127.152 15.5252C127.152 16.7979 126.972 17.8851 126.612 18.7866C126.256 19.6843 125.742 20.3699 125.072 20.8434C124.405 21.3169 123.604 21.5536 122.669 21.5536ZM122.669 19.7752C123.396 19.7752 123.97 19.4173 124.39 18.7013C124.814 17.9817 125.027 16.9229 125.027 15.5252C125.027 14.601 124.93 13.8245 124.737 13.1957C124.544 12.5669 124.271 12.0934 123.919 11.7752C123.566 11.4532 123.15 11.2923 122.669 11.2923C121.945 11.2923 121.373 11.6521 120.953 12.3718C120.532 13.0877 120.32 14.1388 120.316 15.5252C120.312 16.4532 120.405 17.2335 120.595 17.8661C120.788 18.4987 121.061 18.976 121.413 19.2979C121.765 19.6161 122.184 19.7752 122.669 19.7752Z" fill="#A2A19F"/>
<path d="M107.858 32.1818H108.699L110.676 37.0114H110.745L112.722 32.1818H113.563V38H112.904V33.5795H112.847L111.029 38H110.392L108.574 33.5795H108.517V38H107.858V32.1818ZM115.68 32.1818V38H114.975V32.1818H115.68ZM121.706 32.1818V38H121.024L117.854 33.4318H117.797V38H117.093V32.1818H117.774L120.956 36.7614H121.013V32.1818H121.706ZM126.298 33.6364C126.264 33.3485 126.125 33.125 125.883 32.9659C125.641 32.8068 125.343 32.7273 124.991 32.7273C124.733 32.7273 124.508 32.7689 124.315 32.8523C124.124 32.9356 123.974 33.0502 123.866 33.196C123.76 33.3419 123.707 33.5076 123.707 33.6932C123.707 33.8485 123.744 33.982 123.818 34.0938C123.893 34.2036 123.99 34.2955 124.107 34.3693C124.225 34.4413 124.348 34.5009 124.477 34.5483C124.606 34.5937 124.724 34.6307 124.832 34.6591L125.423 34.8182C125.574 34.858 125.743 34.9129 125.929 34.983C126.116 35.053 126.295 35.1487 126.465 35.2699C126.638 35.3892 126.78 35.5426 126.892 35.7301C127.003 35.9176 127.059 36.1477 127.059 36.4205C127.059 36.7348 126.977 37.0189 126.812 37.2727C126.649 37.5265 126.411 37.7282 126.096 37.8778C125.784 38.0275 125.404 38.1023 124.957 38.1023C124.54 38.1023 124.179 38.035 123.875 37.9006C123.571 37.7661 123.333 37.5786 123.159 37.3381C122.986 37.0975 122.889 36.8182 122.866 36.5H123.593C123.612 36.7197 123.686 36.9015 123.815 37.0455C123.946 37.1875 124.11 37.2936 124.309 37.3636C124.51 37.4318 124.726 37.4659 124.957 37.4659C125.226 37.4659 125.467 37.4223 125.681 37.3352C125.895 37.2462 126.065 37.1231 126.19 36.9659C126.315 36.8068 126.377 36.6212 126.377 36.4091C126.377 36.2159 126.323 36.0587 126.215 35.9375C126.107 35.8163 125.965 35.7178 125.789 35.642C125.613 35.5663 125.423 35.5 125.218 35.4432L124.502 35.2386C124.048 35.108 123.688 34.9214 123.423 34.679C123.158 34.4366 123.025 34.1193 123.025 33.7273C123.025 33.4015 123.113 33.1174 123.289 32.875C123.467 32.6307 123.706 32.4413 124.005 32.3068C124.306 32.1705 124.643 32.1023 125.014 32.1023C125.389 32.1023 125.722 32.1695 126.014 32.304C126.305 32.4366 126.536 32.6184 126.707 32.8494C126.879 33.0805 126.97 33.3428 126.98 33.6364H126.298Z" fill="#A2A19F"/>
<rect x="144.333" y="0.333333" width="42" height="47.3333" rx="2.33333" stroke="#E5E4E3" stroke-width="0.666667"/>
<path d="M159.998 21.5536C159.062 21.5536 158.259 21.3169 157.589 20.8434C156.922 20.3661 156.409 19.6786 156.049 18.7809C155.693 17.8794 155.515 16.7942 155.515 15.5252C155.519 14.2563 155.699 13.1767 156.055 12.2866C156.415 11.3926 156.928 10.7108 157.595 10.2411C158.265 9.77142 159.066 9.53658 159.998 9.53658C160.93 9.53658 161.731 9.77142 162.401 10.2411C163.072 10.7108 163.585 11.3926 163.941 12.2866C164.301 13.1805 164.481 14.2601 164.481 15.5252C164.481 16.7979 164.301 17.8851 163.941 18.7866C163.585 19.6843 163.072 20.3699 162.401 20.8434C161.735 21.3169 160.934 21.5536 159.998 21.5536ZM159.998 19.7752C160.725 19.7752 161.299 19.4173 161.72 18.7013C162.144 17.9817 162.356 16.9229 162.356 15.5252C162.356 14.601 162.259 13.8245 162.066 13.1957C161.873 12.5669 161.6 12.0934 161.248 11.7752C160.896 11.4532 160.479 11.2923 159.998 11.2923C159.275 11.2923 158.703 11.6521 158.282 12.3718C157.862 13.0877 157.65 14.1388 157.646 15.5252C157.642 16.4532 157.735 17.2335 157.924 17.8661C158.117 18.4987 158.39 18.976 158.742 19.2979C159.095 19.6161 159.513 19.7752 159.998 19.7752ZM170.67 21.5536C169.734 21.5536 168.931 21.3169 168.261 20.8434C167.594 20.3661 167.081 19.6786 166.721 18.7809C166.365 17.8794 166.187 16.7942 166.187 15.5252C166.191 14.2563 166.371 13.1767 166.727 12.2866C167.087 11.3926 167.6 10.7108 168.266 10.2411C168.937 9.77142 169.738 9.53658 170.67 9.53658C171.602 9.53658 172.403 9.77142 173.073 10.2411C173.744 10.7108 174.257 11.3926 174.613 12.2866C174.973 13.1805 175.153 14.2601 175.153 15.5252C175.153 16.7979 174.973 17.8851 174.613 18.7866C174.257 19.6843 173.744 20.3699 173.073 20.8434C172.407 21.3169 171.605 21.5536 170.67 21.5536ZM170.67 19.7752C171.397 19.7752 171.971 19.4173 172.391 18.7013C172.816 17.9817 173.028 16.9229 173.028 15.5252C173.028 14.601 172.931 13.8245 172.738 13.1957C172.545 12.5669 172.272 12.0934 171.92 11.7752C171.568 11.4532 171.151 11.2923 170.67 11.2923C169.946 11.2923 169.374 11.6521 168.954 12.3718C168.533 13.0877 168.321 14.1388 168.318 15.5252C168.314 16.4532 168.407 17.2335 168.596 17.8661C168.789 18.4987 169.062 18.976 169.414 19.2979C169.766 19.6161 170.185 19.7752 170.67 19.7752Z" fill="#A2A19F"/>
<path d="M158.819 33.6364C158.785 33.3485 158.646 33.125 158.404 32.9659C158.161 32.8068 157.864 32.7273 157.512 32.7273C157.254 32.7273 157.029 32.7689 156.836 32.8523C156.644 32.9356 156.495 33.0502 156.387 33.196C156.281 33.3419 156.228 33.5076 156.228 33.6932C156.228 33.8485 156.265 33.982 156.339 34.0938C156.414 34.2036 156.511 34.2955 156.628 34.3693C156.746 34.4413 156.869 34.5009 156.998 34.5483C157.126 34.5937 157.245 34.6307 157.353 34.6591L157.944 34.8182C158.095 34.858 158.264 34.9129 158.449 34.983C158.637 35.053 158.816 35.1487 158.986 35.2699C159.159 35.3892 159.301 35.5426 159.412 35.7301C159.524 35.9176 159.58 36.1477 159.58 36.4205C159.58 36.7348 159.498 37.0189 159.333 37.2727C159.17 37.5265 158.931 37.7282 158.617 37.8778C158.304 38.0275 157.925 38.1023 157.478 38.1023C157.061 38.1023 156.7 38.035 156.395 37.9006C156.092 37.7661 155.854 37.5786 155.679 37.3381C155.507 37.0975 155.41 36.8182 155.387 36.5H156.114C156.133 36.7197 156.207 36.9015 156.336 37.0455C156.466 37.1875 156.631 37.2936 156.83 37.3636C157.031 37.4318 157.247 37.4659 157.478 37.4659C157.747 37.4659 157.988 37.4223 158.202 37.3352C158.416 37.2462 158.586 37.1231 158.711 36.9659C158.836 36.8068 158.898 36.6212 158.898 36.4091C158.898 36.2159 158.844 36.0587 158.736 35.9375C158.628 35.8163 158.486 35.7178 158.31 35.642C158.134 35.5663 157.944 35.5 157.739 35.4432L157.023 35.2386C156.569 35.108 156.209 34.9214 155.944 34.679C155.679 34.4366 155.546 34.1193 155.546 33.7273C155.546 33.4015 155.634 33.1174 155.81 32.875C155.988 32.6307 156.227 32.4413 156.526 32.3068C156.827 32.1705 157.163 32.1023 157.535 32.1023C157.91 32.1023 158.243 32.1695 158.535 32.304C158.826 32.4366 159.057 32.6184 159.228 32.8494C159.4 33.0805 159.491 33.3428 159.5 33.6364H158.819ZM160.738 38V32.1818H164.25V32.8068H161.443V34.7727H164.068V35.3977H161.443V37.375H164.295V38H160.738ZM170.201 34H169.497C169.455 33.7973 169.382 33.6193 169.278 33.4659C169.176 33.3125 169.051 33.1837 168.903 33.0795C168.757 32.9735 168.595 32.8939 168.417 32.8409C168.239 32.7879 168.054 32.7614 167.861 32.7614C167.508 32.7614 167.189 32.8504 166.903 33.0284C166.619 33.2064 166.393 33.4688 166.224 33.8153C166.058 34.1619 165.974 34.5871 165.974 35.0909C165.974 35.5947 166.058 36.0199 166.224 36.3665C166.393 36.7131 166.619 36.9754 166.903 37.1534C167.189 37.3314 167.508 37.4205 167.861 37.4205C168.054 37.4205 168.239 37.3939 168.417 37.3409C168.595 37.2879 168.757 37.2093 168.903 37.1051C169.051 36.9991 169.176 36.8693 169.278 36.7159C169.382 36.5606 169.455 36.3826 169.497 36.1818H170.201C170.148 36.4792 170.052 36.7453 169.912 36.9801C169.772 37.215 169.597 37.4148 169.389 37.5795C169.181 37.7424 168.947 37.8665 168.687 37.9517C168.43 38.0369 168.154 38.0795 167.861 38.0795C167.364 38.0795 166.923 37.9583 166.537 37.7159C166.15 37.4735 165.846 37.1288 165.625 36.6818C165.403 36.2348 165.292 35.7045 165.292 35.0909C165.292 34.4773 165.403 33.947 165.625 33.5C165.846 33.053 166.15 32.7083 166.537 32.4659C166.923 32.2235 167.364 32.1023 167.861 32.1023C168.154 32.1023 168.43 32.1449 168.687 32.2301C168.947 32.3153 169.181 32.4403 169.389 32.6051C169.597 32.768 169.772 32.9669 169.912 33.2017C170.052 33.4347 170.148 33.7008 170.201 34ZM174.522 33.6364C174.488 33.3485 174.349 33.125 174.107 32.9659C173.865 32.8068 173.567 32.7273 173.215 32.7273C172.957 32.7273 172.732 32.7689 172.539 32.8523C172.348 32.9356 172.198 33.0502 172.09 33.196C171.984 33.3419 171.931 33.5076 171.931 33.6932C171.931 33.8485 171.968 33.982 172.042 34.0938C172.117 34.2036 172.214 34.2955 172.331 34.3693C172.449 34.4413 172.572 34.5009 172.701 34.5483C172.83 34.5937 172.948 34.6307 173.056 34.6591L173.647 34.8182C173.798 34.858 173.967 34.9129 174.152 34.983C174.34 35.053 174.519 35.1487 174.689 35.2699C174.862 35.3892 175.004 35.5426 175.116 35.7301C175.227 35.9176 175.283 36.1477 175.283 36.4205C175.283 36.7348 175.201 37.0189 175.036 37.2727C174.873 37.5265 174.634 37.7282 174.32 37.8778C174.008 38.0275 173.628 38.1023 173.181 38.1023C172.764 38.1023 172.403 38.035 172.098 37.9006C171.795 37.7661 171.557 37.5786 171.383 37.3381C171.21 37.0975 171.113 36.8182 171.09 36.5H171.817C171.836 36.7197 171.91 36.9015 172.039 37.0455C172.17 37.1875 172.334 37.2936 172.533 37.3636C172.734 37.4318 172.95 37.4659 173.181 37.4659C173.45 37.4659 173.691 37.4223 173.905 37.3352C174.119 37.2462 174.289 37.1231 174.414 36.9659C174.539 36.8068 174.601 36.6212 174.601 36.4091C174.601 36.2159 174.547 36.0587 174.439 35.9375C174.331 35.8163 174.189 35.7178 174.013 35.642C173.837 35.5663 173.647 35.5 173.442 35.4432L172.726 35.2386C172.272 35.108 171.912 34.9214 171.647 34.679C171.382 34.4366 171.249 34.1193 171.249 33.7273C171.249 33.4015 171.337 33.1174 171.513 32.875C171.691 32.6307 171.93 32.4413 172.229 32.3068C172.53 32.1705 172.866 32.1023 173.238 32.1023C173.613 32.1023 173.946 32.1695 174.238 32.304C174.529 32.4366 174.76 32.6184 174.931 32.8494C175.103 33.0805 175.194 33.3428 175.204 33.6364H174.522Z" fill="#A2A19F"/>
</svg>
