<svg width="220" height="48" viewBox="0 0 220 48" fill="none" xmlns="http://www.w3.org/2000/svg">
<rect width="42.6667" height="48" rx="2.66667" fill="#E5E4E3"/>
<path d="M16.3313 21.5536C15.3957 21.5536 14.5927 21.3169 13.9222 20.8434C13.2556 20.3661 12.7423 19.6786 12.3825 18.7809C12.0264 17.8794 11.8484 16.7942 11.8484 15.5252C11.8522 14.2563 12.0321 13.1767 12.3881 12.2866C12.748 11.3926 13.2612 10.7108 13.9279 10.2411C14.5984 9.77142 15.3995 9.53658 16.3313 9.53658C17.2631 9.53658 18.0643 9.77142 18.7347 10.2411C19.4052 10.7108 19.9184 11.3926 20.2745 12.2866C20.6344 13.1805 20.8143 14.2601 20.8143 15.5252C20.8143 16.7979 20.6344 17.8851 20.2745 18.7866C19.9184 19.6843 19.4052 20.3699 18.7347 20.8434C18.0681 21.3169 17.2669 21.5536 16.3313 21.5536ZM16.3313 19.7752C17.0586 19.7752 17.6325 19.4173 18.0529 18.7013C18.4772 17.9817 18.6893 16.9229 18.6893 15.5252C18.6893 14.601 18.5927 13.8245 18.3995 13.1957C18.2063 12.5669 17.9336 12.0934 17.5813 11.7752C17.229 11.4532 16.8124 11.2923 16.3313 11.2923C15.6078 11.2923 15.0359 11.6521 14.6154 12.3718C14.195 13.0877 13.9828 14.1388 13.979 15.5252C13.9753 16.4532 14.0681 17.2335 14.2575 17.8661C14.4506 18.4987 14.7234 18.976 15.0756 19.2979C15.4279 19.6161 15.8465 19.7752 16.3313 19.7752ZM27.0032 21.5536C26.0676 21.5536 25.2646 21.3169 24.5941 20.8434C23.9274 20.3661 23.4142 19.6786 23.0543 18.7809C22.6983 17.8794 22.5202 16.7942 22.5202 15.5252C22.524 14.2563 22.704 13.1767 23.06 12.2866C23.4199 11.3926 23.9331 10.7108 24.5998 10.2411C25.2702 9.77142 26.0714 9.53658 27.0032 9.53658C27.935 9.53658 28.7362 9.77142 29.4066 10.2411C30.0771 10.7108 30.5903 11.3926 30.9464 12.2866C31.3062 13.1805 31.4862 14.2601 31.4862 15.5252C31.4862 16.7979 31.3062 17.8851 30.9464 18.7866C30.5903 19.6843 30.0771 20.3699 29.4066 20.8434C28.7399 21.3169 27.9388 21.5536 27.0032 21.5536ZM27.0032 19.7752C27.7305 19.7752 28.3043 19.4173 28.7248 18.7013C29.149 17.9817 29.3612 16.9229 29.3612 15.5252C29.3612 14.601 29.2646 13.8245 29.0714 13.1957C28.8782 12.5669 28.6055 12.0934 28.2532 11.7752C27.9009 11.4532 27.4843 11.2923 27.0032 11.2923C26.2797 11.2923 25.7077 11.6521 25.2873 12.3718C24.8668 13.0877 24.6547 14.1388 24.6509 15.5252C24.6471 16.4532 24.7399 17.2335 24.9293 17.8661C25.1225 18.4987 25.3952 18.976 25.7475 19.2979C26.0998 19.6161 26.5183 19.7752 27.0032 19.7752Z" fill="#A2A19F"/>
<path d="M14.8008 38H13.0053V32.1818H14.8803C15.4447 32.1818 15.9277 32.2983 16.3292 32.5312C16.7307 32.7623 17.0385 33.0947 17.2525 33.5284C17.4665 33.9602 17.5735 34.4773 17.5735 35.0795C17.5735 35.6856 17.4656 36.2074 17.2496 36.6449C17.0337 37.0805 16.7193 37.4157 16.3065 37.6506C15.8936 37.8835 15.3917 38 14.8008 38ZM13.7099 37.375H14.7553C15.2364 37.375 15.6351 37.2822 15.9513 37.0966C16.2676 36.911 16.5034 36.6468 16.6587 36.304C16.814 35.9612 16.8917 35.553 16.8917 35.0795C16.8917 34.6098 16.815 34.2055 16.6616 33.8665C16.5082 33.5256 16.279 33.2642 15.9741 33.0824C15.6692 32.8987 15.2894 32.8068 14.8349 32.8068H13.7099V37.375ZM19.9485 38.1023C19.672 38.1023 19.421 38.0502 19.1957 37.946C18.9703 37.84 18.7913 37.6875 18.6587 37.4886C18.5262 37.2879 18.4599 37.0455 18.4599 36.7614C18.4599 36.5114 18.5091 36.3087 18.6076 36.1534C18.7061 35.9962 18.8377 35.8731 19.0025 35.7841C19.1673 35.6951 19.3491 35.6288 19.5479 35.5852C19.7487 35.5398 19.9504 35.5038 20.1531 35.4773C20.4182 35.4432 20.6332 35.4176 20.7979 35.4006C20.9646 35.3816 21.0858 35.3504 21.1616 35.3068C21.2392 35.2633 21.2781 35.1875 21.2781 35.0795V35.0568C21.2781 34.7765 21.2013 34.5587 21.0479 34.4034C20.8964 34.2481 20.6663 34.1705 20.3576 34.1705C20.0375 34.1705 19.7866 34.2405 19.6048 34.3807C19.4229 34.5208 19.2951 34.6705 19.2212 34.8295L18.5849 34.6023C18.6985 34.3371 18.85 34.1307 19.0394 33.983C19.2307 33.8333 19.439 33.7292 19.6644 33.6705C19.8917 33.6098 20.1152 33.5795 20.3349 33.5795C20.475 33.5795 20.636 33.5966 20.8178 33.6307C21.0015 33.6629 21.1786 33.7301 21.3491 33.8324C21.5214 33.9347 21.6644 34.089 21.7781 34.2955C21.8917 34.5019 21.9485 34.7784 21.9485 35.125V38H21.2781V37.4091H21.244C21.1985 37.5038 21.1228 37.6051 21.0167 37.7131C20.9106 37.821 20.7695 37.9129 20.5934 37.9886C20.4173 38.0644 20.2023 38.1023 19.9485 38.1023ZM20.0508 37.5C20.3159 37.5 20.5394 37.4479 20.7212 37.3438C20.9049 37.2396 21.0432 37.1051 21.136 36.9403C21.2307 36.7756 21.2781 36.6023 21.2781 36.4205V35.8068C21.2496 35.8409 21.1871 35.8722 21.0906 35.9006C20.9959 35.9271 20.886 35.9508 20.761 35.9716C20.6379 35.9905 20.5176 36.0076 20.4002 36.0227C20.2847 36.036 20.1909 36.0473 20.119 36.0568C19.9447 36.0795 19.7818 36.1165 19.6303 36.1676C19.4807 36.2169 19.3595 36.2917 19.2667 36.392C19.1758 36.4905 19.1303 36.625 19.1303 36.7955C19.1303 37.0284 19.2165 37.2045 19.3888 37.3239C19.5631 37.4413 19.7837 37.5 20.0508 37.5ZM23.4478 39.6364C23.3342 39.6364 23.2328 39.6269 23.1438 39.608C23.0548 39.5909 22.9933 39.5739 22.9592 39.5568L23.1296 38.9659C23.2925 39.0076 23.4364 39.0227 23.5614 39.0114C23.6864 39 23.7972 38.9441 23.8938 38.8438C23.9923 38.7453 24.0823 38.5852 24.1637 38.3636L24.2887 38.0227L22.6751 33.6364H23.4023L24.6069 37.1136H24.6523L25.8569 33.6364H26.5842L24.7319 38.6364C24.6486 38.8617 24.5453 39.0483 24.4222 39.196C24.2991 39.3456 24.1561 39.4564 23.9933 39.5284C23.8323 39.6004 23.6504 39.6364 23.4478 39.6364ZM30.56 34.6136L29.9577 34.7841C29.9199 34.6837 29.864 34.5862 29.7901 34.4915C29.7182 34.3949 29.6197 34.3153 29.4947 34.2528C29.3697 34.1903 29.2096 34.1591 29.0146 34.1591C28.7475 34.1591 28.525 34.2206 28.3469 34.3438C28.1708 34.465 28.0827 34.6193 28.0827 34.8068C28.0827 34.9735 28.1433 35.1051 28.2646 35.2017C28.3858 35.2983 28.5752 35.3788 28.8327 35.4432L29.4805 35.6023C29.8706 35.697 30.1613 35.8419 30.3526 36.0369C30.5439 36.2301 30.6396 36.4792 30.6396 36.7841C30.6396 37.0341 30.5676 37.2576 30.4237 37.4545C30.2816 37.6515 30.0827 37.8068 29.8271 37.9205C29.5714 38.0341 29.274 38.0909 28.935 38.0909C28.4899 38.0909 28.1216 37.9943 27.8299 37.8011C27.5382 37.608 27.3536 37.3258 27.2759 36.9545L27.9123 36.7955C27.9729 37.0303 28.0875 37.2064 28.256 37.3239C28.4265 37.4413 28.649 37.5 28.9237 37.5C29.2362 37.5 29.4843 37.4337 29.668 37.3011C29.8536 37.1667 29.9464 37.0057 29.9464 36.8182C29.9464 36.6667 29.8933 36.5398 29.7873 36.4375C29.6812 36.3333 29.5183 36.2557 29.2987 36.2045L28.5714 36.0341C28.1718 35.9394 27.8782 35.7926 27.6907 35.5938C27.5051 35.393 27.4123 35.142 27.4123 34.8409C27.4123 34.5947 27.4814 34.3769 27.6197 34.1875C27.7598 33.9981 27.9502 33.8494 28.1907 33.7415C28.4331 33.6335 28.7077 33.5795 29.0146 33.5795C29.4464 33.5795 29.7854 33.6742 30.0316 33.8636C30.2797 34.053 30.4558 34.303 30.56 34.6136Z" fill="#A2A19F"/>
<rect x="48" width="42.6667" height="48" rx="2.66667" fill="#E5E4E3"/>
<path d="M63.9967 21.5536C63.0611 21.5536 62.258 21.3169 61.5876 20.8434C60.9209 20.3661 60.4077 19.6786 60.0478 18.7809C59.6918 17.8794 59.5137 16.7942 59.5137 15.5252C59.5175 14.2563 59.6974 13.1767 60.0535 12.2866C60.4134 11.3926 60.9266 10.7108 61.5933 10.2411C62.2637 9.77142 63.0649 9.53658 63.9967 9.53658C64.9285 9.53658 65.7296 9.77142 66.4001 10.2411C67.0705 10.7108 67.5838 11.3926 67.9399 12.2866C68.2997 13.1805 68.4796 14.2601 68.4796 15.5252C68.4796 16.7979 68.2997 17.8851 67.9399 18.7866C67.5838 19.6843 67.0705 20.3699 66.4001 20.8434C65.7334 21.3169 64.9323 21.5536 63.9967 21.5536ZM63.9967 19.7752C64.724 19.7752 65.2978 19.4173 65.7183 18.7013C66.1425 17.9817 66.3546 16.9229 66.3546 15.5252C66.3546 14.601 66.258 13.8245 66.0649 13.1957C65.8717 12.5669 65.599 12.0934 65.2467 11.7752C64.8944 11.4532 64.4777 11.2923 63.9967 11.2923C63.2732 11.2923 62.7012 11.6521 62.2808 12.3718C61.8603 13.0877 61.6482 14.1388 61.6444 15.5252C61.6406 16.4532 61.7334 17.2335 61.9228 17.8661C62.116 18.4987 62.3887 18.976 62.741 19.2979C63.0933 19.6161 63.5118 19.7752 63.9967 19.7752ZM74.6686 21.5536C73.733 21.5536 72.9299 21.3169 72.2595 20.8434C71.5928 20.3661 71.0795 19.6786 70.7197 18.7809C70.3636 17.8794 70.1856 16.7942 70.1856 15.5252C70.1894 14.2563 70.3693 13.1767 70.7254 12.2866C71.0852 11.3926 71.5985 10.7108 72.2652 10.2411C72.9356 9.77142 73.7367 9.53658 74.6686 9.53658C75.6004 9.53658 76.4015 9.77142 77.072 10.2411C77.7424 10.7108 78.2557 11.3926 78.6117 12.2866C78.9716 13.1805 79.1515 14.2601 79.1515 15.5252C79.1515 16.7979 78.9716 17.8851 78.6117 18.7866C78.2557 19.6843 77.7424 20.3699 77.072 20.8434C76.4053 21.3169 75.6042 21.5536 74.6686 21.5536ZM74.6686 19.7752C75.3958 19.7752 75.9697 19.4173 76.3902 18.7013C76.8144 17.9817 77.0265 16.9229 77.0265 15.5252C77.0265 14.601 76.9299 13.8245 76.7367 13.1957C76.5436 12.5669 76.2708 12.0934 75.9186 11.7752C75.5663 11.4532 75.1496 11.2923 74.6686 11.2923C73.9451 11.2923 73.3731 11.6521 72.9527 12.3718C72.5322 13.0877 72.3201 14.1388 72.3163 15.5252C72.3125 16.4532 72.4053 17.2335 72.5947 17.8661C72.7879 18.4987 73.0606 18.976 73.4129 19.2979C73.7652 19.6161 74.1837 19.7752 74.6686 19.7752Z" fill="#A2A19F"/>
<path d="M58.7885 38V32.1818H59.4931V34.7727H62.5953V32.1818H63.2999V38H62.5953V35.3977H59.4931V38H58.7885ZM66.3922 38.0909C65.9983 38.0909 65.6526 37.9972 65.3553 37.8097C65.0598 37.6222 64.8288 37.3598 64.6621 37.0227C64.4973 36.6856 64.415 36.2917 64.415 35.8409C64.415 35.3864 64.4973 34.9896 64.6621 34.6506C64.8288 34.3116 65.0598 34.0483 65.3553 33.8608C65.6526 33.6733 65.9983 33.5795 66.3922 33.5795C66.7862 33.5795 67.1309 33.6733 67.4263 33.8608C67.7237 34.0483 67.9547 34.3116 68.1195 34.6506C68.2862 34.9896 68.3695 35.3864 68.3695 35.8409C68.3695 36.2917 68.2862 36.6856 68.1195 37.0227C67.9547 37.3598 67.7237 37.6222 67.4263 37.8097C67.1309 37.9972 66.7862 38.0909 66.3922 38.0909ZM66.3922 37.4886C66.6915 37.4886 66.9377 37.4119 67.1309 37.2585C67.324 37.1051 67.467 36.9034 67.5598 36.6534C67.6526 36.4034 67.699 36.1326 67.699 35.8409C67.699 35.5492 67.6526 35.2775 67.5598 35.0256C67.467 34.7737 67.324 34.5701 67.1309 34.4148C66.9377 34.2595 66.6915 34.1818 66.3922 34.1818C66.093 34.1818 65.8468 34.2595 65.6536 34.4148C65.4604 34.5701 65.3174 34.7737 65.2246 35.0256C65.1318 35.2775 65.0854 35.5492 65.0854 35.8409C65.0854 36.1326 65.1318 36.4034 65.2246 36.6534C65.3174 36.9034 65.4604 37.1051 65.6536 37.2585C65.8468 37.4119 66.093 37.4886 66.3922 37.4886ZM72.1429 36.2159V33.6364H72.8134V38H72.1429V37.2614H72.0975C71.9952 37.483 71.8361 37.6714 71.6202 37.8267C71.4043 37.9801 71.1316 38.0568 70.802 38.0568C70.5293 38.0568 70.2869 37.9972 70.0748 37.8778C69.8626 37.7566 69.696 37.5748 69.5748 37.3324C69.4535 37.0881 69.3929 36.7803 69.3929 36.4091V33.6364H70.0634V36.3636C70.0634 36.6818 70.1524 36.9356 70.3304 37.125C70.5104 37.3144 70.7395 37.4091 71.0179 37.4091C71.1846 37.4091 71.3541 37.3665 71.5265 37.2812C71.7007 37.196 71.8465 37.0653 71.964 36.8892C72.0833 36.7131 72.1429 36.4886 72.1429 36.2159ZM74.0414 38V33.6364H74.6891V34.2955H74.7346C74.8141 34.0795 74.958 33.9044 75.1664 33.7699C75.3747 33.6354 75.6096 33.5682 75.8709 33.5682C75.9202 33.5682 75.9817 33.5691 76.0556 33.571C76.1294 33.5729 76.1853 33.5758 76.2232 33.5795V34.2614C76.2005 34.2557 76.1484 34.2472 76.0669 34.2358C75.9874 34.2225 75.9031 34.2159 75.8141 34.2159C75.602 34.2159 75.4126 34.2604 75.2459 34.3494C75.0811 34.4366 74.9505 34.5578 74.8539 34.7131C74.7592 34.8665 74.7118 35.0417 74.7118 35.2386V38H74.0414ZM80.1088 34.6136L79.5066 34.7841C79.4687 34.6837 79.4128 34.5862 79.339 34.4915C79.267 34.3949 79.1685 34.3153 79.0435 34.2528C78.9185 34.1903 78.7585 34.1591 78.5634 34.1591C78.2963 34.1591 78.0738 34.2206 77.8958 34.3438C77.7196 34.465 77.6316 34.6193 77.6316 34.8068C77.6316 34.9735 77.6922 35.1051 77.8134 35.2017C77.9346 35.2983 78.124 35.3788 78.3816 35.4432L79.0293 35.6023C79.4194 35.697 79.7102 35.8419 79.9015 36.0369C80.0927 36.2301 80.1884 36.4792 80.1884 36.7841C80.1884 37.0341 80.1164 37.2576 79.9725 37.4545C79.8304 37.6515 79.6316 37.8068 79.3759 37.9205C79.1202 38.0341 78.8229 38.0909 78.4838 38.0909C78.0388 38.0909 77.6704 37.9943 77.3787 37.8011C77.0871 37.608 76.9024 37.3258 76.8248 36.9545L77.4611 36.7955C77.5217 37.0303 77.6363 37.2064 77.8049 37.3239C77.9753 37.4413 78.1979 37.5 78.4725 37.5C78.785 37.5 79.0331 37.4337 79.2168 37.3011C79.4024 37.1667 79.4952 37.0057 79.4952 36.8182C79.4952 36.6667 79.4422 36.5398 79.3361 36.4375C79.2301 36.3333 79.0672 36.2557 78.8475 36.2045L78.1202 36.0341C77.7206 35.9394 77.427 35.7926 77.2395 35.5938C77.0539 35.393 76.9611 35.142 76.9611 34.8409C76.9611 34.5947 77.0302 34.3769 77.1685 34.1875C77.3087 33.9981 77.499 33.8494 77.7395 33.7415C77.9819 33.6335 78.2566 33.5795 78.5634 33.5795C78.9952 33.5795 79.3342 33.6742 79.5804 33.8636C79.8285 34.053 80.0047 34.303 80.1088 34.6136Z" fill="#A2A19F"/>
<rect x="96" width="42.6667" height="48" rx="2.66667" fill="#E5E4E3"/>
<path d="M111.997 21.5536C111.061 21.5536 110.258 21.3169 109.588 20.8434C108.921 20.3661 108.408 19.6786 108.048 18.7809C107.692 17.8794 107.514 16.7942 107.514 15.5252C107.518 14.2563 107.697 13.1767 108.054 12.2866C108.413 11.3926 108.927 10.7108 109.593 10.2411C110.264 9.77142 111.065 9.53658 111.997 9.53658C112.929 9.53658 113.73 9.77142 114.4 10.2411C115.071 10.7108 115.584 11.3926 115.94 12.2866C116.3 13.1805 116.48 14.2601 116.48 15.5252C116.48 16.7979 116.3 17.8851 115.94 18.7866C115.584 19.6843 115.071 20.3699 114.4 20.8434C113.733 21.3169 112.932 21.5536 111.997 21.5536ZM111.997 19.7752C112.724 19.7752 113.298 19.4173 113.718 18.7013C114.143 17.9817 114.355 16.9229 114.355 15.5252C114.355 14.601 114.258 13.8245 114.065 13.1957C113.872 12.5669 113.599 12.0934 113.247 11.7752C112.894 11.4532 112.478 11.2923 111.997 11.2923C111.273 11.2923 110.701 11.6521 110.281 12.3718C109.86 13.0877 109.648 14.1388 109.644 15.5252C109.641 16.4532 109.733 17.2335 109.923 17.8661C110.116 18.4987 110.389 18.976 110.741 19.2979C111.093 19.6161 111.512 19.7752 111.997 19.7752ZM122.669 21.5536C121.733 21.5536 120.93 21.3169 120.259 20.8434C119.593 20.3661 119.08 19.6786 118.72 18.7809C118.364 17.8794 118.186 16.7942 118.186 15.5252C118.189 14.2563 118.369 13.1767 118.725 12.2866C119.085 11.3926 119.598 10.7108 120.265 10.2411C120.936 9.77142 121.737 9.53658 122.669 9.53658C123.6 9.53658 124.402 9.77142 125.072 10.2411C125.742 10.7108 126.256 11.3926 126.612 12.2866C126.972 13.1805 127.152 14.2601 127.152 15.5252C127.152 16.7979 126.972 17.8851 126.612 18.7866C126.256 19.6843 125.742 20.3699 125.072 20.8434C124.405 21.3169 123.604 21.5536 122.669 21.5536ZM122.669 19.7752C123.396 19.7752 123.97 19.4173 124.39 18.7013C124.814 17.9817 125.027 16.9229 125.027 15.5252C125.027 14.601 124.93 13.8245 124.737 13.1957C124.544 12.5669 124.271 12.0934 123.919 11.7752C123.566 11.4532 123.15 11.2923 122.669 11.2923C121.945 11.2923 121.373 11.6521 120.953 12.3718C120.532 13.0877 120.32 14.1388 120.316 15.5252C120.312 16.4532 120.405 17.2335 120.595 17.8661C120.788 18.4987 121.061 18.976 121.413 19.2979C121.765 19.6161 122.184 19.7752 122.669 19.7752Z" fill="#A2A19F"/>
<path d="M103.018 32.1818H103.859L105.837 37.0114H105.905L107.882 32.1818H108.723V38H108.064V33.5795H108.007L106.189 38H105.552L103.734 33.5795H103.677V38H103.018V32.1818ZM110.045 38V33.6364H110.715V38H110.045ZM110.386 32.9091C110.255 32.9091 110.142 32.8646 110.047 32.7756C109.955 32.6866 109.908 32.5795 109.908 32.4545C109.908 32.3295 109.955 32.2225 110.047 32.1335C110.142 32.0445 110.255 32 110.386 32C110.516 32 110.628 32.0445 110.721 32.1335C110.815 32.2225 110.863 32.3295 110.863 32.4545C110.863 32.5795 110.815 32.6866 110.721 32.7756C110.628 32.8646 110.516 32.9091 110.386 32.9091ZM112.614 35.375V38H111.943V33.6364H112.591V34.3182H112.648C112.75 34.0966 112.905 33.9186 113.114 33.7841C113.322 33.6477 113.591 33.5795 113.92 33.5795C114.216 33.5795 114.474 33.6402 114.696 33.7614C114.917 33.8807 115.09 34.0625 115.213 34.3068C115.336 34.5492 115.398 34.8561 115.398 35.2273V38H114.727V35.2727C114.727 34.9299 114.638 34.6629 114.46 34.4716C114.282 34.2784 114.038 34.1818 113.727 34.1818C113.513 34.1818 113.322 34.2282 113.153 34.321C112.987 34.4138 112.855 34.5492 112.758 34.7273C112.662 34.9053 112.614 35.1212 112.614 35.375ZM119.373 36.2159V33.6364H120.043V38H119.373V37.2614H119.327C119.225 37.483 119.066 37.6714 118.85 37.8267C118.634 37.9801 118.361 38.0568 118.032 38.0568C117.759 38.0568 117.517 37.9972 117.305 37.8778C117.092 37.7566 116.926 37.5748 116.805 37.3324C116.683 37.0881 116.623 36.7803 116.623 36.4091V33.6364H117.293V36.3636C117.293 36.6818 117.382 36.9356 117.56 37.125C117.74 37.3144 117.969 37.4091 118.248 37.4091C118.414 37.4091 118.584 37.3665 118.756 37.2812C118.931 37.196 119.076 37.0653 119.194 36.8892C119.313 36.7131 119.373 36.4886 119.373 36.2159ZM123.169 33.6364V34.2045H120.908V33.6364H123.169ZM121.567 32.5909H122.237V36.75C122.237 36.9394 122.265 37.0814 122.319 37.1761C122.376 37.2689 122.448 37.3314 122.535 37.3636C122.624 37.3939 122.718 37.4091 122.817 37.4091C122.891 37.4091 122.951 37.4053 122.998 37.3977C123.046 37.3883 123.084 37.3807 123.112 37.375L123.248 37.9773C123.203 37.9943 123.14 38.0114 123.058 38.0284C122.977 38.0473 122.873 38.0568 122.748 38.0568C122.559 38.0568 122.373 38.0161 122.192 37.9347C122.012 37.8532 121.862 37.7292 121.743 37.5625C121.625 37.3958 121.567 37.1856 121.567 36.9318V32.5909ZM125.96 38.0909C125.54 38.0909 125.177 37.9981 124.872 37.8125C124.569 37.625 124.335 37.3636 124.17 37.0284C124.007 36.6913 123.926 36.2992 123.926 35.8523C123.926 35.4053 124.007 35.0114 124.17 34.6705C124.335 34.3277 124.564 34.0606 124.858 33.8693C125.153 33.6761 125.498 33.5795 125.892 33.5795C126.119 33.5795 126.344 33.6174 126.565 33.6932C126.787 33.7689 126.989 33.892 127.17 34.0625C127.352 34.2311 127.497 34.4545 127.605 34.733C127.713 35.0114 127.767 35.3542 127.767 35.7614V36.0455H124.403V35.4659H127.085C127.085 35.2197 127.036 35 126.937 34.8068C126.841 34.6136 126.703 34.4612 126.523 34.3494C126.345 34.2377 126.134 34.1818 125.892 34.1818C125.625 34.1818 125.394 34.2481 125.199 34.3807C125.006 34.5114 124.857 34.6818 124.753 34.892C124.649 35.1023 124.596 35.3277 124.596 35.5682V35.9545C124.596 36.2841 124.653 36.5634 124.767 36.7926C124.882 37.0199 125.042 37.1932 125.247 37.3125C125.452 37.4299 125.689 37.4886 125.96 37.4886C126.136 37.4886 126.295 37.464 126.437 37.4148C126.581 37.3636 126.705 37.2879 126.81 37.1875C126.914 37.0852 126.994 36.9583 127.051 36.8068L127.699 36.9886C127.631 37.2083 127.516 37.4015 127.355 37.5682C127.194 37.733 126.995 37.8617 126.758 37.9545C126.522 38.0455 126.256 38.0909 125.96 38.0909ZM131.878 34.6136L131.275 34.7841C131.238 34.6837 131.182 34.5862 131.108 34.4915C131.036 34.3949 130.937 34.3153 130.812 34.2528C130.687 34.1903 130.527 34.1591 130.332 34.1591C130.065 34.1591 129.843 34.2206 129.665 34.3438C129.489 34.465 129.4 34.6193 129.4 34.8068C129.4 34.9735 129.461 35.1051 129.582 35.2017C129.703 35.2983 129.893 35.3788 130.15 35.4432L130.798 35.6023C131.188 35.697 131.479 35.8419 131.67 36.0369C131.862 36.2301 131.957 36.4792 131.957 36.7841C131.957 37.0341 131.885 37.2576 131.741 37.4545C131.599 37.6515 131.4 37.8068 131.145 37.9205C130.889 38.0341 130.592 38.0909 130.253 38.0909C129.808 38.0909 129.439 37.9943 129.148 37.8011C128.856 37.608 128.671 37.3258 128.594 36.9545L129.23 36.7955C129.291 37.0303 129.405 37.2064 129.574 37.3239C129.744 37.4413 129.967 37.5 130.241 37.5C130.554 37.5 130.802 37.4337 130.986 37.3011C131.171 37.1667 131.264 37.0057 131.264 36.8182C131.264 36.6667 131.211 36.5398 131.105 36.4375C130.999 36.3333 130.836 36.2557 130.616 36.2045L129.889 36.0341C129.489 35.9394 129.196 35.7926 129.008 35.5938C128.823 35.393 128.73 35.142 128.73 34.8409C128.73 34.5947 128.799 34.3769 128.937 34.1875C129.078 33.9981 129.268 33.8494 129.508 33.7415C129.751 33.6335 130.025 33.5795 130.332 33.5795C130.764 33.5795 131.103 33.6742 131.349 33.8636C131.597 34.053 131.774 34.303 131.878 34.6136Z" fill="#A2A19F"/>
<rect x="144" width="42.6667" height="48" rx="2.66667" fill="#E5E4E3"/>
<path d="M159.998 21.5536C159.062 21.5536 158.259 21.3169 157.589 20.8434C156.922 20.3661 156.409 19.6786 156.049 18.7809C155.693 17.8794 155.515 16.7942 155.515 15.5252C155.519 14.2563 155.699 13.1767 156.055 12.2866C156.415 11.3926 156.928 10.7108 157.595 10.2411C158.265 9.77142 159.066 9.53658 159.998 9.53658C160.93 9.53658 161.731 9.77142 162.401 10.2411C163.072 10.7108 163.585 11.3926 163.941 12.2866C164.301 13.1805 164.481 14.2601 164.481 15.5252C164.481 16.7979 164.301 17.8851 163.941 18.7866C163.585 19.6843 163.072 20.3699 162.401 20.8434C161.735 21.3169 160.934 21.5536 159.998 21.5536ZM159.998 19.7752C160.725 19.7752 161.299 19.4173 161.72 18.7013C162.144 17.9817 162.356 16.9229 162.356 15.5252C162.356 14.601 162.259 13.8245 162.066 13.1957C161.873 12.5669 161.6 12.0934 161.248 11.7752C160.896 11.4532 160.479 11.2923 159.998 11.2923C159.275 11.2923 158.703 11.6521 158.282 12.3718C157.862 13.0877 157.65 14.1388 157.646 15.5252C157.642 16.4532 157.735 17.2335 157.924 17.8661C158.117 18.4987 158.39 18.976 158.742 19.2979C159.095 19.6161 159.513 19.7752 159.998 19.7752ZM170.67 21.5536C169.734 21.5536 168.931 21.3169 168.261 20.8434C167.594 20.3661 167.081 19.6786 166.721 18.7809C166.365 17.8794 166.187 16.7942 166.187 15.5252C166.191 14.2563 166.371 13.1767 166.727 12.2866C167.087 11.3926 167.6 10.7108 168.266 10.2411C168.937 9.77142 169.738 9.53658 170.67 9.53658C171.602 9.53658 172.403 9.77142 173.073 10.2411C173.744 10.7108 174.257 11.3926 174.613 12.2866C174.973 13.1805 175.153 14.2601 175.153 15.5252C175.153 16.7979 174.973 17.8851 174.613 18.7866C174.257 19.6843 173.744 20.3699 173.073 20.8434C172.407 21.3169 171.605 21.5536 170.67 21.5536ZM170.67 19.7752C171.397 19.7752 171.971 19.4173 172.391 18.7013C172.816 17.9817 173.028 16.9229 173.028 15.5252C173.028 14.601 172.931 13.8245 172.738 13.1957C172.545 12.5669 172.272 12.0934 171.92 11.7752C171.568 11.4532 171.151 11.2923 170.67 11.2923C169.946 11.2923 169.374 11.6521 168.954 12.3718C168.533 13.0877 168.321 14.1388 168.318 15.5252C168.314 16.4532 168.407 17.2335 168.596 17.8661C168.789 18.4987 169.062 18.976 169.414 19.2979C169.766 19.6161 170.185 19.7752 170.67 19.7752Z" fill="#A2A19F"/>
<path d="M152.807 33.6364C152.773 33.3485 152.635 33.125 152.392 32.9659C152.15 32.8068 151.852 32.7273 151.5 32.7273C151.243 32.7273 151.017 32.7689 150.824 32.8523C150.633 32.9356 150.483 33.0502 150.375 33.196C150.269 33.3419 150.216 33.5076 150.216 33.6932C150.216 33.8485 150.253 33.982 150.327 34.0938C150.403 34.2036 150.499 34.2955 150.617 34.3693C150.734 34.4413 150.857 34.5009 150.986 34.5483C151.115 34.5937 151.233 34.6307 151.341 34.6591L151.932 34.8182C152.083 34.858 152.252 34.9129 152.438 34.983C152.625 35.053 152.804 35.1487 152.975 35.2699C153.147 35.3892 153.289 35.5426 153.401 35.7301C153.512 35.9176 153.568 36.1477 153.568 36.4205C153.568 36.7348 153.486 37.0189 153.321 37.2727C153.158 37.5265 152.92 37.7282 152.605 37.8778C152.293 38.0275 151.913 38.1023 151.466 38.1023C151.049 38.1023 150.689 38.035 150.384 37.9006C150.081 37.7661 149.842 37.5786 149.668 37.3381C149.495 37.0975 149.398 36.8182 149.375 36.5H150.102C150.121 36.7197 150.195 36.9015 150.324 37.0455C150.455 37.1875 150.619 37.2936 150.818 37.3636C151.019 37.4318 151.235 37.4659 151.466 37.4659C151.735 37.4659 151.976 37.4223 152.19 37.3352C152.404 37.2462 152.574 37.1231 152.699 36.9659C152.824 36.8068 152.886 36.6212 152.886 36.4091C152.886 36.2159 152.833 36.0587 152.725 35.9375C152.617 35.8163 152.475 35.7178 152.298 35.642C152.122 35.5663 151.932 35.5 151.727 35.4432L151.011 35.2386C150.557 35.108 150.197 34.9214 149.932 34.679C149.667 34.4366 149.534 34.1193 149.534 33.7273C149.534 33.4015 149.622 33.1174 149.798 32.875C149.976 32.6307 150.215 32.4413 150.514 32.3068C150.815 32.1705 151.152 32.1023 151.523 32.1023C151.898 32.1023 152.231 32.1695 152.523 32.304C152.815 32.4366 153.046 32.6184 153.216 32.8494C153.388 33.0805 153.479 33.3428 153.489 33.6364H152.807ZM156.465 38.0909C156.045 38.0909 155.682 37.9981 155.377 37.8125C155.074 37.625 154.84 37.3636 154.676 37.0284C154.513 36.6913 154.431 36.2992 154.431 35.8523C154.431 35.4053 154.513 35.0114 154.676 34.6705C154.84 34.3277 155.069 34.0606 155.363 33.8693C155.658 33.6761 156.003 33.5795 156.397 33.5795C156.624 33.5795 156.849 33.6174 157.07 33.6932C157.292 33.7689 157.494 33.892 157.676 34.0625C157.857 34.2311 158.002 34.4545 158.11 34.733C158.218 35.0114 158.272 35.3542 158.272 35.7614V36.0455H154.908V35.4659H157.59C157.59 35.2197 157.541 35 157.443 34.8068C157.346 34.6136 157.208 34.4612 157.028 34.3494C156.85 34.2377 156.64 34.1818 156.397 34.1818C156.13 34.1818 155.899 34.2481 155.704 34.3807C155.511 34.5114 155.362 34.6818 155.258 34.892C155.154 35.1023 155.102 35.3277 155.102 35.5682V35.9545C155.102 36.2841 155.158 36.5634 155.272 36.7926C155.388 37.0199 155.548 37.1932 155.752 37.3125C155.957 37.4299 156.194 37.4886 156.465 37.4886C156.641 37.4886 156.801 37.464 156.943 37.4148C157.087 37.3636 157.211 37.2879 157.315 37.1875C157.419 37.0852 157.499 36.9583 157.556 36.8068L158.204 36.9886C158.136 37.2083 158.021 37.4015 157.86 37.5682C157.699 37.733 157.5 37.8617 157.264 37.9545C157.027 38.0455 156.761 38.0909 156.465 38.0909ZM161.065 38.0909C160.656 38.0909 160.303 37.9943 160.008 37.8011C159.712 37.608 159.485 37.3419 159.326 37.0028C159.167 36.6638 159.087 36.2765 159.087 35.8409C159.087 35.3977 159.169 35.0066 159.332 34.6676C159.497 34.3267 159.726 34.0606 160.019 33.8693C160.315 33.6761 160.659 33.5795 161.053 33.5795C161.36 33.5795 161.637 33.6364 161.883 33.75C162.129 33.8636 162.331 34.0227 162.488 34.2273C162.645 34.4318 162.743 34.6705 162.781 34.9432H162.11C162.059 34.7443 161.945 34.5682 161.769 34.4148C161.595 34.2595 161.36 34.1818 161.065 34.1818C160.803 34.1818 160.574 34.25 160.377 34.3864C160.182 34.5208 160.03 34.7112 159.92 34.9574C159.812 35.2017 159.758 35.4886 159.758 35.8182C159.758 36.1553 159.811 36.4489 159.917 36.6989C160.025 36.9489 160.176 37.143 160.372 37.2812C160.569 37.4195 160.8 37.4886 161.065 37.4886C161.239 37.4886 161.397 37.4583 161.539 37.3977C161.681 37.3371 161.801 37.25 161.9 37.1364C161.998 37.0227 162.069 36.8864 162.11 36.7273H162.781C162.743 36.9848 162.649 37.2169 162.499 37.4233C162.352 37.6278 162.156 37.7907 161.911 37.9119C161.669 38.0312 161.387 38.0909 161.065 38.0909ZM165.533 38.0909C165.14 38.0909 164.794 37.9972 164.497 37.8097C164.201 37.6222 163.97 37.3598 163.803 37.0227C163.639 36.6856 163.556 36.2917 163.556 35.8409C163.556 35.3864 163.639 34.9896 163.803 34.6506C163.97 34.3116 164.201 34.0483 164.497 33.8608C164.794 33.6733 165.14 33.5795 165.533 33.5795C165.927 33.5795 166.272 33.6733 166.568 33.8608C166.865 34.0483 167.096 34.3116 167.261 34.6506C167.427 34.9896 167.511 35.3864 167.511 35.8409C167.511 36.2917 167.427 36.6856 167.261 37.0227C167.096 37.3598 166.865 37.6222 166.568 37.8097C166.272 37.9972 165.927 38.0909 165.533 38.0909ZM165.533 37.4886C165.833 37.4886 166.079 37.4119 166.272 37.2585C166.465 37.1051 166.608 36.9034 166.701 36.6534C166.794 36.4034 166.84 36.1326 166.84 35.8409C166.84 35.5492 166.794 35.2775 166.701 35.0256C166.608 34.7737 166.465 34.5701 166.272 34.4148C166.079 34.2595 165.833 34.1818 165.533 34.1818C165.234 34.1818 164.988 34.2595 164.795 34.4148C164.602 34.5701 164.459 34.7737 164.366 35.0256C164.273 35.2775 164.227 35.5492 164.227 35.8409C164.227 36.1326 164.273 36.4034 164.366 36.6534C164.459 36.9034 164.602 37.1051 164.795 37.2585C164.988 37.4119 165.234 37.4886 165.533 37.4886ZM169.205 35.375V38H168.534V33.6364H169.182V34.3182H169.239C169.341 34.0966 169.496 33.9186 169.705 33.7841C169.913 33.6477 170.182 33.5795 170.511 33.5795C170.807 33.5795 171.065 33.6402 171.287 33.7614C171.509 33.8807 171.681 34.0625 171.804 34.3068C171.927 34.5492 171.989 34.8561 171.989 35.2273V38H171.318V35.2727C171.318 34.9299 171.229 34.6629 171.051 34.4716C170.873 34.2784 170.629 34.1818 170.318 34.1818C170.104 34.1818 169.913 34.2282 169.744 34.321C169.578 34.4138 169.446 34.5492 169.35 34.7273C169.253 34.9053 169.205 35.1212 169.205 35.375ZM174.862 38.0909C174.498 38.0909 174.177 37.9991 173.899 37.8153C173.62 37.6297 173.402 37.3684 173.245 37.0312C173.088 36.6922 173.009 36.2917 173.009 35.8295C173.009 35.3712 173.088 34.9735 173.245 34.6364C173.402 34.2992 173.621 34.0388 173.901 33.8551C174.182 33.6714 174.506 33.5795 174.873 33.5795C175.157 33.5795 175.382 33.6269 175.546 33.7216C175.713 33.8144 175.84 33.9205 175.927 34.0398C176.016 34.1572 176.085 34.2538 176.134 34.3295H176.191V32.1818H176.862V38H176.214V37.3295H176.134C176.085 37.4091 176.015 37.5095 175.924 37.6307C175.833 37.75 175.703 37.857 175.535 37.9517C175.366 38.0445 175.142 38.0909 174.862 38.0909ZM174.953 37.4886C175.221 37.4886 175.449 37.4186 175.634 37.2784C175.82 37.1364 175.961 36.9403 176.058 36.6903C176.154 36.4384 176.203 36.1477 176.203 35.8182C176.203 35.4924 176.155 35.2074 176.06 34.9631C175.966 34.7169 175.826 34.5256 175.64 34.3892C175.454 34.2509 175.225 34.1818 174.953 34.1818C174.668 34.1818 174.432 34.2547 174.242 34.4006C174.055 34.5445 173.914 34.7405 173.819 34.9886C173.726 35.2348 173.68 35.5114 173.68 35.8182C173.68 36.1288 173.727 36.411 173.822 36.6648C173.918 36.9167 174.06 37.1174 174.248 37.267C174.437 37.4148 174.672 37.4886 174.953 37.4886ZM181.274 34.6136L180.671 34.7841C180.633 34.6837 180.578 34.5862 180.504 34.4915C180.432 34.3949 180.333 34.3153 180.208 34.2528C180.083 34.1903 179.923 34.1591 179.728 34.1591C179.461 34.1591 179.239 34.2206 179.06 34.3438C178.884 34.465 178.796 34.6193 178.796 34.8068C178.796 34.9735 178.857 35.1051 178.978 35.2017C179.099 35.2983 179.289 35.3788 179.546 35.4432L180.194 35.6023C180.584 35.697 180.875 35.8419 181.066 36.0369C181.257 36.2301 181.353 36.4792 181.353 36.7841C181.353 37.0341 181.281 37.2576 181.137 37.4545C180.995 37.6515 180.796 37.8068 180.541 37.9205C180.285 38.0341 179.988 38.0909 179.649 38.0909C179.203 38.0909 178.835 37.9943 178.543 37.8011C178.252 37.608 178.067 37.3258 177.989 36.9545L178.626 36.7955C178.686 37.0303 178.801 37.2064 178.97 37.3239C179.14 37.4413 179.363 37.5 179.637 37.5C179.95 37.5 180.198 37.4337 180.382 37.3011C180.567 37.1667 180.66 37.0057 180.66 36.8182C180.66 36.6667 180.607 36.5398 180.501 36.4375C180.395 36.3333 180.232 36.2557 180.012 36.2045L179.285 36.0341C178.885 35.9394 178.592 35.7926 178.404 35.5938C178.219 35.393 178.126 35.142 178.126 34.8409C178.126 34.5947 178.195 34.3769 178.333 34.1875C178.473 33.9981 178.664 33.8494 178.904 33.7415C179.147 33.6335 179.421 33.5795 179.728 33.5795C180.16 33.5795 180.499 33.6742 180.745 33.8636C180.993 34.053 181.169 34.303 181.274 34.6136Z" fill="#A2A19F"/>
</svg>
