<svg width="220" height="48" viewBox="0 0 220 48" fill="none" xmlns="http://www.w3.org/2000/svg">
<path d="M11.3707 32.2908C10.1427 32.2908 9.08869 31.9801 8.20872 31.3587C7.33372 30.7322 6.66007 29.8299 6.18777 28.6516C5.72044 27.4684 5.48677 26.044 5.48677 24.3786C5.49174 22.7131 5.72789 21.2962 6.19522 20.1278C6.66752 18.9545 7.34118 18.0597 8.21618 17.4432C9.09615 16.8267 10.1476 16.5185 11.3707 16.5185C12.5937 16.5185 13.6452 16.8267 14.5251 17.4432C15.4051 18.0597 16.0787 18.9545 16.5461 20.1278C17.0184 21.3011 17.2545 22.718 17.2545 24.3786C17.2545 26.049 17.0184 27.4759 16.5461 28.6591C16.0787 29.8374 15.4051 30.7372 14.5251 31.3587C13.6501 31.9801 12.5986 32.2908 11.3707 32.2908ZM11.3707 29.9567C12.3252 29.9567 13.0784 29.4869 13.6302 28.5472C14.1871 27.6026 14.4655 26.2131 14.4655 24.3786C14.4655 23.1655 14.3387 22.1463 14.0851 21.321C13.8316 20.4957 13.4736 19.8743 13.0113 19.4567C12.5489 19.0341 12.002 18.8228 11.3707 18.8228C10.4211 18.8228 9.67037 19.2951 9.11852 20.2397C8.56667 21.1793 8.28826 22.5589 8.28329 24.3786C8.27832 25.5966 8.40012 26.6207 8.6487 27.451C8.90226 28.2812 9.26021 28.9077 9.72257 29.3303C10.1849 29.7479 10.7343 29.9567 11.3707 29.9567ZM25.3775 32.2908C24.1495 32.2908 23.0955 31.9801 22.2156 31.3587C21.3406 30.7322 20.6669 29.8299 20.1946 28.6516C19.7273 27.4684 19.4936 26.044 19.4936 24.3786C19.4986 22.7131 19.7347 21.2962 20.2021 20.1278C20.6744 18.9545 21.348 18.0597 22.223 17.4432C23.103 16.8267 24.1545 16.5185 25.3775 16.5185C26.6005 16.5185 27.652 16.8267 28.532 17.4432C29.4119 18.0597 30.0856 18.9545 30.5529 20.1278C31.0252 21.3011 31.2614 22.718 31.2614 24.3786C31.2614 26.049 31.0252 27.4759 30.5529 28.6591C30.0856 29.8374 29.4119 30.7372 28.532 31.3587C27.657 31.9801 26.6055 32.2908 25.3775 32.2908ZM25.3775 29.9567C26.332 29.9567 27.0852 29.4869 27.6371 28.5472C28.1939 27.6026 28.4723 26.2131 28.4723 24.3786C28.4723 23.1655 28.3455 22.1463 28.092 21.321C27.8384 20.4957 27.4805 19.8743 27.0181 19.4567C26.5558 19.0341 26.0089 18.8228 25.3775 18.8228C24.4279 18.8228 23.6772 19.2951 23.1254 20.2397C22.5735 21.1793 22.2951 22.5589 22.2901 24.3786C22.2852 25.5966 22.407 26.6207 22.6555 27.451C22.9091 28.2812 23.267 28.9077 23.7294 29.3303C24.1918 29.7479 24.7411 29.9567 25.3775 29.9567Z" fill="#A2A19F"/>
<path d="M48.2793 16.9609L43.75 33.8646" stroke="#E5E4E3" stroke-width="1.3125"/>
<path d="M67.0874 32.2908C65.8595 32.2908 64.8055 31.9801 63.9255 31.3587C63.0505 30.7322 62.3769 29.8299 61.9046 28.6516C61.4372 27.4684 61.2036 26.044 61.2036 24.3786C61.2085 22.7131 61.4447 21.2962 61.912 20.1278C62.3843 18.9545 63.058 18.0597 63.933 17.4432C64.8129 16.8267 65.8644 16.5185 67.0874 16.5185C68.3105 16.5185 69.362 16.8267 70.2419 17.4432C71.1219 18.0597 71.7955 18.9545 72.2629 20.1278C72.7352 21.3011 72.9713 22.718 72.9713 24.3786C72.9713 26.049 72.7352 27.4759 72.2629 28.6591C71.7955 29.8374 71.1219 30.7372 70.2419 31.3587C69.3669 31.9801 68.3154 32.2908 67.0874 32.2908ZM67.0874 29.9567C68.042 29.9567 68.7952 29.4869 69.347 28.5472C69.9039 27.6026 70.1823 26.2131 70.1823 24.3786C70.1823 23.1655 70.0555 22.1463 69.8019 21.321C69.5484 20.4957 69.1904 19.8743 68.7281 19.4567C68.2657 19.0341 67.7188 18.8228 67.0874 18.8228C66.1379 18.8228 65.3872 19.2951 64.8353 20.2397C64.2835 21.1793 64.0051 22.5589 64.0001 24.3786C63.9951 25.5966 64.1169 26.6207 64.3655 27.451C64.6191 28.2812 64.977 28.9077 65.4394 29.3303C65.9017 29.7479 66.4511 29.9567 67.0874 29.9567ZM81.0943 32.2908C79.8663 32.2908 78.8123 31.9801 77.9324 31.3587C77.0574 30.7322 76.3837 29.8299 75.9114 28.6516C75.4441 27.4684 75.2104 26.044 75.2104 24.3786C75.2154 22.7131 75.4515 21.2962 75.9189 20.1278C76.3912 18.9545 77.0648 18.0597 77.9398 17.4432C78.8198 16.8267 79.8713 16.5185 81.0943 16.5185C82.3173 16.5185 83.3688 16.8267 84.2488 17.4432C85.1287 18.0597 85.8024 18.9545 86.2697 20.1278C86.742 21.3011 86.9782 22.718 86.9782 24.3786C86.9782 26.049 86.742 27.4759 86.2697 28.6591C85.8024 29.8374 85.1287 30.7372 84.2488 31.3587C83.3738 31.9801 82.3223 32.2908 81.0943 32.2908ZM81.0943 29.9567C82.0488 29.9567 82.802 29.4869 83.3539 28.5472C83.9107 27.6026 84.1891 26.2131 84.1891 24.3786C84.1891 23.1655 84.0623 22.1463 83.8088 21.321C83.5552 20.4957 83.1973 19.8743 82.7349 19.4567C82.2726 19.0341 81.7257 18.8228 81.0943 18.8228C80.1447 18.8228 79.394 19.2951 78.8422 20.2397C78.2903 21.1793 78.0119 22.5589 78.0069 24.3786C78.002 25.5966 78.1238 26.6207 78.3723 27.451C78.6259 28.2812 78.9838 28.9077 79.4462 29.3303C79.9086 29.7479 80.4579 29.9567 81.0943 29.9567Z" fill="#A2A19F"/>
<path d="M104.432 16.9609L99.9023 33.8646" stroke="#E5E4E3" stroke-width="1.3125"/>
<path d="M117.117 29.1662V26.9663L123.597 16.7273H125.432V19.8594H124.313L119.951 26.7724V26.8917H128.997V29.1662H117.117ZM124.403 32V28.495L124.433 27.5107V16.7273H127.043V32H124.403ZM136.808 32.2088C135.7 32.2088 134.715 32.0224 133.855 31.6495C133 31.2766 132.329 30.767 131.842 30.1207C131.359 29.4695 131.121 28.7312 131.126 27.9059C131.121 27.2646 131.26 26.6754 131.543 26.1385C131.827 25.6016 132.209 25.1541 132.692 24.7962C133.179 24.4332 133.721 24.2021 134.317 24.1026V23.9982C133.532 23.8242 132.896 23.424 132.408 22.7976C131.926 22.1662 131.687 21.4379 131.692 20.6126C131.687 19.8271 131.906 19.1261 132.349 18.5096C132.791 17.8931 133.398 17.4084 134.168 17.0554C134.939 16.6974 135.819 16.5185 136.808 16.5185C137.788 16.5185 138.66 16.6974 139.426 17.0554C140.196 17.4084 140.803 17.8931 141.245 18.5096C141.693 19.1261 141.917 19.8271 141.917 20.6126C141.917 21.4379 141.67 22.1662 141.178 22.7976C140.691 23.424 140.062 23.8242 139.292 23.9982V24.1026C139.888 24.2021 140.425 24.4332 140.902 24.7962C141.385 25.1541 141.767 25.6016 142.051 26.1385C142.339 26.6754 142.483 27.2646 142.483 27.9059C142.483 28.7312 142.24 29.4695 141.752 30.1207C141.265 30.767 140.594 31.2766 139.739 31.6495C138.889 32.0224 137.912 32.2088 136.808 32.2088ZM136.808 30.076C137.38 30.076 137.877 29.979 138.3 29.7852C138.722 29.5863 139.05 29.3079 139.284 28.9499C139.518 28.592 139.637 28.1793 139.642 27.712C139.637 27.2248 139.51 26.7947 139.262 26.4219C139.018 26.044 138.682 25.7482 138.255 25.5344C137.832 25.3207 137.35 25.2138 136.808 25.2138C136.261 25.2138 135.774 25.3207 135.347 25.5344C134.919 25.7482 134.581 26.044 134.332 26.4219C134.089 26.7947 133.969 27.2248 133.974 27.712C133.969 28.1793 134.084 28.592 134.317 28.9499C134.551 29.3029 134.879 29.5788 135.302 29.7777C135.729 29.9766 136.231 30.076 136.808 30.076ZM136.808 23.1183C137.276 23.1183 137.688 23.0238 138.046 22.8349C138.409 22.646 138.695 22.3825 138.904 22.0444C139.113 21.7063 139.219 21.3161 139.224 20.8736C139.219 20.4361 139.115 20.0533 138.911 19.7251C138.707 19.392 138.424 19.136 138.061 18.957C137.698 18.7731 137.28 18.6811 136.808 18.6811C136.326 18.6811 135.901 18.7731 135.533 18.957C135.17 19.136 134.887 19.392 134.683 19.7251C134.484 20.0533 134.387 20.4361 134.392 20.8736C134.387 21.3161 134.486 21.7063 134.69 22.0444C134.899 22.3775 135.185 22.641 135.548 22.8349C135.916 23.0238 136.336 23.1183 136.808 23.1183Z" fill="#A2A19F"/>
<path d="M159.711 16.9609L155.182 33.8646" stroke="#E5E4E3" stroke-width="1.3125"/>
<path d="M172.655 32V30.0014L177.957 24.8036C178.464 24.2915 178.887 23.8366 179.225 23.4389C179.563 23.0412 179.817 22.6559 179.986 22.283C180.155 21.9102 180.239 21.5124 180.239 21.0898C180.239 20.6076 180.13 20.195 179.911 19.8519C179.692 19.5039 179.392 19.2354 179.009 19.0465C178.626 18.8576 178.191 18.7631 177.704 18.7631C177.202 18.7631 176.762 18.8675 176.384 19.0763C176.006 19.2802 175.713 19.571 175.504 19.9489C175.3 20.3267 175.198 20.7766 175.198 21.2987H172.566C172.566 20.3292 172.787 19.4865 173.229 18.7706C173.672 18.0547 174.281 17.5004 175.056 17.1076C175.837 16.7148 176.732 16.5185 177.741 16.5185C178.765 16.5185 179.665 16.7099 180.441 17.0927C181.216 17.4755 181.818 18 182.245 18.6662C182.678 19.3324 182.894 20.093 182.894 20.9482C182.894 21.5199 182.785 22.0817 182.566 22.6335C182.347 23.1854 181.962 23.7969 181.41 24.468C180.863 25.1392 180.095 25.9521 179.106 26.9066L176.473 29.5838V29.6882H183.125V32H172.655ZM185.094 29.1662V26.9663L191.574 16.7273H193.409V19.8594H192.29L187.928 26.7724V26.8917H196.974V29.1662H185.094ZM192.38 32V28.495L192.41 27.5107V16.7273H195.02V32H192.38Z" fill="#A2A19F"/>
</svg>
