<svg width="220" height="48" viewBox="0 0 220 48" fill="none" xmlns="http://www.w3.org/2000/svg">
<path d="M10.982 22.1291C9.82681 22.1291 8.83529 21.8368 8.00746 21.2521C7.18431 20.6628 6.55057 19.814 6.10626 18.7055C5.66662 17.5924 5.4468 16.2524 5.4468 14.6856C5.45148 13.1188 5.67364 11.7859 6.11328 10.6868C6.55759 9.58303 7.19132 8.74117 8.01447 8.16122C8.8423 7.58128 9.83149 7.2913 10.982 7.2913C12.1326 7.2913 13.1218 7.58128 13.9496 8.16122C14.7774 8.74117 15.4111 9.58303 15.8508 10.6868C16.2951 11.7906 16.5173 13.1235 16.5173 14.6856C16.5173 16.2571 16.2951 17.5994 15.8508 18.7125C15.4111 19.821 14.7774 20.6675 13.9496 21.2521C13.1264 21.8368 12.1372 22.1291 10.982 22.1291ZM10.982 19.9332C11.88 19.9332 12.5886 19.4912 13.1077 18.6073C13.6315 17.7187 13.8935 16.4114 13.8935 14.6856C13.8935 13.5444 13.7742 12.5857 13.5357 11.8093C13.2971 11.0329 12.9604 10.4483 12.5254 10.0554C12.0905 9.65786 11.576 9.45909 10.982 9.45909C10.0887 9.45909 9.3825 9.90341 8.86335 10.792C8.3442 11.676 8.08229 12.9739 8.07761 14.6856C8.07294 15.8315 8.18752 16.795 8.42137 17.576C8.6599 18.3571 8.99664 18.9464 9.4316 19.3439C9.86656 19.7368 10.3834 19.9332 10.982 19.9332ZM24.1589 22.1291C23.0037 22.1291 22.0121 21.8368 21.1843 21.2521C20.3612 20.6628 19.7274 19.814 19.2831 18.7055C18.8435 17.5924 18.6237 16.2524 18.6237 14.6856C18.6283 13.1188 18.8505 11.7859 19.2901 10.6868C19.7344 9.58303 20.3682 8.74117 21.1913 8.16122C22.0192 7.58128 23.0083 7.2913 24.1589 7.2913C25.3094 7.2913 26.2986 7.58128 27.1264 8.16122C27.9543 8.74117 28.588 9.58303 29.0276 10.6868C29.4719 11.7906 29.6941 13.1235 29.6941 14.6856C29.6941 16.2571 29.4719 17.5994 29.0276 18.7125C28.588 19.821 27.9543 20.6675 27.1264 21.2521C26.3033 21.8368 25.3141 22.1291 24.1589 22.1291ZM24.1589 19.9332C25.0569 19.9332 25.7654 19.4912 26.2846 18.6073C26.8084 17.7187 27.0703 16.4114 27.0703 14.6856C27.0703 13.5444 26.951 12.5857 26.7125 11.8093C26.474 11.0329 26.1372 10.4483 25.7023 10.0554C25.2673 9.65786 24.7529 9.45909 24.1589 9.45909C23.2656 9.45909 22.5593 9.90341 22.0402 10.792C21.5211 11.676 21.2591 12.9739 21.2545 14.6856C21.2498 15.8315 21.3644 16.795 21.5982 17.576C21.8368 18.3571 22.1735 18.9464 22.6085 19.3439C23.0434 19.7368 23.5602 19.9332 24.1589 19.9332Z" fill="#A2A19F"/>
<path d="M7.87197 42.1484H5.65508V34.9646H7.97019C8.66706 34.9646 9.26338 35.1084 9.75914 35.396C10.2549 35.6813 10.6349 36.0917 10.8992 36.6272C11.1634 37.1604 11.2955 37.7988 11.2955 38.5425C11.2955 39.2908 11.1622 39.935 10.8957 40.4752C10.6291 41.0131 10.2409 41.427 9.73108 41.717C9.22129 42.0046 8.60158 42.1484 7.87197 42.1484ZM6.525 41.3767H7.81585C8.40983 41.3767 8.90208 41.2621 9.29261 41.033C9.68314 40.8038 9.97428 40.4776 10.166 40.0543C10.3578 39.631 10.4537 39.1271 10.4537 38.5425C10.4537 37.9625 10.359 37.4633 10.1695 37.0447C9.98013 36.6237 9.69717 36.301 9.32067 36.0765C8.94417 35.8497 8.47531 35.7363 7.91407 35.7363H6.525V41.3767ZM12.7118 42.1484H11.7998L14.4376 34.9646H15.3356L17.9734 42.1484H17.0614L14.9147 36.1011H14.8585L12.7118 42.1484ZM13.0485 39.3422H16.7246V40.1139H13.0485V39.3422ZM17.7419 34.9646H18.7381L20.7305 38.318H20.8147L22.8071 34.9646H23.8033L21.2075 39.1879V42.1484H20.3376V39.1879L17.7419 34.9646ZM28.8571 36.7605C28.815 36.4051 28.6443 36.1291 28.3449 35.9327C28.0456 35.7363 27.6785 35.6381 27.2435 35.6381C26.9255 35.6381 26.6472 35.6895 26.4087 35.7924C26.1725 35.8953 25.9877 36.0368 25.8544 36.2168C25.7235 36.3969 25.658 36.6015 25.658 36.8307C25.658 37.0224 25.7036 37.1873 25.7948 37.3253C25.8883 37.4609 26.0076 37.5743 26.1526 37.6655C26.2976 37.7544 26.4496 37.8281 26.6086 37.8865C26.7676 37.9426 26.9138 37.9882 27.0471 38.0233L27.7767 38.2198C27.9638 38.2689 28.1719 38.3367 28.4011 38.4232C28.6326 38.5097 28.8536 38.6278 29.064 38.7775C29.2768 38.9248 29.4522 39.1142 29.5902 39.3457C29.7282 39.5773 29.7971 39.8614 29.7971 40.1981C29.7971 40.5863 29.6954 40.9371 29.492 41.2505C29.2909 41.5638 28.9962 41.8129 28.608 41.9976C28.2222 42.1823 27.7533 42.2747 27.2014 42.2747C26.6869 42.2747 26.2415 42.1917 25.865 42.0257C25.4908 41.8596 25.1962 41.6281 24.981 41.3311C24.7682 41.0341 24.6478 40.6892 24.6197 40.2963H25.5177C25.5411 40.5676 25.6323 40.7921 25.7913 40.9698C25.9527 41.1452 26.1561 41.2762 26.4016 41.3627C26.6495 41.4469 26.9161 41.489 27.2014 41.489C27.5335 41.489 27.8316 41.4352 28.0959 41.3276C28.3601 41.2177 28.5694 41.0657 28.7238 40.8716C28.8781 40.6752 28.9553 40.446 28.9553 40.1841C28.9553 39.9456 28.8886 39.7515 28.7553 39.6018C28.6221 39.4521 28.4467 39.3305 28.2292 39.237C28.0117 39.1435 27.7767 39.0616 27.5241 38.9915L26.6402 38.7389C26.0789 38.5776 25.6346 38.3472 25.3072 38.0479C24.9798 37.7486 24.8161 37.3569 24.8161 36.8728C24.8161 36.4706 24.9249 36.1198 25.1424 35.8205C25.3622 35.5188 25.6568 35.2849 26.0263 35.1189C26.3981 34.9505 26.8132 34.8664 27.2716 34.8664C27.7346 34.8664 28.1462 34.9494 28.5063 35.1154C28.8664 35.2791 29.1517 35.5036 29.3622 35.7889C29.575 36.0742 29.6872 36.3981 29.6989 36.7605H28.8571Z" fill="#A2A19F"/>
<path d="M45.8574 10.8281V37.169" stroke="#E5E4E3" stroke-width="1.23473"/>
<path d="M67.9659 22.1291C66.8106 22.1291 65.8191 21.8368 64.9913 21.2521C64.1681 20.6628 63.5344 19.814 63.0901 18.7055C62.6505 17.5924 62.4306 16.2524 62.4306 14.6856C62.4353 13.1188 62.6575 11.7859 63.0971 10.6868C63.5414 9.58303 64.1752 8.74117 64.9983 8.16122C65.8261 7.58128 66.8153 7.2913 67.9659 7.2913C69.1164 7.2913 70.1056 7.58128 70.9334 8.16122C71.7612 8.74117 72.395 9.58303 72.8346 10.6868C73.2789 11.7906 73.5011 13.1235 73.5011 14.6856C73.5011 16.2571 73.2789 17.5994 72.8346 18.7125C72.395 19.821 71.7612 20.6675 70.9334 21.2521C70.1103 21.8368 69.1211 22.1291 67.9659 22.1291ZM67.9659 19.9332C68.8639 19.9332 69.5724 19.4912 70.0916 18.6073C70.6154 17.7187 70.8773 16.4114 70.8773 14.6856C70.8773 13.5444 70.758 12.5857 70.5195 11.8093C70.281 11.0329 69.9442 10.4483 69.5093 10.0554C69.0743 9.65786 68.5598 9.45909 67.9659 9.45909C67.0726 9.45909 66.3663 9.90341 65.8472 10.792C65.328 11.676 65.0661 12.9739 65.0615 14.6856C65.0568 15.8315 65.1714 16.795 65.4052 17.576C65.6437 18.3571 65.9805 18.9464 66.4154 19.3439C66.8504 19.7368 67.3672 19.9332 67.9659 19.9332ZM81.1427 22.1291C79.9875 22.1291 78.996 21.8368 78.1681 21.2521C77.345 20.6628 76.7113 19.814 76.267 18.7055C75.8273 17.5924 75.6075 16.2524 75.6075 14.6856C75.6122 13.1188 75.8343 11.7859 76.274 10.6868C76.7183 9.58303 77.352 8.74117 78.1752 8.16122C79.003 7.58128 79.9922 7.2913 81.1427 7.2913C82.2933 7.2913 83.2824 7.58128 84.1103 8.16122C84.9381 8.74117 85.5718 9.58303 86.0115 10.6868C86.4558 11.7906 86.6779 13.1235 86.6779 14.6856C86.6779 16.2571 86.4558 17.5994 86.0115 18.7125C85.5718 19.821 84.9381 20.6675 84.1103 21.2521C83.2871 21.8368 82.2979 22.1291 81.1427 22.1291ZM81.1427 19.9332C82.0407 19.9332 82.7493 19.4912 83.2684 18.6073C83.7922 17.7187 84.0541 16.4114 84.0541 14.6856C84.0541 13.5444 83.9349 12.5857 83.6964 11.8093C83.4578 11.0329 83.1211 10.4483 82.6861 10.0554C82.2512 9.65786 81.7367 9.45909 81.1427 9.45909C80.2494 9.45909 79.5432 9.90341 79.024 10.792C78.5049 11.676 78.243 12.9739 78.2383 14.6856C78.2336 15.8315 78.3482 16.795 78.5821 17.576C78.8206 18.3571 79.1573 18.9464 79.5923 19.3439C80.0273 19.7368 80.5441 19.9332 81.1427 19.9332Z" fill="#A2A19F"/>
<path d="M58.0376 42.1484V34.9646H58.9076V38.1636H62.738V34.9646H63.6079V42.1484H62.738V38.9353H58.9076V42.1484H58.0376ZM71.4109 38.5565C71.4109 39.3142 71.2741 39.969 71.0005 40.5208C70.7269 41.0727 70.3516 41.4983 69.8745 41.7977C69.3975 42.097 68.8526 42.2467 68.2399 42.2467C67.6272 42.2467 67.0824 42.097 66.6053 41.7977C66.1282 41.4983 65.7529 41.0727 65.4793 40.5208C65.2057 39.969 65.0689 39.3142 65.0689 38.5565C65.0689 37.7988 65.2057 37.1441 65.4793 36.5922C65.7529 36.0403 66.1282 35.6147 66.6053 35.3153C67.0824 35.016 67.6272 34.8664 68.2399 34.8664C68.8526 34.8664 69.3975 35.016 69.8745 35.3153C70.3516 35.6147 70.7269 36.0403 71.0005 36.5922C71.2741 37.1441 71.4109 37.7988 71.4109 38.5565ZM70.5691 38.5565C70.5691 37.9345 70.465 37.4095 70.2569 36.9815C70.0511 36.5536 69.7716 36.2297 69.4185 36.0099C69.0677 35.7901 68.6749 35.6802 68.2399 35.6802C67.8049 35.6802 67.4109 35.7901 67.0578 36.0099C66.707 36.2297 66.4276 36.5536 66.2194 36.9815C66.0137 37.4095 65.9108 37.9345 65.9108 38.5565C65.9108 39.1785 66.0137 39.7035 66.2194 40.1315C66.4276 40.5594 66.707 40.8833 67.0578 41.1031C67.4109 41.3229 67.8049 41.4329 68.2399 41.4329C68.6749 41.4329 69.0677 41.3229 69.4185 41.1031C69.7716 40.8833 70.0511 40.5594 70.2569 40.1315C70.465 39.7035 70.5691 39.1785 70.5691 38.5565ZM77.5881 34.9646H78.458V39.7211C78.458 40.2122 78.3422 40.6506 78.1107 41.0365C77.8815 41.42 77.5577 41.7228 77.1391 41.945C76.7205 42.1648 76.2294 42.2747 75.6658 42.2747C75.1022 42.2747 74.6111 42.1648 74.1926 41.945C73.774 41.7228 73.4489 41.42 73.2174 41.0365C72.9882 40.6506 72.8736 40.2122 72.8736 39.7211V34.9646H73.7436V39.6509C73.7436 40.0017 73.8207 40.3139 73.9751 40.5875C74.1294 40.8588 74.3492 41.0727 74.6345 41.2294C74.9222 41.3837 75.2659 41.4609 75.6658 41.4609C76.0657 41.4609 76.4095 41.3837 76.6971 41.2294C76.9847 41.0727 77.2045 40.8588 77.3565 40.5875C77.5109 40.3139 77.5881 40.0017 77.5881 39.6509V34.9646ZM80.1952 42.1484V34.9646H82.6226C83.1838 34.9646 83.6445 35.0605 84.0046 35.2522C84.3647 35.4416 84.6313 35.7024 84.8044 36.0344C84.9774 36.3665 85.0639 36.7442 85.0639 37.1674C85.0639 37.5907 84.9774 37.966 84.8044 38.2934C84.6313 38.6208 84.3659 38.878 84.0081 39.0651C83.6503 39.2499 83.1931 39.3422 82.6366 39.3422H80.6722V38.5565H82.6085C82.992 38.5565 83.3007 38.5004 83.5346 38.3881C83.7708 38.2759 83.9415 38.1169 84.0467 37.9111C84.1543 37.703 84.2081 37.4551 84.2081 37.1674C84.2081 36.8798 84.1543 36.6284 84.0467 36.4133C83.9391 36.1981 83.7672 36.0321 83.5311 35.9152C83.2949 35.7959 82.9827 35.7363 82.5945 35.7363H81.0651V42.1484H80.1952ZM83.5767 38.9213L85.3446 42.1484H84.3343L82.5945 38.9213H83.5767ZM90.4422 36.7605C90.4001 36.4051 90.2294 36.1291 89.9301 35.9327C89.6307 35.7363 89.2636 35.6381 88.8286 35.6381C88.5106 35.6381 88.2323 35.6895 87.9938 35.7924C87.7576 35.8953 87.5729 36.0368 87.4396 36.2168C87.3086 36.3969 87.2431 36.6015 87.2431 36.8307C87.2431 37.0224 87.2887 37.1873 87.3799 37.3253C87.4735 37.4609 87.5927 37.5743 87.7377 37.6655C87.8827 37.7544 88.0347 37.8281 88.1937 37.8865C88.3527 37.9426 88.4989 37.9882 88.6322 38.0233L89.3618 38.2198C89.5489 38.2689 89.757 38.3367 89.9862 38.4232C90.2177 38.5097 90.4387 38.6278 90.6492 38.7775C90.862 38.9248 91.0373 39.1142 91.1753 39.3457C91.3133 39.5773 91.3823 39.8614 91.3823 40.1981C91.3823 40.5863 91.2805 40.9371 91.0771 41.2505C90.876 41.5638 90.5813 41.8129 90.1931 41.9976C89.8073 42.1823 89.3384 42.2747 88.7865 42.2747C88.2721 42.2747 87.8266 42.1917 87.4501 42.0257C87.0759 41.8596 86.7813 41.6281 86.5661 41.3311C86.3533 41.0341 86.2329 40.6892 86.2048 40.2963H87.1028C87.1262 40.5676 87.2174 40.7921 87.3764 40.9698C87.5378 41.1452 87.7412 41.2762 87.9868 41.3627C88.2347 41.4469 88.5012 41.489 88.7865 41.489C89.1186 41.489 89.4168 41.4352 89.681 41.3276C89.9453 41.2177 90.1546 41.0657 90.3089 40.8716C90.4632 40.6752 90.5404 40.446 90.5404 40.1841C90.5404 39.9456 90.4738 39.7515 90.3405 39.6018C90.2072 39.4521 90.0318 39.3305 89.8143 39.237C89.5968 39.1435 89.3618 39.0616 89.1093 38.9915L88.2253 38.7389C87.6641 38.5776 87.2197 38.3472 86.8924 38.0479C86.565 37.7486 86.4013 37.3569 86.4013 36.8728C86.4013 36.4706 86.51 36.1198 86.7275 35.8205C86.9473 35.5188 87.242 35.2849 87.6114 35.1189C87.9833 34.9505 88.3983 34.8664 88.8567 34.8664C89.3197 34.8664 89.7313 34.9494 90.0914 35.1154C90.4515 35.2791 90.7368 35.5036 90.9473 35.7889C91.1601 36.0742 91.2724 36.3981 91.2841 36.7605H90.4422Z" fill="#A2A19F"/>
<path d="M103.254 10.8281V37.169" stroke="#E5E4E3" stroke-width="1.23473"/>
<path d="M124.951 22.1291C123.796 22.1291 122.804 21.8368 121.976 21.2521C121.153 20.6628 120.519 19.814 120.075 18.7055C119.635 17.5924 119.416 16.2524 119.416 14.6856C119.42 13.1188 119.642 11.7859 120.082 10.6868C120.526 9.58303 121.16 8.74117 121.983 8.16122C122.811 7.58128 123.8 7.2913 124.951 7.2913C126.101 7.2913 127.091 7.58128 127.918 8.16122C128.746 8.74117 129.38 9.58303 129.82 10.6868C130.264 11.7906 130.486 13.1235 130.486 14.6856C130.486 16.2571 130.264 17.5994 129.82 18.7125C129.38 19.821 128.746 20.6675 127.918 21.2521C127.095 21.8368 126.106 22.1291 124.951 22.1291ZM124.951 19.9332C125.849 19.9332 126.557 19.4912 127.076 18.6073C127.6 17.7187 127.862 16.4114 127.862 14.6856C127.862 13.5444 127.743 12.5857 127.504 11.8093C127.266 11.0329 126.929 10.4483 126.494 10.0554C126.059 9.65786 125.545 9.45909 124.951 9.45909C124.057 9.45909 123.351 9.90341 122.832 10.792C122.313 11.676 122.051 12.9739 122.046 14.6856C122.042 15.8315 122.156 16.795 122.39 17.576C122.629 18.3571 122.965 18.9464 123.4 19.3439C123.835 19.7368 124.352 19.9332 124.951 19.9332ZM138.128 22.1291C136.972 22.1291 135.981 21.8368 135.153 21.2521C134.33 20.6628 133.696 19.814 133.252 18.7055C132.812 17.5924 132.592 16.2524 132.592 14.6856C132.597 13.1188 132.819 11.7859 133.259 10.6868C133.703 9.58303 134.337 8.74117 135.16 8.16122C135.988 7.58128 136.977 7.2913 138.128 7.2913C139.278 7.2913 140.267 7.58128 141.095 8.16122C141.923 8.74117 142.557 9.58303 142.996 10.6868C143.441 11.7906 143.663 13.1235 143.663 14.6856C143.663 16.2571 143.441 17.5994 142.996 18.7125C142.557 19.821 141.923 20.6675 141.095 21.2521C140.272 21.8368 139.283 22.1291 138.128 22.1291ZM138.128 19.9332C139.026 19.9332 139.734 19.4912 140.253 18.6073C140.777 17.7187 141.039 16.4114 141.039 14.6856C141.039 13.5444 140.92 12.5857 140.681 11.8093C140.443 11.0329 140.106 10.4483 139.671 10.0554C139.236 9.65786 138.722 9.45909 138.128 9.45909C137.234 9.45909 136.528 9.90341 136.009 10.792C135.49 11.676 135.228 12.9739 135.223 14.6856C135.219 15.8315 135.333 16.795 135.567 17.576C135.806 18.3571 136.142 18.9464 136.577 19.3439C137.012 19.7368 137.529 19.9332 138.128 19.9332Z" fill="#A2A19F"/>
<path d="M119.841 34.9646H120.879L123.321 40.9277H123.405L125.846 34.9646H126.884V42.1484H126.071V36.6904H126L123.756 42.1484H122.97L120.725 36.6904H120.655V42.1484H119.841V34.9646ZM129.499 34.9646V42.1484H128.629V34.9646H129.499ZM136.939 34.9646V42.1484H136.098L132.183 36.508H132.113V42.1484H131.243V34.9646H132.085L136.013 40.6191H136.083V34.9646H136.939ZM142.609 36.7605C142.567 36.4051 142.396 36.1291 142.097 35.9327C141.797 35.7363 141.43 35.6381 140.995 35.6381C140.677 35.6381 140.399 35.6895 140.16 35.7924C139.924 35.8953 139.739 36.0368 139.606 36.2168C139.475 36.3969 139.41 36.6015 139.41 36.8307C139.41 37.0224 139.455 37.1873 139.547 37.3253C139.64 37.4609 139.759 37.5743 139.904 37.6655C140.049 37.7544 140.201 37.8281 140.36 37.8865C140.519 37.9426 140.665 37.9882 140.799 38.0233L141.528 38.2198C141.715 38.2689 141.924 38.3367 142.153 38.4232C142.384 38.5097 142.605 38.6278 142.816 38.7775C143.029 38.9248 143.204 39.1142 143.342 39.3457C143.48 39.5773 143.549 39.8614 143.549 40.1981C143.549 40.5863 143.447 40.9371 143.244 41.2505C143.043 41.5638 142.748 41.8129 142.36 41.9976C141.974 42.1823 141.505 42.2747 140.953 42.2747C140.439 42.2747 139.993 42.1917 139.617 42.0257C139.243 41.8596 138.948 41.6281 138.733 41.3311C138.52 41.0341 138.399 40.6892 138.371 40.2963H139.269C139.293 40.5676 139.384 40.7921 139.543 40.9698C139.704 41.1452 139.908 41.2762 140.153 41.3627C140.401 41.4469 140.668 41.489 140.953 41.489C141.285 41.489 141.583 41.4352 141.848 41.3276C142.112 41.2177 142.321 41.0657 142.475 40.8716C142.63 40.6752 142.707 40.446 142.707 40.1841C142.707 39.9456 142.64 39.7515 142.507 39.6018C142.374 39.4521 142.198 39.3305 141.981 39.237C141.763 39.1435 141.528 39.0616 141.276 38.9915L140.392 38.7389C139.831 38.5776 139.386 38.3472 139.059 38.0479C138.732 37.7486 138.568 37.3569 138.568 36.8728C138.568 36.4706 138.677 36.1198 138.894 35.8205C139.114 35.5188 139.409 35.2849 139.778 35.1189C140.15 34.9505 140.565 34.8664 141.023 34.8664C141.486 34.8664 141.898 34.9494 142.258 35.1154C142.618 35.2791 142.903 35.5036 143.114 35.7889C143.327 36.0742 143.439 36.3981 143.451 36.7605H142.609Z" fill="#A2A19F"/>
<path d="M159.826 10.8281V37.169" stroke="#E5E4E3" stroke-width="1.23473"/>
<path d="M181.111 22.1291C179.956 22.1291 178.965 21.8368 178.137 21.2521C177.314 20.6628 176.68 19.814 176.236 18.7055C175.796 17.5924 175.576 16.2524 175.576 14.6856C175.581 13.1188 175.803 11.7859 176.243 10.6868C176.687 9.58303 177.321 8.74117 178.144 8.16122C178.972 7.58128 179.961 7.2913 181.111 7.2913C182.262 7.2913 183.251 7.58128 184.079 8.16122C184.907 8.74117 185.541 9.58303 185.98 10.6868C186.425 11.7906 186.647 13.1235 186.647 14.6856C186.647 16.2571 186.425 17.5994 185.98 18.7125C185.541 19.821 184.907 20.6675 184.079 21.2521C183.256 21.8368 182.267 22.1291 181.111 22.1291ZM181.111 19.9332C182.009 19.9332 182.718 19.4912 183.237 18.6073C183.761 17.7187 184.023 16.4114 184.023 14.6856C184.023 13.5444 183.904 12.5857 183.665 11.8093C183.427 11.0329 183.09 10.4483 182.655 10.0554C182.22 9.65786 181.705 9.45909 181.111 9.45909C180.218 9.45909 179.512 9.90341 178.993 10.792C178.474 11.676 178.212 12.9739 178.207 14.6856C178.202 15.8315 178.317 16.795 178.551 17.576C178.789 18.3571 179.126 18.9464 179.561 19.3439C179.996 19.7368 180.513 19.9332 181.111 19.9332ZM194.288 22.1291C193.133 22.1291 192.142 21.8368 191.314 21.2521C190.491 20.6628 189.857 19.814 189.413 18.7055C188.973 17.5924 188.753 16.2524 188.753 14.6856C188.758 13.1188 188.98 11.7859 189.42 10.6868C189.864 9.58303 190.498 8.74117 191.321 8.16122C192.149 7.58128 193.138 7.2913 194.288 7.2913C195.439 7.2913 196.428 7.58128 197.256 8.16122C198.084 8.74117 198.717 9.58303 199.157 10.6868C199.601 11.7906 199.824 13.1235 199.824 14.6856C199.824 16.2571 199.601 17.5994 199.157 18.7125C198.717 19.821 198.084 20.6675 197.256 21.2521C196.433 21.8368 195.444 22.1291 194.288 22.1291ZM194.288 19.9332C195.186 19.9332 195.895 19.4912 196.414 18.6073C196.938 17.7187 197.2 16.4114 197.2 14.6856C197.2 13.5444 197.08 12.5857 196.842 11.8093C196.603 11.0329 196.267 10.4483 195.832 10.0554C195.397 9.65786 194.882 9.45909 194.288 9.45909C193.395 9.45909 192.689 9.90341 192.17 10.792C191.65 11.676 191.389 12.9739 191.384 14.6856C191.379 15.8315 191.494 16.795 191.728 17.576C191.966 18.3571 192.303 18.9464 192.738 19.3439C193.173 19.7368 193.69 19.9332 194.288 19.9332Z" fill="#A2A19F"/>
<path d="M179.655 36.7605C179.613 36.4051 179.443 36.1291 179.143 35.9327C178.844 35.7363 178.477 35.6381 178.042 35.6381C177.724 35.6381 177.445 35.6895 177.207 35.7924C176.971 35.8953 176.786 36.0368 176.653 36.2168C176.522 36.3969 176.456 36.6015 176.456 36.8307C176.456 37.0224 176.502 37.1873 176.593 37.3253C176.687 37.4609 176.806 37.5743 176.951 37.6655C177.096 37.7544 177.248 37.8281 177.407 37.8865C177.566 37.9426 177.712 37.9882 177.845 38.0233L178.575 38.2198C178.762 38.2689 178.97 38.3367 179.199 38.4232C179.431 38.5097 179.652 38.6278 179.862 38.7775C180.075 38.9248 180.25 39.1142 180.388 39.3457C180.526 39.5773 180.595 39.8614 180.595 40.1981C180.595 40.5863 180.494 40.9371 180.29 41.2505C180.089 41.5638 179.794 41.8129 179.406 41.9976C179.02 42.1823 178.552 42.2747 178 42.2747C177.485 42.2747 177.04 42.1917 176.663 42.0257C176.289 41.8596 175.994 41.6281 175.779 41.3311C175.566 41.0341 175.446 40.6892 175.418 40.2963H176.316C176.339 40.5676 176.431 40.7921 176.59 40.9698C176.751 41.1452 176.954 41.2762 177.2 41.3627C177.448 41.4469 177.714 41.489 178 41.489C178.332 41.489 178.63 41.4352 178.894 41.3276C179.158 41.2177 179.368 41.0657 179.522 40.8716C179.676 40.6752 179.754 40.446 179.754 40.1841C179.754 39.9456 179.687 39.7515 179.554 39.6018C179.42 39.4521 179.245 39.3305 179.027 39.237C178.81 39.1435 178.575 39.0616 178.322 38.9915L177.438 38.7389C176.877 38.5776 176.433 38.3472 176.105 38.0479C175.778 37.7486 175.614 37.3569 175.614 36.8728C175.614 36.4706 175.723 36.1198 175.941 35.8205C176.16 35.5188 176.455 35.2849 176.825 35.1189C177.196 34.9505 177.611 34.8664 178.07 34.8664C178.533 34.8664 178.944 34.9494 179.305 35.1154C179.665 35.2791 179.95 35.5036 180.16 35.7889C180.373 36.0742 180.485 36.3981 180.497 36.7605H179.655ZM182.026 42.1484V34.9646H186.361V35.7363H182.896V38.1636H186.137V38.9353H182.896V41.3767H186.417V42.1484H182.026ZM193.71 37.2095H192.84C192.789 36.9593 192.699 36.7395 192.57 36.5501C192.444 36.3607 192.289 36.2016 192.107 36.073C191.927 35.9421 191.727 35.8438 191.507 35.7784C191.287 35.7129 191.058 35.6802 190.82 35.6802C190.385 35.6802 189.991 35.7901 189.637 36.0099C189.287 36.2297 189.007 36.5536 188.799 36.9815C188.593 37.4095 188.49 37.9345 188.49 38.5565C188.49 39.1785 188.593 39.7035 188.799 40.1315C189.007 40.5594 189.287 40.8833 189.637 41.1031C189.991 41.3229 190.385 41.4329 190.82 41.4329C191.058 41.4329 191.287 41.4001 191.507 41.3346C191.727 41.2692 191.927 41.1721 192.107 41.0435C192.289 40.9125 192.444 40.7524 192.57 40.5629C192.699 40.3712 192.789 40.1514 192.84 39.9035H193.71C193.645 40.2706 193.525 40.5992 193.352 40.8892C193.179 41.1791 192.964 41.4258 192.707 41.6293C192.45 41.8304 192.161 41.9836 191.84 42.0888C191.522 42.194 191.182 42.2467 190.82 42.2467C190.207 42.2467 189.662 42.097 189.185 41.7977C188.708 41.4983 188.333 41.0727 188.059 40.5208C187.785 39.969 187.649 39.3142 187.649 38.5565C187.649 37.7988 187.785 37.1441 188.059 36.5922C188.333 36.0403 188.708 35.6147 189.185 35.3153C189.662 35.016 190.207 34.8664 190.82 34.8664C191.182 34.8664 191.522 34.919 191.84 35.0242C192.161 35.1294 192.45 35.2838 192.707 35.4872C192.964 35.6883 193.179 35.9339 193.352 36.2239C193.525 36.5115 193.645 36.84 193.71 37.2095ZM199.044 36.7605C199.002 36.4051 198.832 36.1291 198.532 35.9327C198.233 35.7363 197.866 35.6381 197.431 35.6381C197.113 35.6381 196.835 35.6895 196.596 35.7924C196.36 35.8953 196.175 36.0368 196.042 36.2168C195.911 36.3969 195.845 36.6015 195.845 36.8307C195.845 37.0224 195.891 37.1873 195.982 37.3253C196.076 37.4609 196.195 37.5743 196.34 37.6655C196.485 37.7544 196.637 37.8281 196.796 37.8865C196.955 37.9426 197.101 37.9882 197.234 38.0233L197.964 38.2198C198.151 38.2689 198.359 38.3367 198.588 38.4232C198.82 38.5097 199.041 38.6278 199.251 38.7775C199.464 38.9248 199.64 39.1142 199.778 39.3457C199.915 39.5773 199.984 39.8614 199.984 40.1981C199.984 40.5863 199.883 40.9371 199.679 41.2505C199.478 41.5638 199.184 41.8129 198.795 41.9976C198.409 42.1823 197.941 42.2747 197.389 42.2747C196.874 42.2747 196.429 42.1917 196.052 42.0257C195.678 41.8596 195.383 41.6281 195.168 41.3311C194.956 41.0341 194.835 40.6892 194.807 40.2963H195.705C195.728 40.5676 195.82 40.7921 195.979 40.9698C196.14 41.1452 196.343 41.2762 196.589 41.3627C196.837 41.4469 197.103 41.489 197.389 41.489C197.721 41.489 198.019 41.4352 198.283 41.3276C198.547 41.2177 198.757 41.0657 198.911 40.8716C199.065 40.6752 199.143 40.446 199.143 40.1841C199.143 39.9456 199.076 39.7515 198.943 39.6018C198.809 39.4521 198.634 39.3305 198.416 39.237C198.199 39.1435 197.964 39.0616 197.711 38.9915L196.827 38.7389C196.266 38.5776 195.822 38.3472 195.495 38.0479C195.167 37.7486 195.003 37.3569 195.003 36.8728C195.003 36.4706 195.112 36.1198 195.33 35.8205C195.55 35.5188 195.844 35.2849 196.214 35.1189C196.585 34.9505 197.001 34.8664 197.459 34.8664C197.922 34.8664 198.333 34.9494 198.694 35.1154C199.054 35.2791 199.339 35.5036 199.55 35.7889C199.762 36.0742 199.875 36.3981 199.886 36.7605H199.044Z" fill="#A2A19F"/>
</svg>
