<svg width="220" height="48" viewBox="0 0 220 48" fill="none" xmlns="http://www.w3.org/2000/svg">
<g clip-path="url(#clip0_5174_16615)">
<rect width="35.3684" height="35.3684" rx="17.6842" fill="#E5E4E3"/>
<path d="M13.3247 23.7611C12.4742 23.7576 11.7476 23.5333 11.1447 23.0883C10.5418 22.6433 10.0807 21.9956 9.76133 21.1451C9.44195 20.2946 9.28226 19.2701 9.28226 18.0715C9.28226 16.8766 9.44195 15.8556 9.76133 15.0087C10.0843 14.1619 10.5472 13.5159 11.1501 13.0709C11.7565 12.626 12.4814 12.4035 13.3247 12.4035C14.168 12.4035 14.8911 12.6278 15.494 13.0763C16.0969 13.5213 16.558 14.1672 16.8774 15.0141C17.2003 15.8574 17.3618 16.8766 17.3618 18.0715C17.3618 19.2737 17.2021 20.3 16.8827 21.1505C16.5634 21.9974 16.1022 22.6451 15.4994 23.0937C14.8965 23.5387 14.1716 23.7611 13.3247 23.7611ZM13.3247 22.3239C14.0711 22.3239 14.6543 21.9597 15.0741 21.2312C15.4976 20.5028 15.7093 19.4495 15.7093 18.0715C15.7093 17.1565 15.6124 16.3831 15.4186 15.7516C15.2284 15.1164 14.9539 14.6355 14.5951 14.309C14.2398 13.9788 13.8164 13.8138 13.3247 13.8138C12.5819 13.8138 11.9988 14.1798 11.5753 14.9119C11.1519 15.6439 10.9384 16.6971 10.9348 18.0715C10.9348 18.9902 11.0299 19.7671 11.2201 20.4023C11.4138 21.0339 11.6884 21.5129 12.0436 21.8395C12.3989 22.1625 12.8259 22.3239 13.3247 22.3239ZM23.1093 23.7611C22.2588 23.7576 21.5321 23.5333 20.9292 23.0883C20.3264 22.6433 19.8652 21.9956 19.5459 21.1451C19.2265 20.2946 19.0668 19.2701 19.0668 18.0715C19.0668 16.8766 19.2265 15.8556 19.5459 15.0087C19.8688 14.1619 20.3318 13.5159 20.9346 13.0709C21.5411 12.626 22.266 12.4035 23.1093 12.4035C23.9526 12.4035 24.6757 12.6278 25.2785 13.0763C25.8814 13.5213 26.3425 14.1672 26.6619 15.0141C26.9849 15.8574 27.1463 16.8766 27.1463 18.0715C27.1463 19.2737 26.9867 20.3 26.6673 21.1505C26.3479 21.9974 25.8868 22.6451 25.2839 23.0937C24.681 23.5387 23.9562 23.7611 23.1093 23.7611ZM23.1093 22.3239C23.8557 22.3239 24.4388 21.9597 24.8587 21.2312C25.2821 20.5028 25.4938 19.4495 25.4938 18.0715C25.4938 17.1565 25.3969 16.3831 25.2032 15.7516C25.013 15.1164 24.7384 14.6355 24.3796 14.309C24.0243 13.9788 23.6009 13.8138 23.1093 13.8138C22.3664 13.8138 21.7833 14.1798 21.3599 14.9119C20.9364 15.6439 20.7229 16.6971 20.7193 18.0715C20.7193 18.9902 20.8144 19.7671 21.0046 20.4023C21.1984 21.0339 21.4729 21.5129 21.8282 21.8395C22.1834 22.1625 22.6105 22.3239 23.1093 22.3239Z" fill="#A2A19F"/>
<path d="M11.336 45.8945H9.63508V40.3826H11.4114C11.9461 40.3826 12.4036 40.4929 12.784 40.7136C13.1644 40.9325 13.456 41.2474 13.6587 41.6583C13.8615 42.0674 13.9628 42.5572 13.9628 43.1278C13.9628 43.7019 13.8606 44.1963 13.656 44.6107C13.4515 45.0234 13.1536 45.341 12.7625 45.5635C12.3713 45.7842 11.8958 45.8945 11.336 45.8945ZM10.3025 45.3024H11.293C11.7487 45.3024 12.1264 45.2145 12.4261 45.0387C12.7257 44.8628 12.9491 44.6125 13.0962 44.2878C13.2433 43.963 13.3169 43.5763 13.3169 43.1278C13.3169 42.6828 13.2442 42.2997 13.0989 41.9786C12.9536 41.6556 12.7365 41.408 12.4476 41.2357C12.1587 41.0617 11.799 40.9747 11.3683 40.9747H10.3025V45.3024ZM16.2128 45.9914C15.9509 45.9914 15.7131 45.9421 15.4996 45.8434C15.2861 45.7429 15.1165 45.5985 14.9909 45.4101C14.8653 45.2199 14.8025 44.9902 14.8025 44.7211C14.8025 44.4842 14.8492 44.2923 14.9425 44.1451C15.0358 43.9962 15.1605 43.8796 15.3166 43.7952C15.4727 43.7109 15.645 43.6481 15.8333 43.6069C16.0235 43.5638 16.2146 43.5297 16.4066 43.5046C16.6578 43.4723 16.8615 43.4481 17.0176 43.4319C17.1755 43.414 17.2903 43.3844 17.3621 43.3431C17.4356 43.3018 17.4724 43.2301 17.4724 43.1278V43.1063C17.4724 42.8407 17.3997 42.6344 17.2544 42.4872C17.1109 42.3401 16.8929 42.2665 16.6004 42.2665C16.2972 42.2665 16.0594 42.3329 15.8872 42.4657C15.7149 42.5985 15.5938 42.7402 15.5238 42.8909L14.921 42.6756C15.0286 42.4244 15.1722 42.2289 15.3516 42.0889C15.5328 41.9472 15.7302 41.8485 15.9437 41.7929C16.159 41.7354 16.3707 41.7067 16.5789 41.7067C16.7116 41.7067 16.8642 41.7229 17.0364 41.7552C17.2104 41.7857 17.3782 41.8494 17.5397 41.9463C17.703 42.0432 17.8384 42.1894 17.9461 42.385C18.0537 42.5805 18.1076 42.8425 18.1076 43.1708V45.8945H17.4724V45.3347H17.4401C17.397 45.4244 17.3253 45.5204 17.2248 45.6227C17.1243 45.725 16.9906 45.812 16.8238 45.8838C16.6569 45.9555 16.4533 45.9914 16.2128 45.9914ZM16.3097 45.4208C16.5609 45.4208 16.7726 45.3715 16.9449 45.2728C17.1189 45.1741 17.2499 45.0467 17.3378 44.8906C17.4275 44.7345 17.4724 44.5704 17.4724 44.3981V43.8168C17.4455 43.8491 17.3863 43.8787 17.2948 43.9056C17.2051 43.9307 17.101 43.9531 16.9826 43.9729C16.8659 43.9908 16.752 44.007 16.6408 44.0213C16.5313 44.0339 16.4425 44.0447 16.3743 44.0536C16.2092 44.0752 16.0549 44.1101 15.9114 44.1586C15.7697 44.2052 15.6548 44.2761 15.5669 44.3712C15.4808 44.4645 15.4377 44.5919 15.4377 44.7534C15.4377 44.9741 15.5194 45.1409 15.6826 45.254C15.8477 45.3652 16.0567 45.4208 16.3097 45.4208ZM19.528 47.4448C19.4203 47.4448 19.3243 47.4358 19.24 47.4179C19.1556 47.4017 19.0973 47.3856 19.065 47.3694L19.2265 46.8096C19.3808 46.8491 19.5172 46.8634 19.6356 46.8527C19.754 46.8419 19.859 46.789 19.9505 46.6939C20.0438 46.6006 20.129 46.449 20.2062 46.239L20.3246 45.9161L18.7959 41.7606H19.4849L20.626 45.0548H20.6691L21.8102 41.7606H22.4992L20.7445 46.4974C20.6655 46.7109 20.5677 46.8877 20.4511 47.0276C20.3345 47.1694 20.199 47.2743 20.0447 47.3425C19.8922 47.4107 19.7199 47.4448 19.528 47.4448ZM26.2658 42.6864L25.6953 42.8479C25.6594 42.7528 25.6064 42.6604 25.5365 42.5707C25.4683 42.4792 25.375 42.4038 25.2566 42.3446C25.1381 42.2854 24.9865 42.2558 24.8017 42.2558C24.5487 42.2558 24.3379 42.3141 24.1692 42.4307C24.0024 42.5455 23.9189 42.6918 23.9189 42.8694C23.9189 43.0273 23.9764 43.152 24.0912 43.2435C24.206 43.335 24.3855 43.4113 24.6295 43.4723L25.2431 43.623C25.6127 43.7127 25.8881 43.85 26.0694 44.0348C26.2506 44.2178 26.3412 44.4537 26.3412 44.7426C26.3412 44.9795 26.273 45.1912 26.1367 45.3778C26.0021 45.5644 25.8137 45.7115 25.5715 45.8192C25.3292 45.9268 25.0475 45.9807 24.7264 45.9807C24.3047 45.9807 23.9557 45.8891 23.6794 45.7061C23.4031 45.5231 23.2282 45.2558 23.1546 44.9041L23.7575 44.7534C23.8149 44.9759 23.9234 45.1427 24.0831 45.254C24.2446 45.3652 24.4554 45.4208 24.7156 45.4208C25.0117 45.4208 25.2467 45.358 25.4207 45.2324C25.5966 45.1051 25.6845 44.9525 25.6845 44.7749C25.6845 44.6314 25.6343 44.5112 25.5338 44.4143C25.4333 44.3156 25.279 44.242 25.0709 44.1936L24.3819 44.0321C24.0033 43.9424 23.7252 43.8033 23.5475 43.6149C23.3717 43.4247 23.2838 43.187 23.2838 42.9017C23.2838 42.6685 23.3493 42.4621 23.4803 42.2827C23.613 42.1033 23.7934 41.9624 24.0212 41.8601C24.2509 41.7579 24.5111 41.7067 24.8017 41.7067C25.2108 41.7067 25.532 41.7964 25.7652 41.9759C26.0003 42.1553 26.1672 42.3921 26.2658 42.6864Z" fill="#A2A19F"/>
<rect x="40.4219" width="35.3684" height="35.3684" rx="17.6842" fill="#E5E4E3"/>
<path d="M53.7466 23.7611C52.8961 23.7576 52.1694 23.5333 51.5666 23.0883C50.9637 22.6433 50.5026 21.9956 50.1832 21.1451C49.8638 20.2946 49.7041 19.2701 49.7041 18.0715C49.7041 16.8766 49.8638 15.8556 50.1832 15.0087C50.5062 14.1619 50.9691 13.5159 51.572 13.0709C52.1784 12.626 52.9033 12.4035 53.7466 12.4035C54.5899 12.4035 55.313 12.6278 55.9159 13.0763C56.5187 13.5213 56.9799 14.1672 57.2992 15.0141C57.6222 15.8574 57.7837 16.8766 57.7837 18.0715C57.7837 19.2737 57.624 20.3 57.3046 21.1505C56.9852 21.9974 56.5241 22.6451 55.9212 23.0937C55.3184 23.5387 54.5935 23.7611 53.7466 23.7611ZM53.7466 22.3239C54.493 22.3239 55.0761 21.9597 55.496 21.2312C55.9194 20.5028 56.1312 19.4495 56.1312 18.0715C56.1312 17.1565 56.0343 16.3831 55.8405 15.7516C55.6503 15.1164 55.3758 14.6355 55.0169 14.309C54.6617 13.9788 54.2382 13.8138 53.7466 13.8138C53.0038 13.8138 52.4206 14.1798 51.9972 14.9119C51.5738 15.6439 51.3602 16.6971 51.3566 18.0715C51.3566 18.9902 51.4517 19.7671 51.6419 20.4023C51.8357 21.0339 52.1102 21.5129 52.4655 21.8395C52.8208 22.1625 53.2478 22.3239 53.7466 22.3239ZM63.5311 23.7611C62.6807 23.7576 61.954 23.5333 61.3511 23.0883C60.7482 22.6433 60.2871 21.9956 59.9677 21.1451C59.6484 20.2946 59.4887 19.2701 59.4887 18.0715C59.4887 16.8766 59.6484 15.8556 59.9677 15.0087C60.2907 14.1619 60.7536 13.5159 61.3565 13.0709C61.963 12.626 62.6878 12.4035 63.5311 12.4035C64.3744 12.4035 65.0975 12.6278 65.7004 13.0763C66.3033 13.5213 66.7644 14.1672 67.0838 15.0141C67.4067 15.8574 67.5682 16.8766 67.5682 18.0715C67.5682 19.2737 67.4085 20.3 67.0892 21.1505C66.7698 21.9974 66.3086 22.6451 65.7058 23.0937C65.1029 23.5387 64.378 23.7611 63.5311 23.7611ZM63.5311 22.3239C64.2775 22.3239 64.8607 21.9597 65.2805 21.2312C65.704 20.5028 65.9157 19.4495 65.9157 18.0715C65.9157 17.1565 65.8188 16.3831 65.625 15.7516C65.4348 15.1164 65.1603 14.6355 64.8015 14.309C64.4462 13.9788 64.0228 13.8138 63.5311 13.8138C62.7883 13.8138 62.2052 14.1798 61.7817 14.9119C61.3583 15.6439 61.1448 16.6971 61.1412 18.0715C61.1412 18.9902 61.2363 19.7671 61.4265 20.4023C61.6203 21.0339 61.8948 21.5129 62.25 21.8395C62.6053 22.1625 63.0323 22.3239 63.5311 22.3239Z" fill="#A2A19F"/>
<path d="M48.3787 45.8945V40.3826H49.0462V42.8371H51.9852V40.3826H52.6526V45.8945H51.9852V43.4292H49.0462V45.8945H48.3787ZM55.5822 45.9807C55.209 45.9807 54.8816 45.8918 54.5999 45.7142C54.3199 45.5366 54.101 45.2881 53.9432 44.9687C53.7871 44.6493 53.709 44.2761 53.709 43.8491C53.709 43.4185 53.7871 43.0426 53.9432 42.7214C54.101 42.4002 54.3199 42.1508 54.5999 41.9732C54.8816 41.7955 55.209 41.7067 55.5822 41.7067C55.9554 41.7067 56.282 41.7955 56.5619 41.9732C56.8436 42.1508 57.0625 42.4002 57.2186 42.7214C57.3765 43.0426 57.4554 43.4185 57.4554 43.8491C57.4554 44.2761 57.3765 44.6493 57.2186 44.9687C57.0625 45.2881 56.8436 45.5366 56.5619 45.7142C56.282 45.8918 55.9554 45.9807 55.5822 45.9807ZM55.5822 45.4101C55.8657 45.4101 56.099 45.3374 56.282 45.1921C56.465 45.0467 56.6005 44.8557 56.6884 44.6188C56.7763 44.382 56.8202 44.1254 56.8202 43.8491C56.8202 43.5728 56.7763 43.3153 56.6884 43.0766C56.6005 42.838 56.465 42.6451 56.282 42.498C56.099 42.3509 55.8657 42.2773 55.5822 42.2773C55.2987 42.2773 55.0655 42.3509 54.8824 42.498C54.6994 42.6451 54.564 42.838 54.476 43.0766C54.3881 43.3153 54.3442 43.5728 54.3442 43.8491C54.3442 44.1254 54.3881 44.382 54.476 44.6188C54.564 44.8557 54.6994 45.0467 54.8824 45.1921C55.0655 45.3374 55.2987 45.4101 55.5822 45.4101ZM61.0302 44.2043V41.7606H61.6654V45.8945H61.0302V45.1948H60.9872C60.8903 45.4047 60.7396 45.5832 60.535 45.7304C60.3305 45.8757 60.0721 45.9484 59.7599 45.9484C59.5015 45.9484 59.2719 45.8918 59.0709 45.7788C58.87 45.664 58.7121 45.4917 58.5972 45.2621C58.4824 45.0306 58.425 44.739 58.425 44.3874V41.7606H59.0602V44.3443C59.0602 44.6457 59.1445 44.8862 59.3131 45.0656C59.4836 45.245 59.7007 45.3347 59.9645 45.3347C60.1224 45.3347 60.2829 45.2944 60.4462 45.2136C60.6113 45.1329 60.7494 45.0091 60.8607 44.8422C60.9737 44.6753 61.0302 44.4627 61.0302 44.2043ZM62.8288 45.8945V41.7606H63.4424V42.385H63.4855C63.5608 42.1804 63.6972 42.0144 63.8946 41.8871C64.0919 41.7597 64.3144 41.696 64.562 41.696C64.6087 41.696 64.667 41.6969 64.737 41.6987C64.8069 41.7005 64.8599 41.7031 64.8958 41.7067V42.3527C64.8742 42.3473 64.8249 42.3392 64.7477 42.3284C64.6724 42.3159 64.5925 42.3096 64.5082 42.3096C64.3072 42.3096 64.1278 42.3518 63.9699 42.4361C63.8138 42.5186 63.69 42.6335 63.5985 42.7806C63.5088 42.9259 63.4639 43.0919 63.4639 43.2785V45.8945H62.8288ZM68.5769 42.6864L68.0063 42.8479C67.9704 42.7528 67.9175 42.6604 67.8475 42.5707C67.7794 42.4792 67.6861 42.4038 67.5676 42.3446C67.4492 42.2854 67.2976 42.2558 67.1128 42.2558C66.8598 42.2558 66.649 42.3141 66.4803 42.4307C66.3134 42.5455 66.23 42.6918 66.23 42.8694C66.23 43.0273 66.2874 43.152 66.4023 43.2435C66.5171 43.335 66.6965 43.4113 66.9405 43.4723L67.5542 43.623C67.9238 43.7127 68.1992 43.85 68.3804 44.0348C68.5616 44.2178 68.6523 44.4537 68.6523 44.7426C68.6523 44.9795 68.5841 45.1912 68.4477 45.3778C68.3131 45.5644 68.1247 45.7115 67.8825 45.8192C67.6403 45.9268 67.3586 45.9807 67.0374 45.9807C66.6158 45.9807 66.2668 45.8891 65.9905 45.7061C65.7142 45.5231 65.5392 45.2558 65.4657 44.9041L66.0685 44.7534C66.1259 44.9759 66.2345 45.1427 66.3942 45.254C66.5557 45.3652 66.7665 45.4208 67.0267 45.4208C67.3227 45.4208 67.5578 45.358 67.7318 45.2324C67.9076 45.1051 67.9956 44.9525 67.9956 44.7749C67.9956 44.6314 67.9453 44.5112 67.8448 44.4143C67.7444 44.3156 67.5901 44.242 67.3819 44.1936L66.6929 44.0321C66.3143 43.9424 66.0362 43.8033 65.8586 43.6149C65.6828 43.4247 65.5948 43.187 65.5948 42.9017C65.5948 42.6685 65.6603 42.4621 65.7913 42.2827C65.9241 42.1033 66.1044 41.9624 66.3323 41.8601C66.5619 41.7579 66.8221 41.7067 67.1128 41.7067C67.5219 41.7067 67.843 41.7964 68.0763 41.9759C68.3114 42.1553 68.4782 42.3921 68.5769 42.6864Z" fill="#A2A19F"/>
<rect x="80.8418" width="35.3684" height="35.3684" rx="17.6842" fill="#E5E4E3"/>
<path d="M94.1665 23.7611C93.316 23.7576 92.5894 23.5333 91.9865 23.0883C91.3836 22.6433 90.9225 21.9956 90.6031 21.1451C90.2837 20.2946 90.1241 19.2701 90.1241 18.0715C90.1241 16.8766 90.2837 15.8556 90.6031 15.0087C90.9261 14.1619 91.389 13.5159 91.9919 13.0709C92.5983 12.626 93.3232 12.4035 94.1665 12.4035C95.0098 12.4035 95.7329 12.6278 96.3358 13.0763C96.9386 13.5213 97.3998 14.1672 97.7192 15.0141C98.0421 15.8574 98.2036 16.8766 98.2036 18.0715C98.2036 19.2737 98.0439 20.3 97.7245 21.1505C97.4052 21.9974 96.944 22.6451 96.3412 23.0937C95.7383 23.5387 95.0134 23.7611 94.1665 23.7611ZM94.1665 22.3239C94.9129 22.3239 95.4961 21.9597 95.9159 21.2312C96.3394 20.5028 96.5511 19.4495 96.5511 18.0715C96.5511 17.1565 96.4542 16.3831 96.2604 15.7516C96.0702 15.1164 95.7957 14.6355 95.4369 14.309C95.0816 13.9788 94.6581 13.8138 94.1665 13.8138C93.4237 13.8138 92.8406 14.1798 92.4171 14.9119C91.9937 15.6439 91.7802 16.6971 91.7766 18.0715C91.7766 18.9902 91.8717 19.7671 92.0619 20.4023C92.2556 21.0339 92.5302 21.5129 92.8854 21.8395C93.2407 22.1625 93.6677 22.3239 94.1665 22.3239ZM103.951 23.7611C103.101 23.7576 102.374 23.5333 101.771 23.0883C101.168 22.6433 100.707 21.9956 100.388 21.1451C100.068 20.2946 99.9086 19.2701 99.9086 18.0715C99.9086 16.8766 100.068 15.8556 100.388 15.0087C100.711 14.1619 101.174 13.5159 101.776 13.0709C102.383 12.626 103.108 12.4035 103.951 12.4035C104.794 12.4035 105.517 12.6278 106.12 13.0763C106.723 13.5213 107.184 14.1672 107.504 15.0141C107.827 15.8574 107.988 16.8766 107.988 18.0715C107.988 19.2737 107.828 20.3 107.509 21.1505C107.19 21.9974 106.729 22.6451 106.126 23.0937C105.523 23.5387 104.798 23.7611 103.951 23.7611ZM103.951 22.3239C104.697 22.3239 105.281 21.9597 105.7 21.2312C106.124 20.5028 106.336 19.4495 106.336 18.0715C106.336 17.1565 106.239 16.3831 106.045 15.7516C105.855 15.1164 105.58 14.6355 105.221 14.309C104.866 13.9788 104.443 13.8138 103.951 13.8138C103.208 13.8138 102.625 14.1798 102.202 14.9119C101.778 15.6439 101.565 16.6971 101.561 18.0715C101.561 18.9902 101.656 19.7671 101.846 20.4023C102.04 21.0339 102.315 21.5129 102.67 21.8395C103.025 22.1625 103.452 22.3239 103.951 22.3239Z" fill="#A2A19F"/>
<path d="M84.9384 40.3826H85.7351L87.6083 44.9579H87.6729L89.5461 40.3826H90.3427V45.8945H89.7183V41.7067H89.6645L87.942 45.8945H87.3392L85.6167 41.7067H85.5628V45.8945H84.9384V40.3826ZM91.5949 45.8945V41.7606H92.2301V45.8945H91.5949ZM91.9179 41.0716C91.7941 41.0716 91.6873 41.0294 91.5976 40.9451C91.5097 40.8607 91.4657 40.7594 91.4657 40.6409C91.4657 40.5225 91.5097 40.4211 91.5976 40.3368C91.6873 40.2525 91.7941 40.2103 91.9179 40.2103C92.0417 40.2103 92.1475 40.2525 92.2355 40.3368C92.3252 40.4211 92.37 40.5225 92.37 40.6409C92.37 40.7594 92.3252 40.8607 92.2355 40.9451C92.1475 41.0294 92.0417 41.0716 91.9179 41.0716ZM94.0286 43.4077V45.8945H93.3934V41.7606H94.0071V42.4065H94.0609C94.1578 42.1966 94.3049 42.0279 94.5023 41.9005C94.6996 41.7713 94.9544 41.7067 95.2666 41.7067C95.5465 41.7067 95.7915 41.7641 96.0014 41.879C96.2113 41.992 96.3746 42.1643 96.4912 42.3957C96.6078 42.6254 96.6662 42.9161 96.6662 43.2677V45.8945H96.031V43.3108C96.031 42.986 95.9467 42.733 95.778 42.5518C95.6093 42.3688 95.3779 42.2773 95.0836 42.2773C94.8809 42.2773 94.6996 42.3213 94.54 42.4092C94.3821 42.4971 94.2574 42.6254 94.1659 42.7941C94.0744 42.9627 94.0286 43.1673 94.0286 43.4077ZM100.432 44.2043V41.7606H101.067V45.8945H100.432V45.1948H100.389C100.292 45.4047 100.141 45.5832 99.9369 45.7304C99.7323 45.8757 99.4739 45.9484 99.1617 45.9484C98.9034 45.9484 98.6737 45.8918 98.4728 45.7788C98.2718 45.664 98.1139 45.4917 97.9991 45.2621C97.8842 45.0306 97.8268 44.739 97.8268 44.3874V41.7606H98.462V44.3443C98.462 44.6457 98.5463 44.8862 98.715 45.0656C98.8854 45.245 99.1025 45.3347 99.3663 45.3347C99.5242 45.3347 99.6848 45.2944 99.848 45.2136C100.013 45.1329 100.151 45.0091 100.263 44.8422C100.376 44.6753 100.432 44.4627 100.432 44.2043ZM104.028 41.7606V42.2988H101.886V41.7606H104.028ZM102.511 40.7701H103.146V44.7103C103.146 44.8897 103.172 45.0243 103.224 45.114C103.278 45.2019 103.346 45.2612 103.428 45.2917C103.513 45.3204 103.601 45.3347 103.695 45.3347C103.765 45.3347 103.822 45.3311 103.867 45.324C103.912 45.315 103.948 45.3078 103.975 45.3024L104.104 45.873C104.061 45.8891 104.001 45.9053 103.923 45.9214C103.846 45.9394 103.749 45.9484 103.63 45.9484C103.451 45.9484 103.275 45.9098 103.103 45.8326C102.932 45.7555 102.79 45.638 102.677 45.4801C102.566 45.3222 102.511 45.123 102.511 44.8826V40.7701ZM106.673 45.9807C106.274 45.9807 105.931 45.8927 105.642 45.7169C105.355 45.5393 105.133 45.2917 104.977 44.9741C104.823 44.6547 104.746 44.2833 104.746 43.8598C104.746 43.4364 104.823 43.0632 104.977 42.7402C105.133 42.4155 105.35 42.1625 105.628 41.9813C105.908 41.7982 106.235 41.7067 106.608 41.7067C106.823 41.7067 107.036 41.7426 107.246 41.8144C107.456 41.8862 107.647 42.0028 107.819 42.1643C107.992 42.324 108.129 42.5357 108.231 42.7994C108.333 43.0632 108.384 43.388 108.384 43.7737V44.0429H105.198V43.4938H107.739C107.739 43.2606 107.692 43.0524 107.599 42.8694C107.507 42.6864 107.376 42.542 107.206 42.4361C107.037 42.3302 106.838 42.2773 106.608 42.2773C106.355 42.2773 106.136 42.3401 105.951 42.4657C105.768 42.5895 105.628 42.751 105.529 42.9502C105.43 43.1493 105.381 43.3628 105.381 43.5907V43.9567C105.381 44.2689 105.435 44.5336 105.542 44.7507C105.652 44.966 105.803 45.1302 105.997 45.2432C106.191 45.3545 106.416 45.4101 106.673 45.4101C106.84 45.4101 106.99 45.3868 107.125 45.3401C107.261 45.2917 107.379 45.2199 107.477 45.1248C107.576 45.0279 107.652 44.9077 107.706 44.7641L108.32 44.9364C108.255 45.1445 108.147 45.3275 107.994 45.4854C107.842 45.6415 107.653 45.7636 107.429 45.8515C107.205 45.9376 106.953 45.9807 106.673 45.9807ZM112.279 42.6864L111.708 42.8479C111.672 42.7528 111.62 42.6604 111.55 42.5707C111.481 42.4792 111.388 42.4038 111.27 42.3446C111.151 42.2854 111 42.2558 110.815 42.2558C110.562 42.2558 110.351 42.3141 110.182 42.4307C110.015 42.5455 109.932 42.6918 109.932 42.8694C109.932 43.0273 109.989 43.152 110.104 43.2435C110.219 43.335 110.399 43.4113 110.643 43.4723L111.256 43.623C111.626 43.7127 111.901 43.85 112.082 44.0348C112.264 44.2178 112.354 44.4537 112.354 44.7426C112.354 44.9795 112.286 45.1912 112.15 45.3778C112.015 45.5644 111.827 45.7115 111.585 45.8192C111.342 45.9268 111.061 45.9807 110.739 45.9807C110.318 45.9807 109.969 45.8891 109.692 45.7061C109.416 45.5231 109.241 45.2558 109.168 44.9041L109.771 44.7534C109.828 44.9759 109.936 45.1427 110.096 45.254C110.258 45.3652 110.468 45.4208 110.729 45.4208C111.025 45.4208 111.26 45.358 111.434 45.2324C111.61 45.1051 111.698 44.9525 111.698 44.7749C111.698 44.6314 111.647 44.5112 111.547 44.4143C111.446 44.3156 111.292 44.242 111.084 44.1936L110.395 44.0321C110.016 43.9424 109.738 43.8033 109.561 43.6149C109.385 43.4247 109.297 43.187 109.297 42.9017C109.297 42.6685 109.362 42.4621 109.493 42.2827C109.626 42.1033 109.806 41.9624 110.034 41.8601C110.264 41.7579 110.524 41.7067 110.815 41.7067C111.224 41.7067 111.545 41.7964 111.778 41.9759C112.013 42.1553 112.18 42.3921 112.279 42.6864Z" fill="#A2A19F"/>
<rect x="121.264" width="35.3684" height="35.3684" rx="17.6842" fill="#E5E4E3"/>
<path d="M133.588 23.7611C132.738 23.7576 132.011 23.5333 131.408 23.0883C130.806 22.6433 130.344 21.9956 130.025 21.1451C129.706 20.2946 129.546 19.2701 129.546 18.0715C129.546 16.8766 129.706 15.8556 130.025 15.0087C130.348 14.1619 130.811 13.5159 131.414 13.0709C132.02 12.626 132.745 12.4035 133.588 12.4035C134.432 12.4035 135.155 12.6278 135.758 13.0763C136.361 13.5213 136.822 14.1672 137.141 15.0141C137.464 15.8574 137.625 16.8766 137.625 18.0715C137.625 19.2737 137.466 20.3 137.146 21.1505C136.827 21.9974 136.366 22.6451 135.763 23.0937C135.16 23.5387 134.435 23.7611 133.588 23.7611ZM133.588 22.3239C134.335 22.3239 134.918 21.9597 135.338 21.2312C135.761 20.5028 135.973 19.4495 135.973 18.0715C135.973 17.1565 135.876 16.3831 135.682 15.7516C135.492 15.1164 135.218 14.6355 134.859 14.309C134.503 13.9788 134.08 13.8138 133.588 13.8138C132.846 13.8138 132.262 14.1798 131.839 14.9119C131.416 15.6439 131.202 16.6971 131.198 18.0715C131.198 18.9902 131.294 19.7671 131.484 20.4023C131.678 21.0339 131.952 21.5129 132.307 21.8395C132.663 22.1625 133.09 22.3239 133.588 22.3239ZM143.373 23.7611C142.522 23.7576 141.796 23.5333 141.193 23.0883C140.59 22.6433 140.129 21.9956 139.81 21.1451C139.49 20.2946 139.33 19.2701 139.33 18.0715C139.33 16.8766 139.49 15.8556 139.81 15.0087C140.133 14.1619 140.595 13.5159 141.198 13.0709C141.805 12.626 142.53 12.4035 143.373 12.4035C144.216 12.4035 144.939 12.6278 145.542 13.0763C146.145 13.5213 146.606 14.1672 146.926 15.0141C147.249 15.8574 147.41 16.8766 147.41 18.0715C147.41 19.2737 147.25 20.3 146.931 21.1505C146.612 21.9974 146.15 22.6451 145.548 23.0937C144.945 23.5387 144.22 23.7611 143.373 23.7611ZM143.373 22.3239C144.119 22.3239 144.702 21.9597 145.122 21.2312C145.546 20.5028 145.758 19.4495 145.758 18.0715C145.758 17.1565 145.661 16.3831 145.467 15.7516C145.277 15.1164 145.002 14.6355 144.643 14.309C144.288 13.9788 143.865 13.8138 143.373 13.8138C142.63 13.8138 142.047 14.1798 141.624 14.9119C141.2 15.6439 140.987 16.6971 140.983 18.0715C140.983 18.9902 141.078 19.7671 141.268 20.4023C141.462 21.0339 141.737 21.5129 142.092 21.8395C142.447 22.1625 142.874 22.3239 143.373 22.3239Z" fill="#A2A19F"/>
<path d="M127.29 41.7606C127.258 41.4878 127.127 41.2761 126.897 41.1254C126.667 40.9747 126.386 40.8993 126.052 40.8993C125.808 40.8993 125.594 40.9388 125.411 41.0177C125.23 41.0967 125.088 41.2052 124.986 41.3434C124.886 41.4816 124.835 41.6386 124.835 41.8144C124.835 41.9615 124.87 42.088 124.94 42.1939C125.012 42.2979 125.104 42.385 125.215 42.4549C125.326 42.5231 125.443 42.5796 125.565 42.6245C125.687 42.6676 125.799 42.7025 125.901 42.7295L126.461 42.8802C126.604 42.9179 126.764 42.9699 126.94 43.0363C127.118 43.1027 127.287 43.1933 127.449 43.3081C127.612 43.4211 127.746 43.5665 127.852 43.7441C127.958 43.9217 128.011 44.1397 128.011 44.3981C128.011 44.696 127.933 44.9651 127.777 45.2055C127.623 45.446 127.397 45.6371 127.099 45.7788C126.803 45.9205 126.443 45.9914 126.02 45.9914C125.625 45.9914 125.283 45.9277 124.994 45.8003C124.707 45.6729 124.481 45.4953 124.316 45.2674C124.153 45.0396 124.06 44.7749 124.039 44.4735H124.728C124.746 44.6816 124.816 44.8539 124.938 44.9902C125.061 45.1248 125.217 45.2253 125.406 45.2917C125.596 45.3563 125.801 45.3886 126.02 45.3886C126.274 45.3886 126.503 45.3473 126.706 45.2647C126.909 45.1804 127.069 45.0638 127.188 44.9149C127.306 44.7641 127.365 44.5883 127.365 44.3874C127.365 44.2043 127.314 44.0554 127.212 43.9406C127.11 43.8258 126.975 43.7324 126.808 43.6607C126.641 43.5889 126.461 43.5261 126.267 43.4723L125.589 43.2785C125.158 43.1547 124.817 42.978 124.566 42.7483C124.315 42.5186 124.189 42.2181 124.189 41.8467C124.189 41.5381 124.273 41.2689 124.44 41.0393C124.608 40.8078 124.834 40.6284 125.118 40.501C125.403 40.3718 125.722 40.3072 126.073 40.3072C126.429 40.3072 126.744 40.3709 127.021 40.4983C127.297 40.6239 127.516 40.7961 127.677 41.015C127.841 41.2339 127.927 41.4824 127.936 41.7606H127.29ZM130.756 45.9807C130.357 45.9807 130.014 45.8927 129.725 45.7169C129.438 45.5393 129.216 45.2917 129.06 44.9741C128.906 44.6547 128.829 44.2833 128.829 43.8598C128.829 43.4364 128.906 43.0632 129.06 42.7402C129.216 42.4155 129.433 42.1625 129.711 41.9813C129.991 41.7982 130.318 41.7067 130.691 41.7067C130.906 41.7067 131.119 41.7426 131.329 41.8144C131.539 41.8862 131.73 42.0028 131.902 42.1643C132.074 42.324 132.212 42.5357 132.314 42.7994C132.416 43.0632 132.467 43.388 132.467 43.7737V44.0429H129.281V43.4938H131.821C131.821 43.2606 131.775 43.0524 131.682 42.8694C131.59 42.6864 131.459 42.542 131.289 42.4361C131.12 42.3302 130.921 42.2773 130.691 42.2773C130.438 42.2773 130.219 42.3401 130.034 42.4657C129.851 42.5895 129.711 42.751 129.612 42.9502C129.513 43.1493 129.464 43.3628 129.464 43.5907V43.9567C129.464 44.2689 129.518 44.5336 129.625 44.7507C129.735 44.966 129.886 45.1302 130.08 45.2432C130.274 45.3545 130.499 45.4101 130.756 45.4101C130.923 45.4101 131.073 45.3868 131.208 45.3401C131.344 45.2917 131.462 45.2199 131.56 45.1248C131.659 45.0279 131.735 44.9077 131.789 44.7641L132.403 44.9364C132.338 45.1445 132.23 45.3275 132.077 45.4854C131.925 45.6415 131.736 45.7636 131.512 45.8515C131.288 45.9376 131.036 45.9807 130.756 45.9807ZM135.113 45.9807C134.725 45.9807 134.392 45.8891 134.112 45.7061C133.832 45.5231 133.617 45.271 133.466 44.9499C133.315 44.6287 133.24 44.2618 133.24 43.8491C133.24 43.4292 133.317 43.0587 133.471 42.7375C133.627 42.4146 133.845 42.1625 134.123 41.9813C134.403 41.7982 134.729 41.7067 135.102 41.7067C135.393 41.7067 135.655 41.7606 135.888 41.8682C136.121 41.9759 136.313 42.1266 136.461 42.3204C136.61 42.5141 136.703 42.7402 136.739 42.9986H136.103C136.055 42.8102 135.947 42.6433 135.781 42.498C135.615 42.3509 135.393 42.2773 135.113 42.2773C134.865 42.2773 134.648 42.3419 134.462 42.4711C134.277 42.5985 134.132 42.7788 134.028 43.0121C133.926 43.2435 133.875 43.5153 133.875 43.8275C133.875 44.1469 133.925 44.425 134.026 44.6619C134.128 44.8987 134.272 45.0826 134.456 45.2136C134.643 45.3446 134.862 45.4101 135.113 45.4101C135.278 45.4101 135.428 45.3814 135.563 45.324C135.697 45.2665 135.811 45.184 135.904 45.0763C135.998 44.9687 136.064 44.8395 136.103 44.6888H136.739C136.703 44.9328 136.614 45.1526 136.472 45.3482C136.332 45.542 136.147 45.6963 135.915 45.8111C135.685 45.9241 135.418 45.9807 135.113 45.9807ZM139.347 45.9807C138.973 45.9807 138.646 45.8918 138.364 45.7142C138.084 45.5366 137.865 45.2881 137.708 44.9687C137.551 44.6493 137.473 44.2761 137.473 43.8491C137.473 43.4185 137.551 43.0426 137.708 42.7214C137.865 42.4002 138.084 42.1508 138.364 41.9732C138.646 41.7955 138.973 41.7067 139.347 41.7067C139.72 41.7067 140.046 41.7955 140.326 41.9732C140.608 42.1508 140.827 42.4002 140.983 42.7214C141.141 43.0426 141.22 43.4185 141.22 43.8491C141.22 44.2761 141.141 44.6493 140.983 44.9687C140.827 45.2881 140.608 45.5366 140.326 45.7142C140.046 45.8918 139.72 45.9807 139.347 45.9807ZM139.347 45.4101C139.63 45.4101 139.863 45.3374 140.046 45.1921C140.229 45.0467 140.365 44.8557 140.453 44.6188C140.541 44.382 140.585 44.1254 140.585 43.8491C140.585 43.5728 140.541 43.3153 140.453 43.0766C140.365 42.838 140.229 42.6451 140.046 42.498C139.863 42.3509 139.63 42.2773 139.347 42.2773C139.063 42.2773 138.83 42.3509 138.647 42.498C138.464 42.6451 138.328 42.838 138.24 43.0766C138.153 43.3153 138.109 43.5728 138.109 43.8491C138.109 44.1254 138.153 44.382 138.24 44.6188C138.328 44.8557 138.464 45.0467 138.647 45.1921C138.83 45.3374 139.063 45.4101 139.347 45.4101ZM142.825 43.4077V45.8945H142.189V41.7606H142.803V42.4065H142.857C142.954 42.1966 143.101 42.0279 143.298 41.9005C143.496 41.7713 143.75 41.7067 144.063 41.7067C144.342 41.7067 144.587 41.7641 144.797 41.879C145.007 41.992 145.171 42.1643 145.287 42.3957C145.404 42.6254 145.462 42.9161 145.462 43.2677V45.8945H144.827V43.3108C144.827 42.986 144.743 42.733 144.574 42.5518C144.405 42.3688 144.174 42.2773 143.88 42.2773C143.677 42.2773 143.496 42.3213 143.336 42.4092C143.178 42.4971 143.053 42.6254 142.962 42.7941C142.87 42.9627 142.825 43.1673 142.825 43.4077ZM148.184 45.9807C147.839 45.9807 147.535 45.8936 147.271 45.7196C147.008 45.5438 146.801 45.2961 146.652 44.9768C146.503 44.6556 146.429 44.2761 146.429 43.8383C146.429 43.4041 146.503 43.0273 146.652 42.7079C146.801 42.3886 147.009 42.1418 147.274 41.9678C147.54 41.7938 147.846 41.7067 148.195 41.7067C148.464 41.7067 148.676 41.7516 148.832 41.8413C148.99 41.9292 149.111 42.0297 149.193 42.1427C149.277 42.254 149.343 42.3455 149.39 42.4173H149.443V40.3826H150.079V45.8945H149.465V45.2594H149.39C149.343 45.3347 149.276 45.4298 149.19 45.5447C149.104 45.6577 148.981 45.7591 148.822 45.8488C148.662 45.9367 148.449 45.9807 148.184 45.9807ZM148.27 45.4101C148.525 45.4101 148.74 45.3437 148.916 45.2109C149.092 45.0763 149.225 44.8906 149.317 44.6538C149.408 44.4152 149.454 44.1397 149.454 43.8275C149.454 43.5189 149.409 43.2489 149.32 43.0174C149.23 42.7842 149.097 42.603 148.921 42.4738C148.745 42.3428 148.528 42.2773 148.27 42.2773C148.001 42.2773 147.776 42.3464 147.597 42.4845C147.419 42.6209 147.286 42.8066 147.196 43.0417C147.108 43.2749 147.064 43.5369 147.064 43.8275C147.064 44.1218 147.109 44.3891 147.199 44.6296C147.29 44.8682 147.425 45.0584 147.602 45.2002C147.782 45.3401 148.004 45.4101 148.27 45.4101ZM154.258 42.6864L153.688 42.8479C153.652 42.7528 153.599 42.6604 153.529 42.5707C153.461 42.4792 153.367 42.4038 153.249 42.3446C153.131 42.2854 152.979 42.2558 152.794 42.2558C152.541 42.2558 152.33 42.3141 152.162 42.4307C151.995 42.5455 151.911 42.6918 151.911 42.8694C151.911 43.0273 151.969 43.152 152.084 43.2435C152.198 43.335 152.378 43.4113 152.622 43.4723L153.236 43.623C153.605 43.7127 153.881 43.85 154.062 44.0348C154.243 44.2178 154.334 44.4537 154.334 44.7426C154.334 44.9795 154.265 45.1912 154.129 45.3778C153.994 45.5644 153.806 45.7115 153.564 45.8192C153.322 45.9268 153.04 45.9807 152.719 45.9807C152.297 45.9807 151.948 45.8891 151.672 45.7061C151.395 45.5231 151.221 45.2558 151.147 44.9041L151.75 44.7534C151.807 44.9759 151.916 45.1427 152.076 45.254C152.237 45.3652 152.448 45.4208 152.708 45.4208C153.004 45.4208 153.239 45.358 153.413 45.2324C153.589 45.1051 153.677 44.9525 153.677 44.7749C153.677 44.6314 153.627 44.5112 153.526 44.4143C153.426 44.3156 153.271 44.242 153.063 44.1936L152.374 44.0321C151.996 43.9424 151.718 43.8033 151.54 43.6149C151.364 43.4247 151.276 43.187 151.276 42.9017C151.276 42.6685 151.342 42.4621 151.473 42.2827C151.605 42.1033 151.786 41.9624 152.014 41.8601C152.243 41.7579 152.503 41.7067 152.794 41.7067C153.203 41.7067 153.524 41.7964 153.758 41.9759C153.993 42.1553 154.16 42.3921 154.258 42.6864Z" fill="#A2A19F"/>
</g>
<defs>
<clipPath id="clip0_5174_16615">
<rect width="220" height="48" fill="white"/>
</clipPath>
</defs>
</svg>
