<svg xmlns="http://www.w3.org/2000/svg" width="100" height="100" fill="none">
    <g clip-path="url(#a)">
        <path fill="#fff" d="M100 0H0v100h100V0Z" />
        <path fill="#EE7308"
            d="M69.195 79.311c-.07 0-.104-.046-.105-.14l-.037-9.92-4.763-14.088c-.024-.093.01-.14.103-.14l3.86-.022c.116 0 .186.046.21.139l2.642 9.383 2.54-9.412c.022-.093.08-.14.172-.14l3.895-.022c.093 0 .128.046.105.139l-4.593 14 .108 10.06c.001.093-.045.14-.138.14l-3.999.023ZM55.097 79.39c-.092 0-.14-.057-.14-.174l-.14-23.964c0-.117.057-.175.173-.176l3.86-.022c.116 0 .174.058.175.174l.11 19.843 7.163-.04c.116 0 .174.057.175.174l.029 3.947c0 .117-.057.175-.173.176l-11.232.062ZM38.803 79.48c-.186.001-.28-.08-.28-.243l-.209-23.79c0-.186.091-.28.277-.28l3.13-.018 5.976 13.731-.272-13.483c-.001-.186.103-.28.311-.281l3.443-.02c.139 0 .209.092.21.279l.209 23.824c0 .14-.057.21-.173.21l-3.06.018-6.11-12.822.336 12.575c.001.186-.102.28-.311.28l-3.477.02ZM29.034 79.884a6.553 6.553 0 0 1-3.45-.925 7.643 7.643 0 0 1-2.487-2.536 6.876 6.876 0 0 1-.965-3.523l-.046-11.074c-.01-1.281.283-2.447.878-3.499a7.19 7.19 0 0 1 2.486-2.529 6.472 6.472 0 0 1 3.4-.962c1.252-.007 2.39.301 3.415.925a7.034 7.034 0 0 1 2.453 2.501c.633 1.045.955 2.207.964 3.488l.116 11.074a6.86 6.86 0 0 1-.913 3.534 7.188 7.188 0 0 1-2.45 2.563c-1.016.635-2.15.956-3.401.963Zm-.031-4.227c.695-.004 1.296-.287 1.802-.849.529-.585.79-1.239.785-1.96l-.116-11.074c-.005-.769-.253-1.42-.744-1.953-.49-.532-1.107-.797-1.849-.793-.719.004-1.331.275-1.837.814-.506.515-.757 1.169-.75 1.96l.08 11.074a2.86 2.86 0 0 0 .78 1.987c.514.533 1.13.798 1.849.794ZM64.436 45.594a6.64 6.64 0 0 1-3.495-.945 7.822 7.822 0 0 1-2.545-2.596 6.783 6.783 0 0 1-.987-3.534l-.117-11.297a7.02 7.02 0 0 1 .934-3.617 7.267 7.267 0 0 1 2.544-2.624 6.446 6.446 0 0 1 3.48-1.02c1.281-.007 2.446.32 3.495.982a7.022 7.022 0 0 1 2.545 2.595c.649 1.07.978 2.271.987 3.606l.006.715c0 .095-.059.143-.177.144l-3.986.022c-.095 0-.143-.047-.143-.142l-.006-.715c-.005-.787-.271-1.453-.797-1.998a2.399 2.399 0 0 0-1.892-.848c-.736.005-1.362.294-1.88.87-.518.55-.774 1.219-.769 2.006l.018 2.466a6.837 6.837 0 0 1 2.665-.55c1.281-.008 2.446.307 3.495.945a7.022 7.022 0 0 1 2.545 2.596c.625 1.069.942 2.259.952 3.57l.016 2.216a6.955 6.955 0 0 1-.935 3.58 7.164 7.164 0 0 1-2.472 2.589c-1.04.649-2.2.977-3.481.984Zm-.031-4.29a2.396 2.396 0 0 0 1.844-.832c.518-.551.775-1.22.769-2.007l-.016-2.216a2.757 2.757 0 0 0-.797-1.962c-.503-.57-1.122-.852-1.857-.848-.736.004-1.362.282-1.88.833-.518.55-.775 1.22-.769 2.006l.016 2.217c.006.763.272 1.428.798 1.998.526.545 1.156.815 1.892.811ZM41.714 45.274c-.119 0-.178-.058-.18-.178l-.029-4.04c0-.047.023-.095.07-.143l8.702-12.168c.165-.216.293-.49.386-.825.116-.358.173-.668.171-.93-.005-.692-.259-1.322-.761-1.891-.503-.593-1.133-.887-1.893-.883-.735.004-1.362.293-1.88.868-.494.551-.738 1.256-.731 2.114l.012 1.752c.001.119-.058.179-.176.18l-3.986.021c-.095.001-.143-.058-.144-.177l-.013-1.752c-.01-1.335.302-2.552.935-3.652.656-1.1 1.504-1.975 2.543-2.624a6.5 6.5 0 0 1 3.41-.985c1.28-.007 2.446.32 3.494.982a7.2 7.2 0 0 1 2.51 2.56 6.655 6.655 0 0 1 .986 3.463 7.187 7.187 0 0 1-.41 2.397 7.034 7.034 0 0 1-1.087 2.152l-6.694 9.368 8.007-.044c.095 0 .143.047.144.142l.029 4.04c0 .119-.046.179-.141.18l-13.274.073ZM32.453 45.286c-.097.001-.145-.047-.146-.144l-.015-2.11c-1.206-.358-2.21-1.055-3.01-2.094a6.016 6.016 0 0 1-1.181-3.596l-.01-1.382c-.001-.097.046-.146.143-.147l3.284-.018c.072 0 .108.048.109.145l.01 1.383c.005.63.225 1.187.662 1.67.46.458.991.685 1.592.682a1.981 1.981 0 0 0 1.547-.7c.43-.487.642-1.022.638-1.604-.005-.752-.48-1.393-1.421-1.92-.314-.193-.81-.47-1.486-.83-.676-.36-1.304-.696-1.884-1.008-1.135-.624-1.97-1.432-2.507-2.424-.513-.991-.773-2.106-.782-3.343-.01-1.358.366-2.537 1.129-3.535.786-1.024 1.767-1.72 2.944-2.09l-.016-2.111c0-.097.047-.146.144-.146l3.14-.018c.12 0 .18.047.18.145l.016 2.146c1.158.358 2.113 1.044 2.866 2.058.777 1.015 1.17 2.177 1.18 3.487l.018 2.437c0 .073-.035.11-.108.11l-3.32.019c-.072 0-.108-.036-.109-.109l-.053-2.437c-.005-.704-.238-1.26-.698-1.67-.436-.434-.943-.65-1.52-.647-.602.004-1.117.237-1.547.7a2.382 2.382 0 0 0-.602 1.64c.005.607.14 1.128.408 1.563.268.411.752.82 1.453 1.23l3.007 1.656c.99.528 1.765 1.191 2.324 1.989.584.797.88 1.802.888 3.015.01 1.382-.354 2.585-1.092 3.608a5.778 5.778 0 0 1-2.872 2.09l.015 2.147c.001.096-.059.145-.179.146l-3.14.017Z" />
    </g>
    <defs>
        <clipPath id="a">
            <path fill="#fff" d="M0 0h100v100H0z" />
        </clipPath>
    </defs>
</svg>