<svg xmlns="http://www.w3.org/2000/svg" width="137" height="57" fill="none" viewBox="0 0 137 57">
    <path fill="#f97415"
        d="M66.405 0q10.8 0 15.92 7.36t5.12 19.92q0 12.72-5.28 20.8-5.2 8.08-15.76 8.08-10.48 0-15.76-7.68-5.2-7.76-5.2-20.16 0-12.8 5.12-20.56Q55.686 0 66.405 0m0 50.4q4.32 0 5.84-6 1.52-6.08 1.52-16.64 0-10.08-1.52-16-1.52-6-5.84-6-4.239 0-5.76 6-1.52 5.92-1.52 16 0 10.56 1.52 16.64 1.521 6 5.76 6M24.8 0q5.04 0 9.36 2t4.32 5.84q0 2.64-2.08 4.24-1.84-1.6-4.56-2.4-2.64-.8-5.28-.8-6.56 0-9.36 3.92t-2.96 11.44q1.92-2.64 5.12-3.92 3.2-1.36 7.04-1.36 7.68 0 11.36 5.12 3.76 5.04 3.76 12.16 0 5.92-2.56 10.48-2.48 4.48-7.04 6.96-4.48 2.48-10.4 2.48-7.12 0-12-3.36-4.8-3.36-7.2-9.28Q0 37.6 0 30.08q0-8.32 2.72-15.12 2.8-6.88 8.32-10.88Q16.64 0 24.8 0m-3.28 25.28q-6.56 0-7.04 12.24.16 5.36 1.68 9.12 1.6 3.76 5.36 3.76 3.84 0 5.44-3.76 1.6-3.84 1.6-9.12 0-4.88-1.68-8.56t-5.36-3.68M120.955.927q.724 0 1.333.495.61.457.991 1.257l-15.808 23.998q-.496.8-1.029 1.219-.495.457-1.219.457t-1.333-.495a3.4 3.4 0 0 1-.99-1.22l15.808-24.035q.495-.8.99-1.22a1.87 1.87 0 0 1 1.257-.456m-18.36.685q3.276 0 4.99 1.981 1.714 1.98 1.714 5.295 0 3.465-1.714 5.6-1.714 2.133-4.99 2.133-3.238 0-4.99-2.057-1.714-2.095-1.714-5.41 0-3.39 1.714-5.447 1.713-2.094 4.99-2.095m0 1.905q-1.143 0-1.562 1.562-.419 1.524-.419 3.961 0 2.553.381 4.114.38 1.524 1.6 1.524 1.18 0 1.562-1.524.38-1.56.38-4.114 0-2.437-.419-3.961-.38-1.562-1.523-1.562m20.95 9.637q3.276 0 4.952 1.981 1.714 1.98 1.714 5.333 0 3.428-1.714 5.6-1.676 2.132-4.952 2.133-3.238 0-4.99-2.058-1.752-2.094-1.752-5.447 0-3.39 1.714-5.447 1.752-2.094 5.028-2.095m0 1.905q-1.18 0-1.6 1.524-.381 1.523-.381 4 0 2.59.381 4.151.381 1.524 1.6 1.524 1.182 0 1.562-1.562.381-1.561.381-4.114 0-2.438-.419-3.961-.381-1.562-1.524-1.562M136.822 36.438v2.269h-5.659v6.205h4.797v2.298h-4.797v8.186h-4.768V36.438zM124.509 36.438v2.269h-5.659v6.205h4.798v2.298h-4.798v8.186h-4.768V36.438zM103.512 35.863q4.252 0 6.234 2.586t1.982 7.21q0 4.74-2.011 7.555-1.981 2.815-6.205 2.815-4.165 0-6.204-2.7-2.01-2.7-2.011-7.297 0-4.682 1.982-7.411 2.01-2.758 6.233-2.758m0 18.097q1.925 0 2.5-2.269.574-2.298.574-5.86 0-3.418-.603-5.659-.575-2.24-2.471-2.24t-2.499 2.269q-.603 2.24-.603 5.63 0 3.534.575 5.831.603 2.298 2.527 2.298" />
</svg>