<svg width="100" height="100" viewBox="0 0 100 100" fill="none" xmlns="http://www.w3.org/2000/svg">
<rect width="100" height="100" fill="#F97415"/>
<path d="M53.8972 49.5033C53.8972 47.0734 51.9274 45.1035 49.4974 45.1035C47.0675 45.1035 45.0977 47.0734 45.0977 49.5033C45.0977 51.9332 47.0675 53.9031 49.4974 53.9031C51.9274 53.9031 53.8972 51.9332 53.8972 49.5033Z" fill="white"/>
<path d="M49.5028 71.4997V62.7002C56.7806 62.7002 62.7021 56.7792 62.7021 49.5008C62.7021 42.2225 56.7811 36.3015 49.5028 36.3015C42.2245 36.3015 36.3035 42.2225 36.3035 49.5008H27.5039C27.5039 37.3707 37.3726 27.502 49.5028 27.502C61.633 27.502 71.5017 37.3707 71.5017 49.5008C71.5017 61.631 61.633 71.4997 49.5028 71.4997Z" fill="white"/>
<path d="M45.103 53.9023L27.5039 59.7908L35.5775 63.4279L39.2146 71.5015L45.103 53.9023Z" fill="white"/>
</svg>
