<svg xmlns="http://www.w3.org/2000/svg" width="100" height="100" fill="none" viewBox="0 0 100 100">
    <path fill="#f97415" d="M0 0h100v100H0z" />
    <path fill="#fff" d="M53.897 49.503a4.4 4.4 0 1 0-8.8 0 4.4 4.4 0 0 0 8.8 0" />
    <path fill="#fff"
        d="M49.503 71.5v-8.8c7.278 0 13.2-5.92 13.2-13.2 0-7.278-5.922-13.199-13.2-13.199-7.279 0-13.2 5.921-13.2 13.2h-8.8c0-12.13 9.87-21.999 22-21.999s21.999 9.869 21.999 21.999-9.869 21.999-22 21.999" />
    <path fill="#fff" d="m45.103 53.902-17.6 5.889 8.075 3.637 3.637 8.073z" />
</svg>