<svg width="24" height="24" viewBox="0 0 24 24" fill="none" xmlns="http://www.w3.org/2000/svg">
    <path
        class="optn-close-fill"
        d="M3 7C3 4.79086 4.79086 3 7 3H17C19.2091 3 21 4.79086 21 7V17C21 19.2091 19.2091 21 17 21H7C4.79086 21 3 19.2091 3 17V7Z"
        fill="#0E0B1C" />
    <path fill-rule="evenodd" clip-rule="evenodd"
        class="optn-close-border"
        d="M2.25 7C2.25 4.37665 4.37665 2.25 7 2.25H17C19.6234 2.25 21.75 4.37665 21.75 7V17C21.75 19.6234 19.6234 21.75 17 21.75H7C4.37665 21.75 2.25 19.6234 2.25 17V7ZM7 3.75C5.20507 3.75 3.75 5.20507 3.75 7V17C3.75 18.7949 5.20507 20.25 7 20.25H17C18.7949 20.25 20.25 18.7949 20.25 17V7C20.25 5.20507 18.7949 3.75 17 3.75H7Z"
        fill="#0E0B1C" />
    <path
        class="optn-close-line"
        d="M7.47028 15.4689C7.17739 15.7618 7.17739 16.2367 7.47028 16.5295C7.76317 16.8224 8.23805 16.8224 8.53094 16.5295L11.9999 13.0606L15.4694 16.53C15.7623 16.8229 16.2371 16.8229 16.53 16.53C16.8229 16.2371 16.8229 15.7622 16.53 15.4693L13.0606 11.9999L16.5302 8.53033C16.823 8.23744 16.823 7.76256 16.5302 7.46967C16.2373 7.17678 15.7624 7.17678 15.4695 7.46967L11.9999 10.9392L8.53082 7.47012C8.23793 7.17723 7.76305 7.17722 7.47016 7.47012C7.17726 7.76301 7.17727 8.23789 7.47016 8.53078L10.9393 11.9999L7.47028 15.4689Z"
        fill="white" />
</svg>