<svg width="24" height="24" viewBox="0 0 24 24" fill="none" xmlns="http://www.w3.org/2000/svg">
<path d="M20 10H20.3C20.7 10 21 9.7 21 9.3V7.7C21 7.2 21 6.7 21 6.3C21 5.9 20.9 5.6 20.8 5.3C20.6 4.8 20.2 4.5 19.7 4.2C19.4 4 19.1 4 18.7 4C18.3 4 17.9 4 17.3 4H14.8C14.3 4 14 4.3 14 4.8V6C14 6.3 13.8 6.5 13.5 6.5C13.2 6.5 13 6.3 13 6V4.8C13 4.3 12.7 4 12.2 4H6.7C6.2 4 5.7 4 5.3 4C4.9 4 4.6 4.1 4.3 4.2C3.9 4.5 3.5 4.9 3.3 5.4C3.1 5.7 3.1 6 3 6.3C3 6.7 3 7.1 3 7.7V9.3C3 9.7 3.3 10 3.7 10H4C5.1 10 6 10.9 6 12C6 13.1 5.1 14 4 14H3.7C3.3 14 3 14.3 3 14.7V16.3C3 16.8 3 17.3 3 17.7C3 18.1 3.1 18.4 3.2 18.7C3.4 19.2 3.8 19.5 4.3 19.8C4.6 20 4.9 20 5.3 20C5.7 20 6.1 20 6.7 20H12.2C12.6 20 13 19.7 13 19.2V18C13 17.7 13.2 17.5 13.5 17.5C13.8 17.5 14 17.7 14 18V19.2C14 19.6 14.3 20 14.8 20H17.3C17.8 20 18.3 20 18.7 20C19.1 20 19.4 19.9 19.7 19.8C20.2 19.6 20.5 19.2 20.8 18.7C21 18.4 21 18.1 21 17.7C21 17.3 21 16.9 21 16.3V14.6C21 14.2 20.7 13.9 20.2 13.9H20C18.9 13.9 18 13 18 11.9C18 10.9 18.9 10 20 10ZM14 15C14 15.3 13.8 15.5 13.5 15.5C13.2 15.5 13 15.3 13 15V14C13 13.7 13.2 13.5 13.5 13.5C13.8 13.5 14 13.7 14 14V15ZM14 10C14 10.3 13.8 10.5 13.5 10.5C13.2 10.5 13 10.3 13 10V9C13 8.7 13.2 8.5 13.5 8.5C13.8 8.5 14 8.7 14 9V10Z" fill="currentColor"/>
</svg>
