<svg width="24" height="24" viewBox="0 0 24 24" fill="none" xmlns="http://www.w3.org/2000/svg">
<path d="M20 8.2002H11C9.50001 8.2002 8.20001 9.4002 8.20001 11.0002V20.0002C8.20001 21.5002 9.40001 22.8002 11 22.8002H20C21.5 22.8002 22.8 21.6002 22.8 20.0002V11.0002C22.8 9.5002 21.5 8.2002 20 8.2002ZM21.2 20.0002C21.2 20.7002 20.6 21.2002 20 21.2002H11C10.3 21.2002 9.80001 20.6002 9.80001 20.0002V11.0002C9.80001 10.3002 10.4 9.8002 11 9.8002H20C20.7 9.8002 21.2 10.4002 21.2 11.0002V20.0002Z" fill="currentColor"/>
<path d="M15.8 4.0002V5.0002C15.8 5.4002 15.5 5.8002 15 5.8002C14.5 5.8002 14.2 5.4002 14.2 5.0002V4.0002C14.2 3.7002 14.1 3.3002 13.8 3.1002C13.6 2.9002 13.3 2.7002 12.9 2.7002H4.00001C3.70001 2.7002 3.30001 2.8002 3.10001 3.1002C2.90001 3.3002 2.80001 3.7002 2.80001 4.0002V13.0002C2.80001 13.3002 2.90001 13.7002 3.20001 13.9002C3.40001 14.1002 3.70001 14.3002 4.10001 14.3002H5.10001C5.50001 14.3002 5.90001 14.6002 5.90001 15.1002C5.90001 15.6002 5.40001 15.8002 5.00001 15.8002H4.00001C3.30001 15.8002 2.60001 15.5002 2.10001 15.0002C1.60001 14.5002 1.20001 13.7002 1.20001 13.0002V4.0002C1.20001 3.3002 1.50001 2.6002 2.00001 2.1002C2.50001 1.6002 3.30001 1.2002 4.00001 1.2002H13C13.7 1.2002 14.4 1.5002 14.9 2.0002C15.4 2.5002 15.8 3.3002 15.8 4.0002Z" fill="currentColor"/>
</svg>
