<svg width="24" height="24" viewBox="0 0 24 24" fill="none" xmlns="http://www.w3.org/2000/svg">
<path d="M12.2901 4.13275C12.3727 3.95575 12.6273 3.95575 12.7099 4.13275L15.0544 9.15585C15.0881 9.22799 15.1573 9.27766 15.2371 9.28701L20.7958 9.93832C20.9917 9.96127 21.0703 10.2005 20.9255 10.3329L16.8158 14.0886C16.7568 14.1426 16.7304 14.2229 16.7461 14.3008L17.837 19.7265C17.8754 19.9177 17.6695 20.0655 17.4974 19.9703L12.6129 17.2684C12.5428 17.2296 12.4572 17.2296 12.3871 17.2684L7.50265 19.9703C7.33053 20.0655 7.12458 19.9177 7.16303 19.7265L8.25394 14.3008C8.2696 14.2229 8.24318 14.1426 8.18416 14.0886L4.07449 10.3329C3.92968 10.2005 4.00834 9.96127 4.20421 9.93832L9.76289 9.28701C9.84272 9.27766 9.9119 9.22799 9.94557 9.15585L12.2901 4.13275Z" fill="currentColor"/>
</svg>
