<svg width="24" height="24" viewBox="0 0 24 24" fill="none" xmlns="http://www.w3.org/2000/svg">
<path d="M20.2 14.3C20.2 15.4 20 16.5 19.5 17.5C19.1 18.5 18.5 19.4 17.7 20.1C16.9 20.8 16.1 21.4 15.1 21.9C14.1 22.3 13 22.5 11.9 22.5C10.8 22.5 9.69998 22.3 8.69998 21.9C7.69998 21.5 6.79998 20.9 6.09998 20.1C5.29998 19.4 4.79998 18.5 4.29998 17.5C3.89998 16.5 3.59998 15.4 3.59998 14.3C3.59998 13 3.89998 11.8 4.39998 10.7C5.19998 9.6 5.99998 8.6 6.99998 7.8C7.39998 7.5 7.79998 7.1 8.09998 6.7C8.59998 6.1 8.89998 5.5 9.19998 4.8C9.39998 4.2 9.49998 3.6 9.49998 2.8V1.7C9.49998 1.6 9.69998 1.5 9.79998 1.5L10.8 2.1C12 2.9 13 4 13.8 5.5C14.7 7.2 15.1 8.8 15.1 10.2V10.3H15.2H15.3C15.8 9.7 16.1 9.2 16.3 8.6L16.6 7.7V7.6C16.6 7.6 16.6 7.6 16.7 7.6C16.8 7.6 16.8 7.6 16.8 7.6H16.9L17.6 8.2C18.4 9 19.1 10 19.5 11C20 12 20.2 13.2 20.2 14.3Z" fill="currentColor"/>
</svg>
