<svg width="24" height="24" viewBox="0 0 24 24" fill="none" xmlns="http://www.w3.org/2000/svg">
<path d="M19 22.8002H5.00001C3.50001 22.8002 2.20001 21.6002 2.20001 20.0002V6.0002C2.20001 5.8002 2.30001 5.7002 2.30001 5.5002L5.30001 1.5002C5.50001 1.4002 5.80001 1.2002 6.00001 1.2002H18C18.2 1.2002 18.5 1.3002 18.6 1.5002L21.6 5.5002C21.7 5.6002 21.8 5.8002 21.8 6.0002V20.0002C21.8 20.7002 21.5 21.4002 21 21.9002C20.5 22.4002 19.7 22.8002 19 22.8002ZM3.80001 6.7002V20.0002C3.80001 20.7002 4.40001 21.2002 5.00001 21.2002H19C19.3 21.2002 19.7 21.1002 19.9 20.8002C20.1 20.5002 20.3 20.2002 20.3 19.9002V6.7002H3.80001ZM4.50001 5.2002H19.5L17.6 2.7002H6.40001L4.50001 5.2002ZM12 14.8002C10.7 14.8002 9.50001 14.3002 8.60001 13.4002C7.70001 12.5002 7.20001 11.3002 7.20001 10.0002C7.20001 9.6002 7.50001 9.2002 8.00001 9.2002C8.50001 9.2002 8.80001 9.6002 8.80001 10.0002C8.80001 10.9002 9.10001 11.7002 9.80001 12.3002C11 13.5002 13.2 13.5002 14.4 12.3002C15 11.7002 15.4 10.9002 15.4 10.0002C15.4 9.6002 15.7 9.2002 16.2 9.2002C16.7 9.2002 17 9.5002 17 10.0002C17 11.3002 16.5 12.5002 15.6 13.4002C14.5 14.2002 13.2 14.8002 12 14.8002Z" fill="currentColor"/>
</svg>
