<svg width="24" height="24" viewBox="0 0 24 24" fill="none" xmlns="http://www.w3.org/2000/svg">
<path d="M21.7 9.8999C21.6 9.4999 21.3 9.2999 20.9 9.1999L15.6 8.5999L13.4 3.7999C13.1 3.0999 11.9 3.0999 11.6 3.7999L9.40001 8.5999L4.10001 9.1999C3.70001 9.1999 3.40001 9.4999 3.30001 9.8999C3.20001 10.2999 3.30001 10.6999 3.60001 10.8999L7.50001 14.3999L6.50001 19.4999C6.40001 19.8999 6.60001 20.2999 6.90001 20.4999C7.20001 20.6999 7.60001 20.6999 8.00001 20.5999L12.6 17.9999L17.2 20.5999C17.3 20.6999 17.5 20.6999 17.7 20.6999C17.9 20.6999 18.1 20.5999 18.3 20.4999C18.6 20.2999 18.8 19.8999 18.7 19.4999L17.7 14.3999L21.6 10.8999C21.7 10.5999 21.8 10.1999 21.7 9.8999ZM16.3 13.4999C16.1 13.6999 15.9 14.0999 16 14.3999L16.9 18.6999L13 16.5999C12.9 16.4999 12.7 16.4999 12.5 16.4999C12.3 16.4999 12.2 16.4999 12 16.5999L8.10001 18.7999L9.00001 14.4999C9.10001 14.1999 9.00001 13.7999 8.70001 13.5999L5.40001 10.5999L9.80001 9.9999C10.1 9.9999 10.4 9.7999 10.6 9.3999L12.5 5.3999L14.4 9.3999C14.5 9.6999 14.8 9.8999 15.2 9.9999L19.6 10.4999L16.3 13.4999Z" fill="currentColor"/>
</svg>
