<svg width="25" height="24" viewBox="0 0 25 24" fill="none" xmlns="http://www.w3.org/2000/svg">
<path d="M15.1629 5.77146L8.1297 9.78906L8.8737 11.0915L15.9069 7.07391L15.1629 5.77146Z" fill="currentColor"/>
<path d="M6.00001 15.8002C3.90001 15.8002 2.20001 14.1002 2.20001 12.0002C2.20001 9.9002 3.90001 8.2002 6.00001 8.2002C8.10001 8.2002 9.80001 9.9002 9.80001 12.0002C9.80001 14.1002 8.10001 15.8002 6.00001 15.8002ZM6.00001 9.8002C4.80001 9.8002 3.80001 10.8002 3.80001 12.0002C3.80001 13.2002 4.80001 14.2002 6.00001 14.2002C7.20001 14.2002 8.20001 13.2002 8.20001 12.0002C8.20001 10.8002 7.20001 9.8002 6.00001 9.8002Z" fill="currentColor"/>
<path d="M18.5 8.8002C16.4 8.8002 14.7 7.1002 14.7 5.0002C14.7 2.9002 16.4 1.2002 18.5 1.2002C20.6 1.2002 22.3 2.9002 22.3 5.0002C22.3 7.1002 20.6 8.8002 18.5 8.8002ZM18.5 2.8002C17.3 2.8002 16.3 3.8002 16.3 5.0002C16.3 6.2002 17.3 7.2002 18.5 7.2002C19.7 7.2002 20.7 6.2002 20.7 5.0002C20.7 3.8002 19.7 2.8002 18.5 2.8002Z" fill="currentColor"/>
<path d="M18.5 22.8002C16.4 22.8002 14.7 21.1002 14.7 19.0002C14.7 16.9002 16.4 15.2002 18.5 15.2002C20.6 15.2002 22.3 16.9002 22.3 19.0002C22.3 21.1002 20.6 22.8002 18.5 22.8002ZM18.5 16.8002C17.3 16.8002 16.3 17.8002 16.3 19.0002C16.3 20.2002 17.3 21.2002 18.5 21.2002C19.7 21.2002 20.7 20.2002 20.7 19.0002C20.7 17.8002 19.7 16.8002 18.5 16.8002Z" fill="currentColor"/>
<path d="M8.87336 12.9077L8.12921 14.21L15.1616 18.2284L15.9058 16.9261L8.87336 12.9077Z" fill="currentColor"/>
</svg>
