<svg width="24" height="24" viewBox="0 0 24 24" fill="none" xmlns="http://www.w3.org/2000/svg">
<path d="M12 21.8002C7.20001 21.8002 3.20001 17.9002 3.20001 13.0002C3.20001 8.2002 7.10001 4.2002 12 4.2002C16.8 4.2002 20.8 8.1002 20.8 13.0002C20.8 17.8002 16.8 21.8002 12 21.8002ZM12 5.8002C8.00001 5.8002 4.80001 9.0002 4.80001 13.0002C4.80001 17.0002 8.10001 20.2002 12 20.2002C16 20.2002 19.2 16.9002 19.2 13.0002C19.2 9.0002 16 5.8002 12 5.8002Z" fill="currentColor"/>
<path d="M2.79998 6.8C2.69998 6.8 2.49998 6.8 2.39998 6.7C2.09998 6.4 1.89998 6 2.19998 5.6C2.79998 4.6 3.59998 3.7 4.69998 3.1C5.09998 2.9 5.49998 3 5.69998 3.4C5.89998 3.8 5.79998 4.2 5.39998 4.4C4.59998 4.9 3.89998 5.6 3.49998 6.4C3.29998 6.6 3.09998 6.8 2.79998 6.8Z" fill="currentColor"/>
<path d="M21.2 6.8001C20.9 6.8001 20.7 6.7001 20.5 6.4001C20 5.6001 19.4 4.9001 18.6 4.5001C18.2 4.3001 18.1 3.8001 18.3 3.5001C18.5 3.1001 19 3.0001 19.3 3.2001C20.3 3.8001 21.2 4.6001 21.8 5.7001C22 6.1001 21.9 6.5001 21.5 6.7001C21.5 6.7001 21.3 6.8001 21.2 6.8001Z" fill="currentColor"/>
<path d="M15.5 13.8002H12.3C11.7 13.8002 11.3 13.4002 11.3 12.8002V8.5002C11.3 8.1002 11.6 7.7002 12.1 7.7002C12.6 7.7002 12.9 8.0002 12.9 8.5002V12.3002H15.7C16.1 12.3002 16.5 12.6002 16.5 13.1002C16.5 13.6002 15.9 13.8002 15.5 13.8002Z" fill="currentColor"/>
</svg>
