<svg width="24" height="24" viewBox="0 0 24 24" fill="none" xmlns="http://www.w3.org/2000/svg">
<path d="M21.3 6.10007L20.8 4.80007C20.4 3.80007 19.7 3.00007 18.7 2.60007C17.7 2.20007 16.6 2.20007 15.7 2.70007L8.10001 6.40007C7.60001 6.60007 7.10001 6.70007 6.60001 6.60007L6.20001 6.40007C5.20001 6.20007 4.20001 6.40007 3.50001 7.00007C2.80001 7.60007 2.20001 8.60007 2.20001 9.60007V11.4001C2.20001 12.4001 2.60001 13.3001 3.40001 13.9001C4.20001 14.5001 5.20001 14.8001 6.10001 14.5001V18.8001C6.10001 20.4001 7.10001 21.8001 8.70001 22.4001L9.60001 22.7001C9.70001 22.7001 9.80001 22.7001 9.90001 22.7001C10.1 22.7001 10.3 22.6001 10.4 22.5001L11.9 21.5001C12.4 21.2001 12.7 20.6001 12.7 19.9001C12.7 19.2001 12.3 18.7001 11.7 18.4001L11.2 18.1001C10.2 17.6001 9.60001 16.7001 9.40001 15.6001L9.30001 15.1001L15.5 18.1001C16 18.3001 16.6 18.5001 17.1 18.5001C17.6 18.5001 18.1 18.4001 18.6 18.2001C19.6 17.8001 20.4 17.0001 20.7 15.9001L21.4 13.8001C22.3 11.4001 22.3 8.60007 21.3 6.10007ZM5.90001 13.1001C5.40001 13.2001 4.80001 13.1001 4.40001 12.8001C4.00001 12.5001 3.70001 12.0001 3.70001 11.4001V9.60007C3.70001 9.10007 3.90001 8.60007 4.40001 8.20007C4.80001 7.90007 5.40001 7.70007 5.90001 7.90007L6.30001 8.00007C6.40001 8.00007 6.60001 8.00007 6.70001 8.10007V13.0001C6.60001 13.0001 6.40001 13.0001 6.30001 13.0001L5.90001 13.1001ZM10.6 19.6001L11.1 19.9001C11.2 20.0001 11.2 20.1001 11.2 20.1001C11.2 20.2001 11.2 20.3001 11.1 20.3001L9.80001 21.1001L9.30001 21.0001C8.40001 20.7001 7.80001 19.8001 7.80001 18.9001V14.6001C7.80001 14.6001 7.80001 14.6001 7.90001 14.6001L8.00001 16.0001C8.20001 17.5001 9.20001 18.9001 10.6 19.6001ZM20.1 13.5001L19.4 15.6001C19.2 16.2001 18.7 16.7001 18.1 17.0001C17.5 17.3001 16.8 17.2001 16.2 17.0001L8.70001 13.4001C8.50001 13.3001 8.40001 13.3001 8.20001 13.2001V7.90007C8.40001 7.80007 8.50001 7.80007 8.70001 7.70007L16.3 4.10007C16.9 3.80007 17.5 3.80007 18.1 4.00007C18.7 4.20007 19.1 4.70007 19.4 5.30007L19.9 6.60007C20.8 8.80007 20.8 11.2001 20.1 13.5001Z" fill="currentColor"/>
</svg>
