<svg width="24" height="24" viewBox="0 0 24 24" fill="none" xmlns="http://www.w3.org/2000/svg">
<path d="M12 20.8002C7.20001 20.8002 3.20001 16.9002 3.20001 12.0002C3.20001 7.2002 7.10001 3.2002 12 3.2002C16.8 3.2002 20.8 7.1002 20.8 12.0002C20.8 16.8002 16.8 20.8002 12 20.8002ZM12 4.8002C8.00001 4.8002 4.80001 8.0002 4.80001 12.0002C4.80001 16.0002 8.10001 19.2002 12 19.2002C16 19.2002 19.2 15.9002 19.2 12.0002C19.2 8.0002 16 4.8002 12 4.8002Z" fill="currentColor"/>
<path d="M16.5 12.8002H12.3C11.7 12.8002 11.3 12.4002 11.3 11.8002V8.5002C11.3 8.1002 11.6 7.7002 12.1 7.7002C12.6 7.7002 12.9 8.0002 12.9 8.5002V11.3002H16.7C17.1 11.3002 17.5 11.6002 17.5 12.1002C17.5 12.6002 16.9 12.8002 16.5 12.8002Z" fill="currentColor"/>
</svg>
