<svg width="24" height="24" viewBox="0 0 24 24" fill="none" xmlns="http://www.w3.org/2000/svg">
<path d="M12 19.7998C11.8 19.7998 11.6 19.6998 11.5 19.5998C11.2 19.2998 11.2 18.7998 11.5 18.4998L17.2 12.7998H5.00001C4.60001 12.7998 4.20001 12.4998 4.20001 11.9998C4.20001 11.4998 4.50001 11.1998 5.00001 11.1998H17.2L11.5 5.4998C11.2 5.1998 11.2 4.6998 11.5 4.3998C11.8 4.0998 12.3 4.0998 12.6 4.3998L19.6 11.3998C19.9 11.6998 19.9 12.1998 19.6 12.4998L12.6 19.4998C12.4 19.6998 12.2 19.7998 12 19.7998Z" fill="currentColor"/>
</svg>
