<svg width="24" height="24" viewBox="0 0 24 24" fill="none" xmlns="http://www.w3.org/2000/svg">
<path d="M18.2 21.8002H5.79999C4.39999 21.8002 3.29999 20.6002 3.29999 19.2002V12.8002C3.29999 11.4002 4.39999 10.2002 5.79999 10.2002H18.2C19.6 10.2002 20.7 11.4002 20.7 12.8002V19.2002C20.8 20.6002 19.6 21.8002 18.2 21.8002ZM5.79999 11.8002C5.19999 11.8002 4.79999 12.3002 4.79999 12.9002V19.3002C4.79999 19.9002 5.29999 20.4002 5.79999 20.4002H18.2C18.8 20.4002 19.2 19.9002 19.2 19.3002V12.9002C19.2 12.3002 18.7 11.8002 18.2 11.8002H5.79999Z" fill="currentColor"/>
<path d="M12 18.1998C10.8 18.1998 9.79999 17.1998 9.79999 15.9998C9.79999 14.7998 10.8 13.7998 12 13.7998C13.2 13.7998 14.2 14.7998 14.2 15.9998C14.2 17.1998 13.2 18.1998 12 18.1998ZM12 15.1998C11.6 15.1998 11.2 15.4998 11.2 15.9998C11.2 16.4998 11.5 16.7998 12 16.7998C12.4 16.7998 12.8 16.4998 12.8 15.9998C12.8 15.4998 12.4 15.1998 12 15.1998Z" fill="currentColor"/>
<path d="M16 11.7998C15.6 11.7998 15.2 11.4998 15.2 10.9998V7.39981C15.2 6.49981 14.9 5.59981 14.3 4.89981C13.8 4.19981 13 3.79981 12.2 3.69981C11.4 3.59981 10.6 3.89981 10 4.39981C9.40002 4.99981 8.90002 5.79981 8.70002 6.69981C8.70002 7.09981 8.30002 7.39981 7.90002 7.29981C7.50002 7.19981 7.20002 6.79981 7.30002 6.39981C7.50002 5.19981 8.10002 3.99981 9.10002 3.29981C10.1 2.49981 11.3 2.19981 12.5 2.29981C13.6 2.39981 14.7 2.99981 15.5 3.99981C16.3 4.99981 16.7 6.19981 16.7 7.49981V10.9998C16.8 11.3998 16.4 11.7998 16 11.7998Z" fill="currentColor"/>
</svg>
