<svg width="24" height="24" viewBox="0 0 24 24" fill="none" xmlns="http://www.w3.org/2000/svg">
<path d="M17.265 12.169L8.05124 13.519C7.78124 13.5528 7.57874 13.8228 7.62937 14.0928C7.66312 14.3459 7.88249 14.5315 8.13562 14.5315H8.20312L17.4169 13.1815C19.0031 12.9453 20.2519 11.7978 20.6231 10.2453L21.7875 5.38525C21.8212 5.23338 21.7875 5.0815 21.6862 4.9465C21.585 4.82838 21.45 4.76088 21.2812 4.76088H4.82812C4.37249 2.66838 3.10687 1.53775 3.05624 1.48713C2.83687 1.31838 2.51624 1.33525 2.34749 1.53775C2.16187 1.75713 2.17874 2.07775 2.38124 2.2465C2.39812 2.26338 3.59624 3.34338 3.89999 5.31775L5.36812 15.0209C5.53687 16.1009 6.44812 16.894 7.54499 16.894H17.5687C17.8556 16.894 18.075 16.6746 18.075 16.3878C18.075 16.1009 17.8556 15.8815 17.5687 15.8815H7.54499C6.95437 15.8815 6.46499 15.4596 6.38062 14.869L4.99687 5.7565H20.64L19.6275 9.99213C19.3575 11.1396 18.4294 12.0003 17.265 12.169Z" fill="currentColor"/>
<path d="M6.43121 20.4369C6.43121 21.6519 7.40996 22.6307 8.62496 22.6307C9.83996 22.6307 10.8187 21.6519 10.8187 20.4369C10.8187 19.2219 9.83996 18.2432 8.62496 18.2432C7.40996 18.2432 6.43121 19.2219 6.43121 20.4369ZM9.80621 20.4369C9.80621 21.095 9.28309 21.6182 8.62496 21.6182C7.96684 21.6182 7.44371 21.095 7.44371 20.4369C7.44371 19.7788 7.96684 19.2557 8.62496 19.2557C9.28309 19.2557 9.80621 19.7788 9.80621 20.4369Z" fill="currentColor"/>
<path d="M15.8812 18.2432C14.6662 18.2432 13.6875 19.2219 13.6875 20.4369C13.6875 21.6519 14.6662 22.6307 15.8812 22.6307C17.0962 22.6307 18.075 21.6519 18.075 20.4369C18.075 19.2219 17.0962 18.2432 15.8812 18.2432ZM15.8812 21.6182C15.2231 21.6182 14.7 21.095 14.7 20.4369C14.7 19.7788 15.2231 19.2557 15.8812 19.2557C16.5394 19.2557 17.0625 19.7788 17.0625 20.4369C17.0625 21.095 16.5394 21.6182 15.8812 21.6182Z" fill="currentColor"/>
</svg>
