<svg width="24" height="24" viewBox="0 0 24 24" fill="none" xmlns="http://www.w3.org/2000/svg">
<path d="M16.5 20.8002H7.49999C5.99999 20.8002 5.29999 20.8002 4.59999 20.5002C3.69999 20.1002 2.99999 19.4002 2.59999 18.5002C2.29999 17.8002 2.29999 17.1002 2.29999 15.6002V14.8002C2.29999 14.0002 2.99999 13.3002 3.79999 13.3002H3.99999C4.69999 13.3002 5.19999 12.7002 5.19999 12.1002C5.19999 11.5002 4.69999 10.8002 3.99999 10.8002H3.79999C2.99999 10.8002 2.29999 10.1002 2.29999 9.3002V8.5002C2.29999 7.0002 2.29999 6.3002 2.59999 5.6002C2.99999 4.7002 3.69999 4.0002 4.59999 3.6002C5.29999 3.2002 5.99999 3.2002 7.49999 3.2002H16.5C18 3.2002 18.7 3.2002 19.4 3.5002C20.3 3.9002 21 4.6002 21.4 5.5002C21.7 6.2002 21.7 6.9002 21.7 8.4002V9.2002C21.7 10.0002 21 10.7002 20.2 10.7002H20C19.3 10.7002 18.8 11.3002 18.8 11.9002C18.8 12.5002 19.4 13.1002 20 13.1002H20.2C21 13.1002 21.7 13.8002 21.7 14.6002V15.4002C21.7 16.9002 21.7 17.6002 21.4 18.3002C21 19.2002 20.3 19.9002 19.4 20.3002C18.7 20.8002 18 20.8002 16.5 20.8002ZM3.79999 14.8002V15.6002C3.79999 16.9002 3.79999 17.5002 3.99999 18.0002C4.19999 18.6002 4.69999 19.0002 5.19999 19.2002C5.59999 19.4002 6.29999 19.4002 7.59999 19.4002H16.6C17.9 19.4002 18.5 19.4002 19 19.2002C19.5 19.0002 20 18.5002 20.2 18.0002C20.4 17.6002 20.4 16.9002 20.4 15.6002V14.8002H20C18.5 14.8002 17.2 13.6002 17.2 12.0002C17.2 10.4002 18.4 9.2002 20 9.2002H20.2V8.5002C20.2 7.2002 20.2 6.6002 20 6.1002C19.8 5.5002 19.3 5.1002 18.8 4.9002C18.4 4.7002 17.7 4.7002 16.4 4.7002H7.39999C6.09999 4.7002 5.49999 4.7002 4.99999 4.9002C4.39999 5.1002 3.99999 5.6002 3.79999 6.1002C3.79999 6.6002 3.79999 7.2002 3.79999 8.5002V9.3002H3.99999C5.49999 9.3002 6.79999 10.5002 6.79999 12.1002C6.79999 13.7002 5.49999 14.8002 3.99999 14.8002H3.79999Z" fill="currentColor"/>
<path d="M14.4 11.3C14.2 10.9 13.8 10.9 13.3 10.8C13.2 10.8 13 10.8 13 10.8C13 10.8 12.9 10.6 12.9 10.5C12.7 10 12.6 9.6 12.1 9.5C12 9.5 11.9 9.5 11.8 9.5C11.4 9.6 11.3 9.9 11.1 10.5C11.1 10.6 11 10.7 11 10.8C11 10.8 10.8 10.8 10.7 10.8C10.2 10.9 9.79997 10.9 9.59997 11.3L9.49997 11.5C9.39997 11.9 9.69997 12.2 10.1 12.5L10.2 12.6C10.3 12.7 10.3 12.7 10.4 12.8C10.4 12.8 10.4 12.9 10.3 13.1C10.2 13.6 10.1 13.8 10.3 14.1C10.4 14.3 10.7 14.5 10.9 14.5C11.2 14.5 11.4 14.3 11.7 14C11.8 13.9 11.9 13.8 11.9 13.8C11.9 13.8 12 13.9 12.1 14C12.5 14.3 12.7 14.5 13 14.5C13.3 14.5 13.5 14.3 13.6 14.1C13.7 13.8 13.7 13.6 13.6 13C13.6 12.9 13.6 12.8 13.6 12.8C13.6 12.8 13.7 12.7 13.8 12.6L13.9 12.5C14.3 12.1 14.6 11.9 14.5 11.5L14.4 11.3Z" fill="currentColor"/>
</svg>
