<svg width="24" height="24" viewBox="0 0 24 24" fill="none" xmlns="http://www.w3.org/2000/svg">
<path d="M9.49999 20.4998C9.29999 20.4998 9.19999 20.4998 8.99999 20.3998C8.59999 20.1998 8.39999 19.6998 8.59999 19.2998L10.4 13.7998H6.29999C5.99999 13.7998 5.69999 13.6998 5.49999 13.3998C5.29999 13.1998 5.29999 12.8998 5.29999 12.5998L7.69999 3.9998C7.79999 3.5998 8.19999 3.2998 8.59999 3.2998H15.6C15.9 3.2998 16.2 3.4998 16.4 3.6998C16.6 3.9998 16.6 4.2998 16.5 4.5998L14.6 8.9998H17.5C17.9 8.9998 18.2 9.1998 18.4 9.4998C18.6 9.7998 18.5 10.1998 18.3 10.4998L10.3 20.1998C10.1 20.3998 9.79999 20.4998 9.49999 20.4998ZM6.99999 12.1998H11.2C11.5 12.1998 11.8 12.2998 12 12.5998C12.2 12.7998 12.2 13.1998 12.1 13.4998L11 16.9998L16.4 10.4998H13.8C13.5 10.4998 13.2 10.2998 13 10.0998C12.8 9.7998 12.8 9.4998 12.9 9.1998L14.8 4.7998H9.09999L6.99999 12.1998Z" fill="currentColor"/>
</svg>
