<svg width="24" height="24" viewBox="0 0 24 24" fill="none" xmlns="http://www.w3.org/2000/svg">
<path d="M12 19.8002C11.8 19.8002 11.6 19.7002 11.5 19.6002L4.50002 12.6002C4.20002 12.3002 4.20002 11.8002 4.50002 11.5002C4.80002 11.2002 5.30002 11.2002 5.60002 11.5002L11.3 17.2002V5.0002C11.3 4.6002 11.6 4.2002 12.1 4.2002C12.6 4.2002 12.9 4.5002 12.9 5.0002V17.2002L18.6 11.5002C18.9 11.2002 19.4 11.2002 19.7 11.5002C20 11.8002 20 12.3002 19.7 12.6002L12.7 19.6002C12.4 19.7002 12.2 19.8002 12 19.8002Z" fill="currentColor"/>
</svg>
