<svg width="24" height="24" viewBox="0 0 24 24" fill="none" xmlns="http://www.w3.org/2000/svg">
<path fill-rule="evenodd" clip-rule="evenodd" d="M13.7 12.6001C12.8 12.6001 12 13.4001 12 14.3001V15.4001C12 16.3001 12.8 17.1001 13.7 17.1001C14.6 17.1001 15.4 16.3001 15.4 15.4001V14.3001C15.4 13.3001 14.6 12.6001 13.7 12.6001ZM14.2 15.4001C14.2 15.7001 14 16.0001 13.6 16.0001C13.2 16.0001 13 15.8001 13 15.4001V14.3001C13 14.0001 13.3 13.7001 13.6 13.7001C13.9 13.7001 14.2 13.9001 14.2 14.3001V15.4001Z" fill="currentColor"/>
<path fill-rule="evenodd" clip-rule="evenodd" d="M13.7 6.8999C12.8 6.8999 12 7.6999 12 8.5999V9.6999C12 10.5999 12.8 11.3999 13.7 11.3999C14.6 11.3999 15.4 10.5999 15.4 9.6999V8.5999C15.4 7.6999 14.6 6.8999 13.7 6.8999ZM14.2 9.7999C14.2 10.0999 14 10.3999 13.6 10.3999C13.2 10.3999 13 10.1999 13 9.7999V8.5999C13 8.2999 13.3 7.9999 13.6 7.9999C13.9 7.9999 14.2 8.1999 14.2 8.5999V9.7999Z" fill="currentColor"/>
<path fill-rule="evenodd" clip-rule="evenodd" d="M21 9.8H21.3C21.8 9.8 22.1 9.4 22.1 9V7.1C22.1 6.5 22.1 6 22.1 5.6C22.1 5.2 22 4.8 21.8 4.5C21.5 4 21.1 3.5 20.6 3.3C20.3 3.1 19.9 3.1 19.5 3C19.1 3 18.6 3 18 3H15.1C14.6 3 14.3 3.4 14.3 3.8V4.1C14.3 4.4 14.1 4.7 13.7 4.7C13.3 4.7 13.1 4.5 13.1 4.1V3.8C13.1 3.3 12.7 3 12.3 3H6.00002C5.40002 3 4.90002 3 4.50002 3C4.10002 3 3.70002 3.1 3.40002 3.3C2.90002 3.6 2.50002 4 2.20002 4.5C2.00002 4.9 1.90002 5.2 1.90002 5.6C1.90002 6 1.90002 6.5 1.90002 7.1V8.9C1.90002 9.4 2.30002 9.7 2.70002 9.7H3.00002C4.20002 9.7 5.20002 10.7 5.20002 11.9C5.20002 13.1 4.20002 14.1 3.00002 14.1H2.70002C2.20002 14.1 1.90002 14.5 1.90002 14.9V16.7C1.90002 17.3 1.90002 17.8 1.90002 18.2C1.90002 18.6 2.00002 19 2.20002 19.3C2.50002 19.8 2.90002 20.3 3.40002 20.5C3.70002 20.7 4.10002 20.7 4.50002 20.8C4.90002 20.8 5.40002 20.8 6.00002 20.8H12.3C12.8 20.8 13.1 20.4 13.1 20V19.7C13.1 19.4 13.4 19.1 13.7 19.1C14 19.1 14.3 19.3 14.3 19.7V20C14.3 20.5 14.7 20.8 15.1 20.8H18C18.6 20.8 19.1 20.8 19.5 20.8C19.9 20.8 20.3 20.7 20.6 20.5C21.1 20.2 21.6 19.8 21.8 19.3C22 19 22 18.6 22.1 18.2C22.1 17.8 22.1 17.3 22.1 16.7V15C22.1 14.5 21.7 14.2 21.3 14.2H21C19.8 14.2 18.7 13.2 18.7 12C18.8 10.7 19.7 9.8 21 9.8ZM21 15.3V16.9C21 17.5 21 18 21 18.3C21 18.6 20.9 18.8 20.9 19C20.7 19.3 20.5 19.6 20.2 19.7C20 19.8 19.8 19.8 19.5 19.9C19.2 19.9 18.7 19.9 18.1 19.9H15.5C15.5 19 14.7 18.2 13.8 18.2C12.9 18.2 12 18.9 12 19.9H6.00002C5.40002 19.9 4.90002 19.9 4.60002 19.9C4.30002 19.9 4.10002 19.8 3.90002 19.7C3.60002 19.5 3.30002 19.3 3.20002 19C3.10002 18.9 3.10002 18.7 3.10002 18.3C3.10002 17.9 3.10002 17.5 3.10002 16.9V15.4C5.00002 15.4 6.50002 13.9 6.50002 12C6.50002 10.1 4.90002 8.6 3.00002 8.6V7.2C3.00002 6.6 3.00002 6.1 3.00002 5.8C3.00002 5.5 3.10002 5.3 3.10002 5.1C3.30002 4.8 3.50002 4.5 3.80002 4.4C4.00002 4.3 4.20002 4.3 4.50002 4.2C4.80002 4.2 5.30002 4.2 5.90002 4.2H11.9C11.9 5.1 12.7 5.9 13.6 5.9C14.5 5.9 15.3 5.1 15.3 4.2H18C18.6 4.2 19.1 4.2 19.4 4.2C19.7 4.2 19.9 4.3 20.1 4.4C20.4 4.6 20.7 4.8 20.8 5.1C20.9 5.2 20.9 5.4 20.9 5.8C20.9 6.2 20.9 6.6 20.9 7.2V8.7C19.1 8.7 17.6 10.2 17.6 12C17.6 13.8 19.2 15.3 21 15.3Z" fill="currentColor"/>
</svg>
