<svg width="24" height="24" viewBox="0 0 24 24" fill="none" xmlns="http://www.w3.org/2000/svg">
<path d="M19.1 10.7999C18.7 9.7999 18.1 8.9999 17.3 8.1999L16.7 7.5999C16.6 7.4999 16.5 7.3999 16.3 7.3999L16 7.4999L15.8 7.5999C15.7 7.5999 15.5 7.6999 15.4 7.7999L15.2 7.9999L14.7 9.2999C14.7 9.2999 14.7 9.3999 14.6 9.3999C14.6 8.1999 14.5 6.9999 14 6.0999C13.2 4.5999 12.2 3.4999 11.1 2.7999L10.3 2.2999C10 2.0999 9.70001 2.0999 9.40001 2.2999C9.20001 2.4999 9.00001 2.8999 9.00001 3.1999V4.1999C9.00001 4.7999 9.00001 5.1999 8.80001 5.5999C8.70001 6.0999 8.40001 6.5999 8.10001 6.9999C7.80001 7.2999 7.60001 7.5999 7.20001 7.7999C6.30001 8.5999 5.60001 9.4999 5.00001 10.4999C4.50001 11.5999 4.20001 12.6999 4.20001 13.8999C4.20001 14.9999 4.40001 15.9999 4.80001 16.8999C5.20001 17.7999 5.80001 18.6999 6.50001 19.3999C7.20001 20.0999 8.00001 20.6999 9.00001 21.0999C10 21.4999 11 21.6999 12 21.6999C13 21.6999 14.1 21.4999 15 21.0999C15.9 20.6999 16.8 20.0999 17.5 19.3999C18.2 18.6999 18.8 17.8999 19.2 16.8999C19.6 15.8999 19.8 14.8999 19.8 13.8999C19.8 12.8999 19.5 11.7999 19.1 10.7999ZM17.8 16.3999C17.5 17.1999 17 17.7999 16.5 18.3999C15.9 18.9999 15.3 19.3999 14.5 19.6999C13 20.2999 11.2 20.2999 9.60001 19.6999C8.90001 19.3999 8.20001 18.8999 7.60001 18.3999C7.00001 17.7999 6.60001 17.1999 6.30001 16.3999C6.00001 15.5999 5.80001 14.7999 5.80001 13.9999C5.80001 12.9999 6.00001 12.0999 6.40001 11.1999C6.80001 10.2999 7.40001 9.5999 8.20001 8.9999C8.60001 8.6999 9.00001 8.2999 9.30001 7.9999C9.80001 7.3999 10.1 6.7999 10.4 6.0999C10.6 5.5999 10.7 4.8999 10.7 4.1999C11.6 4.7999 12.4 5.6999 13 6.7999C13.5 7.7999 13.4 10.2999 13.3 11.4999V11.7999C13.3 12.0999 13.4 12.2999 13.6 12.4999C13.8 12.6999 14 12.6999 14.3 12.6999L14.7 12.5999L14.9 12.3999C15.4 11.7999 16.3 10.1999 16.5 9.6999L16.6 9.3999C17.2 9.9999 17.7 10.5999 18 11.3999C18.4 12.1999 18.5 12.9999 18.5 13.8999C18.2 14.7999 18.1 15.6999 17.8 16.3999Z" fill="currentColor"/>
</svg>
