<svg width="24" height="24" viewBox="0 0 24 24" fill="none" xmlns="http://www.w3.org/2000/svg">
<path d="M18.2 21.8002H5.79999C4.39999 21.8002 3.29999 20.6002 3.29999 19.2002V12.8002C3.29999 11.4002 4.39999 10.2002 5.79999 10.2002H18.2C19.6 10.2002 20.7 11.4002 20.7 12.8002V19.2002C20.8 20.6002 19.6 21.8002 18.2 21.8002ZM5.79999 11.8002C5.19999 11.8002 4.79999 12.3002 4.79999 12.9002V19.3002C4.79999 19.9002 5.29999 20.4002 5.79999 20.4002H18.2C18.8 20.4002 19.2 19.9002 19.2 19.3002V12.9002C19.2 12.3002 18.7 11.8002 18.2 11.8002H5.79999Z" fill="currentColor"/>
<path d="M12 18.1998C10.8 18.1998 9.79999 17.1998 9.79999 15.9998C9.79999 14.7998 10.8 13.7998 12 13.7998C13.2 13.7998 14.2 14.7998 14.2 15.9998C14.2 17.1998 13.2 18.1998 12 18.1998ZM12 15.1998C11.6 15.1998 11.2 15.4998 11.2 15.9998C11.2 16.4998 11.5 16.7998 12 16.7998C12.4 16.7998 12.8 16.4998 12.8 15.9998C12.8 15.4998 12.4 15.1998 12 15.1998Z" fill="currentColor"/>
<path d="M16.8 11.0002H15.3V7.0002C15.3 5.2002 13.8 3.8002 12.1 3.8002C10.4 3.8002 8.80001 5.2002 8.80001 7.0002V11.0002H7.20001V7.0002C7.20001 4.4002 9.30001 2.2002 12 2.2002C14.7 2.2002 16.8 4.3002 16.8 7.0002V11.0002Z" fill="currentColor"/>
</svg>
