<svg width="24" height="24" viewBox="0 0 24 24" fill="none" xmlns="http://www.w3.org/2000/svg">
<path fill-rule="evenodd" clip-rule="evenodd" d="M19.8245 5.76383C17.7123 3.65164 14.2878 3.65164 12.1756 5.76383L12 5.93938L11.8245 5.76383C9.7123 3.65164 6.28778 3.65164 4.17559 5.76383C1.836 8.10342 1.836 11.8967 4.1756 14.2363L11.1162 21.1768C11.6043 21.665 12.3958 21.665 12.8839 21.1768L19.8245 14.2363C22.1641 11.8967 22.1641 8.10342 19.8245 5.76383ZM16.0001 7.07703C15.5859 7.07699 15.25 7.41274 15.25 7.82696C15.25 8.24117 15.5857 8.57699 15.9999 8.57703C16.3201 8.57706 16.6377 8.69861 16.8812 8.94213C17.2179 9.27881 17.361 9.73526 17.3091 10.1764C17.2607 10.5878 17.5549 10.9605 17.9663 11.0089C18.3777 11.0574 18.7504 10.7631 18.7988 10.3517C18.9021 9.47427 18.6169 8.5565 17.9419 7.88147C17.4058 7.34539 16.7017 7.07709 16.0001 7.07703Z" fill="currentColor"/>
</svg>
