<svg width="24" height="24" viewBox="0 0 24 24" fill="none" xmlns="http://www.w3.org/2000/svg">
<path d="M22.2 16.8998V19.8998C22.2 20.4998 22 21.0998 21.5 21.4998C21.1 21.8998 20.5 22.1998 19.9 22.1998C19.8 22.1998 19.8 22.1998 19.7 22.1998C16.6 21.8998 13.6 20.7998 10.9 19.0998C8.59999 17.4998 6.5 15.3998 5 12.9998C3.3 10.3998 2.2 7.2998 1.9 4.1998C1.8 3.5998 2 2.9998 2.4 2.5998C2.8 2.0998 3.3 1.7998 3.9 1.7998C4 1.7998 4 1.7998 4.1 1.7998H7.1C8.2 1.7998 9.2 2.5998 9.3 3.6998C9.5 4.5998 9.7 5.49981 10 6.39981C10.3 7.19981 10.1 8.1998 9.5 8.7998L8.39999 9.9998C9.79999 12.2998 11.7 14.2998 14 15.5998L15.1 14.4998C15.7 13.8998 16.7 13.6998 17.5 13.9998C18.4 14.2998 19.3 14.5998 20.3 14.6998C21.5 14.7998 22.3 15.7998 22.2 16.8998Z" fill="currentColor"/>
</svg>
