<svg width="24" height="24" viewBox="0 0 24 24" fill="none" xmlns="http://www.w3.org/2000/svg">
<path d="M20 13.1998H3.99999C2.79999 13.1998 1.79999 12.1998 1.79999 10.9998C1.79999 9.7998 2.79999 8.7998 3.99999 8.7998H20C21.2 8.7998 22.2 9.7998 22.2 10.9998C22.2 12.1998 21.2 13.1998 20 13.1998ZM3.99999 10.1998C3.59999 10.1998 3.19999 10.4998 3.19999 10.9998C3.19999 11.4998 3.49999 11.7998 3.99999 11.7998H20C20.4 11.7998 20.8 11.4998 20.8 10.9998C20.8 10.4998 20.5 10.1998 20 10.1998H3.99999Z" fill="currentColor"/>
<path d="M18.7 21.2002H5.29999C4.99999 21.2002 4.69999 21.2002 4.39999 21.1002C4.19999 21.0002 3.99999 20.8002 3.89999 20.6002C3.79999 20.3002 3.79999 20.1002 3.79999 19.7002V12.8C3.79999 12.4 4.09999 12 4.59999 12C5.09999 12 5.39999 12.3 5.39999 12.8V19.7002H18.8V12.8C18.8 12.4 19.1 12 19.6 12C20.1 12 20.4 12.3 20.4 12.8V19.7002C20.4 20.0002 20.4 20.3002 20.3 20.6002C20.2 20.8002 20 21.0002 19.8 21.1002C19.3 21.2002 19 21.2002 18.7 21.2002Z" fill="currentColor"/>
<path d="M14.2 10.2001H9.50001C7.40001 10.2001 5.70001 8.5001 5.70001 6.4001C5.70001 4.3001 7.40001 2.6001 9.50001 2.6001H10C12.3 2.6001 14.2 4.5001 14.2 6.8001V10.2001ZM9.50001 4.2001C8.30001 4.2001 7.30001 5.2001 7.30001 6.4001C7.30001 7.6001 8.30001 8.6001 9.50001 8.6001H12.7V7.0001C12.7 5.5001 11.5 4.2001 9.90001 4.2001H9.50001Z" fill="currentColor"/>
<path d="M16 10.1998H12.8V6.9998C12.8 5.1998 14.3 3.7998 16 3.7998C17.7 3.7998 19.2 5.2998 19.2 6.9998C19.2 8.6998 17.8 10.1998 16 10.1998ZM14.2 8.7998H16C17 8.7998 17.8 7.9998 17.8 6.9998C17.8 5.9998 17 5.1998 16 5.1998C15 5.1998 14.2 5.9998 14.2 6.9998V8.7998Z" fill="currentColor"/>
<path d="M13.5 21.2001C13.1 21.2001 12.7 20.9001 12.7 20.4001V12.8C12.7 12.4 13 12 13.5 12C14 12 14.3 12.3 14.3 12.8V20.4001C14.2 20.9001 13.9 21.2001 13.5 21.2001Z" fill="currentColor"/>
</svg>
