<svg width="24" height="24" viewBox="0 0 24 24" fill="none" xmlns="http://www.w3.org/2000/svg">
<path d="M22.1 15.1002C21.7 14.6002 21.1 14.2002 20.4 14.2002C19.5 14.1002 18.6 13.9002 17.7 13.5002C17.2 13.3002 16.7 13.3002 16.2 13.4002C15.7 13.5002 15.2 13.8002 14.8 14.1002L14 15.0002C12 13.7002 10.3 12.0002 9 10.0002L9.9 9.1002C10.3 8.7002 10.5 8.3002 10.6 7.7002C10.7 7.2002 10.7 6.7002 10.5 6.2002C10.2 5.4002 10 4.5002 9.8 3.6002C9.8 3.0002 9.4 2.3002 8.9 1.9002C8.4 1.5002 7.7 1.2002 7.1 1.2002H4.1C3.7 1.2002 3.3 1.3002 3 1.5002C2.7 1.6002 2.3 1.9002 2.1 2.2002C1.8 2.5002 1.6 2.8002 1.5 3.2002C1.4 3.5002 1.3 3.9002 1.4 4.3002C1.7 7.5002 2.8 10.6002 4.6 13.3002C6.2 15.8002 8.3 18.0002 10.8 19.5002C13.5 21.2002 16.6 22.3002 19.8 22.7002C19.9 22.7002 20 22.7002 20 22.7002C20.3 22.7002 20.6 22.7002 20.9 22.6002C21.3 22.5002 21.6 22.3002 21.9 22.0002C22.2 21.8002 22.4 21.4002 22.6 21.1002C22.7 20.7002 22.8 20.4002 22.8 20.0002V17.0002C22.8 16.3002 22.5 15.6002 22.1 15.1002ZM21.2 16.9002V19.9002C21.2 20.1002 21.2 20.3002 21.1 20.4002C21 20.6002 20.9 20.7002 20.8 20.8002C20.7 20.9002 20.5 21.0002 20.4 21.1002C20.2 21.2002 20.1 21.2002 19.9 21.2002C17 20.9002 14.1 19.9002 11.6 18.2002C9.3 16.7002 7.3 14.7002 5.8 12.4002C4.2 9.9002 3.2 7.0002 2.8 4.1002C2.8 3.9002 2.8 3.8002 2.9 3.6002C2.9 3.4002 3 3.3002 3.2 3.2002C3.3 3.0002 3.5 2.9002 3.6 2.9002C3.8 2.8002 3.9 2.8002 4.1 2.8002H7.1C7.4 2.8002 7.7 2.9002 7.9 3.1002C8.1 3.3002 8.3 3.6002 8.3 3.9002C8.4 4.9002 8.7 5.9002 9 6.9002C9.1 7.1002 9.1 7.40019 9 7.60019C9 7.80019 8.8 8.1002 8.7 8.2002L7.6 9.4002C7.3 9.6002 7.3 10.0002 7.4 10.3002C8.9 12.9002 11.1 15.1002 13.7 16.6002C14 16.8002 14.4 16.7002 14.6 16.5002L15.9 15.2002C16.1 15.0002 16.3 14.9002 16.5 14.9002C16.7 14.8002 17 14.9002 17.2 14.9002C18.2 15.3002 19.2 15.5002 20.2 15.6002C20.5 15.6002 20.8 15.8002 21 16.0002C21.2 16.3002 21.3 16.6002 21.2 16.9002Z" fill="currentColor"/>
</svg>
