<svg width="24" height="24" viewBox="0 0 24 24" fill="none" xmlns="http://www.w3.org/2000/svg">
<path d="M12 19.7999C11.8 19.7999 11.6 19.6999 11.5 19.5999L4.50002 12.5999C4.20002 12.2999 4.20002 11.7999 4.50002 11.4999L11.5 4.4999C11.8 4.1999 12.3 4.1999 12.6 4.4999C12.9 4.7999 12.9 5.2999 12.6 5.5999L6.90002 11.2999H19C19.4 11.2999 19.8 11.5999 19.8 12.0999C19.8 12.5999 19.5 12.8999 19 12.8999H6.80002L12.5 18.5999C12.8 18.8999 12.8 19.3999 12.5 19.6999C12.4 19.6999 12.2 19.7999 12 19.7999Z" fill="currentColor"/>
</svg>
