<svg width="24" height="24" viewBox="0 0 24 24" fill="none" xmlns="http://www.w3.org/2000/svg">
<path d="M12 21.8002C6.60001 21.8002 2.20001 17.4002 2.20001 12.0002C2.20001 6.6002 6.60001 2.2002 12 2.2002C12.9 2.2002 13.8 2.3002 14.7 2.6002C15.1 2.7002 15.3 3.1002 15.2 3.5002C15.1 3.9002 14.7 4.1002 14.3 4.0002C13.6 3.8002 12.8 3.7002 12 3.7002C7.50001 3.7002 3.80001 7.4002 3.80001 11.9002C3.80001 16.4002 7.50001 20.1002 12 20.1002C16.5 20.1002 20.2 16.4002 20.2 11.9002C20.2 11.1002 20.1 10.4002 19.9 9.6002C19.8 9.2002 20 8.8002 20.4 8.7002C20.8 8.6002 21.2 8.8002 21.3 9.2002C21.6 10.1002 21.7 11.0002 21.7 11.9002C21.8 17.4002 17.4 21.8002 12 21.8002Z" fill="currentColor"/>
<path d="M12 17.8002C8.80001 17.8002 6.20001 15.2002 6.20001 12.0002C6.20001 8.8002 8.80001 6.2002 12 6.2002C12.4 6.2002 12.8 6.5002 12.8 7.0002C12.8 7.5002 12.4 7.8002 12 7.8002C9.70001 7.8002 7.80001 9.7002 7.80001 12.0002C7.80001 14.3002 9.70001 16.2002 12 16.2002C14.3 16.2002 16.2 14.3002 16.2 12.0002C16.2 11.6002 16.5 11.2002 17 11.2002C17.5 11.2002 17.8 11.5002 17.8 12.0002C17.8 15.2002 15.2 17.8002 12 17.8002Z" fill="currentColor"/>
<path d="M12 13.8002C11 13.8002 10.2 13.0002 10.2 12.0002C10.2 11.0002 11 10.2002 12 10.2002C13 10.2002 13.8 11.0002 13.8 12.0002C13.8 13.0002 13 13.8002 12 13.8002ZM12 11.8002C11.9 11.8002 11.8 11.9002 11.8 12.0002C11.8 12.3002 12.3 12.3002 12.3 12.0002C12.2 11.9002 12.1 11.8002 12 11.8002Z" fill="currentColor"/>
<path d="M12 12.7999C11.8 12.7999 11.6 12.6999 11.5 12.5999C11.2 12.2999 11.2 11.7999 11.5 11.4999L15 7.9999C15.3 7.6999 15.8 7.6999 16.1 7.9999C16.4 8.2999 16.4 8.7999 16.1 9.0999L12.6 12.5999C12.4 12.6999 12.2 12.7999 12 12.7999Z" fill="currentColor"/>
<path d="M18.3 9.2002H14.7V5.7002L19.7 0.700195V4.3002H23.3L18.3 9.2002ZM16.2 7.8002H17.6L19.6 5.8002H18.2V4.3002L16.2 6.3002V7.8002Z" fill="currentColor"/>
</svg>
