<svg width="24" height="24" viewBox="0 0 24 24" fill="none" xmlns="http://www.w3.org/2000/svg">
<path d="M12 21.5C11.7 21.5 11.4 21.4 11.1 21.1L4.20002 14.2C3.00002 13.1 2.40002 11.6 2.40002 10C2.40002 8.4 3.00002 6.9 4.20002 5.8C6.30002 3.7 9.70002 3.7 11.8 5.8L12 5.9L12.2 5.7C14.3 3.6 17.7 3.6 19.8 5.7C20.9 6.8 21.6 8.3 21.6 9.9C21.6 11.5 21 13 19.8 14.1L12.9 21C12.6 21.4 12.3 21.5 12 21.5ZM8.00002 5.7C7.00002 5.7 6.00002 6.1 5.20002 6.8C3.40002 8.6 3.40002 11.4 5.20002 13.2L12 20L18.8 13.2C20.6 11.4 20.6 8.6 18.8 6.8C17.3 5.3 14.8 5.3 13.3 6.8L12 8L11.4 7.5L10.7 6.8C10 6.1 9.00002 5.7 8.00002 5.7Z" fill="currentColor"/>
<path d="M18.1 11C18 11 18 11 18.1 11C17.6 10.9 17.3 10.6 17.4 10.2C17.5 9.7 17.3 9.3 17 9C16.8 8.8 16.5 8.6 16.1 8.6C15.7 8.6 15.3 8.3 15.3 7.8C15.3 7.3 15.6 7 16.1 7C16.8 7 17.5 7.3 18 7.8C18.7 8.5 19 9.4 18.9 10.3C18.8 10.7 18.4 11 18.1 11Z" fill="currentColor"/>
</svg>
