<svg width="24" height="24" viewBox="0 0 24 24" fill="none" xmlns="http://www.w3.org/2000/svg">
<path d="M12 8.1001C9.79998 8.1001 8.09998 9.9001 8.09998 12.0001C8.09998 14.2001 9.89998 15.9001 12 15.9001C14.1 15.9001 15.9 14.1001 15.9 12.0001C15.9 9.9001 14.2 8.1001 12 8.1001ZM12 14.5001C10.7 14.5001 9.59998 13.4001 9.59998 12.1001C9.59998 10.8001 10.7 9.7001 12 9.7001C13.3 9.7001 14.4 10.8001 14.4 12.1001C14.4 13.4001 13.3 14.5001 12 14.5001Z" fill="currentColor"/>
<path d="M21.9 11.8C20.9 9.4 19.4 7.4 17.7 6.1C16 4.7 14.1 4 12 4C7.90002 4 4.20002 6.9 2.10002 11.8C2.00002 12 2.00002 12.2 2.10002 12.3C4.20002 17.2 7.90002 20.1 12 20.1C16.1 20.1 19.8 17.2 21.9 12.3C22 12.2 22 12 21.9 11.8ZM12 18.6C8.60002 18.6 5.40002 16.1 3.60002 12C5.50002 7.9 8.60002 5.5 12 5.5C15.4 5.5 18.6 7.9 20.4 12C18.6 16.2 15.4 18.6 12 18.6Z" fill="currentColor"/>
</svg>
