<svg width="24" height="24" viewBox="0 0 24 24" fill="none" xmlns="http://www.w3.org/2000/svg">
<path d="M12 12.1998C13.215 12.1998 14.2 11.2148 14.2 9.9998C14.2 8.78478 13.215 7.7998 12 7.7998C10.785 7.7998 9.79999 8.78478 9.79999 9.9998C9.79999 11.2148 10.785 12.1998 12 12.1998Z" fill="currentColor"/>
<path fill-rule="evenodd" clip-rule="evenodd" d="M19.5 7.1C19.1 6.1 18.5 5.2 17.8 4.4C17 3.7 16.1 3 15.1 2.6C14.1 2.2 13.1 2 12 2C10.9 2 9.89997 2.2 8.89997 2.6C7.89997 3 6.99997 3.7 6.29997 4.4C5.49997 5.2 4.89997 6.1 4.49997 7.1C4.09997 8.1 3.89997 9.1 3.99997 10.2C3.99997 17.5 12 22 12 22C12 22 20 17.5 20 10.2C20 9.1 19.8 8.1 19.5 7.1ZM12 13.8C9.89997 13.8 8.19997 12.1 8.19997 10C8.19997 7.9 9.89997 6.2 12 6.2C14.1 6.2 15.8 7.9 15.8 10C15.8 12.1 14.1 13.8 12 13.8Z" fill="currentColor"/>
</svg>
