<svg width="24" height="24" viewBox="0 0 24 24" fill="none" xmlns="http://www.w3.org/2000/svg">
<path d="M12.8 17.2999C12.4 17.2999 12 17.1999 11.7 16.8999L7.50001 13.4999C7.20001 13.1999 7.10001 12.7999 7.40001 12.3999C7.70001 12.0999 8.10001 11.9999 8.50001 12.2999L12.7 15.6999C12.8 15.7999 13 15.7999 13 15.6999L21.4 5.49989C21.7 5.19989 22.1 5.09989 22.5 5.39989C22.8 5.69989 22.9 6.09989 22.6 6.49989L14.2 16.6999C13.9 17.0999 13.4 17.2999 12.8 17.2999Z" fill="currentColor"/>
<path d="M5.79999 17.3998C5.39999 17.3998 5.09999 17.2998 4.79999 16.9998L1.59999 14.5998C1.29999 14.3998 1.19999 13.8998 1.49999 13.5998C1.69999 13.2998 2.19999 13.1998 2.59999 13.4998L5.79999 15.8998C5.89999 15.9998 6.09999 15.9998 6.09999 15.8998L6.59999 14.9998C6.89999 14.6998 7.29999 14.5998 7.69999 14.8998C7.99999 15.1998 8.09999 15.6998 7.79999 15.9998L7.19999 16.7998C6.79999 17.1998 6.29999 17.3998 5.79999 17.3998ZM10.5 12.1998C10.3 12.1998 10.2 12.0998 9.99999 11.9998C9.69999 11.6998 9.59999 11.2998 9.89999 10.8998L14.4 5.39979C14.7 5.09979 15.1 4.99979 15.5 5.29979C15.8 5.59979 15.9 5.99979 15.6 6.39979L11.1 11.9998C10.9 12.1998 10.7 12.1998 10.5 12.1998Z" fill="currentColor"/>
</svg>
