<svg width="24" height="24" viewBox="0 0 24 24" fill="none" xmlns="http://www.w3.org/2000/svg">
<path d="M20.2 6.8002C19.8 5.7002 19.1 4.7002 18.3 3.9002C17.5 3.1002 16.5 2.4002 15.4 1.9002C14.3 1.4002 13.2 1.2002 12 1.2002C10.8 1.2002 9.70001 1.5002 8.60001 1.9002C7.50001 2.4002 6.60001 3.0002 5.70001 3.9002C4.90001 4.7002 4.30001 5.7002 3.80001 6.8002C3.40001 7.9002 3.20001 9.0002 3.20001 10.2002C3.20001 17.8002 11.2 22.5002 11.6 22.7002C11.7 22.8002 11.8 22.8002 12 22.8002C12.2 22.8002 12.2 22.8002 12.4 22.7002C12.7 22.5002 20.8 17.9002 20.8 10.3002C20.8 9.0002 20.6 7.9002 20.2 6.8002ZM12 21.1002C10.5 20.1002 4.80001 16.1002 4.80001 10.2002C4.80001 9.2002 5.00001 8.3002 5.30001 7.4002C5.70001 6.5002 6.20001 5.7002 6.90001 5.0002C7.60001 4.3002 8.40001 3.8002 9.30001 3.4002C10.1 2.9002 11 2.8002 12 2.8002C13 2.8002 13.9 3.0002 14.8 3.4002C15.7 3.8002 16.5 4.3002 17.2 5.0002C17.9 5.7002 18.4 6.5002 18.8 7.4002C19.1 8.3002 19.3 9.3002 19.3 10.3002C19.2 16.1002 13.5 20.2002 12 21.1002Z" fill="currentColor"/>
<path d="M12 6.2002C9.90001 6.2002 8.20001 7.9002 8.20001 10.0002C8.20001 12.1002 9.90001 13.8002 12 13.8002C14.1 13.8002 15.8 12.1002 15.8 10.0002C15.8 7.9002 14.1 6.2002 12 6.2002ZM12 12.2002C10.8 12.2002 9.80001 11.2002 9.80001 10.0002C9.80001 8.8002 10.8 7.8002 12 7.8002C13.2 7.8002 14.2 8.8002 14.2 10.0002C14.2 11.2002 13.2 12.2002 12 12.2002Z" fill="currentColor"/>
</svg>
