<svg width="24" height="24" viewBox="0 0 24 24" fill="none" xmlns="http://www.w3.org/2000/svg">
<path d="M14.4 12.0001C14.4 13.3001 13.3 14.4001 12 14.4001C10.7 14.4001 9.59998 13.3001 9.59998 12.0001C9.59998 11.8001 9.59998 11.7001 9.59998 11.5001C10.7 11.5001 11.6 10.6001 11.6 9.6001C11.7 9.6001 11.8 9.6001 11.9 9.6001C13.3 9.6001 14.4 10.7001 14.4 12.0001Z" fill="currentColor"/>
<path d="M21.9 11.7C20.9 9.3 19.4 7.3 17.7 6C16 4.7 14.1 4 12 4C7.90002 4 4.20002 6.9 2.10002 11.7C2.00002 11.9 2.00002 12.1 2.10002 12.3C4.20002 17.1 7.90002 20 12 20C16.1 20 19.8 17.1 21.9 12.3C22 12.1 22 11.9 21.9 11.7ZM12 15.9C9.80002 15.9 8.10002 14.2 8.10002 12C8.10002 9.9 9.80002 8.1 12 8.1C14.2 8.1 15.9 9.8 15.9 12C15.9 14.1 14.2 15.9 12 15.9Z" fill="currentColor"/>
</svg>
