<svg xmlns="http://www.w3.org/2000/svg" width="24" height="24" fill="none" viewBox="0 0 26 26">
    <path fill="currentColor"
        d="M13.002 12.405c-.126-.236-5.372-10.041-10.04-10.041-2.563 0-1.773 5.909-1.182 8.863.239 1.195 1.181 4.728 6.498 4.137 0 0-4.726.59-4.726 3.545 0 1.773 2.954 4.728 5.317 4.728 2.313 0 4.06-5.099 4.133-5.312.072.213 1.82 5.312 4.133 5.312 2.363 0 5.317-2.955 5.317-4.728 0-2.954-4.727-3.545-4.727-3.545 5.317.59 6.26-2.942 6.499-4.137.59-2.954 1.38-8.863-1.182-8.863-4.669 0-9.915 9.805-10.04 10.04Z" />
</svg>