<svg xmlns="http://www.w3.org/2000/svg" width="24" height="24" fill="none" viewBox="0 0 24 24">
    <path fill="currentColor"
        d="M3.515 6.562a1.928 1.928 0 0 1-.64-1.472c0-.584.214-1.097.64-1.494.427-.397.977-.596 1.65-.596.675 0 1.203.199 1.63.596.426.396.639.895.639 1.494a1.91 1.91 0 0 1-.64 1.472c-.427.397-.97.596-1.628.596-.66 0-1.224-.199-1.651-.596Zm3.56 2.276V21H3.233V8.838h3.842ZM19.865 10.04c.838.909 1.256 2.157 1.256 3.746v7h-3.649v-6.507c0-.801-.208-1.424-.622-1.867-.415-.444-.974-.667-1.674-.667s-1.26.222-1.674.667c-.415.443-.623 1.066-.623 1.867v6.506H9.21V8.804h3.67v1.589a3.87 3.87 0 0 1 1.503-1.256c.629-.308 1.337-.462 2.124-.462 1.403 0 2.523.455 3.36 1.364Z" />
</svg>