<svg xmlns="http://www.w3.org/2000/svg" width="24" height="24" fill="none" viewBox="0 0 24 24">
    <path fill="currentColor"
        d="M21.94 11.598c-.267-1.207-1.37-1.99-2.466-1.748a1.874 1.874 0 0 0-.948.537c-1.474-1.07-3.487-1.776-5.734-1.91l1.076-4.473 3.191.762a1.664 1.664 0 0 0 1.662 1.562c.886 0 1.666-.745 1.666-1.664a1.666 1.666 0 0 0-3.172-.706l-3.463-.828a.508.508 0 0 0-.611.374l-1.19 4.951c-2.508.014-4.77.738-6.393 1.898a1.914 1.914 0 0 0-.259-.203c-.945-.603-2.251-.247-2.917.794-.665 1.04-.44 2.375.506 2.978.056.036.114.067.172.096-.038.233-.058.47-.058.71 0 3.464 4.037 6.272 9.017 6.272 4.98 0 9.017-2.808 9.017-6.273 0-.242-.022-.482-.06-.716.767-.446 1.185-1.417.966-2.412h-.002ZM7.395 13.274a1.43 1.43 0 1 1 2.86.002 1.43 1.43 0 0 1-2.86-.002Zm7.948 4.513c-.44.399-1.654 1.329-3.431 1.346h-.049c-1.8 0-3.03-.94-3.479-1.346a.35.35 0 1 1 .472-.519c.39.355 1.469 1.178 3.05 1.164 1.536-.015 2.585-.818 2.965-1.162a.35.35 0 0 1 .472.518Zm-.173-3.083a1.43 1.43 0 1 1-.002-2.861 1.43 1.43 0 0 1 .002 2.86Z" />
</svg>