<svg xmlns="http://www.w3.org/2000/svg" width="24" height="24" fill="none" viewBox="0 0 24 24">
    <path fill="currentColor"
        d="M16.898 9.131c-.003.21-.025.42-.044.63-.007.069-.01.139-.01.208-.003.12.093.229.213.22a.659.659 0 0 0 .17-.037c.183-.064.364-.133.546-.203.165-.063.333-.12.503-.167.186-.05.371-.087.56-.057.384.063.635.477.494.84a.89.89 0 0 1-.172.271c-.1.111-.213.206-.336.29l-.437.29c-.244.16-.488.319-.73.481a5.161 5.161 0 0 0-.294.212c-.053.04-.102.088-.147.137a.473.473 0 0 0-.125.345c.007.135.03.267.068.397.115.404.292.78.506 1.138.574.959 1.387 1.708 2.355 2.32.266.167.55.303.83.447.04.021.078.042.117.065a.312.312 0 0 1 .097.091c.04.056.045.115.011.177a.456.456 0 0 1-.115.13 1.08 1.08 0 0 1-.163.11 4.399 4.399 0 0 1-1.041.42c-.176.047-.352.096-.526.148a1.768 1.768 0 0 0-.309.13.552.552 0 0 0-.298.408c-.02.101-.032.204-.05.305-.047.256-.139.35-.39.393a2.412 2.412 0 0 1-.266.03c-.224.012-.448.019-.672.03h-.018a5.53 5.53 0 0 0-2.527.804l-.123.073c-.31.188-.627.367-.966.498-.379.148-.77.236-1.175.272-.341.03-.681.026-1.02-.012a4.183 4.183 0 0 1-1.446-.438 9.251 9.251 0 0 1-.618-.354l-.034-.02a5.58 5.58 0 0 0-2.665-.828h-.02c-.198-.007-.394-.015-.592-.027a1.672 1.672 0 0 1-.343-.053.396.396 0 0 1-.276-.312l-.042-.24-.006-.054a.612.612 0 0 0-.37-.507 2.803 2.803 0 0 0-.416-.15c-.246-.069-.494-.13-.735-.216a4.244 4.244 0 0 1-.612-.273 1.908 1.908 0 0 1-.171-.106.647.647 0 0 1-.104-.085c-.098-.104-.088-.239.024-.326.064-.052.14-.086.214-.122a8.458 8.458 0 0 0 1.45-.895 6.583 6.583 0 0 0 1.7-1.899c.156-.269.285-.552.392-.844a2.17 2.17 0 0 0 .141-.59.541.541 0 0 0-.142-.406 1.684 1.684 0 0 0-.246-.203c-.13-.092-.26-.183-.392-.27-.283-.187-.568-.37-.85-.556a2.48 2.48 0 0 1-.352-.271 1.2 1.2 0 0 1-.204-.248.636.636 0 0 1-.039-.603.546.546 0 0 1 .27-.283.901.901 0 0 1 .533-.06c.195.032.383.093.568.16.19.068.377.142.566.214.088.033.176.066.27.08.022.003.044.01.066.009.108-.004.198-.039.197-.185 0-.07-.002-.141-.005-.212-.017-.351-.038-.702-.046-1.054-.02-.836-.017-1.676.202-2.489.134-.497.365-.96.678-1.37.649-.853 1.505-1.395 2.53-1.684a5.624 5.624 0 0 1 1.71-.192c.548.017 1.094.11 1.612.29a4.624 4.624 0 0 1 1.649.97c.54.503.956 1.09 1.182 1.802.102.321.167.65.206.984.082.691.06 1.386.053 2.08l-.003.002Z" />
</svg>