<svg xmlns="http://www.w3.org/2000/svg" width="24" height="24" fill="none" viewBox="0 0 24 24">
    <path fill="currentColor"
        d="m3.473 11.403.123-.06c.7-.326 1.41-.632 2.12-.938.038 0 .102-.045.138-.06l.164-.07.315-.136.632-.272 1.262-.544 2.524-1.088 2.525-1.087L15.8 6.06l2.525-1.087c.187-.081.39-.202.59-.237.169-.03.333-.089.503-.121.32-.061.675-.086.983.048a.934.934 0 0 1 .287.194c.39.39.335 1.029.253 1.576l-1.728 11.446c-.079.523-.186 1.098-.596 1.428-.348.28-.842.312-1.27.193-.43-.12-.808-.37-1.179-.617l-4.617-3.078c-.366-.244-.773-.562-.769-1.004.002-.267.16-.504.322-.715 1.337-1.757 3.266-2.964 4.702-4.64.202-.236.361-.662.083-.799-.165-.08-.355.03-.506.135l-5.691 3.981c-.619.433-1.268.878-2.014.984-.668.096-1.34-.091-1.985-.283a97.625 97.625 0 0 1-1.62-.494c-.287-.09-.583-.186-.804-.39-.22-.202-.348-.543-.215-.814.084-.17.246-.277.417-.364h.002Z" />
</svg>