<svg xmlns="http://www.w3.org/2000/svg" width="24" height="24" fill="none" viewBox="0 0 24 24">
    <path fill="currentColor"
        d="M14.78 16.177c-3.655 0-6.629-2.975-6.63-6.631a1.684 1.684 0 0 1 1.96-1.657c.198.033.386.1.559.201a.094.094 0 0 1 .046.067l.386 2.436a.092.092 0 0 1-.023.078 1.67 1.67 0 0 1-.788.491l-.146.041.055.141a4.945 4.945 0 0 0 2.782 2.784l.141.056.041-.146a1.67 1.67 0 0 1 .492-.79.092.092 0 0 1 .063-.023h.016l2.434.387a.097.097 0 0 1 .068.046 1.686 1.686 0 0 1 .224.839c0 .926-.753 1.68-1.68 1.68Z" />
    <path fill="currentColor"
        d="M21.264 11.197a8.972 8.972 0 0 0-2.874-5.819A8.966 8.966 0 0 0 12.303 3c-4.961 0-8.997 4.037-8.997 9 0 1.665.459 3.288 1.328 4.7l-1.939 4.294 6.209-.661a8.917 8.917 0 0 0 3.398.667c.309 0 .626-.017.944-.05a9.3 9.3 0 0 0 .842-.13c4.154-.84 7.187-4.527 7.21-8.772V12c0-.27-.011-.54-.035-.803ZM9.143 18.448l-3.435.367 1.026-2.273-.205-.276-.048-.063a7.123 7.123 0 0 1-1.36-4.202c0-3.962 3.222-7.184 7.182-7.184 3.71 0 6.855 2.895 7.158 6.591.016.198.025.398.025.594l-.002.17a7.165 7.165 0 0 1-6.38 6.969 7.104 7.104 0 0 1-3.83-.627l-.13-.064-.001-.002Z" />
</svg>