<svg xmlns="http://www.w3.org/2000/svg" width="24" height="24" fill="none" viewBox="0 0 24 24">
    <path fill="currentColor" fill-rule="evenodd"
        d="M17.229 19c.456.001.932-.008 1.397-.058l.001-.002c.915-.1 1.787-.362 2.375-1.042.593-.686.745-1.642.836-2.546.22-2.192.216-4.407-.009-6.6-.122-1.19-.386-2.506-1.359-3.197C19.716 5.019 18.725 5 17.801 5l-2.932.003c-.978 0-1.955.001-2.933.003l-2.82.002-2.82.003c-.105 0-.21 0-.314-.002-.675-.006-1.332-.012-1.964.283-.627.293-1.118.85-1.412 1.47-.409.863-.495 1.84-.545 2.793a45.407 45.407 0 0 0 .029 5.213c.079 1.266.282 2.665 1.257 3.472.865.715 2.085.751 3.205.751L17.229 19ZM9.877 8.927l5.305 3.074-5.305 3.075V8.927Z"
        clip-rule="evenodd" />
</svg>