<svg width="40" height="40" viewBox="0 0 100 100" fill="none" xmlns="http://www.w3.org/2000/svg">
    <path
        d="M50 100C77.6142 100 100 77.6142 100 50C100 22.3858 77.6142 0 50 0C22.3858 0 0 22.3858 0 50C0 77.6142 22.3858 100 50 100Z"
        fill="#F97415" />
    <path
        d="M56.1554 50.004C56.1554 46.6015 53.3972 43.8433 49.9947 43.8433C46.5922 43.8433 43.834 46.6015 43.834 50.004C43.834 53.4064 46.5922 56.1647 49.9947 56.1647C53.3972 56.1647 56.1554 53.4064 56.1554 50.004Z"
        fill="white" />
    <path
        d="M50.0008 80.8034V68.482C60.1914 68.482 68.483 60.1912 68.483 49.9999C68.483 39.8085 60.1922 31.5177 50.0008 31.5177C39.8095 31.5177 31.5187 39.8085 31.5187 49.9999H19.1973C19.1973 33.0148 33.0157 19.1963 50.0008 19.1963C66.9859 19.1963 80.8044 33.0148 80.8044 49.9999C80.8044 66.985 66.9859 80.8034 50.0008 80.8034Z"
        fill="white" />
    <path d="M43.8401 56.165L19.1973 64.4103L30.5022 69.503L35.5949 80.8079L43.8401 56.165Z"
        fill="white" />
</svg>