<svg width="110" height="18" viewBox="0 0 110 18" fill="none" xmlns="http://www.w3.org/2000/svg">
    <path d="M0 2C0 0.89543 0.89543 0 2 0H110V18H0V2Z" fill="white"/>
    <path d="M54.8471 9.04975C54.8471 8.60353 54.4853 8.24181 54.0391 8.24181C53.5929 8.24181 53.2312 8.60353 53.2312 9.04975C53.2312 9.49596 53.5929 9.85769 54.0391 9.85769C54.4853 9.85769 54.8471 9.49596 54.8471 9.04975Z" fill="#F97415"/>
    <path d="M54.0397 13.0894V11.4735C55.3761 11.4735 56.4635 10.3862 56.4635 9.04965C56.4635 7.71311 55.3763 6.62582 54.0397 6.62582C52.7032 6.62582 51.6159 7.71311 51.6159 9.04965H50C50 6.82215 51.8122 5.00994 54.0397 5.00994C56.2672 5.00994 58.0794 6.82215 58.0794 9.04965C58.0794 11.2771 56.2672 13.0894 54.0397 13.0894Z" fill="#F97415"/>
    <path d="M53.2318 9.85749L50 10.9388L51.4826 11.6067L52.1505 13.0893L53.2318 9.85749Z" fill="#F97415"/>
    <path d="M100.909 9.441V12.2814H99.7666V7.43377H100.859V8.25749H100.915C101.027 7.98607 101.205 7.77041 101.449 7.61051C101.695 7.4506 101.999 7.37065 102.361 7.37065C102.695 7.37065 102.987 7.44218 103.235 7.58526C103.485 7.72833 103.679 7.93558 103.816 8.20699C103.955 8.47841 104.023 8.80769 104.021 9.19483V12.2814H102.878V9.37157C102.878 9.04755 102.794 8.79401 102.626 8.61096C102.46 8.42792 102.229 8.33639 101.935 8.33639C101.735 8.33639 101.557 8.38058 101.401 8.46894C101.248 8.55521 101.127 8.6804 101.038 8.84451C100.952 9.00862 100.909 9.20745 100.909 9.441Z" fill="#F97415"/>
    <path d="M97.4493 12.2814V7.43377H98.5918V12.2814H97.4493ZM98.0237 6.74575C97.8427 6.74575 97.687 6.68579 97.5566 6.56586C97.4261 6.44383 97.3609 6.2976 97.3609 6.12717C97.3609 5.95464 97.4261 5.80841 97.5566 5.68849C97.687 5.56645 97.8427 5.50544 98.0237 5.50544C98.2067 5.50544 98.3624 5.56645 98.4908 5.68849C98.6212 5.80841 98.6864 5.95464 98.6864 6.12717C98.6864 6.2976 98.6212 6.44383 98.4908 6.56586C98.3624 6.68579 98.2067 6.74575 98.0237 6.74575Z" fill="#F97415"/>
    <path d="M96.4938 7.43377V8.31745H93.707V7.43377H96.4938ZM94.395 6.27235H95.5375V10.8233C95.5375 10.9769 95.5606 11.0948 95.6069 11.1768C95.6553 11.2568 95.7184 11.3115 95.7963 11.3409C95.8741 11.3704 95.9604 11.3851 96.0551 11.3851C96.1266 11.3851 96.1918 11.3799 96.2508 11.3693C96.3118 11.3588 96.3581 11.3493 96.3896 11.3409L96.5821 12.2341C96.5211 12.2551 96.4338 12.2783 96.3202 12.3035C96.2087 12.3288 96.0719 12.3435 95.9099 12.3477C95.6238 12.3561 95.366 12.313 95.1367 12.2183C94.9073 12.1215 94.7253 11.9721 94.5907 11.7701C94.4581 11.5682 94.3929 11.3157 94.395 11.0127V6.27235Z" fill="#F97415"/>
    <path d="M88.5185 14.0993V7.43377H89.642V8.2354H89.7083C89.7672 8.11757 89.8503 7.99238 89.9576 7.85983C90.0649 7.72517 90.2101 7.61051 90.3932 7.51582C90.5762 7.41904 90.8098 7.37065 91.0938 7.37065C91.4683 7.37065 91.806 7.46638 92.1069 7.65785C92.4099 7.84721 92.6497 8.12809 92.8265 8.5005C93.0053 8.87081 93.0947 9.32528 93.0947 9.86391C93.0947 10.3962 93.0074 10.8486 92.8328 11.221C92.6581 11.5934 92.4204 11.8775 92.1195 12.0731C91.8186 12.2688 91.4778 12.3666 91.097 12.3666C90.8192 12.3666 90.5888 12.3203 90.4058 12.2278C90.2227 12.1352 90.0755 12.0237 89.964 11.8932C89.8545 11.7607 89.7693 11.6355 89.7083 11.5177H89.661V14.0993H88.5185ZM89.6389 9.8576C89.6389 10.1711 89.6831 10.4457 89.7714 10.6813C89.8619 10.917 89.9913 11.1011 90.1596 11.2336C90.3301 11.3641 90.5362 11.4293 90.7782 11.4293C91.0307 11.4293 91.2421 11.362 91.4126 11.2273C91.583 11.0905 91.7113 10.9043 91.7976 10.6687C91.886 10.4309 91.9302 10.1606 91.9302 9.8576C91.9302 9.55672 91.887 9.28951 91.8008 9.05596C91.7145 8.82242 91.5862 8.63937 91.4157 8.50682C91.2453 8.37426 91.0328 8.30799 90.7782 8.30799C90.5341 8.30799 90.3269 8.37216 90.1565 8.5005C89.986 8.62885 89.8566 8.80874 89.7683 9.04018C89.682 9.27163 89.6389 9.5441 89.6389 9.8576Z" fill="#F97415"/>
    <path d="M87.462 9.04965C87.462 9.74608 87.3316 10.3426 87.0707 10.8391C86.8119 11.3336 86.4584 11.7123 86.0102 11.9753C85.5642 12.2383 85.0582 12.3698 84.4922 12.3698C83.9262 12.3698 83.4191 12.2383 82.971 11.9753C82.5249 11.7102 82.1715 11.3304 81.9106 10.836C81.6518 10.3394 81.5224 9.74398 81.5224 9.04965C81.5224 8.35322 81.6518 7.75779 81.9106 7.26334C82.1715 6.76679 82.5249 6.38702 82.971 6.12402C83.4191 5.86101 83.9262 5.72951 84.4922 5.72951C85.0582 5.72951 85.5642 5.86101 86.0102 6.12402C86.4584 6.38702 86.8119 6.76679 87.0707 7.26334C87.3316 7.75779 87.462 8.35322 87.462 9.04965ZM86.2848 9.04965C86.2848 8.55942 86.208 8.14598 86.0544 7.80933C85.9029 7.47059 85.6925 7.21495 85.4232 7.04242C85.1539 6.86779 84.8436 6.78047 84.4922 6.78047C84.1408 6.78047 83.8305 6.86779 83.5612 7.04242C83.2918 7.21495 83.0804 7.47059 82.9268 7.80933C82.7753 8.14598 82.6996 8.55942 82.6996 9.04965C82.6996 9.53989 82.7753 9.95438 82.9268 10.2931C83.0804 10.6298 83.2918 10.8854 83.5612 11.06C83.8305 11.2326 84.1408 11.3188 84.4922 11.3188C84.8436 11.3188 85.1539 11.2326 85.4232 11.06C85.6925 10.8854 85.9029 10.6298 86.0544 10.2931C86.208 9.95438 86.2848 9.53989 86.2848 9.04965Z" fill="#F97415"/>
    <path d="M75.608 12.2814L74.131 7.43377H74.9137L75.9615 11.1453H76.012L77.0471 7.43377H77.8425L78.865 11.1326H78.9155L79.9633 7.43377H80.746L79.269 12.2814H78.5368L77.4764 8.55731H77.4006L76.3402 12.2814H75.608Z" fill="#070707"/>
    <path d="M71.341 12.3824C70.9034 12.3824 70.5194 12.2783 70.1891 12.07C69.8609 11.8617 69.6042 11.5703 69.419 11.1957C69.236 10.8212 69.1444 10.3836 69.1444 9.88284C69.1444 9.37788 69.236 8.93709 69.419 8.56047C69.6042 8.18385 69.8609 7.89139 70.1891 7.68309C70.5194 7.4748 70.9034 7.37065 71.341 7.37065C71.7787 7.37065 72.1616 7.4748 72.4898 7.68309C72.8202 7.89139 73.0768 8.18385 73.2599 8.56047C73.4451 8.93709 73.5376 9.37788 73.5376 9.88284C73.5376 10.3836 73.4451 10.8212 73.2599 11.1957C73.0768 11.5703 72.8202 11.8617 72.4898 12.07C72.1616 12.2783 71.7787 12.3824 71.341 12.3824ZM71.341 11.7133C71.6735 11.7133 71.947 11.6281 72.1616 11.4577C72.3762 11.2873 72.5351 11.0632 72.6382 10.7855C72.7413 10.5077 72.7928 10.2069 72.7928 9.88284C72.7928 9.55882 72.7413 9.2569 72.6382 8.97706C72.5351 8.69723 72.3762 8.47105 72.1616 8.29852C71.947 8.12599 71.6735 8.03972 71.341 8.03972C71.0086 8.03972 70.7351 8.12599 70.5205 8.29852C70.3059 8.47105 70.147 8.69723 70.0439 8.97706C69.9408 9.2569 69.8893 9.55882 69.8893 9.88284C69.8893 10.2069 69.9408 10.5077 70.0439 10.7855C70.147 11.0632 70.3059 11.2873 70.5205 11.4577C70.7351 11.6281 71.0086 11.7133 71.341 11.7133Z" fill="#070707"/>
    <path d="M62.662 12.2814L60.8946 5.81788H61.6899L63.0407 11.0821H63.1038L64.4798 5.81788H65.3635L66.7396 11.0821H66.8027L68.1535 5.81788H68.9488L67.1814 12.2814H66.3735L64.9469 7.13079H64.8964L63.4699 12.2814H62.662Z" fill="#070707"/>
    <path d="M6.70455 6.18182H7.54545L9.52273 11.0114H9.59091L11.5682 6.18182H12.4091V12H11.75V7.57955H11.6932L9.875 12H9.23864L7.42045 7.57955H7.36364V12H6.70455V6.18182ZM15.0149 12.1023C14.7384 12.1023 14.4875 12.0502 14.2621 11.946C14.0367 11.84 13.8577 11.6875 13.7251 11.4886C13.5926 11.2879 13.5263 11.0455 13.5263 10.7614C13.5263 10.5114 13.5755 10.3087 13.674 10.1534C13.7725 9.99621 13.9041 9.87311 14.0689 9.78409C14.2337 9.69508 14.4155 9.62879 14.6143 9.58523C14.8151 9.53977 15.0168 9.50379 15.2195 9.47727C15.4846 9.44318 15.6996 9.41761 15.8643 9.40057C16.031 9.38163 16.1522 9.35038 16.228 9.30682C16.3056 9.26326 16.3445 9.1875 16.3445 9.07955V9.05682C16.3445 8.77652 16.2678 8.55871 16.1143 8.40341C15.9628 8.24811 15.7327 8.17045 15.424 8.17045C15.1039 8.17045 14.853 8.24053 14.6712 8.38068C14.4893 8.52083 14.3615 8.67045 14.2876 8.82955L13.6513 8.60227C13.7649 8.33712 13.9164 8.13068 14.1058 7.98295C14.2971 7.83333 14.5054 7.72917 14.7308 7.67045C14.9581 7.60985 15.1816 7.57955 15.4013 7.57955C15.5414 7.57955 15.7024 7.59659 15.8842 7.63068C16.0679 7.66288 16.245 7.73011 16.4155 7.83239C16.5878 7.93466 16.7308 8.08902 16.8445 8.29545C16.9581 8.50189 17.0149 8.77841 17.0149 9.125V12H16.3445V11.4091H16.3104C16.2649 11.5038 16.1892 11.6051 16.0831 11.7131C15.977 11.821 15.8359 11.9129 15.6598 11.9886C15.4837 12.0644 15.2687 12.1023 15.0149 12.1023ZM15.1172 11.5C15.3823 11.5 15.6058 11.4479 15.7876 11.3438C15.9714 11.2396 16.1096 11.1051 16.2024 10.9403C16.2971 10.7756 16.3445 10.6023 16.3445 10.4205V9.80682C16.3161 9.84091 16.2536 9.87216 16.157 9.90057C16.0623 9.92708 15.9524 9.95076 15.8274 9.97159C15.7043 9.99053 15.584 10.0076 15.4666 10.0227C15.3511 10.036 15.2573 10.0473 15.1854 10.0568C15.0111 10.0795 14.8482 10.1165 14.6967 10.1676C14.5471 10.2169 14.4259 10.2917 14.3331 10.392C14.2422 10.4905 14.1967 10.625 14.1967 10.7955C14.1967 11.0284 14.2829 11.2045 14.4553 11.3239C14.6295 11.4413 14.8501 11.5 15.1172 11.5ZM19.8864 12.0909C19.5227 12.0909 19.2017 11.9991 18.9233 11.8153C18.6449 11.6297 18.4271 11.3684 18.2699 11.0312C18.1127 10.6922 18.0341 10.2917 18.0341 9.82955C18.0341 9.37121 18.1127 8.97348 18.2699 8.63636C18.4271 8.29924 18.6458 8.03883 18.9261 7.85511C19.2064 7.6714 19.5303 7.57955 19.8977 7.57955C20.1818 7.57955 20.4063 7.62689 20.571 7.72159C20.7377 7.81439 20.8646 7.92045 20.9517 8.03977C21.0407 8.1572 21.1098 8.25379 21.1591 8.32955H21.2159V6.18182H21.8864V12H21.2386V11.3295H21.1591C21.1098 11.4091 21.0398 11.5095 20.9489 11.6307C20.858 11.75 20.7282 11.857 20.5597 11.9517C20.3911 12.0445 20.1667 12.0909 19.8864 12.0909ZM19.9773 11.4886C20.2462 11.4886 20.4735 11.4186 20.6591 11.2784C20.8447 11.1364 20.9858 10.9403 21.0824 10.6903C21.179 10.4384 21.2273 10.1477 21.2273 9.81818C21.2273 9.49242 21.1799 9.20739 21.0852 8.96307C20.9905 8.71686 20.8504 8.52557 20.6648 8.3892C20.4792 8.25095 20.25 8.18182 19.9773 8.18182C19.6932 8.18182 19.4564 8.25473 19.267 8.40057C19.0795 8.54451 18.9384 8.74053 18.8438 8.98864C18.7509 9.23485 18.7045 9.51136 18.7045 9.81818C18.7045 10.1288 18.7519 10.411 18.8466 10.6648C18.9432 10.9167 19.0852 11.1174 19.2727 11.267C19.4621 11.4148 19.697 11.4886 19.9773 11.4886ZM25.0369 12.0909C24.6165 12.0909 24.2538 11.9981 23.9489 11.8125C23.6458 11.625 23.4119 11.3636 23.2472 11.0284C23.0843 10.6913 23.0028 10.2992 23.0028 9.85227C23.0028 9.4053 23.0843 9.01136 23.2472 8.67045C23.4119 8.32765 23.6411 8.06061 23.9347 7.86932C24.2301 7.67614 24.5748 7.57955 24.9688 7.57955C25.196 7.57955 25.4205 7.61742 25.642 7.69318C25.8636 7.76894 26.0653 7.89205 26.2472 8.0625C26.429 8.23106 26.5739 8.45455 26.6818 8.73295C26.7898 9.01136 26.8438 9.35417 26.8438 9.76136V10.0455H23.4801V9.46591H26.1619C26.1619 9.2197 26.1127 9 26.0142 8.80682C25.9176 8.61364 25.7794 8.46117 25.5994 8.34943C25.4214 8.23769 25.2112 8.18182 24.9688 8.18182C24.7017 8.18182 24.4706 8.24811 24.2756 8.38068C24.0824 8.51136 23.9337 8.68182 23.8295 8.89205C23.7254 9.10227 23.6733 9.32765 23.6733 9.56818V9.95455C23.6733 10.2841 23.7301 10.5634 23.8438 10.7926C23.9593 11.0199 24.1193 11.1932 24.3239 11.3125C24.5284 11.4299 24.7661 11.4886 25.0369 11.4886C25.2131 11.4886 25.3722 11.464 25.5142 11.4148C25.6581 11.3636 25.7822 11.2879 25.8864 11.1875C25.9905 11.0852 26.071 10.9583 26.1278 10.8068L26.7756 10.9886C26.7074 11.2083 26.5928 11.4015 26.4318 11.5682C26.2708 11.733 26.072 11.8617 25.8352 11.9545C25.5985 12.0455 25.3324 12.0909 25.0369 12.0909ZM31.1023 12L29.7727 7.63636H30.4773L31.4205 10.9773H31.4659L32.3977 7.63636H33.1136L34.0341 10.9659H34.0795L35.0227 7.63636H35.7273L34.3977 12H33.7386L32.7841 8.64773H32.7159L31.7614 12H31.1023ZM36.6136 12V7.63636H37.2841V12H36.6136ZM36.9545 6.90909C36.8239 6.90909 36.7112 6.86458 36.6165 6.77557C36.5237 6.68655 36.4773 6.57955 36.4773 6.45455C36.4773 6.32955 36.5237 6.22254 36.6165 6.13352C36.7112 6.04451 36.8239 6 36.9545 6C37.0852 6 37.197 6.04451 37.2898 6.13352C37.3845 6.22254 37.4318 6.32955 37.4318 6.45455C37.4318 6.57955 37.3845 6.68655 37.2898 6.77557C37.197 6.86458 37.0852 6.90909 36.9545 6.90909ZM40.4098 7.63636V8.20455H38.1484V7.63636H40.4098ZM38.8075 6.59091H39.478V10.75C39.478 10.9394 39.5054 11.0814 39.5604 11.1761C39.6172 11.2689 39.6892 11.3314 39.7763 11.3636C39.8653 11.3939 39.959 11.4091 40.0575 11.4091C40.1314 11.4091 40.192 11.4053 40.2393 11.3977C40.2867 11.3883 40.3246 11.3807 40.353 11.375L40.4893 11.9773C40.4439 11.9943 40.3804 12.0114 40.299 12.0284C40.2176 12.0473 40.1143 12.0568 39.9893 12.0568C39.8 12.0568 39.6143 12.0161 39.4325 11.9347C39.2526 11.8532 39.103 11.7292 38.9837 11.5625C38.8662 11.3958 38.8075 11.1856 38.8075 10.9318V6.59091ZM42.1825 9.375V12H41.5121V6.18182H42.1825V8.31818H42.2393C42.3416 8.0928 42.495 7.91383 42.6996 7.78125C42.906 7.64678 43.1806 7.57955 43.5234 7.57955C43.8208 7.57955 44.0812 7.6392 44.3047 7.75852C44.5282 7.87595 44.7015 8.05682 44.8246 8.30114C44.9496 8.54356 45.0121 8.85227 45.0121 9.22727V12H44.3416V9.27273C44.3416 8.92614 44.2517 8.65814 44.0717 8.46875C43.8937 8.27746 43.6465 8.18182 43.3303 8.18182C43.1106 8.18182 42.9136 8.22822 42.7393 8.32102C42.567 8.41383 42.4306 8.54924 42.3303 8.72727C42.2318 8.9053 42.1825 9.12121 42.1825 9.375Z" fill="#070707"/>
    </svg>
    