<svg xmlns="http://www.w3.org/2000/svg" width="28" height="28" fill="none" viewBox="0 0 28 28">
  <path fill="#100f0d"
    d="M26.995 8.852c-1.306-.028-2.268.292-2.6 1.261l.033.012s-.001.1-.066.2a2.4 2.4 0 0 0-.065.501l-.012-.004q-.012.4.045.905l-.004-.005c.065.33.326 1.568.62 3.005l-.03.004.065.334h-.004c.334 1.66.652 3.513.652 4.513l-.004.005c0 1.315-.339 2.42-.9 3.331l.025.009s-.065.135-.195.3l-.022.028.026.008C22.577 26.064 18.255 27 14.454 27c-1.725 0-2.503-.035-2.796-.035l-.065-.335c3.307-1.235 5.092-3.17 5.584-5.603l-.03-.008c.035-.152.06-.199.08-.253.017-.127.02-.218.02-.218l.016.005c.01-.15.015-.41.015-.906 0-1.367-.13-2.57-.358-3.742l.015-.003c-.025-.147-.043-.268-.043-.268q0-.001.005-.002c-.287-1.384-.68-2.818-1.047-4.577-.26-1.168-.196-2.27.13-3.206h.003c.713-2.073 2.662-3.475 5.392-3.475h5.62z" />
  <path fill="#100f0d"
    d="M9.741 4.376h2.406v4.478h-2.113l-.293-.038v.002l.293.037h-.293v8.35h-.004c0 .619.017 1.223.098 1.786l.036-.014s.062.343.125.638l.006-.002c.423 1.669 1.396 2.84 3.703 2.84.38 0 1.016-.034 1.347-.098-1.58 3.078-6.413 4.24-6.413 4.24-2.473-.409-4.602-1.551-5.98-3.323l-.031.013s-.098-.1-.26-.336h-.002l-.003.001a8 8 0 0 1-.272-.438C1.388 21.3 1 19.874 1 18.206V6.881C1 2.869 3.405 1 8.053 1H9.74zM15.072 22.354h-.004q-.007 0-.016.002l.02-.038z" />
</svg>