<svg xmlns="http://www.w3.org/2000/svg" width="28" height="28" fill="currentColor" viewBox="0 0 28 28">
  <path d="M9.024 13.982V5.367h5.247c1.773 0 2.943 1.024 2.943 2.577 0 1.764-1.524 3.106-4.644 4.13-2.127.67-3.084 1.235-3.439 1.906l-.107.001Zm0 8.648v-3.6c0-1.589 1.348-3.142 3.227-3.742 1.667-.565 3.048-1.13 4.219-1.73 1.56.92 2.517 2.506 2.517 4.166 0 2.823-2.695 4.906-6.347 4.906H9.024Zm-3.19 3.035h7.09c5.39 0 9.43-3.353 9.43-7.8 0-2.437-1.24-4.624-3.439-6.037 1.135-1.13 1.667-2.436 1.667-4.025 0-3.282-2.376-5.471-5.956-5.471H5.834v23.333Z"/>
</svg>
