<svg xmlns="http://www.w3.org/2000/svg" width="50" height="28" fill="currentColor" viewBox="0 0 50 28">
	<path d="M13.522 12.129c6.074 1.175 7.96 6.798 8.01 12.454a.229.229 0 0 1-.23.231h-7.646a.23.23 0 0 1-.23-.228c-.023-4.388-.733-8.26-5.081-8.427a.23.23 0 0 0-.238.229v8.197a.229.229 0 0 1-.229.23H.23a.229.229 0 0 1-.229-.23V3.698a.23.23 0 0 1 .23-.23h7.647a.23.23 0 0 1 .229.23v7.824a.21.21 0 0 0 .41.062c1.97-6.452 5.65-8.075 11.624-8.115a.23.23 0 0 1 .23.23v7.804a.229.229 0 0 1-.228.23H13.56a.2.2 0 0 0-.038.396Zm20.937 4.891v-5.059c0-.126.102-.229.229-.229h5.627a.2.2 0 0 0 .038-.397c-4.403-.873-6.436-3.408-6.506-7.637a.225.225 0 0 1 .225-.23h8.263a.23.23 0 0 1 .23.23V7.26c0 .127.102.23.228.23h4.739c.126 0 .228.102.228.228v3.785a.229.229 0 0 1-.228.23h-4.739a.229.229 0 0 0-.229.228v4.08c0 1.442.884 1.918 2.06 1.918 1.841 0 3.658-.83 4.387-1.206a.229.229 0 0 1 .334.203v6.352c0 .17-.094.326-.244.405-.72.378-2.944 1.428-5.488 1.428-5.233 0-9.154-2.133-9.154-8.12ZM23.7 24.585V11.961a.23.23 0 0 1 .23-.23h7.647a.23.23 0 0 1 .229.23v12.624a.229.229 0 0 1-.229.23H23.93a.229.229 0 0 1-.229-.23Zm-.433-17.839c0 2.15 1.518 3.891 4.433 3.891 2.916 0 4.433-1.742 4.433-3.89 0-2.15-1.518-3.892-4.433-3.892s-4.433 1.743-4.433 3.891Z"/>
</svg>
