<svg xmlns="http://www.w3.org/2000/svg" width="28" height="28" fill="currentColor" viewBox="0 0 28 28">
  <path fill-rule="evenodd" d="M13.791 19.032c1.984-.005 4.032-.585 6.057-1.899 2.366-1.533 4.7-4.07 6.866-7.863v12.177c0 .603-.49 1.102-1.103 1.102H1.977c-.612 0-1.102-.49-1.102-1.102V7.21c0-.603.49-1.102 1.103-1.085h23.625c.35 0 .656.158.857.412-1.864 2.909-4.375 5.667-7.164 7.344-1.759 1.052-3.628 1.673-5.515 1.633l-.017.008c-1.803-.035-3.85-.56-5.6-1.986a8.827 8.827 0 0 1-3.098-5.084h-.542c-.367 0-.665.149-.87.372a1.196 1.196 0 0 0-.312.985c.027.149.053.315.08.49.375 2.301 1.75 4.9 4.024 6.571 1.766 1.303 3.96 2.16 6.345 2.162Z" clip-rule="evenodd"/>
</svg>
