<svg xmlns="http://www.w3.org/2000/svg" width="28" height="28" fill="currentColor" viewBox="0 0 28 28">
  <path d="M19.95 10.032v-2.8c.7-.35 1.282-1.05 1.282-1.867V5.25a2.09 2.09 0 0 0-2.1-2.1h-.116a2.09 2.09 0 0 0-2.1 2.1v.116c0 .817.466 1.517 1.283 1.867v2.8c-1.05.117-2.1.584-2.917 1.284l-7.7-5.95c.35-1.284-.466-2.684-1.75-2.917-1.283-.234-2.566.35-2.916 1.633-.35 1.283.466 2.683 1.75 3.033.583.117 1.283.117 1.866-.233L14 12.716c-1.4 2.1-1.4 4.783.117 6.883l-2.334 2.333c-.233 0-.35-.116-.583-.116-1.05 0-1.983.933-1.983 1.983s.933 1.867 1.983 1.867 1.983-.934 1.983-1.984c0-.233 0-.35-.116-.583l2.216-2.217c2.684 1.983 6.534 1.517 8.517-1.167 1.983-2.683 1.517-6.533-1.167-8.516-.7-.583-1.633-1.05-2.683-1.167Zm-.934 9.1c-1.75 0-3.15-1.4-3.15-3.15s1.4-3.15 3.15-3.15 3.15 1.4 3.15 3.15-1.4 3.15-3.15 3.15Z"/>
</svg>
