<svg width="28" height="28" viewBox="0 0 28 28" fill="none" xmlns="http://www.w3.org/2000/svg">
<path d="M7.56165 15.9664C8.16896 15.9664 8.5854 15.8321 8.81097 15.5802C9.03894 15.33 9.16264 15.0068 9.158 14.6733V6.99863L12.1078 14.5725C12.2361 14.924 12.4575 15.2367 12.7498 15.4794C13.0274 15.6977 13.4439 15.8153 13.9991 15.8153C14.3551 15.8191 14.7066 15.7384 15.0229 15.5802C15.353 15.3964 15.5959 15.0951 15.6996 14.7405L18.8402 6.34368V14.6061C18.8184 14.9806 18.9493 15.3484 19.2046 15.6305C19.4475 15.8657 19.8466 16 20.4019 16C21.0092 16 21.4256 15.8657 21.6512 15.6137C21.8792 15.3636 22.0029 15.0404 21.9982 14.7069V2.46436C22.0099 2.24746 21.9633 2.03134 21.863 1.83707C21.7626 1.64281 21.6119 1.47705 21.4256 1.35598C21.0612 1.12087 20.558 1.00331 19.9334 1.00331C19.3691 0.980374 18.8081 1.09591 18.3023 1.33919C17.869 1.59814 17.5529 2.00606 17.4174 2.48115L14.0165 12.2718L10.4594 2.41398C10.3192 1.99584 10.0459 1.63137 9.67855 1.37277C9.31417 1.12087 8.81097 1.00331 8.15161 1.00331C7.6128 0.9778 7.0775 1.10004 6.60731 1.35598C6.20822 1.60788 6 2.01093 6 2.56512V14.5725C6 15.0428 6.12146 15.3786 6.34703 15.6137C6.60731 15.8489 6.98904 15.9664 7.56165 15.9664Z" fill="#100F0D"/>
<path d="M26.4863 20.5568L26.0758 20.2492C25.8434 20.0796 25.556 19.9918 25.2627 20.0006C24.9694 20.0095 24.6885 20.1145 24.468 20.2977C23.8687 20.774 23.1125 21.0374 22.33 21.0424H18.6698C17.8341 21.0416 17.0066 21.197 16.2346 21.4998C15.4626 21.8027 14.7615 22.2469 14.1715 22.807L13.9833 23.0013L13.7952 22.8232C12.6017 21.6945 10.984 21.0599 9.29687 21.0586H5.61954C4.84275 21.0506 4.09303 20.7874 3.49866 20.3139C3.28002 20.1272 2.99852 20.0198 2.70417 20.0109C2.40982 20.002 2.12167 20.0922 1.89089 20.2654L1.4804 20.5729C1.33783 20.6802 1.22128 20.8152 1.13865 20.9689C1.05602 21.1225 1.00925 21.2911 1.00149 21.4633C0.992447 21.6364 1.02465 21.8093 1.0957 21.969C1.16676 22.1287 1.27485 22.2713 1.41198 22.3861C2.5697 23.3668 4.0659 23.9137 5.61954 23.9241H9.31397C10.0482 23.9237 10.7623 24.1517 11.3463 24.5729C11.9304 24.994 12.3521 25.5852 12.5466 26.2553V26.2877C12.5637 26.401 12.7519 27 14.0004 27C15.249 27 15.4372 26.401 15.4543 26.2877V26.2553C15.6488 25.5852 16.0705 24.994 16.6545 24.5729C17.2386 24.1517 17.9526 23.9237 18.6869 23.9241H22.3813C23.935 23.9137 25.4312 23.3668 26.5889 22.3861C26.7234 22.2693 26.8297 22.1264 26.9005 21.9671C26.9714 21.8079 27.0051 21.6361 26.9994 21.4633C26.9852 21.2868 26.9323 21.1149 26.8439 20.9588C26.7555 20.8027 26.6337 20.6658 26.4863 20.5568Z" fill="#100F0D"/>
</svg>
