<svg xmlns="http://www.w3.org/2000/svg" width="28" height="28" fill="currentColor" viewBox="0 0 28 28">
  <path d="M18.991 13.425c.155-.02.3-.02.435 0 .077-.18.091-.49.023-.826-.106-.5-.247-.803-.538-.754-.293.047-.305.408-.199.909.059.28.164.52.28.67Zm-2.507.395c.21.091.338.15.386.1.034-.032.025-.098-.026-.18a1.225 1.225 0 0 0-.54-.432 1.471 1.471 0 0 0-1.433.17c-.14.103-.271.244-.255.33.008.027.027.05.076.059.115.013.518-.192.983-.22.33-.023.599.08.809.173Zm-.421.24c-.27.042-.421.131-.517.217-.083.073-.132.15-.132.207l.021.049.043.016c.062 0 .2-.053.2-.053.378-.135.629-.12.877-.091.137.016.2.023.231-.024.008-.014.021-.04-.008-.086-.065-.106-.34-.28-.715-.236Zm2.081.881c.186.091.389.054.455-.08.069-.134-.028-.318-.213-.407-.185-.093-.389-.058-.455.077-.067.134.03.32.213.41Zm1.188-1.04c-.15-.002-.273.162-.278.37-.003.206.117.374.267.375.15.001.274-.162.278-.367.003-.206-.116-.374-.267-.377ZM9.247 17.616c-.037-.046-.099-.034-.159-.017-.042.008-.088.02-.138.018a.314.314 0 0 1-.258-.129c-.069-.105-.066-.262.011-.441l.035-.08c.122-.27.321-.723.096-1.153a1.027 1.027 0 0 0-.783-.57 1.003 1.003 0 0 0-.862.312c-.331.365-.381.864-.318 1.042.024.065.061.083.087.086.056.008.139-.034.191-.175l.017-.044c.023-.075.066-.215.137-.324a.607.607 0 0 1 .837-.176.59.59 0 0 1 .222.71c-.052.141-.135.41-.117.63.037.447.315.626.56.649.24.008.408-.127.451-.226.025-.061.004-.098-.009-.112Z"/>
  <path d="M23.125 16.797c-.011-.034-.072-.252-.152-.513l-.168-.448c.328-.494.334-.932.29-1.182a1.517 1.517 0 0 0-.434-.845c-.259-.27-.79-.55-1.534-.76l-.39-.108c-.003-.017-.022-.921-.037-1.31-.013-.28-.036-.719-.172-1.15-.164-.586-.445-1.094-.798-1.425.974-1.008 1.58-2.12 1.58-3.073-.004-1.832-2.256-2.39-5.031-1.24l-.587.25a497.62 497.62 0 0 0-1.078-1.056c-3.167-2.76-13.058 8.237-9.894 10.907l.692.585a3.383 3.383 0 0 0-.194 1.569c.076.736.454 1.44 1.068 1.984.583.516 1.352.845 2.095.844 1.231 2.837 4.043 4.575 7.34 4.675 3.537.105 6.505-1.556 7.751-4.538.08-.208.426-1.151.426-1.983-.001-.838-.474-1.184-.773-1.183Zm-14.473 2.23c-.108.02-.217.028-.327.025-1.068-.03-2.222-.991-2.337-2.131-.127-1.26.517-2.23 1.658-2.46a1.9 1.9 0 0 1 .479-.036c.639.038 1.58.528 1.795 1.92.191 1.23-.112 2.487-1.268 2.683Zm-1.191-5.322a2.718 2.718 0 0 0-1.719 1.097c-.23-.191-.655-.56-.73-.704-.611-1.16.666-3.417 1.56-4.69 2.204-3.148 5.66-5.53 7.26-5.1.259.075 1.12 1.075 1.12 1.075s-1.598.885-3.082 2.122c-1.997 1.54-3.507 3.775-4.41 6.2Zm11.213 4.851a.058.058 0 0 0 .035-.063.058.058 0 0 0-.043-.05.057.057 0 0 0-.023-.002s-1.673.247-3.254-.33c.172-.559.632-.36 1.323-.302a9.683 9.683 0 0 0 3.191-.346c.716-.206 1.656-.611 2.386-1.187.247.542.334 1.137.334 1.137s.19-.034.35.064c.152.094.261.286.187.783-.156.931-.55 1.686-1.216 2.381-.415.45-.91.819-1.457 1.09-.305.16-.623.296-.95.404-2.507.817-5.074-.082-5.901-2.015a3.5 3.5 0 0 1-.166-.457c-.352-1.274-.053-2.8.881-3.764.06-.06.12-.133.12-.224 0-.075-.05-.155-.09-.214-.327-.473-1.463-1.282-1.234-2.846.162-1.125 1.146-1.916 2.063-1.87l.233.015c.397.023.743.073 1.07.088.548.022 1.04-.057 1.623-.542.197-.166.355-.307.62-.351.029-.007.099-.03.237-.025a.81.81 0 0 1 .4.127c.467.31.534 1.064.56 1.616.013.314.052 1.076.064 1.293.03.5.162.57.425.657.15.051.29.086.494.146.617.171.986.35 1.217.575.12.116.196.269.219.434.076.533-.412 1.19-1.698 1.788-1.407.652-3.113.818-4.292.686l-.413-.046c-.945-.127-1.48 1.091-.914 1.926.365.537 1.358.887 2.353.887 2.278.003 4.03-.97 4.684-1.813l.051-.073c.03-.049.006-.073-.035-.048-.53.364-2.896 1.81-5.426 1.377 0 0-.308-.052-.588-.161-.222-.084-.69-.301-.745-.78 2.038.634 3.325.037 3.325.035Zm-7.14-9.16c.784-.905 1.748-1.694 2.614-2.135.03-.016.06.017.045.044-.108.186-.19.385-.243.593-.007.031.027.057.054.037.539-.366 1.474-.76 2.295-.808a.035.035 0 0 1 .04.022.035.035 0 0 1-.015.042 1.983 1.983 0 0 0-.362.363c-.016.023 0 .057.028.057.577.003 1.39.204 1.918.502.035.02.01.09-.029.08-.803-.183-2.113-.323-3.475.01-1.218.296-2.147.753-2.822 1.247-.036.023-.076-.023-.048-.054Z"/>
</svg>
