<svg xmlns="http://www.w3.org/2000/svg" width="28" height="28" fill="currentColor" viewBox="0 0 28 28">
  <path d="M22.23 17.239V6.319a2.629 2.629 0 0 0-2.623-2.63H8.4a2.626 2.626 0 0 0-2.629 2.63v10.92a2.63 2.63 0 0 0 2.63 2.629h2.738l-2.233.697 1.782 5.668 8.393-2.657-1.16-3.722h1.68a2.636 2.636 0 0 0 2.629-2.615Z"/>
  <path d="M13.987 13.904c-3.832 0-7 1.045-8.64 2.507a3.471 3.471 0 0 0 3.456 3.49H19.11c2.028 0 3.544-1.51 3.55-3.408-1.645-1.462-4.827-2.582-8.665-2.582"/>
  <path d="M13.345 10.279c.109-.43-.021-.833-.287-.902-.267-.068-.574.232-.683.656-.11.423.02.833.287.901.266.069.573-.232.682-.655Zm1.543.013c.123.424.437.71.697.636.259-.076.382-.485.259-.916-.123-.43-.437-.696-.696-.635-.267.069-.383.492-.26.915Zm-3.585 6.836c-.362-.614-.963-.928-1.346-.696-.382.232-.403.908-.034 1.523.362.615.963.929 1.345.71.383-.218.403-.908.041-1.523m7.294.847c.362-.628.341-1.298-.04-1.53-.383-.232-.984.096-1.346.71-.362.615-.342 1.298.034 1.523.382.219.99-.095 1.352-.703Zm3.503-.854a2.754 2.754 0 0 1-2.752 2.739H8.755a2.751 2.751 0 0 1-2.752-2.745v-1.115c1.748-1.215 4.63-2.042 8.045-2.042s6.31.888 8.065 2.11l-.006 1.052Zm0-1.898c-1.768-1.25-4.684-2.001-8.065-2.001-3.346 0-6.262.758-8.045 1.994V6.516a2.753 2.753 0 0 1 2.752-2.752h10.606a2.753 2.753 0 0 1 2.753 2.752v8.72Zm-12.442 5.92 2.601 1.312-1.345 2.622-1.256-3.933Zm1.837 4.44 1.434-2.793 1.625.82.929-1.66 2.868 1.447-6.856 2.186Zm3.851-4.951-1.106 1.994-3.947-1.994h5.053Zm3.258 2.076-2.78-1.394.383-.676h1.748l.649 2.07Zm8.735-15.475L21.17 3.66a3.708 3.708 0 0 0-1.912-.649C18.186.452 17.292 2.254 17.005 3h-5.873C10.06.46 9.172 2.269 8.885 3a3.64 3.64 0 0 0-2.151.724L.649 7.24s2.445 1.96 4.582.88v8.763a3.76 3.76 0 0 0 3.531 3.749v.116l.02.11v.04l1.592 5a.89.89 0 0 0 .11.211c.02.027.047.055.074.082a.768.768 0 0 0 .574.253.866.866 0 0 0 .232-.034l7.621-2.404a.8.8 0 0 0 .499-.465.877.877 0 0 0 .048-.232v-.034a.661.661 0 0 0-.034-.232l-.752-2.39h.417a3.724 3.724 0 0 0 3.688-3.723l-.082-8.802c2.138 1.079 4.582-.875 4.582-.875"/>
</svg>
