<svg xmlns="http://www.w3.org/2000/svg" width="28" height="28" fill="currentColor" viewBox="0 0 28 28">
  <path d="M12.203 22.167c-1.704 2.415-5.029 3.022-7.432 1.342C2.38 21.829 1.82 18.48 3.5 16.042a5.355 5.355 0 0 1 4.177-2.31l.058 1.668a3.698 3.698 0 0 0-2.753 1.587c-1.167 1.68-.805 3.944.793 5.075 1.61 1.12 3.862.688 5.029-.98a3.89 3.89 0 0 0 .653-1.68v-1.178l6.51-.047.082-.128c.618-1.073 1.96-1.447 3.01-.84a2.217 2.217 0 0 1 .793 3.033c-.618 1.062-1.971 1.435-3.021.828a2.068 2.068 0 0 1-.969-1.19l-4.748.024c-.14.81-.45 1.581-.91 2.263Zm8.493-8.33c2.952.362 5.052 3.01 4.69 5.915-.361 2.917-3.045 4.982-5.996 4.62a5.401 5.401 0 0 1-4.002-2.578l1.446-.84a3.756 3.756 0 0 0 2.707 1.691c2.042.245 3.85-1.143 4.095-3.091.245-1.948-1.201-3.733-3.22-3.978a3.95 3.95 0 0 0-1.785.21l-.991.513-3.01-5.565h-.257a2.224 2.224 0 0 1-2.159-2.275c.035-1.214 1.085-2.159 2.31-2.112 1.226.07 2.194 1.062 2.159 2.275a2.19 2.19 0 0 1-.537 1.342l2.217 4.095a5.544 5.544 0 0 1 2.333-.222ZM9.624 10.664c-1.166-2.742.07-5.88 2.765-7.024 2.707-1.143 5.834.152 7 2.894a5.373 5.373 0 0 1-.233 4.748l-1.447-.84a3.7 3.7 0 0 0 .105-3.185c-.793-1.867-2.905-2.765-4.713-2.007-1.82.77-2.637 2.917-1.843 4.784a3.74 3.74 0 0 0 1.54 1.761l.455.245-3.582 5.822c.035.059.082.129.117.222a2.197 2.197 0 0 1-.899 2.975c-1.061.572-2.403.151-2.986-.945-.572-1.085-.175-2.427.898-2.998a2.065 2.065 0 0 1 1.435-.199l2.695-4.398a5.149 5.149 0 0 1-1.307-1.855Z"/>
</svg>
