<svg width="28" height="28" viewBox="0 0 28 28" fill="none" xmlns="http://www.w3.org/2000/svg">
<path d="M17.2499 14.0057C17.2495 14.9718 17.0726 15.8962 16.7507 16.7503C15.897 17.0722 14.9718 17.2491 14.0053 17.2503H13.9943C13.0286 17.2491 12.1034 17.0726 11.2497 16.7507C10.9278 15.897 10.7505 14.9718 10.7501 14.0057V13.9943C10.7505 13.0286 10.9274 12.1034 11.2489 11.2501C12.1026 10.9278 13.0282 10.7505 13.9943 10.7501H14.0053C14.9718 10.7505 15.897 10.9278 16.7507 11.2501C17.0726 12.1034 17.2495 13.0286 17.2499 13.9943V14.0057ZM26.8195 11.8334H19.231L24.5965 6.46756C24.1749 5.87526 23.7048 5.31972 23.1921 4.80707C22.6795 4.29483 22.1239 3.82507 21.532 3.40352L16.1662 8.76936V1.18096C15.464 1.06291 14.7426 1.00041 14.0065 1H13.9931C13.257 1.00041 12.536 1.06291 11.8334 1.18096V8.76936L6.46756 3.40352C5.87526 3.82507 5.32013 4.29483 4.8083 4.80748L4.80544 4.80952C4.29361 5.32135 3.82467 5.87607 3.40311 6.46756L8.76936 11.8334H1.18096C1.18096 11.8334 1 13.2586 1 13.9955V14.0045C1 14.7414 1.0625 15.4636 1.18096 16.1666H8.76936L3.40311 21.5324C4.24704 22.7166 5.28336 23.7534 6.46756 24.5969L11.8334 19.2306V26.8195C12.5356 26.9371 13.2557 26.9992 13.9906 27H14.009C14.7443 26.9992 15.4652 26.9371 16.1662 26.8195V19.2306L21.5324 24.5969C22.1243 24.1753 22.6795 23.7056 23.1921 23.1933L23.1933 23.1921C23.7052 22.6795 24.1753 22.1239 24.5965 21.5324L19.2302 16.1666H26.8195C26.9375 15.4648 26.9992 14.7447 27 14.0094V13.9906C26.9992 13.2553 26.9375 12.5352 26.8195 11.8334Z" fill="#100F0D"/>
</svg>
